<?xml version="1.0" ?><svg viewBox="0 0 512 512" xmlns="http://www.w3.org/2000/svg"><title/><g data-name="color scheme" id="color_scheme"><path d="M89.709,173.671c-.822-12.89-1.588-28.336,6.336-37.065,12.482-13.751,19.168-28.646-2.136-24.071,0,0-.863-7.828-9.915-6.485-4.52.671-10.244-.05-14.244,11.45s6,62.083,6,62.083H89.818Z" style="fill:#a6c427"/><path d="M57.319,183.135C45.7,167.308,34.768,159.609,22.185,155.807c-15.649-4.729-15.662-15.436-8.331-20.934,0,0-4.268-12.163,6.564-13.018,0,0,9.885-8.522,23.65,6.312S72.5,179.583,72.5,179.583L60,187.5Z" style="fill:#a6c427"/><path d="M67.564,93.538c-3.751,4.883-8.7,10.318-15.907,2.993C34,78.574,14.157,102.739,18.876,117.888c7.168,23.014,32.7,16.225,44.116,61.695l17.714-5.449c-5.77-26.555-5.671-48.556,1.745-62.951C88.784,98.89,75.387,83.356,67.564,93.538Z" style="fill:#b8db26"/><path d="M135.229,331.655c-2.885-37.822-1.476-88.949-9.025-118.065C117,178.1,97.8,169.432,74.286,175.407s-36.243,22.752-27.4,58.333C53.871,261.815,79.8,307.183,95.313,341.8c6.2,13.82,15.18,26.478,23.43,33.829a7.453,7.453,0,0,0,12.045-3.06C134.529,362.167,136.381,346.756,135.229,331.655Z" style="fill:#ff8f33"/><path d="M288.192,197.386c-1.846-19.379-10.46-43-26.96-45-29.549-3.582-26.558,39.683-59.488,57.534,0,0-66.487,36.617-20.153,94.565,16.137,20.183,64,24.334,90.666,9.938S288.192,197.386,288.192,197.386Z" style="fill:#ffcc29"/><path d="M400.333,133.833c-1.729-4.613-5.34-7.671-10.353-6.184-.535.159-1.065.3-1.586.438-4.79,1.229-6.432,5.5-5.727,10.08,2.806,18.249-1.958,29.037-11.695,39.666l25.541,3.968C406.853,169.461,403.97,143.531,400.333,133.833Z" style="fill:#adc15b"/><path d="M411.819,172.534c-3.469-.459-4.867-3.387-2.565-5.282,11.635-9.575,18.2-29.111,28.72-30.85,6.172-1.021-.261,11.615,4.341,13.916,2.479,1.239,12.048-2.337,23.62-2.137,4.284.074,12.741,2.184,7.9,5.7-5.508,4-15.854,6-15.1,8.163.491,1.414,6.52,3.337,8.921,4.632,2.729,1.472,2.686,7.138-5.972,7.712C445.528,175.462,421.976,173.876,411.819,172.534Z" style="fill:#adc15b"/><path d="M483.85,280.36c-77.3,52.933-149,54.107-214.7,0-22.19-23.87-19.73-118.94,76.11-94.58h.01l.02-.02c21.42-13.6,54.53-9.55,69.82,9.19,0,0,.01,0,0,.01a.031.031,0,0,1,.01.02h.01C499.8,181.09,499.26,257.52,483.85,280.36Z" style="fill:#ff6840"/></g><g data-name="filled outline" id="filled_outline"><path d="M139.716,331.313c-.941-12.332-1.413-25.841-1.912-40.143-1.009-28.849-2.051-58.679-7.244-78.71-4.662-17.978-12.222-30.517-22.471-37.269a35.935,35.935,0,0,0-14.112-5.459c-.6-10.545-.722-23.358,5.4-30.1C107.062,131.165,115.315,119.5,111,112c-2.924-5.076-9.439-5.176-14.06-4.581a11.729,11.729,0,0,0-4.085-4.7,10.513,10.513,0,0,0-4.524-1.592,19.639,19.639,0,0,0-8.3-13.383C74.437,84.2,68.143,85.4,64,90.8c-1.079,1.4-3.605,4.692-5.434,4.8-.9.045-2.231-.734-3.7-2.225-8.125-8.264-18.337-9.988-27.317-4.611C17.4,94.843,11.488,108.562,14.5,118.9a10.739,10.739,0,0,0-4.006,3.634c-2.327,3.573-2.149,7.919-1.647,10.792A14.249,14.249,0,0,0,4.813,145.7c.667,3.773,3.643,10.663,16.07,14.419,11.387,3.44,20.851,10.418,30.294,22.391a35.549,35.549,0,0,0-6.695,8.845c-4.005,7.5-5.547,16.824-4.63,27.837a4.379,4.379,0,0,0,.045.455,99.662,99.662,0,0,0,2.626,15.183c4.806,19.329,18.193,46.3,31.139,72.375,6.42,12.932,12.484,25.147,17.545,36.435,6.3,14.057,15.477,27.271,24.543,35.349a12.047,12.047,0,0,0,8.018,3.072,11.868,11.868,0,0,0,2.927-.366,12,12,0,0,0,8.327-7.6C139.133,362.664,140.888,346.672,139.716,331.313ZM86.451,113.244a19.288,19.288,0,0,0,1.246-3.087h0c1.031.336,1.643,2.265,1.747,2.948a4.5,4.5,0,0,0,5.409,3.831,21.841,21.841,0,0,1,7.223-.653,1.227,1.227,0,0,1,1.019,1.509c-.591,2.539-3.315,8-10.383,15.79-8.285,9.127-8.416,23.667-7.778,35.658-.21.009-.422.025-.633.037C79.446,144.763,80.169,125.438,86.451,113.244ZM32.172,96.487c5.407-3.237,11.036-2.131,16.276,3.2,3.415,3.473,6.994,5.123,10.662,4.9,5.921-.36,9.89-5.528,12.022-8.3,1.307-1.7,2.449-1.962,4.076-.929,2.557,1.622,4.825,5.823,4.317,10.2,0,.029-.007.058-.01.087a10.329,10.329,0,0,1-1.065,3.482c-7.278,14.129-8.3,34.78-3.076,61.41-.727.16-1.457.326-2.195.514a62.647,62.647,0,0,0-7.235,2.294c-7.318-24.468-19.061-33.133-28.614-40.181-6.518-4.809-11.665-8.607-14.158-16.609C21.156,110.077,25.445,100.514,32.172,96.487ZM23.487,151.5c-5.628-1.7-9.3-4.457-9.811-7.371-.342-1.934.734-4.048,2.878-5.656a4.532,4.532,0,0,0,1.554-5.068c-.548-1.619-.951-4.637-.071-5.971a1.571,1.571,0,0,1,.212-.221c3.637,5.719,8.581,9.384,13.737,13.188,8.852,6.531,18.8,13.88,25.261,35.285C46.922,162.94,36.334,155.382,23.487,151.5ZM126.553,371.042a2.954,2.954,0,0,1-4.816,1.224c-8.044-7.168-16.595-19.549-22.318-32.311C94.286,328.5,88.184,316.212,81.724,303.2c-12.732-25.647-25.9-52.168-30.467-70.545a100.763,100.763,0,0,1-2.073-10.583c4.757-1.447,13.205-3.283,18.506-4.3a4.5,4.5,0,0,0-1.7-8.838c-2.217.427-10.919,2.141-17.463,3.969.028-13.969,5.421-23.556,16.42-29.26h0A48.711,48.711,0,0,1,75.4,179.769a47.893,47.893,0,0,1,11.761-1.605c17.135,0,28.294,11.881,34.692,36.555a156.424,156.424,0,0,1,3.6,20.471c-4.761.811-12.83,2.305-20.866,4.338a4.5,4.5,0,1,0,2.208,8.725c7.352-1.861,14.895-3.276,19.577-4.085,1.3,14.7,1.881,31.165,2.445,47.316.481,13.764.979,28,1.933,40.513C131.806,345.943,130.2,360.905,126.553,371.042Z" style="fill:#513232"/><path d="M71.875,297.943a4.5,4.5,0,0,1-1.859-8.6A163.423,163.423,0,0,1,89.1,282.654a4.5,4.5,0,0,1,2.215,8.723,156.625,156.625,0,0,0-17.588,6.165A4.494,4.494,0,0,1,71.875,297.943Z" style="fill:#513232"/><path d="M115.877,330.7a4.5,4.5,0,0,1-1.222-8.832,109.669,109.669,0,0,1,16.4-3.213,4.5,4.5,0,1,1,.884,8.956,102.281,102.281,0,0,0-14.839,2.918A4.474,4.474,0,0,1,115.877,330.7Z" style="fill:#513232"/><path d="M322.973,284.861a4.5,4.5,0,0,1-4.337-3.31c-4.047-14.744-4.241-31.291-.562-47.852a4.5,4.5,0,0,1,8.786,1.952c-3.362,15.135-3.205,30.183.454,43.518a4.5,4.5,0,0,1-4.341,5.692Z" style="fill:#513232"/><path d="M486.747,213.718c-9.092-14.184-28.582-29.6-69.837-23.557a49.058,49.058,0,0,0-13.733-10.308,36.091,36.091,0,0,0,2.38-5.655,9.283,9.283,0,0,0,5.672,2.8h0a338.464,338.464,0,0,0,38.443,2.242c4.365,0,8.559-.108,12.307-.357,9.323-.618,11.229-6.1,11.591-7.762a7.7,7.7,0,0,0-3.779-8.4c-.52-.28-1.122-.562-1.774-.848a40.744,40.744,0,0,0,8.464-4.346c3.95-2.87,3.439-6.151,3.036-7.429-1.937-6.142-13.033-6.405-13.5-6.413a87.837,87.837,0,0,0-16.914,1.671c-1.365.236-2.948.51-4.088.646-.006-.9.092-2.092.159-2.917.272-3.329.581-7.1-2.1-9.575a6.629,6.629,0,0,0-5.825-1.545c-7.952,1.315-13.291,9.083-18.944,17.308-3.248,4.725-6.6,9.586-10.405,13.178,1.077-11.711-.942-23.783-3.345-30.194-2.792-7.445-9.014-10.945-15.846-8.919q-.721.215-1.426.394c-6.651,1.708-10.206,7.643-9.056,15.123,2.545,16.55-1.619,25.727-9.348,34.573a58.626,58.626,0,0,0-24.331,7.558c-51.253-12.439-73.237,9.7-81.8,24.132-15.287,25.773-10.879,63.26,3.114,78.31a4.5,4.5,0,1,0,6.591-6.128c-10.221-10.994-16.218-43.56-1.964-67.591,11.792-19.881,34.017-27.253,64.574-21.571A46.313,46.313,0,0,0,321.9,213.328a4.5,4.5,0,0,0,8.852,1.625,37.223,37.223,0,0,1,16.916-25.374l.063-.041A49.4,49.4,0,0,1,371,182.32c.117,0,.233-.008.35-.018a55.783,55.783,0,0,1,23.581,3.709c.028.01.056.025.085.035a40.843,40.843,0,0,1,16.467,11.583c.074.1.152.2.233.291,4.735,5.862,7.677,14.418,8.289,24.111,1.422,22.51-2.183,42.939-9.888,56.049a4.5,4.5,0,1,0,7.758,4.561c8.594-14.62,12.644-36.918,11.112-61.177a56.4,56.4,0,0,0-6.182-22.99c26.62-2.9,46.028,3.982,56.361,20.1,12.356,19.275,8.879,47.511.947,59.269a4.5,4.5,0,1,0,7.461,5.033C496.7,269.363,501.645,236.958,486.747,213.718Zm-61.033-59.352c3.491-5.078,7.077-10.3,10.525-12.5-.013.168-.027.33-.039.481-.311,3.8-.781,9.553,4.1,11.994,2.475,1.239,5.432.726,10.332-.123a78.738,78.738,0,0,1,15.222-1.539c.239,0,.481.016.726.033-1.183.516-2.406,1-3.566,1.463a46.513,46.513,0,0,0-4.955,2.171c-4.732,2.6-3.937,6.148-3.58,7.176.99,2.848,4.017,4.112,8.206,5.861l.591.247a11.339,11.339,0,0,1-1.895.269c-14.241.944-35.19-.23-46.646-1.542C418.926,164.243,422.367,159.236,425.714,154.366Zm-30.893,22.007a63.935,63.935,0,0,0-14.585-2.971c7.1-10.508,9.1-21.483,6.878-35.919-.433-2.823.373-4.518,2.4-5.037.574-.148,1.158-.308,1.748-.483.8-.233,3.21-.951,4.86,3.45C399.362,144.059,401.392,165.093,394.821,176.373Z" style="fill:#513232"/><path d="M196.578,217.715a4.5,4.5,0,0,1-2.158-8.452c18.194-9.915,26.441-24.228,33.717-36.857,7.912-13.733,15.386-26.7,33.637-24.492,13.764,1.668,24.787,16.4,29.487,39.407a4.5,4.5,0,1,1-8.817,1.8c-3-14.692-10.293-30.886-21.753-32.275-11.814-1.431-16.372,5.5-24.756,20.051-7.479,12.982-16.789,29.139-37.208,40.266A4.478,4.478,0,0,1,196.578,217.715Z" style="fill:#513232"/><path d="M261.228,156.881a4.5,4.5,0,0,1-3.834-6.849c.051-.085,5.895-9.976.627-16.359a4.5,4.5,0,1,1,6.94-5.729c9.369,11.35.492,26.161.11,26.786A4.5,4.5,0,0,1,261.228,156.881Z" style="fill:#513232"/><path d="M238.029,245.181c4.014,29.6-13.838,58.769-49.66,62.411-29.719,3.021-60.047-21.417-64.062-51.018s11-49.93,48.521-55.5C219.96,194.068,234.015,215.581,238.029,245.181Z" style="fill:#87c460"/><path d="M183.436,312.34c-13.683,0-27.83-5.142-39.547-14.509-13.206-10.557-21.969-25.374-24.04-40.652-4.526-33.368,14.055-54.876,52.318-60.56,22.458-3.336,39.076-.676,50.806,8.136,10.722,8.054,16.923,20.708,19.515,39.822,2.253,16.615-2.05,33.247-11.808,45.631-9.866,12.521-24.339,20.08-41.856,21.861A53.654,53.654,0,0,1,183.436,312.34Zm6.111-108.116a109.838,109.838,0,0,0-16.058,1.3C139.95,210.5,124.9,227.477,128.767,255.97c3.512,25.9,28.827,47.374,54.557,47.376a45.2,45.2,0,0,0,4.59-.231c15.033-1.529,27.377-7.918,35.7-18.477,8.257-10.479,11.887-24.639,9.96-38.852h0c-2.248-16.571-7.332-27.323-16-33.835C210.691,206.785,201.448,204.224,189.547,204.224Z" style="fill:#513232"/><path d="M159.894,205.1c-3.047-11.584-22.125-17.855-27.886-10.237-7.4,9.779,12.124,22.738,25.9,14.926A4.2,4.2,0,0,0,159.894,205.1Z" style="fill:#32a56b"/><path d="M163.622,202.043c-3.389-8.688-12.956-13.758-20.413-14.792-6.376-.885-11.766.9-14.791,4.9-3.629,4.8-3.311,10.92.831,15.972,4.037,4.925,11.531,8.558,19.357,8.558a23.364,23.364,0,0,0,10.209-2.287A9.809,9.809,0,0,0,163.622,202.043Zm-8.722,4.248c-6.549,3.165-15.108.5-18.691-3.873-2.221-2.709-1.052-4.255-.612-4.837.757-1,2.406-1.55,4.5-1.55a13.671,13.671,0,0,1,1.877.135c4.969.688,11.307,4.129,13.264,9.147A.786.786,0,0,1,154.9,206.291Z" style="fill:#513232"/><path d="M184.626,209.57a4.505,4.505,0,0,0-4.778,4.2,3.324,3.324,0,0,1-1.454,2.292c-2.222-5.8-5.347-16.943.957-21.964a4.5,4.5,0,0,0-5.608-7.04c-10.246,8.162-7.239,22.494-4.352,30.671a6.655,6.655,0,0,1-3.589-2.063,4.5,4.5,0,0,0-6.891,5.789c3.894,4.635,9.888,6.034,15.261,5.467a21.059,21.059,0,0,0,4.354-.925c6.022-1.978,9.97-6.444,10.3-11.653A4.5,4.5,0,0,0,184.626,209.57Z" style="fill:#513232"/><path d="M483.528,280.36H53.358c-12.909,0-20.855,9.051-19.125,19.222L50.539,407.161C51.97,415.567,61,421.838,71.664,421.838H465.223c10.668,0,19.694-6.271,21.124-14.677l16.306-107.579C504.384,289.411,496.437,280.36,483.528,280.36Z" style="fill:#774f47"/><circle cx="481.638" cy="298.605" r="5.092" style="fill:#513232"/><circle cx="466.525" cy="400.441" r="5.092" style="fill:#513232"/><circle cx="55.248" cy="298.605" r="5.092" style="fill:#513232"/><circle cx="70.361" cy="400.441" r="5.092" style="fill:#513232"/><path d="M502.694,284.005c-4.434-5.252-11.24-8.145-19.166-8.145H53.358c-7.925,0-14.733,2.893-19.167,8.145a19.73,19.73,0,0,0-4.407,16.252L46.1,407.916c1.816,10.674,12.566,18.422,25.561,18.422H465.223c12.994,0,23.744-7.748,25.573-18.5l16.293-107.5A19.773,19.773,0,0,0,502.694,284.005ZM41.069,289.811c2.7-3.192,7.059-4.951,12.289-4.951h430.17c5.23,0,9.594,1.759,12.289,4.951a10.962,10.962,0,0,1,2.387,9.1L491.355,344.1H45.531l-6.862-45.269A10.91,10.91,0,0,1,41.069,289.811Zm440.842,116.6c-1.061,6.232-8.235,10.932-16.688,10.932H71.664c-8.454,0-15.628-4.7-16.676-10.851L46.9,353.1h443.1Z" style="fill:#513232"/></g></svg>