<?xml version="1.0" ?><!DOCTYPE svg  PUBLIC '-//W3C//DTD SVG 1.1//EN'  'http://www.w3.org/Graphics/SVG/1.1/DTD/svg11.dtd'><svg enable-background="new 0 0 512 512" height="512px" version="1.1" viewBox="0 0 512 512" width="512px" xml:space="preserve" xmlns="http://www.w3.org/2000/svg" xmlns:xlink="http://www.w3.org/1999/xlink"><g id="Colors"><g><g><path d="M92,57v46.028c0,0,2.14,21.473-20.567,32.758C52.481,145.207,16,160.7,16,210.387v257.534     c0,0-1.042,28.079,34.181,28.079h153.162C238.565,496,237,467.921,237,467.921V210.387c0-49.688-36.48-65.181-55.431-74.601     C158.861,124.5,161,103.028,161,103.028V57" fill="#F0F3F7"/></g></g><g><g><path d="M111,57H94.335C88.649,57,84,52.523,84,47V23c0-5.523,4.649-10,10.335-10h63.83     c5.687,0,9.835,4.477,9.835,10v24c0,5.523-4.364,10-10.051,10H138" fill="#DADEE8"/></g></g><g><g><path d="M237,226.87c0,0-59.312-16.159-110.853-0.125C74.605,242.78,24,230.613,16,227.05V462     c0,0-4.541,35,36.125,35s151.338,0,151.338,0S237,498.5,237,462S237,226.87,237,226.87z" fill="#F5F6F7"/></g></g><g><g><path d="M237,222c0,0,10.574-60.513-54.242-85.506c0,0-22.758-6.994-22.758-38.994s0-40.5,0-40.5h-17v44     c0,0-1.341,39,22.681,57.333c19.333,14.754,29.148,35.772,32.358,61.832c13.318,2.49,26.961,2.907,38.961,7.639     C237,224.063,237,222,237,222z" fill="#D3DCE5"/></g></g><g><g><path d="M197.797,220.165C198.575,226.487,199,233.102,199,240c0,35.333,0,211,0,211s1.889,45-25.908,45h37.577     c0,0,26.331,0.5,26.331-38.5c0-35.006,0-196.906,0-229.696C225,223.072,211.115,222.655,197.797,220.165z" fill="#DCE3EA"/></g></g><g><g><rect fill="#BEC5D3" height="45" width="27" x="138" y="12"/></g></g><g opacity="0.7"><g><rect fill="#FFFFFF" height="13" width="78" x="87" y="13"/></g></g><g><g><g><path d="M70.831,250.747c-30.308,0-53.245-6.336-57.952-8.414l6.813-14.567      c5.522,2.438,53.708,14.977,104.306-0.765c53.272-16.572,113.126-0.77,115.648-0.089l-4.406,15.417      c-0.57-0.153-57.718-15.177-106.218-0.09C108.561,248.604,88.449,250.747,70.831,250.747z" fill="#FFFFFF"/></g></g></g><g opacity="0.7"><g><rect fill="#FFFFFF" height="46" width="20" x="95" y="12"/></g></g><g><g><rect fill="#BEC5D3" height="13" width="78" x="87" y="45"/></g></g><g><g><rect fill="#ACB8EF" height="57" width="131" x="63" y="294"/></g></g><g opacity="0.7"><g><path d="M106,57v52c0,0-0.262,33.667-26.687,54C52.89,183.333,54,207,54,261s0,185,0,185s-1.875,49,16.141,49     h37.577c0,0-2.718-18-2.718-40.5s0-234.5,0-234.5s-1.18-43.5,8.601-69.5c0,0,7.399-22.5,7.399-43.667S121,57,121,57H106z" fill="#FFFFFF"/></g></g><g><g><path d="M32.74,495h183.336l12.78-13H52.136c0,0-35.021,2.75-35.56-41.75C16.577,440.25,2.838,483,32.74,495z" fill="#DCE3EA"/></g></g><g id="XMLID_38_"><g><g><path d="M272,431.5v-95.45c8.18,3.56,59.44,15.6,111.64-0.43c52.21-16.03,112.36,0,112.36,0v95.88      c0,0-15.5,24.5-112,24.5S272,431.5,272,431.5z" fill="#F5F6F7"/></g></g><g><g><path d="M496,431.5V486c0,5.52-4.48,10-10,10H282c-5.52,0-10-4.48-10-10v-54.5c0,0,15.5,24.5,112,24.5      S496,431.5,496,431.5z" fill="#DCE3EA"/></g></g><g><g><path d="M383.64,335.62c-52.199,16.03-103.46,3.99-111.64,0.43V282c0-5.52,4.48-10,10-10h204      c5.52,0,10,4.48,10,10v53.62C496,335.62,435.85,319.59,383.64,335.62z" fill="#F0F3F7"/></g></g></g><g><g><path d="M496,339.638V282l-4.996-10H447v57.927C464.154,329.339,480.488,332.816,496,339.638z" fill="#D3DCE5"/></g></g><g><g><path d="M496,339.638c-15.512-6.822-31.846-10.299-49-9.71v122.334c17.335-3.363,34.936-9.147,49-19.464V339.638z     " fill="#DCE3EA"/></g></g><g><g><path d="M447,452.261V495h44l5-9v-53.203C481.936,443.114,464.335,448.898,447,452.261z" fill="#C0CDD8"/></g></g><g><g><g><path d="M327.103,356.761c-30.324,0-53.246-6.262-57.952-8.317l5.813-12.788      c5.638,2.462,54.796,15.149,106.302-0.714c53.448-16.461,113.548-0.752,116.079-0.075l-3.753,13.508      c-0.581-0.155-58.662-15.284-108.047-0.076C364.982,354.631,344.782,356.761,327.103,356.761z" fill="#FFFFFF"/></g></g></g><g><g><path d="M271.375,432c0,0,23.793,35.625,112.959,35.625S493.5,435,493.5,435s-92.076,43.25-220.75-3.5" fill="#C0CDD8"/></g></g><g><g><path d="M447,414.062c0,0,0.333,29.719-55.667,29.719c-44.666,0-90-3.114-119.333-26.448V429     c0,0,17.666,30.333,112,30.333S498.039,432,498.039,432S474.666,402.792,447,414.062z" fill="#DCE3EA"/></g></g><g><g><polygon fill="#C0CDD8" points="270.629,481 498.039,481 492.264,496 276.473,496    "/></g></g><g opacity="0.7"><g><polygon fill="#FFFFFF" points="498.04,286 270.63,286 276.405,272 492.196,272    "/></g></g><g opacity="0.7"><g opacity="0.5"><g><path d="M429.836,429.042c-4.57,10.526-16.807,15.349-27.33,10.777l-65.739-28.556      c-10.521-4.573-15.348-16.808-10.776-27.331l26.074-60.021c4.57-10.525,16.807-15.35,27.332-10.777l65.736,28.556      c10.523,4.572,15.35,16.809,10.777,27.332L429.836,429.042z" fill="#DADEE8"/></g></g><g opacity="0.5"><g><path d="M404.607,377.085c-10.191,9.782-24.507,9.128-40.908-1.017c-17.412-10.769-16.869-27.762-4.902-42.154      c9.031-10.862,26.002-11.576,38.457-2.143C409.707,341.203,418.93,363.337,404.607,377.085z" fill="#FFFFFF"/></g></g><g><g><ellipse cx="378.125" cy="347.035" fill="#FFFFFF" rx="8.095" ry="6.925" transform="matrix(0.8517 0.524 -0.524 0.8517 237.9151 -146.6786)"/></g></g><g opacity="0.3"><g><path d="M347.346,411.544c0,0-16.329-6.752-5.621-32.271c0,0,9.979-24.641,16.696-36.732      s15.144-16.157,26.591-12.551c11.446,3.606,48.603,19.396,57.319,26.39c8.717,6.993,12.021,9.525,10.36,15.595      c0,0,15.906-21.423-13.973-35.626c-29.877-14.202-60.553-23.698-60.553-23.698s-18.793-5.562-28.088,15.836      c-9.297,21.398-21.527,49.552-21.527,49.552S315.172,405.031,347.346,411.544z" fill="#FFFFFF"/></g></g><g><g><path d="M440.637,339.737c0,0,9.891,9.983,2.825,25.045c-7.067,15.062-20.629,42.144-20.629,42.144      s-4.959,17.605-23.462,9.133c-22.652-10.371-51.199-21.815-51.199-21.815s-23.128-8.13-16.4-23.616      c0,0-19.351,27.807,8.7,41.237c28.052,13.431,66.624,27.88,66.624,27.88s17.146,6.037,23.817-13.667      c6.672-19.706,23.388-54.388,23.388-54.388S463.137,347.775,440.637,339.737z" fill="#DADEE8"/></g></g><g><g><path d="M410.774,446.545c-3.54,0-6.992-0.72-10.261-2.14l-65.739-28.556      c-13.034-5.666-19.031-20.877-13.37-33.909l26.074-60.021c4.092-9.422,13.374-15.511,23.648-15.511      c3.54,0,6.993,0.72,10.262,2.14l65.736,28.556c6.314,2.744,11.184,7.782,13.709,14.186c2.525,6.405,2.405,13.41-0.338,19.725      l-26.074,60.019C430.331,440.457,421.049,446.545,410.774,446.545z M371.127,316.409c-6.289,0-11.972,3.727-14.477,9.495      l-26.074,60.021c-3.465,7.976,0.207,17.286,8.184,20.753l65.738,28.555c2.004,0.871,4.115,1.312,6.276,1.312      c6.289,0,11.971-3.727,14.476-9.494l26.074-60.021c1.679-3.865,1.753-8.151,0.207-12.071s-4.526-7.003-8.391-8.683      l-65.736-28.556C375.4,316.85,373.288,316.409,371.127,316.409z" fill="#3F456B"/></g></g></g><g opacity="0.7"><g><rect fill="#FFFFFF" height="227" width="78" x="304" y="269"/></g></g><g opacity="0.5"><g><ellipse cx="73.085" cy="167.232" fill="#FFFFFF" rx="42.791" ry="29.906" transform="matrix(0.9382 -0.3462 0.3462 0.9382 -53.3759 35.6431)"/></g></g><g><g><ellipse cx="76.433" cy="159.464" fill="#FFFFFF" rx="7.659" ry="7.398" transform="matrix(0.9998 -0.02 0.02 0.9998 -3.1818 1.5645)"/></g></g></g><g id="Lines"><g opacity="0.7"><g><path d="M74.45,235.215c-0.12-2.76,2.03-5.215,4.78-5.215h0.01c2.75-1,5.08,2.025,5.2,4.785l0,0     c0.12,2.76-2.02,4.215-4.78,5.215l0,0c-0.07,0-0.15,0-0.22,0l0,0C76.78,240,74.57,237.895,74.45,235.215z M59.19,239L59.19,239     L59.19,239c-2.76,0-4.87-2.275-4.73-5.025l0,0c0.14-2.76,2.49-4.767,5.25-4.627l0,0c2.76,0.14,4.88,2.331,4.73,5.081l0,0     c-0.13,2.67-2.34,4.571-4.98,4.571l0,0C59.37,239,59.28,239,59.19,239z M94.41,233.43c-0.4-2.74,1.5-5.27,4.23-5.66l0,0     c2.73-0.4,5.27,1.49,5.66,4.23l0,0c0.4,2.73-1.5,5.27-4.23,5.66l0,0l0,0l0,0c-0.24,0.04-0.48,0.05-0.72,0.05l0,0     C96.9,237.71,94.77,235.92,94.41,233.43z M38.82,237.43c-2.73-0.41-4.62-2.95-4.22-5.68l0,0c0.41-2.73,2.95-4.62,5.68-4.22l0,0     c2.74,0.41,4.62,2.95,4.22,5.68l0,0c-0.37,2.49-2.51,4.27-4.94,4.27l0,0C39.31,237.48,39.07,237.46,38.82,237.43z M114.11,230.04     c-0.69-2.68,0.91-5.41,3.58-6.1l0,0c2.68-0.7,5.41,0.9,6.1,3.58l0,0c0.7,2.67-0.91,5.4-3.58,6.1l0,0     c-0.42,0.11-0.84,0.16-1.26,0.16l0,0C116.73,233.78,114.7,232.29,114.11,230.04z M18.55,233.14c-2.65-0.8-4.15-3.37-3.35-6.01     l0,0c0.8-2.65,3.59-4.13,6.24-3.13h-0.01c2.65,0,4.14,3.37,3.35,6.01l0,0c-0.66,2.17-2.64,3.45-4.79,3.45l0,0     C19.51,233.459,19.03,233.28,18.55,233.14z M236.14,231.45L236.14,231.45L236.14,231.45c-2.67-0.72-4.25-3.47-3.53-6.13l0,0     c0.721-2.67,3.471-4.25,6.131-3.53l0,0c2.67,0.72,4.25,3.47,3.529,6.13l0,0c-0.609,2.23-2.62,3.7-4.83,3.7l0,0     C237.01,231.62,236.569,231.57,236.14,231.45z M133.36,224.6c-0.59-2.7,1.12-5.37,3.81-5.96l0,0c2.7-0.59,5.37,1.12,5.96,3.81     l0,0c0.59,2.7-1.11,5.37-3.81,5.96l0,0c-0.36,0.08-0.72,0.12-1.08,0.12l0,0C135.95,228.53,133.88,226.93,133.36,224.6z      M217.04,227.62L217.04,227.62L217.04,227.62c-2.73-0.43-4.59-2.99-4.16-5.71l0,0c0.43-2.73,2.979-4.6,5.71-4.17l0,0     c2.729,0.43,4.59,2.99,4.16,5.72l0,0c-0.38,2.46-2.51,4.22-4.931,4.22l0,0C217.56,227.68,217.3,227.66,217.04,227.62z      M153.02,220.93c-0.27-2.74,1.74-5.19,4.49-5.46l0,0c2.75-0.27,5.19,1.74,5.46,4.49l0,0c0.27,2.75-1.74,5.19-4.49,5.46l0,0l0,0     l0,0c-0.16,0.02-0.33,0.03-0.49,0.03l0,0C155.45,225.45,153.27,223.52,153.02,220.93z M197.55,225.3     c-2.76-0.23-4.81-2.64-4.58-5.39l0,0c0.22-2.75,2.63-4.8,5.38-4.58l0,0c2.76,0.22,4.81,2.64,4.58,5.39l0,0     c-0.21,2.61-2.39,4.59-4.97,4.59l0,0C197.82,225.31,197.68,225.31,197.55,225.3z M172.97,219.5c-0.01-2.76,2.23-5,4.99-5.01l0,0     c2.76,0,5,2.24,5.01,5l0,0c0,2.76-2.24,5-5,5l0,0C175.21,224.5,172.97,222.26,172.97,219.5z" fill="#3F456B"/></g></g><g opacity="0.7"><g><path d="M328.03,343.79c-0.101-2.76,2.06-5.08,4.819-5.17l0,0c2.76-0.1,5.08,2.06,5.17,4.82l0,0     c0.101,2.76-2.06,5.07-4.819,5.17l0,0l0,0l0,0c-0.051,0-0.11,0.01-0.17,0.01l0,0C330.35,348.62,328.13,346.49,328.03,343.79z      M312.729,348.35c-2.75-0.17-4.85-2.54-4.689-5.29l0,0c0.17-2.76,2.54-4.86,5.3-4.69l0,0c2.75,0.16,4.85,2.53,4.68,5.29l0,0     c-0.149,2.65-2.359,4.7-4.979,4.7l0,0C312.939,348.36,312.83,348.35,312.729,348.35z M347.99,342.59     c-0.37-2.74,1.529-5.26,4.27-5.64l0,0c2.73-0.38,5.26,1.53,5.64,4.26l0,0c0.381,2.74-1.529,5.26-4.27,5.64l0,0     c-0.23,0.03-0.46,0.05-0.69,0.05l0,0C350.479,346.9,348.34,345.09,347.99,342.59z M292.359,346.13c-2.72-0.44-4.579-3-4.14-5.73     l0,0c0.43-2.73,3-4.58,5.73-4.15l0,0c2.72,0.44,4.58,3,4.14,5.73l0,0c-0.39,2.46-2.521,4.21-4.93,4.21l0,0     C292.899,346.19,292.63,346.17,292.359,346.13z M367.72,339.3c-0.68-2.67,0.93-5.4,3.61-6.08l0,0c2.67-0.69,5.39,0.93,6.08,3.6     l0,0c0.68,2.68-0.931,5.4-3.61,6.09l0,0c-0.41,0.1-0.83,0.15-1.24,0.15l0,0C370.33,343.06,368.3,341.56,367.72,339.3z      M272.02,341.42L272.02,341.42L272.02,341.42c-2.6-0.91-3.979-3.765-3.06-6.365l0,0c0.92-2.609,3.77-4.055,6.37-3.055h0.01     c2.6,1,3.97,3.755,3.05,6.365l0,0c-0.72,2.06-2.649,3.347-4.71,3.347l0,0C273.13,341.712,272.569,341.61,272.02,341.42z      M489.689,340.44c-2.67-0.72-4.239-3.47-3.51-6.14l0,0c0.73-2.66,3.47-4.23,6.14-3.5l0,0c2.66,0.72,4.24,3.47,3.511,6.14l0,0     c-0.61,2.22-2.63,3.68-4.82,3.68l0,0C490.569,340.62,490.13,340.56,489.689,340.44z M386.97,333.85     c-0.62-2.69,1.07-5.38,3.76-5.99l0,0c2.69-0.62,5.37,1.07,5.99,3.76l0,0c0.61,2.69-1.07,5.37-3.76,5.99l0,0     c-0.38,0.08-0.75,0.13-1.12,0.13l0,0C389.56,337.74,387.5,336.17,386.97,333.85z M470.6,336.59L470.6,336.59L470.6,336.59     c-2.72-0.43-4.59-2.99-4.16-5.72l0,0c0.44-2.73,3-4.59,5.721-4.16l0,0c2.729,0.43,4.59,3,4.159,5.72l0,0     c-0.39,2.47-2.51,4.22-4.93,4.22l0,0C471.13,336.65,470.87,336.63,470.6,336.59z M406.6,330.04c-0.29-2.75,1.71-5.21,4.46-5.49     l0,0c2.74-0.28,5.2,1.72,5.49,4.46l0,0c0.28,2.75-1.72,5.2-4.47,5.49l0,0c-0.17,0.01-0.34,0.02-0.521,0.02l0,0     C409.03,334.52,406.859,332.61,406.6,330.04z M451.12,334.27c-2.75-0.22-4.811-2.64-4.58-5.39l0,0c0.22-2.75,2.63-4.8,5.38-4.58     l0,0c2.75,0.22,4.81,2.63,4.58,5.38l0,0c-0.21,2.62-2.4,4.6-4.97,4.6l0,0C451.39,334.28,451.26,334.28,451.12,334.27z      M426.53,328.265c0-2.76,2.229-4.887,4.989-4.897l0,0c2.761,0,5.011,2.046,5.011,4.807l0,0c0.01,2.76-2.221,4.826-4.98,4.826l0,0     c0,0-0.01,0-0.02,0l0,0C428.78,333,426.54,331.025,426.53,328.265z" fill="#3F456B"/></g></g><g><g><path d="M203.343,501H50.181c-13.184,0-23.377-3.642-30.298-10.824c-8.854-9.189-8.911-20.881-8.883-22.312     V210.387c0-50.5,36.096-68.219,55.488-77.738c0.94-0.462,1.849-0.908,2.72-1.341c19.39-9.637,17.835-27.604,17.817-27.785     c-0.016-0.165-0.024-0.33-0.024-0.496V57c0-2.761,2.239-5,5-5s5,2.239,5,5v45.828c0.212,2.97,0.958,25.359-23.341,37.436     c-0.885,0.44-1.809,0.893-2.765,1.362C51.025,151.379,21,166.118,21,210.387v257.534c0,0.062-0.001,0.124-0.003,0.186     c-0.001,0.056-0.139,8.75,6.177,15.223c4.966,5.09,12.707,7.67,23.007,7.67h153.162c10.338,0,18.038-2.598,22.882-7.72     c6.084-6.433,5.787-14.996,5.782-15.08c-0.005-0.093-0.008-0.186-0.008-0.278V210.387c0-44.269-30.024-59.008-49.892-68.761     c-0.956-0.469-1.879-0.922-2.765-1.362c-24.298-12.076-23.556-34.463-23.343-37.436V57c0-2.761,2.239-5,5-5s5,2.239,5,5v46.028     c0,0.166-0.008,0.331-0.024,0.496c-0.062,0.712-1.357,18.254,17.818,27.785c0.872,0.433,1.78,0.879,2.721,1.341     C205.906,142.168,242,159.887,242,210.387v257.437c0.056,1.644,0.116,13.208-8.51,22.328C226.683,497.35,216.539,501,203.343,501     z" fill="#3F456B"/></g></g><g><g><path d="M157.949,62H138c-2.761,0-5-2.239-5-5s2.239-5,5-5h19.949c2.879,0,5.051-2.149,5.051-5V23     c0-2.897-2.034-5-4.835-5h-63.83C91.393,18,89,20.243,89,23v24c0,2.757,2.393,5,5.335,5H111c2.761,0,5,2.239,5,5s-2.239,5-5,5     H94.335C85.879,62,79,55.271,79,47V23c0-8.271,6.879-15,15.335-15h63.83C166.483,8,173,14.589,173,23v24     C173,55.411,166.389,62,157.949,62z" fill="#3F456B"/></g></g><g><g><path d="M202.696,341.144c-0.117,0-0.235-0.004-0.354-0.012c-12.074-0.846-21.99-3.945-29.875-8.302     c-3.973,3.029-8.553,5.364-13.542,6.804c-12.165,3.51-24.512,0.764-33.032-7.343c-13.778-13.11-28.469-6.086-45.481,2.046     l-1.77,0.845c-11.125,5.301-19.229,3.811-24.069,1.627c-5.413-2.443-8.057-6.295-8.34-6.727c-1.518-2.307-0.877-5.407,1.43-6.925     c2.288-1.506,5.357-0.888,6.888,1.374c0.631,0.888,6.279,8.062,19.79,1.623l1.759-0.84c17.773-8.497,37.918-18.125,56.687-0.269     c6.007,5.716,14.523,7.531,23.367,4.98c2.665-0.769,5.172-1.872,7.471-3.255c-10.409-8.776-15.276-19.922-15.227-28.768     c0.062-11.194,7.216-18.846,18.226-19.494c8.58-0.506,14.869,1.867,18.699,7.047c6.882,9.311,2.242,23.64,1.305,26.26     c-1.293,4.953-3.587,9.544-6.667,13.556c6.264,3.005,13.938,5.143,23.083,5.784c2.754,0.193,4.831,2.583,4.638,5.337     C207.494,339.128,205.298,341.144,202.696,341.144z M168.833,288.442c-0.521,0-1.062,0.017-1.624,0.049     c-7.625,0.449-8.795,6.187-8.813,9.567c-0.037,6.602,4.168,15.231,12.979,22.051c2.647-3.207,4.592-6.947,5.622-11.005     c0.044-0.175,0.098-0.347,0.161-0.516c1.097-2.986,3.482-12.561,0.112-17.099C175.766,289.464,172.932,288.442,168.833,288.442z" fill="#3F456B"/></g></g><g><g><path d="M486,501H282c-8.271,0-15-6.729-15-15V282c0-8.271,6.729-15,15-15h204c8.271,0,15,6.729,15,15v204     C501,494.271,494.271,501,486,501z M282,277c-2.757,0-5,2.243-5,5v204c0,2.757,2.243,5,5,5h204c2.757,0,5-2.243,5-5V282     c0-2.757-2.243-5-5-5H282z" fill="#3F456B"/></g></g><g><g><path d="M384,461c-96.468,0-114.488-24.081-116.226-26.827l8.451-5.347l-0.079-0.12     C276.306,428.93,293.167,451,384,451s107.694-22.07,107.854-22.293l-0.079,0.12l8.451,5.347C498.488,436.919,480.468,461,384,461     z" fill="#3F456B"/></g></g></g></svg>