<?xml version="1.0" ?><svg data-name="Layer 41" id="Layer_41" viewBox="0 0 566.93 566.93" xmlns="http://www.w3.org/2000/svg"><defs><style>.cls-1{fill:#ffdcc0;}.cls-2{fill:#e2a98d;}.cls-3{fill:#5e4763;}.cls-4{fill:#fff;}.cls-5{fill:#3f0f33;}</style></defs><title/><path class="cls-1" d="M162.26,74.65s-25.76,1.45-33.32,7.86c0,0-22.87-7.64-31.59,21.23l-.35-2s-10.65,7.13-26.11,22.81,12.36,41,20.27,44.9S96.65,188,96.65,188s7.45-4.06,13.29-14l-.34-1.87c1,1.57,2,3,2.89,4.47a76.64,76.64,0,0,0,9.43,17.09c.69,1.6,1.35,3.19,2,4.75a13.75,13.75,0,0,0,2.38,7.31c.84,3.43,1,6.43.15,8.61h0c-6.79,15.7-23.69,61.45-9,99.26,16.92,43.6,34.52,53.2,33.58,98.35s-1.6,58.36-1.6,58.36-13,.54-18.29,13.15a6.38,6.38,0,0,0,5.72,8.85h30.71a6.31,6.31,0,0,0,6.14-7c-1-10.69-2.24-31.06.73-42.2,4.14-15.59,16.72-51.35,11.47-79.77l-.76-2.05a94.72,94.72,0,0,0,17.3,4.61c2.36,1.07,4.64,2,6.8,2.83,1.5,1.87,3,3.7,4.65,5.45a90.57,90.57,0,0,1,23.08,52.06c2.3,22.23,5.09,43.35,2.38,47.62,0,0-11.52.22-17.12,8.31-2.93,4.23,0,10.13,5,10.13h32.67A6.33,6.33,0,0,0,266,485c-2.31-17.22-6.74-61.23,3.23-90.82a36.19,36.19,0,0,0-.05-23.57c-.1-.27-.2-.56-.29-.85l6.8-.22a92.64,92.64,0,0,0,10.47-.43c.56,0,1-.07,1.2-.1a1,1,0,0,1,.58.21l-.58-.21c10.28,24.4,23.39,37.12,33.44,43.7a28.55,28.55,0,0,0,4.85,2.85,37.58,37.58,0,0,0,10.59,4s22.47,44.76,0,51.29c-9.3,2.7-14.9,6.83-18.28,10.75-3.56,4.14-.75,10.7,4.6,10.7h33.55a6.25,6.25,0,0,0,6.1-5.44l8.18-55.14a30.6,30.6,0,0,0-5.2-22.09l-7-11.22.44-.42c16,19.16,31.7,21.57,31.7,21.57s22.47,44.76,0,51.29c-9.29,2.7-14.9,6.83-18.27,10.75-3.57,4.14-.75,10.7,4.6,10.7H410.2a6.26,6.26,0,0,0,6.11-5.44l8.17-55.14a30.59,30.59,0,0,0-5.19-22.09L408.1,393.76s12.39-54.9,5.24-99c0,0,1,6.58,19.44,69,18.54,62.62,84.48,22.71,63.93,18.76s-35.77-56.84-53.28-96.32-54.49-38.37-54.49-38.37v0a42.48,42.48,0,0,0-17.76-6.8C321.8,233.61,283.7,232.63,260,228c-30-8.41-36.16-24.62-35.86-36.31a54.38,54.38,0,0,1-.09-6.42,27.14,27.14,0,0,0,3.85,2.77s-2.4-14.61,5.5-18.53,35.73-29.22,20.27-44.9-26.11-22.81-26.11-22.81l-.36,2c-8.71-28.87-31.59-21.23-31.59-21.23-3.94-3.35-12.86-5.34-20.47-6.48a18.58,18.58,0,0,0-4-.54h0c-5.09-.62-8.89-.84-8.89-.84"/><path class="cls-2" d="M219.55,181.66s-6.65,13.06-9,16-4,20.7-16.4,22.92c0,0-6,14-31.87,13.55s-28.81-11.34-28.81-11.34l-7.83-6.65,1.21-7.46,14.81,5.21,20.62-5.21s17,6.14,22.06,5.2,16.36-5.2,16.36-5.2V197.43l7.95-11.82,6.65-10.35Z"/><path class="cls-2" d="M260.83,328.93s21.05,14.57,70.31,6.28l7.81,30s-24.74-2.61-38.37,1.31-29.19,6.29-31.68,3.25S260.5,338.34,260.83,328.93Z"/><path class="cls-2" d="M288,369.22s14.14,38.16,48.3,50.32c0,0,16.71,39,5.94,47.74s-32.4,14-22.55,25h41.08S370.59,422,369.61,419,351.5,388.66,349,384.25s-4.2-18.27-17.9-20.5S288,369.22,288,369.22Z"/><path class="cls-3" d="M176.75,176.74c0,5.08-6.48,13.52-14.49,13.52s-14.49-8.44-14.49-13.52,6.49-9.19,14.49-9.19S176.75,171.66,176.75,176.74Z"/><path class="cls-4" d="M153.47,180.45c0-5.07,6.49-9.19,14.49-9.19a21.23,21.23,0,0,1,7.11,1.19c-2.43-2.91-7.25-4.9-12.81-4.9-8,0-14.49,4.11-14.49,9.19,0,4.16,4.36,10.57,10.34,12.75C155.26,186.68,153.47,183.11,153.47,180.45Z"/><path class="cls-2" d="M137.69,308.51s23.9,25.93,51.84,24.41l7.72,19.45,8.18,11.38S159.53,371,137.69,308.51Z"/><path class="cls-2" d="M166,340.55s6.25,51.1,0,77-1.59,59.49-3.74,64.44-4.35,11.44-4.35,11.44l13.25-1.18,2.5-7s-1.46-30.44-.37-36.32,9.08-33.75,10.57-42S187.12,355,187.12,355Z"/><path class="cls-2" d="M411,283.47s10.83,6,17.4,20.87,19.3,100.12,69.82,82.23c0,0-8.68,21.16-34.12,11.22S426.37,342,426.37,342Z"/><path class="cls-2" d="M120,96.58c.48-.65-18.72,18.84-19.41,43.47s4.5,38.85,4.5,38.85l4.81-5S95.25,129.15,120,96.58Z"/><path class="cls-2" d="M204.25,96.58c-.49-.65,18.72,18.84,19.41,43.47s-4.5,38.85-4.5,38.85l-4.81-5S229,129.15,204.25,96.58Z"/><path class="cls-2" d="M392.78,417s18.6,18.51,14.54,39.91-22.79,16-22.79,16,11.63,4.73,14-13.17S392.78,417,392.78,417Z"/><path class="cls-5" d="M94.59,121.64l-.3,0a3.13,3.13,0,0,1-2.82-3.42c1.71-17.62,7.27-29.61,16.53-35.62a27,27,0,0,1,20.28-3.48c9.2-6,31.2-7.43,33.81-7.58a3.14,3.14,0,1,1,.35,6.27c-6.88.38-25.93,2.42-31.47,7.11a3.15,3.15,0,0,1-3,.59c-.08,0-8.75-2.75-16.6,2.4-7.54,4.94-12.12,15.34-13.64,30.91A3.13,3.13,0,0,1,94.59,121.64Z"/><path class="cls-5" d="M96.66,191.13a3.15,3.15,0,0,1-3.11-3.65c.52-3.2.93-12.87-3.79-15.21-6.23-3.09-23.75-18-26.3-33.2a18.55,18.55,0,0,1,5.19-16.71c15.51-15.73,26.16-22.92,26.6-23.22a3.14,3.14,0,0,1,3.49,5.22c-.1.07-10.61,7.18-25.62,22.4A12.21,12.21,0,0,0,69.65,138c2.07,12.35,17.82,26.1,22.9,28.62,5.72,2.84,7.27,9.51,7.53,14.74a40.73,40.73,0,0,0,7.15-9,3.14,3.14,0,1,1,5.41,3.17c-6.2,10.6-14.15,15-14.49,15.2A3.07,3.07,0,0,1,96.66,191.13Z"/><path class="cls-5" d="M162.26,193.4c-10.06,0-17.63-10.11-17.63-16.66,0-6.91,7.75-12.33,17.63-12.33s17.63,5.42,17.63,12.33C179.89,183.29,172.32,193.4,162.26,193.4Zm0-22.71c-6.69,0-11.35,3.19-11.35,6.05,0,3.51,5.14,10.38,11.35,10.38s11.35-6.87,11.35-10.38C173.61,173.88,169,170.69,162.26,170.69Z"/><path class="cls-5" d="M144.48,217.38a27.62,27.62,0,0,1-14.31-4c-5-3-8.07-7-9.09-12-2-9.83,5-19.56,5.25-20a3.14,3.14,0,0,1,5.08,3.69c-.1.13-5.64,8-4.18,15,.67,3.22,2.68,5.79,6.16,7.87,13.77,8.21,26.32-2.09,26.85-2.53a3.14,3.14,0,0,1,4.06,4.79A32.27,32.27,0,0,1,144.48,217.38Z"/><path class="cls-5" d="M229.93,121.64a3.14,3.14,0,0,1-3.12-2.84c-1.52-15.62-6.13-26-13.71-31a20.75,20.75,0,0,0-16.52-2.35,3.17,3.17,0,0,1-3-.59c-4.92-4.17-21.91-6.58-31.46-7.11a3.14,3.14,0,0,1,.35-6.27c2.6.15,24.61,1.55,33.8,7.58a26.94,26.94,0,0,1,20.28,3.48c9.26,6,14.83,18,16.54,35.62a3.13,3.13,0,0,1-2.82,3.42Z"/><path class="cls-5" d="M227.87,191.13a3.11,3.11,0,0,1-1.5-.39c-.33-.18-8.28-4.6-14.49-15.2a3.14,3.14,0,1,1,5.42-3.17,40.82,40.82,0,0,0,7.14,9c.26-5.24,1.8-11.92,7.54-14.76,5.07-2.52,20.83-16.27,22.9-28.62a12.21,12.21,0,0,0-3.48-11.27c-15-15.22-25.51-22.33-25.62-22.4a3.14,3.14,0,0,1,3.5-5.22c.44.3,11.09,7.49,26.59,23.22a18.56,18.56,0,0,1,5.2,16.71c-2.55,15.22-20.07,30.11-26.3,33.2-4.73,2.34-4.31,12-3.8,15.21a3.14,3.14,0,0,1-1.28,3.07A3.17,3.17,0,0,1,227.87,191.13Z"/><path class="cls-5" d="M207.2,191.13a3.22,3.22,0,0,1-1.47-.36,3.15,3.15,0,0,1-1.3-4.25c13.13-24.85,10.36-47.6,6.48-64.64-3.85-16.84-11.12-22.77-11.2-22.82a3.16,3.16,0,0,1-.54-4.4,3.13,3.13,0,0,1,4.37-.58c.37.28,9.08,7.1,13.49,26.41,3.8,16.68,7.21,42-7.06,69A3.14,3.14,0,0,1,207.2,191.13Z"/><path class="cls-5" d="M180,217.38a32.24,32.24,0,0,1-19.81-7.13,3.14,3.14,0,0,1-1.1-2.39v-17.6a3.14,3.14,0,1,1,6.27,0v16c3.41,2.4,14.14,8.61,25.73,1.69,3.49-2.08,5.51-4.66,6.17-7.89,1.44-7-4.12-14.94-4.18-15a3.14,3.14,0,1,1,5.08-3.7c.29.41,7.26,10.14,5.25,20-1,5-4.08,9-9.1,12A27.57,27.57,0,0,1,180,217.38Z"/><ellipse class="cls-5" cx="133.45" cy="142.28" rx="7.04" ry="7.3"/><ellipse class="cls-5" cx="191.07" cy="142.28" rx="7.04" ry="7.3"/><path class="cls-5" d="M161.23,228.34c-10.56,0-17.81-2.27-21.56-6.75a10.36,10.36,0,0,1-2.49-8.28,3.14,3.14,0,0,1,6.17,1.12,4.42,4.42,0,0,0,1.25,3.26c1.51,1.7,5.8,4.52,17.62,4.36h.05a3.14,3.14,0,0,1,0,6.28Z"/><path class="cls-5" d="M163.3,228.34h-1.08a3.14,3.14,0,0,1,0-6.28h.05c11.88.19,16.11-2.66,17.62-4.36a4.33,4.33,0,0,0,1.24-3.27,3.18,3.18,0,0,1,2.6-3.56,3.08,3.08,0,0,1,3.58,2.45,10.36,10.36,0,0,1-2.49,8.28C181.11,226.07,173.86,228.34,163.3,228.34Z"/><path class="cls-5" d="M410.2,495.41H376.66a9.21,9.21,0,0,1-8.43-5.47,9.61,9.61,0,0,1,1.45-10.4c4.55-5.29,11.21-9.24,19.78-11.73a9.38,9.38,0,0,0,6.38-5.5c4.5-10.31-3.47-31.21-7.66-40-9.07-2.24-50.94-17.22-63.17-104a3.14,3.14,0,1,1,6.21-.88c12.75,90.38,59.13,98.91,59.6,99a3.19,3.19,0,0,1,2.32,1.69c.63,1.26,15.34,30.91,8.46,46.69a15.55,15.55,0,0,1-10.39,9c-7.39,2.15-13,5.44-16.78,9.79a3.43,3.43,0,0,0-.5,3.69,3,3,0,0,0,2.73,1.82H410.2a3.1,3.1,0,0,0,3-2.76l8.18-55.14a27.65,27.65,0,0,0-4.66-19.82l-11.18-15.85a3.18,3.18,0,0,1-.5-2.5c.21-.92,20.3-91.83-6.81-131.46-6.74-9.85-16-15.73-27.51-17.46-25.43-3.83-47.48-5.9-66.94-7.73-33.73-3.16-56-5.26-67.08-14-17.39-13.67-17.85-38.75-17.86-39.81a3.15,3.15,0,0,1,3.11-3.17h0a3.14,3.14,0,0,1,3.14,3.1c0,.23.47,23.16,15.46,34.95,9.62,7.56,32.34,9.69,63.78,12.64,19.54,1.84,41.69,3.92,67.3,7.77,13.31,2,24,8.78,31.76,20.13,27.08,39.62,10.64,122.85,8.05,135l10.38,14.73a33.53,33.53,0,0,1,5.74,24.35l-8.18,55.15A9.34,9.34,0,0,1,410.2,495.41Z"/><path class="cls-5" d="M356.12,495.41H322.57a9.21,9.21,0,0,1-8.43-5.47,9.63,9.63,0,0,1,1.45-10.4c4.56-5.29,11.21-9.24,19.78-11.73a9.43,9.43,0,0,0,6.39-5.49c4.5-10.3-3.48-31.22-7.67-40-6.78-1.71-32.17-10.68-49.62-52.06a3.14,3.14,0,0,1,5.79-2.44c18.51,43.91,46.18,48.61,46.46,48.65a3.12,3.12,0,0,1,2.33,1.69c.63,1.26,15.35,30.91,8.46,46.69a15.53,15.53,0,0,1-10.39,9c-7.38,2.15-13,5.44-16.77,9.79a3.43,3.43,0,0,0-.5,3.69,3,3,0,0,0,2.72,1.82h33.55a3.11,3.11,0,0,0,3-2.76l8.18-55.14a27.7,27.7,0,0,0-4.66-19.82L352.55,395.3a3.14,3.14,0,1,1,5.32-3.33l10,16a33.34,33.34,0,0,1,5.64,24.21l-8.17,55.15A9.34,9.34,0,0,1,356.12,495.41Z"/><path class="cls-5" d="M259.89,495.41H227.22a9.26,9.26,0,0,1-8.21-5,9.62,9.62,0,0,1,.6-10c4.91-7.09,13.44-9,17.45-9.48.94-5.22-.82-21.6-2.26-35-.33-3.06-.66-6.18-1-9.32a88,88,0,0,0-22.27-50.27c-20.38-22.17-31.59-54.52-32.06-55.89a3.14,3.14,0,0,1,5.94-2c.11.32,11.27,32.49,30.74,53.67a94.23,94.23,0,0,1,23.89,53.87c.33,3.14.66,6.25,1,9.3,2.52,23.48,3.71,35.93.92,40.32a3.14,3.14,0,0,1-2.59,1.46c-.09,0-10,.32-14.61,7a3.36,3.36,0,0,0-.19,3.52,3,3,0,0,0,2.65,1.68h32.67a2.92,2.92,0,0,0,2.21-1,3.41,3.41,0,0,0,.8-2.7c-2.38-17.69-6.79-62.08,3.37-92.23a33.22,33.22,0,0,0,0-21.53c-6.08-17.22-12.07-41.95-6.13-61.95a3.14,3.14,0,0,1,6,1.79c-5.75,19.35,1.31,44.69,6,58.07a39.45,39.45,0,0,1,.06,25.62c-9.73,28.9-5.41,72.15-3.09,89.4a9.71,9.71,0,0,1-2.29,7.66A9.24,9.24,0,0,1,259.89,495.41Zm-20.58-21.57h0Z"/><path class="cls-5" d="M207.59,369.8l-.38,0c-70.3-8.62-75.57-74.14-75.62-74.8a3.14,3.14,0,0,1,6.26-.43c.18,2.49,5.05,61,70.12,69a3.14,3.14,0,0,1-.38,6.26Z"/><path class="cls-5" d="M167.52,495.41H136.81a9.32,9.32,0,0,1-7.75-4.2,9.54,9.54,0,0,1-.86-9,24.54,24.54,0,0,1,18.15-14.68c.23-5.71.78-21.68,1.49-55.69.61-29.26-6.68-43-16.76-61.93a306.42,306.42,0,0,1-16.61-35.22c-18.32-47.21,10.49-105,11.72-107.42a3.14,3.14,0,0,1,5.6,2.83c-.29.58-28.77,57.75-11.47,102.32A303.13,303.13,0,0,0,136.62,347c10.14,19,18.14,34.11,17.49,65-.93,44.68-1.59,58.33-1.59,58.46a3.15,3.15,0,0,1-3,3c-.44,0-11.09.69-15.52,11.23a3.26,3.26,0,0,0,.3,3.08,3,3,0,0,0,2.52,1.41h30.71a2.93,2.93,0,0,0,2.17-1,3.37,3.37,0,0,0,.85-2.59c-1-11.21-2.26-31.74.81-43.29.6-2.23,1.36-4.86,2.22-7.83,5.08-17.54,13.58-46.9,9.2-70.56a3.14,3.14,0,1,1,6.17-1.14c4.65,25.12-4.11,55.37-9.34,73.45-.85,2.91-1.6,5.51-2.18,7.7-2.93,11-1.42,32.41-.63,41.11a9.62,9.62,0,0,1-2.47,7.38A9.23,9.23,0,0,1,167.52,495.41Z"/><path class="cls-5" d="M277.34,372.7a88.64,88.64,0,0,1-9.06-.46,3.14,3.14,0,0,1,.66-6.25,88.55,88.55,0,0,0,30.64-2.37c26.71-6.74,41.6-.1,42.22.19a3.14,3.14,0,0,1-2.62,5.7c-.24-.1-13.8-5.93-38.07.19A97.26,97.26,0,0,1,277.34,372.7Z"/><path class="cls-5" d="M123.9,199.44a3.14,3.14,0,0,1-2.46-1.19,77.63,77.63,0,0,1-15.93-35c-3-17.21-.32-32.66,2-42.78,4.4-19.31,13.12-26.13,13.49-26.41a3.14,3.14,0,0,1,3.8,5c-.05,0-7.33,6-11.17,22.81-2.37,10.41-4.73,24.39-1.93,40.31a71.46,71.46,0,0,0,14.67,32.16,3.14,3.14,0,0,1-2.46,5.09Z"/><path class="cls-5" d="M472.53,401.79c-12.67,0-33.33-5.29-42.76-37.15-18.4-62.13-19.5-69.18-19.54-69.45a3.14,3.14,0,0,1,6.22-.87c0,.26,1.43,8.08,19.34,68.54,8.92,30.14,28.52,33.36,39.41,32.57,12.67-.9,21.08-7.11,22.18-9.46a5.32,5.32,0,0,0-1.26-.37c-17.41-3.35-30.1-35.24-43.54-69-3.9-9.79-7.93-19.91-12-29.14C424.1,250.34,389.39,251,389,251a3.11,3.11,0,0,1-3.23-3,3.14,3.14,0,0,1,3.05-3.23c.38,0,39.3-.69,57.45,40.24,4.14,9.33,8.19,19.51,12.11,29.36,12.22,30.71,24.86,62.46,38.89,65.15,6.15,1.18,6.51,5.2,6.47,6.4-.2,6.58-12.08,13.87-25.42,15.59A45.69,45.69,0,0,1,472.53,401.79Z"/></svg>