<?xml version="1.0" ?><svg viewBox="0 0 512 512" xmlns="http://www.w3.org/2000/svg"><defs><style>
      .cls-1 {
        fill: #f58f00;
      }

      .cls-2 {
        fill: #f57400;
      }

      .cls-3 {
        fill: #f7b236;
      }

      .cls-4 {
        fill: #f7be56;
      }

      .cls-5 {
        fill: #f5a20c;
      }

      .cls-6 {
        fill: #fad48f;
      }

      .cls-7 {
        fill: #f59700;
      }

      .cls-8 {
        fill: #f56700;
      }

      .cls-9 {
        fill: #5628b4;
      }

      .cls-10 {
        fill: #4310ac;
      }

      .cls-11 {
        fill: #eb6379;
      }

      .cls-12 {
        fill: #e84c65;
      }
    </style></defs><title/><g id="Painting"><g><path class="cls-1" d="M256,21.33333h0a21.33331,21.33331,0,0,1,21.33331,21.33331V85.33333a0,0,0,0,1,0,0H234.66667a0,0,0,0,1,0,0V42.66665A21.33331,21.33331,0,0,1,256,21.33333Z"/><path class="cls-2" d="M266.66667,24.60286A21.02582,21.02582,0,0,0,256,42.66667V85.33333h21.33333V42.66667A21.02581,21.02581,0,0,0,266.66667,24.60286Z"/><rect class="cls-3" height="256" rx="42.66667" ry="42.66667" width="426.66667" x="42.66667" y="85.33333"/><circle class="cls-4" cx="74.66667" cy="117.33333" r="10.66667"/><circle class="cls-4" cx="117.33333" cy="117.33333" r="10.66667"/><circle class="cls-4" cx="160" cy="202.66667" r="10.66667"/><circle class="cls-4" cx="117.33333" cy="202.66667" r="10.66667"/><circle class="cls-4" cx="96" cy="160" r="10.66667"/><circle class="cls-4" cx="138.66667" cy="160" r="10.66667"/><circle class="cls-4" cx="202.66667" cy="245.33333" r="10.66667"/><circle class="cls-4" cx="373.33333" cy="117.33333" r="10.66667"/><circle class="cls-4" cx="330.66667" cy="160" r="10.66667"/><circle class="cls-4" cx="437.33333" cy="117.33333" r="10.66667"/><circle class="cls-4" cx="138.66667" cy="245.33333" r="10.66667"/><circle class="cls-4" cx="96" cy="245.33333" r="10.66667"/><circle class="cls-4" cx="74.66667" cy="288" r="10.66667"/><rect class="cls-5" height="42.66667" rx="21.33331" ry="21.33331" width="170.66667" x="170.66667" y="85.33333"/><path class="cls-2" d="M170.66667,341.33333H128L75.71394,463.33413a19.60841,19.60841,0,0,0,18.023,27.33254h0a19.60842,19.60842,0,0,0,18.023-11.88428Z"/><path class="cls-1" d="M128,341.33333l-52.28646,122a19.51176,19.51176,0,0,0-1.07422,3.76693,19.382,19.382,0,0,0,8.98959,2.23307h.0013a19.60733,19.60733,0,0,0,18.02213-11.88411l49.76433-116.11589Z"/><path class="cls-2" d="M341.33333,341.33333H384l52.28606,122.0008a19.60841,19.60841,0,0,1-18.023,27.33254h0a19.60842,19.60842,0,0,1-18.023-11.88428Z"/><path class="cls-1" d="M436.28646,463.33333,384,341.33333H360.58333l49.76433,116.11589a19.60733,19.60733,0,0,0,18.02213,11.88411h.0013a19.382,19.382,0,0,0,8.98959-2.23307A19.51176,19.51176,0,0,0,436.28646,463.33333Z"/><rect class="cls-6" height="42.66667" rx="21.33331" ry="21.33331" width="128" x="192" y="64"/><path class="cls-7" d="M458.66667,128A10.66636,10.66636,0,0,0,448,138.66667v160A21.33355,21.33355,0,0,1,426.66667,320H309.33333a10.66667,10.66667,0,0,0,0,21.33333H426.66667a42.6671,42.6671,0,0,0,42.66666-42.66666v-160A10.66636,10.66636,0,0,0,458.66667,128Z"/><rect class="cls-8" height="21.33333" rx="10.66666" ry="10.66666" width="42.66667" x="128" y="341.33333"/><rect class="cls-8" height="21.33333" rx="10.66666" ry="10.66666" width="42.66667" x="341.33333" y="341.33333"/><path class="cls-9" d="M405.33333,149.33333a106.50876,106.50876,0,0,0-104.78906,88.03256A105.48106,105.48106,0,0,0,188.21094,282.9362,74.21949,74.21949,0,0,0,86.40885,341.33333H426.66667a42.6671,42.6671,0,0,0,42.66666-42.66666V171.14974A105.7068,105.7068,0,0,0,405.33333,149.33333Z"/><path class="cls-10" d="M448,298.66667A21.33355,21.33355,0,0,1,426.66667,320H309.33333a10.66667,10.66667,0,0,0,0,21.33333H426.66667a42.6671,42.6671,0,0,0,42.66666-42.66666V171.14974A110.041,110.041,0,0,0,448,158.86068Z"/><path class="cls-11" d="M192,149.33333l170.66667,192h64l0-.00017A293.19832,293.19832,0,0,0,213.3335,128l-.00017,0Z"/><path class="cls-12" d="M343.70312,320l18.96355,21.33333h64c-1.8086-7.23307-3.9375-14.32942-6.263-21.33333Z"/><path class="cls-11" d="M42.66667,213.33333s42.66666-42.66666,128-42.66666c0,0-85.33334,42.66666-128,106.66666Z"/><path class="cls-9" d="M352,277.33333a52.82493,52.82493,0,0,0-22.8724,5.33724,63.70007,63.70007,0,0,0-111.875,58.66276H404.25781a53.34238,53.34238,0,0,0-52.25781-64Z"/><path class="cls-10" d="M404.25781,320H309.33333a10.66667,10.66667,0,0,0,0,21.33333h94.92448a53.43205,53.43205,0,0,0,0-21.33333Z"/><rect class="cls-6" height="42.66667" rx="21.33331" ry="21.33331" width="213.33325" x="149.33338" y="320"/><rect class="cls-4" height="21.33333" rx="10.66666" ry="10.66666" width="170.66667" x="170.66667" y="341.33333"/><rect class="cls-4" height="21.33333" rx="10.66666" ry="10.66666" width="85.33333" x="213.33333" y="85.33333"/></g></g></svg>