<?xml version="1.0" ?><!DOCTYPE svg  PUBLIC '-//W3C//DTD SVG 1.1//EN'  'http://www.w3.org/Graphics/SVG/1.1/DTD/svg11.dtd'><svg enable-background="new 0 0 64 64" height="64px" version="1.1" viewBox="0 0 64 64" width="64px" xml:space="preserve" xmlns="http://www.w3.org/2000/svg" xmlns:xlink="http://www.w3.org/1999/xlink"><g id="_x33_0_Nos"/><g id="_x32_9_engine"/><g id="_x32_8_Bumper"/><g id="_x32_7_Paint"/><g id="_x32_6_start"/><g id="_x32_5_Circuit"/><g id="_x32_4_Helmet"/><g id="_x32_3_f1"/><g id="_x32_2__Racing_Car"/><g id="_x32_1_Racing_Car"/><g id="_x32_0_Racing_Light"/><g id="_x31_9_Car_Engine"/><g id="_x31_8_Gearshift"/><g id="_x31_7_Shock"/><g id="_x31_6_Intercooler"/><g id="_x31_5_rwd"/><g id="_x31_4_fwd"/><g id="_x31_3_awd"/><g id="_x31_2_oil"/><g id="_x31_1_Spark_plug"/><g id="_x31_0_piston"/><g id="_x30_9_Car_Exhaust"/><g id="_x30_8_Rear_Wing"/><g id="_x30_7_Dashboard"/><g id="_x30_6_Turbo"/><g id="_x30_5_Transmission_Shifter"/><g id="_x30_4_Steering_Wheel"/><g id="_x30_3_Brake"><g><g><g><path d="M35,4C19.536,4,7,16.536,7,32s12.536,28,28,28s28-12.536,28-28S50.464,4,35,4z M35,36      c-2.206,0-4-1.794-4-4s1.794-4,4-4c2.206,0,4,1.794,4,4S37.206,36,35,36z" fill="#EBEBEB"/></g><g><path d="M35,19c-7.168,0-13,5.832-13,13s5.832,13,13,13c7.168,0,13-5.832,13-13S42.168,19,35,19z M35,36      c-2.206,0-4-1.794-4-4s1.794-4,4-4c2.206,0,4,1.794,4,4S37.206,36,35,36z" fill="#696969"/></g><g><path d="M11.795,56c-0.549,0-1.073-0.226-1.451-0.624C4.318,49.024,1,40.723,1,32s3.318-17.024,9.344-23.376      C10.722,8.226,11.246,8,11.795,8H14c1.104,0,2,0.896,2,2v44c0,1.104-0.896,2-2,2H11.795z" fill="#F16480"/></g><g><path d="M2.616,42.333l4.933-1.41C8.408,40.678,9,39.893,9,39V25c0-0.893-0.592-1.678-1.451-1.923l-4.933-1.41      C1.559,24.975,1,28.451,1,32S1.559,39.025,2.616,42.333z" fill="#696969"/></g></g><g><path d="M49,32c0-7.72-6.28-14-14-14s-14,6.28-14,14s6.28,14,14,14S49,39.72,49,32z M23,32     c0-6.617,5.383-12,12-12c6.617,0,12,5.383,12,12s-5.383,12-12,12C28.383,44,23,38.617,23,32z" fill="#463C32"/><path d="M40,32c0-2.757-2.243-5-5-5s-5,2.243-5,5s2.243,5,5,5S40,34.757,40,32z M32,32c0-1.654,1.346-3,3-3     s3,1.346,3,3s-1.346,3-3,3S32,33.654,32,32z" fill="#463C32"/><path d="M35,3c-5.964,0-11.694,1.8-16.572,5.205c-0.453,0.316-0.564,0.939-0.248,1.392     c0.316,0.454,0.939,0.566,1.392,0.248C24.113,6.675,29.448,5,35,5c14.888,0,27,12.112,27,27S49.888,59,35,59     c-6.668,0-13.041-2.447-18-6.891V10c0-1.654-1.346-3-3-3h-2.205c-0.819,0-1.612,0.341-2.177,0.936C3.416,14.474,0,23.021,0,32     s3.416,17.526,9.619,24.065C10.183,56.659,10.976,57,11.795,57H14c1.427,0,2.619-1.003,2.921-2.339     C22.048,58.758,28.388,61,35,61c15.99,0,29-13.009,29-29S50.99,3,35,3z M15,54c0,0.551-0.449,1-1,1h-2.205     c-0.273,0-0.538-0.114-0.726-0.312C5.221,48.523,2,40.465,2,32c0-3.114,0.439-6.172,1.282-9.103l3.993,1.141     C7.702,24.161,8,24.556,8,25v14c0,0.444-0.298,0.839-0.726,0.961l-1.549,0.443c-0.531,0.152-0.838,0.705-0.687,1.236     C5.164,42.08,5.564,42.366,6,42.366c0.091,0,0.184-0.013,0.275-0.039l1.549-0.443C9.105,41.519,10,40.333,10,39V25     c0-1.333-0.895-2.519-2.176-2.884l-3.93-1.123c1.527-4.303,3.949-8.28,7.174-11.681C11.257,9.114,11.522,9,11.795,9H14     c0.551,0,1,0.449,1,1V54z" fill="#463C32"/><circle cx="12" cy="13" fill="#463C32" r="1"/><circle cx="12" cy="50" fill="#463C32" r="1"/><circle cx="27" cy="32" fill="#463C32" r="1"/><circle cx="43" cy="32" fill="#463C32" r="1"/><circle cx="29" cy="26" fill="#463C32" r="1"/><circle cx="35" cy="24" fill="#463C32" r="1"/><circle cx="35" cy="40" fill="#463C32" r="1"/><circle cx="41" cy="26" fill="#463C32" r="1"/><circle cx="29" cy="38" fill="#463C32" r="1"/><circle cx="41" cy="38" fill="#463C32" r="1"/><circle cx="10" cy="17" fill="#463C32" r="1"/><circle cx="10" cy="46" fill="#463C32" r="1"/></g></g></g><g id="_x30_2_Tyre"/><g id="_x30_1_Velg"/></svg>