<?xml version="1.0" ?><!DOCTYPE svg  PUBLIC '-//W3C//DTD SVG 1.1//EN'  'http://www.w3.org/Graphics/SVG/1.1/DTD/svg11.dtd'><svg enable-background="new 0 0 64 64" id="Layer_1" version="1.1" viewBox="0 0 64 64" xml:space="preserve" xmlns="http://www.w3.org/2000/svg" xmlns:xlink="http://www.w3.org/1999/xlink"><circle cx="32" cy="34.7" fill="#B7B7B7" r="13.6"/><path d="M51.2,29.1c-2.1-1.2-4.3-1.8-6.5-1.9c1.1-2,1.8-4.4,1.8-6.9c0-4.9-2.5-9.2-6.4-11.7c2.4,2.1,4,5.3,4,8.7  c0,6.4-5.2,11.6-11.6,11.6s-11.6-5.2-11.6-11.6c0-3.5,1.5-6.6,4-8.7c-3.8,2.5-6.4,6.8-6.4,11.7c0,2.5,0.7,4.8,1.8,6.9  c-2.5-0.1-5,0.5-7.3,1.9c-4.3,2.5-6.7,6.8-7,11.4c0.6-3.2,2.6-6.1,5.6-7.8c5.6-3.2,12.7-1.3,15.9,4.3c3.2,5.6,1.3,12.7-4.3,15.9  c-3,1.7-6.5,2-9.6,0.9c4.1,2.1,9.1,2.1,13.4-0.4c2.2-1.3,3.9-3.1,5.1-5.2c1.2,2.1,2.9,3.9,5.1,5.2c4.3,2.5,9.3,2.4,13.4,0.4  c-3.1,1-6.5,0.8-9.6-0.9c-5.6-3.2-7.5-10.3-4.3-15.9c3.2-5.6,10.3-7.5,15.9-4.3c3,1.7,5,4.6,5.6,7.8C57.9,36,55.4,31.6,51.2,29.1z" fill="#E64C3C"/><path d="  M51.2,29.1c-2.1-1.2-4.3-1.8-6.5-1.9c1.1-2,1.8-4.4,1.8-6.9c0-4.9-2.5-9.2-6.4-11.7c2.4,2.1,4,5.3,4,8.7c0,6.4-5.2,11.6-11.6,11.6  s-11.6-5.2-11.6-11.6c0-3.5,1.5-6.6,4-8.7c-3.8,2.5-6.4,6.8-6.4,11.7c0,2.5,0.7,4.8,1.8,6.9c-2.5-0.1-5,0.5-7.3,1.9  c-4.3,2.5-6.7,6.8-7,11.4c0.6-3.2,2.6-6.1,5.6-7.8c5.6-3.2,12.7-1.3,15.9,4.3c3.2,5.6,1.3,12.7-4.3,15.9c-3,1.7-6.5,2-9.6,0.9  c4.1,2.1,9.1,2.1,13.4-0.4c2.2-1.3,3.9-3.1,5.1-5.2c1.2,2.1,2.9,3.9,5.1,5.2c4.3,2.5,9.3,2.4,13.4,0.4c-3.1,1-6.5,0.8-9.6-0.9  c-5.6-3.2-7.5-10.3-4.3-15.9c3.2-5.6,10.3-7.5,15.9-4.3c3,1.7,5,4.6,5.6,7.8C57.9,36,55.4,31.6,51.2,29.1z" fill="none" stroke="#2C3E50" stroke-linecap="round" stroke-linejoin="round" stroke-miterlimit="10" stroke-width="2"/><circle cx="32" cy="34.7" fill="none" r="1.9" stroke="#2C3E50" stroke-linecap="round" stroke-linejoin="round" stroke-miterlimit="10" stroke-width="2"/><path d="  M25.4,22.3c2-1,4.2-1.6,6.6-1.6c2.6,0,5,0.7,7.1,1.9" fill="none" stroke="#2C3E50" stroke-linecap="round" stroke-linejoin="round" stroke-miterlimit="10" stroke-width="2"/><path d="  M24.4,46.4c-3.9-2.5-6.4-6.8-6.4-11.7c0-0.3,0-0.5,0-0.8" fill="none" stroke="#2C3E50" stroke-linecap="round" stroke-linejoin="round" stroke-miterlimit="10" stroke-width="2"/><path d="  M45.9,34.1c0,0.2,0,0.4,0,0.5c0,5.2-2.8,9.7-7,12.1" fill="none" stroke="#2C3E50" stroke-linecap="round" stroke-linejoin="round" stroke-miterlimit="10" stroke-width="2"/></svg>