<?xml version="1.0" ?><svg data-name="Layer 1" id="Layer_1" viewBox="0 0 64 64" xmlns="http://www.w3.org/2000/svg"><path d="M39.5,27a1.5,1.5,0,1,1,0-3h6.725A18.571,18.571,0,0,0,50,21.888h0l-3.5-.446a18.66,18.66,0,0,0-7.465.565l.526-.242a18.213,18.213,0,0,0,8.007-7.189L49.6,11.192,44.3,13.63a18.213,18.213,0,0,0-6.409,4.929,24.108,24.108,0,0,0,3.019-9.978l.232-4.969L38.091,7.539A24.09,24.09,0,0,0,33.9,17.084a18.221,18.221,0,0,0-1.666-7.912L29.8,3.879l-.661,3.887a18.209,18.209,0,0,0,1.411,10.667l.243.526a18.665,18.665,0,0,0-5.306-5.281l-2.946-1.934h0a18.662,18.662,0,0,0,6.572,10.3,9.8,9.8,0,0,0-2.709.032l-4.007.619L25.685,24.3a9.78,9.78,0,0,0,4.877.965,8.785,8.785,0,0,0-2.15,2.066l-.644.88.689-.165A8.847,8.847,0,0,0,33.21,25.1,8.847,8.847,0,0,0,34.9,30.428l.417.572.082-1.086a8.81,8.81,0,0,0-.291-2.969,9.789,9.789,0,0,0,4.334,2.437l.552.144V27Z" style="fill:#3a7506"/><path d="M60.844,58.231,52,37V27h.5a1.5,1.5,0,0,0,0-3h-13a1.5,1.5,0,1,0,0,3H40V37L31.152,58.231A2,2,0,0,0,33,61H59A2,2,0,0,0,60.844,58.231Z" style="fill:#e3e3e3"/><circle cx="8" cy="19" r="3" style="fill:#6d8742"/><circle cx="57" cy="6" r="3" style="fill:#6d8742"/><rect height="2" style="fill:#ccc" width="9" x="42.998" y="27"/><path d="M34,49.821l-4.546-.7a11.111,11.111,0,0,0-3.074-.036A21.185,21.185,0,0,0,33.838,37.4h0l-3.344,2.194a21.2,21.2,0,0,0-6.02,5.992l.275-.6a20.659,20.659,0,0,0,1.6-12.1L25.6,28.47l-2.766,6.006a20.642,20.642,0,0,0-1.891,8.978,27.34,27.34,0,0,0-4.757-10.831l-3.464-4.455.263,5.638a27.347,27.347,0,0,0,3.425,11.322,20.642,20.642,0,0,0-7.272-5.593L3.133,36.769l2.3,3.839a20.661,20.661,0,0,0,9.085,8.157l.6.274a21.182,21.182,0,0,0-8.47-.641l-3.966.507a21.18,21.18,0,0,0,13.264,4.033,11.088,11.088,0,0,0-2.313,2.026l-3,3.489,4.022-1.045a11.1,11.1,0,0,0,4.918-2.765,9.971,9.971,0,0,0-.33,3.368l.093,1.233.472-.65a10.126,10.126,0,0,0,1.707-3.747l2.4,6.5,1.876-.694-2.4-6.5a10.131,10.131,0,0,0,3.732,1.738l.782.187-.731-1a10,10,0,0,0-2.44-2.345,11.092,11.092,0,0,0,5.534-1.095ZM21.746,52.6Z" style="fill:#3a7506"/><rect height="2" rx="1" ry="1" style="fill:#6d8742" width="2" x="60" y="17"/><rect height="2" rx="1" ry="1" style="fill:#6d8742" width="2" x="14" y="9"/><rect height="2" rx="1" ry="1" style="fill:#6d8742" width="2" x="44" y="2"/><rect height="2" rx="1" ry="1" style="fill:#6d8742" width="2" x="2" y="2"/><path d="M54.859,50.167H37.137l-3.1,7.436a1.61,1.61,0,0,0,1.487,2.23H56.47a1.61,1.61,0,0,0,1.487-2.23Z" style="fill:#3a7506"/><polygon points="21.969 51.341 28.614 44.332 21.806 50.89 24.187 37.77 21.191 50.603 15.659 36.784 20.288 50.931 9.753 43.014 20.001 51.546 10.571 50.887 20.165 51.997 15.408 55.768 20.78 52.284 20.177 56.781 21.231 52.12 24.866 54.397 21.682 51.956 28.038 51.179 21.969 51.341" style="fill:#306105"/><polygon points="34.335 23.817 43.952 22.924 34.509 23.369 45.999 13.999 34.236 22.748 39 9 33.342 22.4 30 9 32.72 22.673 26.062 15.963 32.546 23.121 26.483 22.821 32.82 23.742 29.402 26.727 33.267 23.916 34.5 28.024 33.714 24.09 39.006 27.694 34.335 23.817" style="fill:#306105"/></svg>