<?xml version="1.0" ?><!DOCTYPE svg  PUBLIC '-//W3C//DTD SVG 1.1//EN'  'http://www.w3.org/Graphics/SVG/1.1/DTD/svg11.dtd'><svg enable-background="new 0 0 64 64" height="64px" id="Layer_1" version="1.1" viewBox="0 0 64 64" width="64px" xml:space="preserve" xmlns="http://www.w3.org/2000/svg" xmlns:xlink="http://www.w3.org/1999/xlink"><g id="smartphones"><g><path d="M33,56V16c0-3.859,3.14-7,7-7h1V6c0-1.65-1.35-3-3-3H6C4.35,3,3,4.35,3,6v48c0,1.65,1.35,3,3,3h27.08    C33.033,56.673,33,56.341,33,56z" fill="#546E7A"/><path d="M33,16c0-2.548,1.373-4.775,3.413-6H5v40h28V16z" fill="#80DEEA"/><g><circle cx="22" cy="53" fill="#78909C" r="1.5"/></g><g><rect fill="#78909C" height="1" width="36" x="4" y="4"/></g><g><linearGradient gradientUnits="userSpaceOnUse" id="SVGID_1_" x1="31" x2="3" y1="29" y2="29"><stop offset="0" style="stop-color:#FFFFFF;stop-opacity:0.2"/><stop offset="1" style="stop-color:#FFFFFF;stop-opacity:0"/></linearGradient><path d="M31,3H6C4.483,3,3,4.483,3,6v49L31,3z" fill="url(#SVGID_1_)"/></g><g><path d="M22,55c-1.104,0-2-0.896-2-2s0.896-2,2-2s2,0.896,2,2S23.104,55,22,55z M22,52c-0.551,0-1,0.449-1,1     s0.449,1,1,1s1-0.449,1-1S22.551,52,22,52z" fill="#37474F"/><rect fill="#37474F" height="1" width="2" x="21" y="6"/><path d="M33,49H6V10h30.413C37.191,9.533,38.065,9.215,39,9.08V9H5v41h28V49z" fill="#37474F"/><path d="M33,56H6c-1.103,0-2-0.897-2-2V6c0-1.103,0.897-2,2-2h32c1.103,0,2,0.897,2,2v3h2V6c0-2.206-1.794-4-4-4     H6C3.794,2,2,3.794,2,6v48c0,2.206,1.794,4,4,4h27.295C33.105,57.365,33,56.695,33,56z" fill="#37474F"/></g></g><g id="phone_3_"><g><g><path d="M61,56c0,2.75-2.25,5-5,5H40c-2.75,0-5-2.25-5-5V16c0-2.75,2.25-5,5-5h16c2.75,0,5,2.25,5,5V56z" fill="#FF5252"/></g></g><g><g><rect fill="#80DEEA" height="36" width="21" x="37.5" y="17.5"/></g></g><g><circle cx="48" cy="57" fill="#FFFFFF" r="1.5"/></g><g><rect fill="#FF8A80" height="2" width="22" x="37" y="11"/></g><g><linearGradient gradientUnits="userSpaceOnUse" id="SVGID_2_" x1="58" x2="35" y1="33.5" y2="33.5"><stop offset="0" style="stop-color:#FFFFFF;stop-opacity:0.2"/><stop offset="1" style="stop-color:#FFFFFF;stop-opacity:0"/></linearGradient><path d="M58,11H38c-1.517,0-3,1.483-3,3v42L58,11z" fill="url(#SVGID_2_)"/></g><g><g><g><rect fill="#37474F" height="1" width="1" x="44" y="14"/></g><g><g><path d="M48,56c0.551,0,1,0.449,1,1s-0.449,1-1,1s-1-0.449-1-1S47.449,56,48,56L48,56z M48,55        c-1.104,0-2,0.896-2,2s0.896,2,2,2s2-0.896,2-2S49.104,55,48,55L48,55z" fill="#37474F"/></g></g><g><path d="M58,18v35H38V18H58L58,18z M59,17H37v37h22V17L59,17z" fill="#37474F"/></g><g><path d="M56,62H40c-3.309,0-6-2.691-6-6V16c0-3.309,2.691-6,6-6h16c3.309,0,6,2.691,6,6v40       C62,59.309,59.309,62,56,62z M40,12c-2.205,0-4,1.795-4,4v40c0,2.205,1.795,4,4,4h16c2.205,0,4-1.795,4-4V16       c0-2.205-1.795-4-4-4H40z" fill="#37474F"/></g><g><rect fill="#37474F" height="1" width="4" x="46" y="14"/></g></g></g></g></g></svg>