<?xml version="1.0" ?><svg viewBox="0 0 64 64" xmlns="http://www.w3.org/2000/svg"><g data-name="05-Chemistry" id="_05-Chemistry"><path d="M61.87,51.22,52,27H42L32.13,51.22A15.3,15.3,0,0,0,31,57a8.776,8.776,0,0,0,8.32,6H54.68A8.778,8.778,0,0,0,63,57,15.3,15.3,0,0,0,61.87,51.22Z" style="fill:#e9effb"/><path d="M31.87,51.22,22,27H12L2.13,51.22A15.3,15.3,0,0,0,1,57a8.776,8.776,0,0,0,8.32,6H24.68A8.778,8.778,0,0,0,33,57,15.3,15.3,0,0,0,31.87,51.22Z" style="fill:#e9effb"/><polygon points="50 15 50 19 47 19 44 19 44 15 50 15" style="fill:#e54c2a"/><polygon points="50 14.56 50 15 44 15 44 14.56 44 11 47 11 50 11 50 14.56" style="fill:#f26b31"/><polygon points="20 15 20 19 17 19 14 19 14 15 20 15" style="fill:#f26b31"/><polygon points="20 14.56 20 15 14 15 14 14.56 14 11 17 11 20 11 20 14.56" style="fill:#f26b31"/><path d="M17,38h6l3.9,8.57q1.185,2.61,2.12,5.31A15.177,15.177,0,0,1,30,56a5.5,5.5,0,0,1-2.25,3.12A6.9,6.9,0,0,1,24,60H10a6.9,6.9,0,0,1-3.75-.88A5.5,5.5,0,0,1,4,56a15.177,15.177,0,0,1,.98-4.12q.93-2.7,2.12-5.31L11,38Z" style="fill:#febf62"/><path d="M58,49c.56,1.68,2,5.18,2,7a5.5,5.5,0,0,1-2.25,3.12A6.9,6.9,0,0,1,54,60H40a6.9,6.9,0,0,1-3.75-.88A5.5,5.5,0,0,1,34,56c0-1.82,1.44-5.32,2-7l1-3H57Z" style="fill:#0867d3"/><polygon points="17 19 17 27 12 27 12 15 14 15 14 19 17 19" style="fill:#e9effb"/><polygon points="22 15 22 27 17 27 17 19 20 19 20 15 22 15" style="fill:#e9effb"/><polygon points="50 15 50 19 47 19 44 19 44 15 42 15 42 27 47 27 52 27 52 15 50 15" style="fill:#c3ddff"/><rect height="2" style="fill:#e9effb" width="6" x="14" y="15"/><rect height="4" style="fill:#c3ddff" width="2" x="50" y="15"/><path d="M58.99,57.973a4.619,4.619,0,0,1-1.24,1.147A6.9,6.9,0,0,1,54,60H40a6.9,6.9,0,0,1-3.75-.88A5.5,5.5,0,0,1,34,56c0-1.82,1.44-5.32,2-7l1-3h3.423L47,27H42L32.13,51.22A15.3,15.3,0,0,0,31,57a8.776,8.776,0,0,0,8.32,6H54.68A8.778,8.778,0,0,0,63,57a15.328,15.328,0,0,0-.169-2.153A4.258,4.258,0,0,1,58.99,57.973Z" style="fill:#c3ddff"/><path d="M36,49c-.56,1.68-2,5.18-2,7a5.5,5.5,0,0,0,2.25,3.12A6.9,6.9,0,0,0,40,60H54a6.9,6.9,0,0,0,3.75-.88,4.619,4.619,0,0,0,1.24-1.147c-.091.006-.178.027-.27.027H42.28a4.281,4.281,0,0,1-4.045-5.68L40.423,46H37Z" style="fill:#0c428c"/><path d="M59.859,54.848c.021.108.048.223.064.326C59.907,55.07,59.88,54.957,59.859,54.848Z" style="fill:none"/><path d="M59.294,52.718q.074.232.144.463C59.391,53.026,59.344,52.874,59.294,52.718Z" style="fill:none"/><path d="M34.562,53.18q.071-.229.144-.462C34.656,52.874,34.609,53.026,34.562,53.18Z" style="fill:none"/><path d="M34.077,55.174c.016-.1.043-.217.064-.325C34.12,54.957,34.093,55.071,34.077,55.174Z" style="fill:none"/><path d="M59.612,53.794c.039.143.079.286.113.424C59.69,54.079,59.651,53.937,59.612,53.794Z" style="fill:none"/><path d="M34.276,54.217c.033-.137.073-.279.111-.42C34.349,53.939,34.31,54.079,34.276,54.217Z" style="fill:none"/><path d="M34.98,51.88c-.025.074-.048.15-.073.224.035-.1.07-.209.106-.313C35,51.821,34.99,51.85,34.98,51.88Z" style="fill:none"/><path d="M59.02,51.88c-.01-.03-.023-.059-.033-.089.036.1.071.208.106.313C59.068,52.03,59.045,51.954,59.02,51.88Z" style="fill:none"/><path d="M59.725,54.218c.054.219.095.425.134.63C59.819,54.643,59.779,54.437,59.725,54.218Z" style="fill:#0867d3"/><path d="M59.093,52.1q.1.306.2.614C59.228,52.512,59.162,52.309,59.093,52.1Z" style="fill:#0867d3"/><path d="M59.438,53.181c.063.207.119.411.174.613C59.557,53.591,59.5,53.389,59.438,53.181Z" style="fill:#0867d3"/><path d="M34.387,53.8c.056-.2.112-.408.175-.617C34.5,53.39,34.443,53.593,34.387,53.8Z" style="fill:#0867d3"/><path d="M34.706,52.718q.1-.308.2-.614C34.838,52.309,34.772,52.512,34.706,52.718Z" style="fill:#0867d3"/><path d="M59.923,55.174A5.471,5.471,0,0,1,60,56,5.471,5.471,0,0,0,59.923,55.174Z" style="fill:#0867d3"/><path d="M34,56a5.471,5.471,0,0,1,.077-.826A5.471,5.471,0,0,0,34,56Z" style="fill:#0867d3"/><path d="M34.141,54.849c.039-.2.08-.412.135-.632C34.221,54.437,34.18,54.643,34.141,54.849Z" style="fill:#0867d3"/><path d="M48,11H46V5a3,3,0,0,0-3-3H21a3,3,0,0,0-3,3v6H16V5a5.006,5.006,0,0,1,5-5H43a5.006,5.006,0,0,1,5,5Z" style="fill:#aeb8c1"/><rect height="13" style="fill:#aeb8c1" width="2" x="46" y="19"/><rect height="3" style="fill:#8d949c" width="2" x="46" y="19"/><path d="M53.5,39a1.5,1.5,0,0,1-1.4-.974l-1.687-4.5a1.5,1.5,0,1,1,2.809-1.053l1.686,4.5a1.5,1.5,0,0,1-.878,1.93A1.468,1.468,0,0,1,53.5,39Z" style="fill:#fff"/><path d="M50.687,31.5a1.5,1.5,0,0,1-1.406-.975l-.186-.5a1.5,1.5,0,1,1,2.81-1.05l.187.5A1.5,1.5,0,0,1,50.687,31.5Z" style="fill:#fff"/><rect height="3" rx="1.5" style="fill:#9cc7ff" width="14" x="40" y="60"/><polygon points="42 15 44 15 44 19 46 19 46 25 44 25 44 21 42 21 42 15" style="fill:#9cc7ff"/><rect height="2" style="fill:#e9effb" width="10" x="42" y="15"/><polygon points="20 15 20 19 17 19 14 19 14 15 12 15 12 27 17 27 22 27 22 15 20 15" style="fill:#c3ddff"/><polygon points="12 15 14 15 14 19 16 19 16 25 14 25 14 21 12 21 12 15" style="fill:#9cc7ff"/><rect height="2" style="fill:#e9effb" width="10" x="12" y="15"/><path d="M55.107,57H54a1,1,0,0,1-1-1h0a1,1,0,0,1,1-1h1.292a1,1,0,0,0,.956-1.294l-.14-.453A1,1,0,0,1,56.77,52h0a1,1,0,0,1,1.25.661l.14.454a2.982,2.982,0,0,1-.668,2.924A3.214,3.214,0,0,1,55.107,57Z" style="fill:#fff"/><circle cx="56" cy="50" r="1" style="fill:#fff"/><circle cx="26" cy="50" r="1" style="fill:#fff"/><path d="M29,58h-.034a4.628,4.628,0,0,1-1.216,1.12A6.9,6.9,0,0,1,24,60H10a6.9,6.9,0,0,1-3.75-.88A5.5,5.5,0,0,1,4,56a15.177,15.177,0,0,1,.98-4.12q.93-2.7,2.12-5.31L11,38h2.1L17,27H12L2.13,51.22A15.3,15.3,0,0,0,1,57a8.776,8.776,0,0,0,8.32,6H24.68A8.778,8.778,0,0,0,33,57a15.34,15.34,0,0,0-.145-1.988A3.99,3.99,0,0,1,29,58Z" style="fill:#c3ddff"/><path d="M7.1,46.57q-1.185,2.61-2.12,5.31A15.177,15.177,0,0,0,4,56a5.5,5.5,0,0,0,2.25,3.12A6.9,6.9,0,0,0,10,60H24a6.9,6.9,0,0,0,3.75-.88A4.628,4.628,0,0,0,28.966,58h-17.3a4,4,0,0,1-3.77-5.338L13.1,38H11Z" style="fill:#fa7928"/><rect height="3" rx="1.5" style="fill:#9cc7ff" width="14" x="10" y="60"/><rect height="19" style="fill:#aeb8c1" width="2" x="16" y="19"/><rect height="15" style="fill:#fa7928" width="2" x="16" y="38"/><path d="M23.5,39a1.5,1.5,0,0,1-1.4-.974l-1.687-4.5a1.5,1.5,0,1,1,2.809-1.053l1.686,4.5a1.5,1.5,0,0,1-.878,1.93A1.468,1.468,0,0,1,23.5,39Z" style="fill:#fff"/><path d="M20.687,31.5a1.5,1.5,0,0,1-1.406-.975l-.186-.5a1.5,1.5,0,0,1,2.81-1.05l.187.5a1.5,1.5,0,0,1-1.4,2.026Z" style="fill:#fff"/><path d="M25.107,57H24a1,1,0,0,1-1-1h0a1,1,0,0,1,1-1h1.292a1,1,0,0,0,.956-1.294l-.14-.453A1,1,0,0,1,26.77,52h0a1,1,0,0,1,1.25.661l.14.454a2.982,2.982,0,0,1-.668,2.924A3.214,3.214,0,0,1,25.107,57Z" style="fill:#fff"/><rect height="3" style="fill:#8d949c" width="2" x="16" y="19"/><rect height="3" style="fill:#8d949c" width="2" x="16" y="8"/><rect height="3" style="fill:#8d949c" width="2" x="46" y="8"/><rect height="2" rx="1" style="fill:#bac3cc" width="18" x="23"/><polygon points="46 11 46 14 50 14 50 15 44 15 44 11 46 11" style="fill:#e54c2a"/><polygon points="16 11 16 14 20 14 20 15 14 15 14 11 16 11" style="fill:#e54c2a"/></g></svg>