<?xml version="1.0" ?><!DOCTYPE svg  PUBLIC '-//W3C//DTD SVG 1.1//EN'  'http://www.w3.org/Graphics/SVG/1.1/DTD/svg11.dtd'><svg id="Шар_1" style="enable-background:new 0 0 100 100;" version="1.1" viewBox="0 0 100 100" xml:space="preserve" xmlns="http://www.w3.org/2000/svg" xmlns:xlink="http://www.w3.org/1999/xlink"><style type="text/css">
	.st0{fill:#FF0000;}
	.st1{fill:#FFFFFF;}
</style><g><g><path class="st0" d="M1.7,46c-2.2,2.2-2.2,5.8,0,8.1L46,98.3c2.2,2.2,5.8,2.2,8.1,0L98.3,54c2.2-2.2,2.2-5.8,0-8.1L54,1.7     c-2.2-2.2-5.8-2.2-8.1,0L1.7,46z"/><path class="st1" d="M93,48.7c0.7,0.7,0.7,1.9,0,2.7L51.3,93c-0.7,0.7-1.9,0.7-2.7,0L7,51.3c-0.7-0.7-0.7-1.9,0-2.7L48.7,7     c0.7-0.7,1.9-0.7,2.7,0L93,48.7z"/><path d="M41.8,30.7c0.2,0,0.3,0,0.5,0l15.6-2.7l1.3,1.2l1.9-0.3l-1.7-9.6l-1.9,0.3l-0.8,1.6l-15.6,2.7c-1.8,0.3-3.1,2.1-2.7,4     C38.7,29.5,40.2,30.7,41.8,30.7z M41.4,25.3l16.3-2.9l0.7-1.3l1.1,6.3l-1.1-1l-17.6-0.9C41,25.4,41.2,25.4,41.4,25.3z M33.7,41.8     l15.6,2.7c0.2,0,0.4,0.1,0.6,0.1c1.6,0,3-1.2,3.3-2.8c0.3-1.9-0.9-3.6-2.7-4l-15.6-2.7L34,33.5l-1.9-0.3l-1.7,9.6l1.9,0.3     L33.7,41.8z M33.3,35l0.7,1.3l16.3,2.9c1.1,0.2,1.8,1.2,1.6,2.3c0,0,0,0.1,0,0.1l-12.9-0.4l-5.6-1l-1.1,1L33.3,35z M60.1,32.3     l1.2-2.5l0,0h0l1.2,2.5c0.2,0.4,0.5,0.9,0.5,1.5c0,0.9-0.7,1.6-1.6,1.6c-0.9,0-1.6-0.7-1.6-1.6C59.6,33.2,59.9,32.8,60.1,32.3z      M57.8,43.1c-0.9,0-1.6-0.7-1.6-1.6c0-0.6,0.3-1,0.5-1.5l1.2-2.5v0v0l1.2,2.5c0.2,0.4,0.5,0.9,0.5,1.5     C59.4,42.4,58.6,43.1,57.8,43.1z M57.6,48.3c0-0.6,0.3-1,0.5-1.5l1.2-2.5v0l0,0l1.2,2.5c0.2,0.4,0.5,0.9,0.5,1.5     c0,0.9-0.7,1.6-1.6,1.6C58.3,49.9,57.6,49.2,57.6,48.3z M28.6,48.9c0-0.6,0.3-1,0.5-1.5l1.2-2.5v0v0l1.2,2.5     c0.2,0.4,0.5,0.9,0.5,1.5c0,0.9-0.7,1.6-1.6,1.6C29.3,50.5,28.6,49.8,28.6,48.9z M33.6,54.2c0.2,0.4,0.5,0.9,0.5,1.5     c0,0.9-0.7,1.6-1.6,1.6c-0.9,0-1.6-0.7-1.6-1.6c0-0.6,0.3-1,0.5-1.5l1.2-2.5h0l0,0L33.6,54.2z M84.4,55.7L74,66.2H60.8h-2.2h-7.4     c-0.8,0-1.4-0.6-1.4-1.4s0.6-1.4,1.4-1.4h7.4v-0.6H48.2c-0.8,0-1.4-0.6-1.4-1.4c0-0.8,0.6-1.4,1.4-1.4h10.4v-0.6H47.1l0,0     c-0.8,0-1.4-0.6-1.4-1.4c0-0.8,0.6-1.4,1.4-1.4h11.5v-0.6H48.2l0,0c-0.8,0-1.4-0.6-1.4-1.4c0-0.8,0.6-1.4,1.4-1.4h7.9     c0.2,0.6,0.7,1,1.4,1c0.5,0,0.9-0.2,1.2-0.6c0.3,0.7,0.9,1.1,1.7,1.1c1,0,1.8-0.8,1.9-1.8c0-0.1,0-0.2,0-0.3l5.7-0.9l-4.7-4.7     l0,0c-0.5-0.5-0.6-1.7,0.1-2.4c0.7-0.7,1.9-0.6,2.4-0.1l0,0l11.7,11.3L84.4,55.7z M36.4,58.5h4.7v7.7h-15l-7.8-7.7h10.3     c0.3,0.3,0.7,0.5,1.2,0.5c0.2,0,0.5-0.1,0.7-0.1c0.2,0.9,1,1.5,2,1.6c0.8,0,1.5-0.5,1.8-1.2c0.2,0.1,0.4,0.1,0.7,0.1     C35.6,59.4,36.1,59,36.4,58.5z"/></g></g></svg>