<?xml version="1.0" ?><svg id="_x30_1_Paper_money_and_cross" style="enable-background:new 0 0 48 48;" version="1.1" viewBox="0 0 48 48" xml:space="preserve" xmlns="http://www.w3.org/2000/svg" xmlns:xlink="http://www.w3.org/1999/xlink"><style type="text/css">
	.st0{fill:#4C9933;}
	.st1{fill:#73B557;}
	.st2{fill:#A8EA92;}
	.st3{fill:#9DE8FC;}
	.st4{fill:#D4F2F9;}
	.st5{fill:#FC5696;}
</style><rect class="st0" height="26" width="42" x="3" y="11"/><polygon class="st1" points="11,36 13,36 13,34 15,34 15,32 17,32 17,30 19,30 19,28 21,28 21,26 23,26 23,24 25,24 25,22 27,22   27,20 29,20 29,18 31,18 31,16 33,16 33,14 35,14 35,12 37,12 37,11 3,11 3,37 11,37 "/><path class="st2" d="M15.2,34H8c-0.6,0-1-0.4-1-1V15c0-0.6,0.4-1,1-1h7.2c-2.6,2.5-4.2,6.1-4.2,10S12.6,31.5,15.2,34z M40,14h-7.2  c2.6,2.5,4.2,6.1,4.2,10s-1.6,7.5-4.2,10H40c0.6,0,1-0.4,1-1V15C41,14.4,40.6,14,40,14z"/><circle class="st3" cx="37" cy="32" r="10"/><path class="st4" d="M30,39.1V38h2v-2h2v-2h2v-2h2v-2h2v-2h2v-2h2v-1.1c-1.8-1.8-4.3-2.9-7-2.9c-5.5,0-10,4.5-10,10  C27,34.8,28.2,37.3,30,39.1z"/><polygon class="st5" points="40,27 40,28 39,28 39,29 38,29 38,30 36,30 36,29 35,29 35,28 34,28 34,27 32,27 32,29 33,29 33,30   34,30 34,31 35,31 35,33 34,33 34,34 33,34 33,35 32,35 32,37 34,37 34,36 35,36 35,35 36,35 36,34 38,34 38,35 39,35 39,36 40,36   40,37 42,37 42,35 41,35 41,34 40,34 40,33 39,33 39,31 40,31 40,30 41,30 41,29 42,29 42,27 "/><path d="M47,29v-2h-1V11h-1v-1H3v1H2v26h1v1h25h0v1h1v1h1v1h2v1h2v1h6v-1h2v-1h2v-1h1v-1h1v-2h1v-2h1v-6H47z M32,12h12v11h-2v-8h-1  v-1h-8v-1h-1V12z M36,18v-2h4v5h-3v-3H36z M16,36H4V12h12v1h-1v1H7v1H6v18h1v1h8v1h1V36z M11,27v3h1v2H8V16h4v2h-1v3h-1v6H11z   M27,29h-1v2l0,0v0h-1v-6h1v1h1L27,29z M28,24h-1v-1h-2v-6h1v1h1v3h2v-4h-1v-1h-1v-1h-2v-2h-2v2h-2v1h-1v1h-1v6h1v1h1v1h2v6h-1v-1  h-1v-3h-2v4h1v1h1v1h2v2h2v-2h1v0l0,0v2h1v1h0h-6v-1h-2v-1h-2v-1h-1v-1h-1v-1h-1v-2h-1v-2h-1v-6h1v-2h1v-2h1v-1h1v-1h1v-1h2v-1h2v-1  h6v1h2v1h2v1h1v1h1v1h1v2h1v2h-1v1h-2v1h-2v1h-1v1h-1L28,24z M21,22v-4h1v-1h1v6h-1v-1H21z M46,35h-1v2h-1v1h-1v1h-1v1h-2v1h-6v-1  h-2v-1h-1v-1h-1v-1h-1v-2h-1v-6h1v-2h1v-1h1v-1h1v-1h2v-1h6v1h2v1h1v1h1v1h1v2h1V35z"/></svg>