<?xml version="1.0" encoding="utf-8"?>
<!-- Generator: Adobe Illustrator 27.3.1, SVG Export Plug-In . SVG Version: 6.00 Build 0)  -->
<svg version="1.1" id="Layer_1" xmlns="http://www.w3.org/2000/svg" xmlns:xlink="http://www.w3.org/1999/xlink" x="0px" y="0px"
	 viewBox="0 0 735.5 97" style="enable-background:new 0 0 735.5 97;" xml:space="preserve">
<path d="M121.6,60.5c19.8-7.8,17.9-29.1,17.9-29.1C140,5.3,117.3,0,110.8,0H90.6c-7.5,0-12.7,5.3-12.7,12.8v83.2h20.2V63.5l22,32.5
	h24.2L121.6,60.5z M109.2,42.4c-5.9,0-10.7-4.8-10.7-10.7c0-2.9,0-10.7,0-10.7h10.7c5.9,0.2,10.6,5.1,10.4,11
	C119.4,37.7,114.8,42.2,109.2,42.4L109.2,42.4z"/>
<path d="M649.3,50.1c0-29.3-18.7-41.5-34.5-46.6C608.7,1.6,602.4,0.4,596,0c-9.3,0-13.8,6.2-13.8,12.6v83.4h10.3
	C652.3,96.1,649.3,50.1,649.3,50.1z M602.9,76.2V21c6.8,0,25.8,7.4,25.8,27.2S613.2,75.3,602.9,76.2z"/>
<path d="M72.4,20.9H47.1c-13.4,0-25.8,12.9-25.8,26.8s12,25.9,26.5,25.9c17.8,0,24.6-11.9,24.6-11.9v25.8c0,4-15.2,8.5-23.5,8.5
	c-26,0-49-17.5-49-46.7C0,15,26.2,0,44.8,0h27.6V20.9z"/>
<path d="M330,20.9h-25.3c-13.4,0-25.8,12.9-25.8,26.8s12,25.9,26.5,25.9c17.8,0,24.6-11.9,24.6-11.9v25.8c0,4-15.1,8.5-23.5,8.5
	c-26,0-49-17.6-49-46.7C257.6,15,283.8,0,302.4,0H330V20.9z"/>
<path d="M257.1,0h-36.6v18.7h9v74.4c0,1.7,1.3,3,3,3h16.8V18.7h10.9V3C260.1,1.3,258.8,0,257.1,0C257.1,0,257.1,0,257.1,0z"/>
<path d="M511.3,18.8h18.6V0h-29.7c-7.2,0-11.4,6.2-11.4,12.6v80.5c0,1.6,1.4,3,3,3h35.1c1.7,0,3-1.3,3-3v-12c0-1.7-1.3-3-3-3h-15.4
	c-2.4,0-3.3-1-3.3-2.5V56.8c0-2.1,1.2-3.4,2.6-3.4h16c1.7,0,3-1.3,3-3V36.3c0-1.6-1.4-3-3-3h-16.3c-1.2,0.1-2.2-0.9-2.3-2.1
	c0-0.1,0-0.2,0-0.3c0-1.1,0-5.9,0-9.2C508.2,19.5,509.3,18.8,511.3,18.8z"/>
<path d="M463.4,0h-0.3c-1.6,0-2.9,1.3-3,2.9l0,0v0.2l0,0v90c0,1.7,1.3,3,3,3h17.2V0H463.4z"/>
<path d="M574.2,78.1H557V0h-17.2c-1.7,0-3,1.3-3,3v90.1c0,1.7,1.3,3,3,3h34.3c1.7,0,3-1.3,3-3v-12C577.1,79.5,575.8,78.2,574.2,78.1
	z"/>
<path d="M393,0h-6.8c-1.7,0-3,1.3-3,3v28.4c0,1.5-0.7,1.9-2,1.9h-21.1c-1.1,0.2-2.1-0.6-2.3-1.7c0-0.1,0-0.1,0-0.2V3
	c-0.1-1.6-1.4-2.9-3-3h-15.3c-1.7,0-3,1.3-3,3v90.1c0,1.7,1.3,3,3,3H355c1.6-0.1,2.8-1.4,2.8-2.9V56c-0.1-1.3,0.9-2.4,2.2-2.6h23.5
	v39.6c0,1.7,1.3,3,3,3c0.1,0,0.1,0,0.2,0h17.4V0H393z"/>
<path d="M434.1,18.8c6.4,0,18.6,0,18.6,0V0h-29c-7.6,0-12.1,5.8-12.1,12.6v80.4c0,1.7,1.3,3,3,3H428c1.7,0,3-1.3,3-3
	c0-0.4,0-32.4,0-36.9c0-2,0.9-2.7,2.6-2.7h16.2c1.6-0.1,2.9-1.4,2.9-3V36.3c0-1.6-1.4-3-3-3h-16.4c-1.1,0.2-2.1-0.6-2.3-1.7
	c0-0.2,0-0.4,0-0.6v-9.3C431,19.5,432.4,18.8,434.1,18.8z"/>
<path d="M216.2,84.5V3c0-1.7-1.3-3-3-3h-15c-1.7,0-3,1.3-3,3v72.6c-28.7,1.4-31.4-21.7-31.4-26.8s0-45.6,0-45.8c0-1.7-1.3-3-3-3
	h-14.2c-1.7,0-3,1.3-3,3l0,0l0,0v41.9c0,46.5,39.7,51.2,49.1,51.2h10.9C212,96.1,216.2,88.3,216.2,84.5z"/>
<path d="M713.1,56.7c0-4.2,3.3-7.7,7.6-7.7c4.2,0,7.7,3.3,7.7,7.6s-3.3,7.7-7.6,7.7c0,0,0,0-0.1,0c-4.2,0.1-7.6-3.2-7.7-7.4
	C713.1,56.8,713.1,56.8,713.1,56.7z M720.8,63c3.4,0,6.2-2.8,6.2-6.2c0-0.1,0-0.1,0-0.2c0-3.4-2.8-6.2-6.2-6.2
	c-3.4,0-6.2,2.8-6.2,6.2c-0.1,3.4,2.6,6.2,6,6.3C720.6,63,720.7,63,720.8,63z M719.1,61.1h-1.3v-8.7h3.3c2.1,0,3.1,0.8,3.1,2.5
	c0.1,1.3-0.8,2.4-2.1,2.5c-0.1,0-0.1,0-0.2,0l2.5,3.8h-1.5l-2.3-3.8h-1.5V61.1z M720.7,56.1c1.1,0,2.1-0.1,2.1-1.4
	c0-1.1-1-1.2-1.9-1.2h-1.8v2.7L720.7,56.1z"/>
<path d="M649,92.6c-0.1-1.2,0.3-2.4,1.2-3.3c0.9-0.8,2.1-1.2,3.4-1.1c1.2-0.1,2.4,0.3,3.3,1.1c1.6,1.9,1.6,4.6,0,6.4
	c-0.9,0.8-2.1,1.3-3.3,1.2c-1.2,0.1-2.4-0.3-3.3-1.2C649.3,95,648.9,93.8,649,92.6z"/>
<path d="M663.3,82.1c0-4.9,1.2-8.6,3.7-11.2c2.4-2.6,5.9-3.9,10.5-3.8c3.1,0,6.2,0.6,9,2l-2.3,6c-1.2-0.5-2.4-0.9-3.5-1.2
	c-1-0.3-2.1-0.5-3.2-0.5c-4.1,0-6.1,2.9-6.1,8.7c0,5.6,2,8.4,6.1,8.4c1.4,0,2.8-0.2,4.2-0.6c1.4-0.4,2.7-1.1,3.8-1.8v6.7
	c-1.2,0.8-2.5,1.3-3.8,1.7c-1.6,0.3-3.3,0.5-4.9,0.5C667.8,96.8,663.3,91.9,663.3,82.1z"/>
<path d="M692.4,87.6c0-3,1.1-5.3,3.2-6.7c2.1-1.4,5.3-2.2,9.6-2.4l5-0.2v-1.3c0-2.9-1.5-4.4-4.5-4.4c-2.8,0.1-5.6,0.8-8.1,2.1
	l-2.6-5.3c3.4-1.8,7.2-2.7,11-2.6c3.9,0,6.9,0.8,8.9,2.5s3.1,4.2,3,7.7v19.2h-5.5l-1.5-4h-0.2c-1.1,1.5-2.5,2.7-4.1,3.5
	c-1.7,0.7-3.6,1.1-5.5,1c-2.4,0.1-4.7-0.7-6.5-2.4C693.2,92.8,692.4,90.6,692.4,87.6z M700.4,87.7c0,2.2,1.3,3.3,3.8,3.3
	c1.6,0.1,3.2-0.5,4.4-1.6c1.1-1.1,1.7-2.6,1.6-4.1v-2.3l-3,0.1c-1.8-0.1-3.5,0.4-5.1,1.2C700.9,85,700.3,86.3,700.4,87.7L700.4,87.7
	z"/>
</svg>
