<?xml version="1.0" ?><svg viewBox="0 0 64 64" xmlns="http://www.w3.org/2000/svg"><g data-name="26-Syringe" id="_26-Syringe"><polygon points="27 29 27 33 26.17 33 21.83 33 21 33 21 29 27 29" style="fill:#aeb8c1"/><polygon points="45 49 45 53 43 53 41 53 41 49 45 49" style="fill:#aeb8c1"/><rect height="4" style="fill:#aeb8c1" width="4" x="41" y="4"/><path d="M40,8h6a1,1,0,0,1,1,1v2H39V9A1,1,0,0,1,40,8Z" style="fill:#e6f3ff"/><polygon points="43 15 39 15 39 27 43 27 47 27 47 15 43 15" style="fill:#e6f3ff"/><path d="M41,4h-.5a1.5,1.5,0,0,1,0-3h5a1.5,1.5,0,0,1,0,3H41Z" style="fill:#e6f3ff"/><path d="M45.5,3h-5a1.494,1.494,0,0,1-1.409-1A1.488,1.488,0,0,0,40.5,4h5a1.488,1.488,0,0,0,1.409-2A1.494,1.494,0,0,1,45.5,3Z" style="fill:#cdd6e0"/><path d="M47,11a2.006,2.006,0,0,1,2,2,2.015,2.015,0,0,1-2,2H39a2.006,2.006,0,0,1-2-2,2.015,2.015,0,0,1,2-2Z" style="fill:#0867d3"/><path d="M48.41,12.41A1.955,1.955,0,0,1,47,13H39a2,2,0,0,1-1.721-1A1.963,1.963,0,0,0,37,13a2.006,2.006,0,0,0,2,2h8a1.984,1.984,0,0,0,1.721-3A1.938,1.938,0,0,1,48.41,12.41Z" style="fill:#0948a1"/><polygon points="29 23 29 29 27 29 21 29 19 29 19 23 29 23" style="fill:#0867d3"/><rect height="16" style="fill:#0867d3" width="12" x="15" y="42"/><path d="M33,39.83V61a2.006,2.006,0,0,1-2,2H17a2.006,2.006,0,0,1-2-2V58H27V42H15V39.83A6.828,6.828,0,0,1,21.83,33h4.34A6.828,6.828,0,0,1,33,39.83Z" style="fill:#e6f3ff"/><polygon points="20 55 20 42 15 42 15 58 20 58 20 55" style="fill:#0948a1"/><path d="M20,58H15v3a2.006,2.006,0,0,0,2,2H31a2.006,2.006,0,0,0,2-2V60H22A2.006,2.006,0,0,1,20,58Z" style="fill:#9cc7ff"/><path d="M20,39.83a6.813,6.813,0,0,1,6.5-6.814c-.11,0-.219-.016-.33-.016H21.83A6.828,6.828,0,0,0,15,39.83V42h5Z" style="fill:#9cc7ff"/><path d="M47,41v6a2.006,2.006,0,0,1-2,2H41a2.006,2.006,0,0,1-2-2V30h8V41Z" style="fill:#0867d3"/><rect height="3" style="fill:#cdd6e0" width="8" x="39" y="27"/><path d="M21,25V23H19v6H29V27H23A2,2,0,0,1,21,25Z" style="fill:#0948a1"/><path d="M25,30h2V29H21v4h2V32A2,2,0,0,1,25,30Z" style="fill:#8d949c"/><path d="M30,43.5A1.5,1.5,0,0,1,28.5,42V40.141a2.494,2.494,0,0,0-1.114-2.08,1.5,1.5,0,0,1,1.665-2.5A5.493,5.493,0,0,1,31.5,40.141V42A1.5,1.5,0,0,1,30,43.5Z" style="fill:#fff"/><rect height="4" rx="1.5" style="fill:#fff" width="3" x="28.5" y="44.5"/><path d="M45,4H41V8h2V6a1,1,0,0,1,1-1h1Z" style="fill:#8d949c"/><path d="M46,10H42a1,1,0,0,1,0-2H40a1,1,0,0,0-1,1v2h8V9A1,1,0,0,1,46,10Z" style="fill:#cdd6e0"/><path d="M42,19a2,2,0,0,1,2-2h3V15H39V27h3Z" style="fill:#c2dcff"/><path d="M45,47H44a2,2,0,0,1-2-2V30H39V47a2.006,2.006,0,0,0,2,2h4a2.006,2.006,0,0,0,2-2V45A2,2,0,0,1,45,47Z" style="fill:#0948a1"/><rect height="3" style="fill:#aeb8c1" width="3" x="39" y="27"/><rect height="12" style="fill:#8d949c" width="2" x="42" y="15"/><path d="M45,50H44a1,1,0,0,0-1,1v2H41V49h4Z" style="fill:#8d949c"/><polygon points="43 63 43 63 42 53 44 53 43 63" style="fill:#dbe5f0"/><rect height="1" style="fill:#9cc7ff" transform="translate(90 90) rotate(180)" width="4" x="43" y="44.5"/><rect height="1" style="fill:#9cc7ff" width="4" x="43" y="40.5"/><rect height="1" style="fill:#9cc7ff" width="4" x="43" y="36.5"/><rect height="1" style="fill:#9cc7ff" width="4" x="43" y="32.5"/></g></svg>