<?xml version="1.0" ?><svg id="Layer_1" style="enable-background:new 0 0 24 24;" version="1.1" viewBox="0 0 24 24" xml:space="preserve" xmlns="http://www.w3.org/2000/svg" xmlns:xlink="http://www.w3.org/1999/xlink"><g><path d="M22.5,9.5C22.776,9.5,23,9.276,23,9s-0.224-0.5-0.5-0.5H21v-2h1.5C22.776,6.5,23,6.276,23,6   s-0.224-0.5-0.5-0.5H21V5c0-1.103-0.897-2-2-2h-0.5V1.5C18.5,1.224,18.276,1,18,1s-0.5,0.224-0.5,0.5V3h-2V1.5   C15.5,1.224,15.276,1,15,1s-0.5,0.224-0.5,0.5V3h-2V1.5C12.5,1.224,12.276,1,12,1s-0.5,0.224-0.5,0.5V3h-2V1.5   C9.5,1.224,9.276,1,9,1S8.5,1.224,8.5,1.5V3h-2V1.5C6.5,1.224,6.276,1,6,1S5.5,1.224,5.5,1.5V3H5C3.897,3,3,3.897,3,5v0.5H1.5   C1.224,5.5,1,5.724,1,6s0.224,0.5,0.5,0.5H3v2H1.5C1.224,8.5,1,8.724,1,9s0.224,0.5,0.5,0.5H3v2H1.5C1.224,11.5,1,11.724,1,12   s0.224,0.5,0.5,0.5H3v2H1.5C1.224,14.5,1,14.724,1,15s0.224,0.5,0.5,0.5H3v2H1.5C1.224,17.5,1,17.724,1,18s0.224,0.5,0.5,0.5H3V19   c0,1.103,0.897,2,2,2h0.5v1.5C5.5,22.776,5.724,23,6,23s0.5-0.224,0.5-0.5V21h2v1.5C8.5,22.776,8.724,23,9,23s0.5-0.224,0.5-0.5V21   h2v1.5c0,0.276,0.224,0.5,0.5,0.5s0.5-0.224,0.5-0.5V21h2v1.5c0,0.276,0.224,0.5,0.5,0.5s0.5-0.224,0.5-0.5V21h2v1.5   c0,0.276,0.224,0.5,0.5,0.5s0.5-0.224,0.5-0.5V21H19c1.103,0,2-0.897,2-2v-0.5h1.5c0.276,0,0.5-0.224,0.5-0.5s-0.224-0.5-0.5-0.5   H21v-2h1.5c0.276,0,0.5-0.224,0.5-0.5s-0.224-0.5-0.5-0.5H21v-2h1.5c0.276,0,0.5-0.224,0.5-0.5s-0.224-0.5-0.5-0.5H21v-2H22.5z" style="fill:#303C42;"/><path d="M20,19c0,0.551-0.449,1-1,1H5c-0.551,0-1-0.449-1-1V5c0-0.551,0.449-1,1-1h14c0.551,0,1,0.449,1,1   V19z" style="fill:#7CB342;"/><path d="M4.5,19.5v-14c0-0.551,0.449-1,1-1h14c0.146,0,0.283,0.035,0.408,0.092   C19.751,4.245,19.405,4,19,4H5C4.449,4,4,4.449,4,5v14c0,0.405,0.245,0.751,0.592,0.908C4.535,19.783,4.5,19.646,4.5,19.5z" style="opacity:0.2;fill:#FFFFFF;"/><path d="M18.5,5h-13C5.224,5,5,5.224,5,5.5v13C5,18.776,5.224,19,5.5,19h13c0.276,0,0.5-0.224,0.5-0.5v-13   C19,5.224,18.776,5,18.5,5z" style="fill:#303C42;"/><rect height="12" style="fill:#F2F2F2;" width="12" x="6" y="6"/><rect height="12" style="fill:#F2F2F2;" width="12" x="6" y="6"/><linearGradient gradientUnits="userSpaceOnUse" id="SVGID_1_" x1="12.0046" x2="19.7053" y1="12.0075" y2="19.7082"><stop offset="0" style="stop-color:#000000;stop-opacity:0.1"/><stop offset="1" style="stop-color:#000000;stop-opacity:0"/></linearGradient><path d="M18.87,5.17L18.87,5.17C18.948,5.258,19,5.372,19,5.5v13c0,0.276-0.224,0.5-0.5,0.5h-13   c-0.135,0-0.256-0.055-0.346-0.141l0,0L6.295,20H19c0.551,0,1-0.449,1-1V6.3L18.87,5.17z" style="fill:url(#SVGID_1_);"/><path d="M11.789,17.453C11.856,17.484,11.928,17.5,12,17.5s0.144-0.016,0.211-0.047   c3.726-1.735,4.289-3.021,4.289-6.54V8.304c0-0.216-0.139-0.408-0.345-0.476l-4-1.304c-0.101-0.032-0.209-0.032-0.31,0l-4,1.304   C7.639,7.896,7.5,8.088,7.5,8.304v2.609C7.5,14.432,8.063,15.718,11.789,17.453z" style="fill:#303C42;"/><path d="M12,7.528L8.5,8.669v2.246c0,0.396,0.006,0.755,0.024,1.087H12V7.528z" style="fill:#7CB342;"/><path d="M8.524,12.002c0.115,2.224,0.734,3.141,3.476,4.447v-4.447H8.524z" style="fill:#546E7A;"/><path d="M12,12.002v4.447c2.742-1.307,3.362-2.223,3.476-4.447H12z" style="fill:#7CB342;"/><path d="M8.564,12.002h-0.04c0.115,2.224,0.734,3.141,3.476,4.447v-0.447   C9.455,14.79,8.746,13.899,8.564,12.002z" style="opacity:0.1;"/><path d="M12,16.002v0.447c2.742-1.307,3.362-2.223,3.476-4.447h-0.04C15.254,13.899,14.545,14.79,12,16.002z" style="opacity:0.1;"/><path d="M15.476,12.002c0.017-0.332,0.024-0.691,0.024-1.087V8.669L12,7.528v4.474H15.476z" style="fill:#546E7A;"/><linearGradient gradientUnits="userSpaceOnUse" id="SVGID_2_" x1="12.6712" x2="18.4078" y1="11.8557" y2="17.5922"><stop offset="0" style="stop-color:#000000;stop-opacity:0.1"/><stop offset="1" style="stop-color:#000000;stop-opacity:0"/></linearGradient><path d="M16.444,8.083l-0.012,0.012C16.464,8.162,16.5,8.227,16.5,8.304v2.609   c0,3.519-0.563,4.805-4.289,6.54C12.144,17.484,12.072,17.5,12,17.5s-0.144-0.016-0.211-0.047   c-1.155-0.538-2.005-1.033-2.629-1.564l0,0L11.27,18H18V9.639L16.444,8.083z" style="fill:url(#SVGID_2_);"/><linearGradient gradientUnits="userSpaceOnUse" id="SVGID_3_" x1="0.6239" x2="23.3761" y1="6.6952" y2="17.3048"><stop offset="0" style="stop-color:#FFFFFF;stop-opacity:0.2"/><stop offset="1" style="stop-color:#FFFFFF;stop-opacity:0"/></linearGradient><path d="M22.5,9.5C22.776,9.5,23,9.276,23,9s-0.224-0.5-0.5-0.5H21v-2h1.5C22.776,6.5,23,6.276,23,6   s-0.224-0.5-0.5-0.5H21V5c0-1.103-0.897-2-2-2h-0.5V1.5C18.5,1.224,18.276,1,18,1s-0.5,0.224-0.5,0.5V3h-2V1.5   C15.5,1.224,15.276,1,15,1s-0.5,0.224-0.5,0.5V3h-2V1.5C12.5,1.224,12.276,1,12,1s-0.5,0.224-0.5,0.5V3h-2V1.5   C9.5,1.224,9.276,1,9,1S8.5,1.224,8.5,1.5V3h-2V1.5C6.5,1.224,6.276,1,6,1S5.5,1.224,5.5,1.5V3H5C3.897,3,3,3.897,3,5v0.5H1.5   C1.224,5.5,1,5.724,1,6s0.224,0.5,0.5,0.5H3v2H1.5C1.224,8.5,1,8.724,1,9s0.224,0.5,0.5,0.5H3v2H1.5C1.224,11.5,1,11.724,1,12   s0.224,0.5,0.5,0.5H3v2H1.5C1.224,14.5,1,14.724,1,15s0.224,0.5,0.5,0.5H3v2H1.5C1.224,17.5,1,17.724,1,18s0.224,0.5,0.5,0.5H3V19   c0,1.103,0.897,2,2,2h0.5v1.5C5.5,22.776,5.724,23,6,23s0.5-0.224,0.5-0.5V21h2v1.5C8.5,22.776,8.724,23,9,23s0.5-0.224,0.5-0.5V21   h2v1.5c0,0.276,0.224,0.5,0.5,0.5s0.5-0.224,0.5-0.5V21h2v1.5c0,0.276,0.224,0.5,0.5,0.5s0.5-0.224,0.5-0.5V21h2v1.5   c0,0.276,0.224,0.5,0.5,0.5s0.5-0.224,0.5-0.5V21H19c1.103,0,2-0.897,2-2v-0.5h1.5c0.276,0,0.5-0.224,0.5-0.5s-0.224-0.5-0.5-0.5   H21v-2h1.5c0.276,0,0.5-0.224,0.5-0.5s-0.224-0.5-0.5-0.5H21v-2h1.5c0.276,0,0.5-0.224,0.5-0.5s-0.224-0.5-0.5-0.5H21v-2H22.5z" style="fill:url(#SVGID_3_);"/></g><g/><g/><g/><g/><g/><g/><g/><g/><g/><g/><g/><g/><g/><g/><g/></svg>