<?xml version="1.0" ?><!DOCTYPE svg  PUBLIC '-//W3C//DTD SVG 1.1//EN'  'http://www.w3.org/Graphics/SVG/1.1/DTD/svg11.dtd'><svg style="enable-background:new 0 0 64 64;" version="1.1" viewBox="0 0 64 64" xml:space="preserve" xmlns="http://www.w3.org/2000/svg" xmlns:xlink="http://www.w3.org/1999/xlink"><style type="text/css">
	.st0{fill:#606060;}
	.st1{fill:#FC5E5E;}
	.st2{fill:#EAEAEA;}
	.st3{fill:#353535;}
</style><g><g id="Слой_2"><rect class="st0" height="26.8" width="13.8" x="25.2" y="29.2"/><rect class="st1" height="6.9" width="8.7" x="27.7" y="17.4"/><circle class="st2" cx="32" cy="34.6" r="2.1"/><polygon class="st2" points="30.7,48.3 32.1,46 33.4,48.3    "/><polygon class="st2" points="33.4,50.5 32,52.8 30.6,50.5    "/><polygon class="st2" points="35,23.9 33.9,22.4 33.9,21.3 33.1,21.3 33.1,17.4 36.4,17.4 36.4,14.7 33.9,14.7 33.9,8.2 30.5,8.2      30.5,14.7 27.7,14.7 27.7,17.4 30.8,17.4 30.8,21.3 29.9,21.3 29.9,22.4 28.8,23.9 27.2,23.9 27.2,28 36.7,28 36.7,23.9    "/></g><g id="Layer_1"><g><g><circle class="st3" cx="29.7" cy="25.9" r="0.5"/><circle class="st3" cx="32.8" cy="25.9" r="0.5"/><circle class="st3" cx="31.3" cy="25.9" r="0.5"/><circle class="st3" cx="34.4" cy="25.9" r="0.5"/><path class="st3" d="M38.9,28.2h-1.2V14.5c0-0.6-0.4-1-1-1H35V8c0-0.6-0.4-1-1-1h-3.8c-0.6,0-1,0.4-1,1v5.5h-1.9       c-0.6,0-1,0.4-1,1v12.7h0v1h-1.2c-0.6,0-1,0.4-1,1V56c0,0.6,0.4,1,1,1h13.7c0.6,0,1-0.4,1-1V29.2       C39.9,28.6,39.4,28.2,38.9,28.2z M34,20.8h-0.3v-3h2v5.7h-0.4l-0.8-1.1v-1.1C34.5,21.1,34.2,20.8,34,20.8z M33.5,21.8v0.3h-3       v-0.3H33.5z M31.3,20.8v-3h1.3v3H31.3z M33.7,23.1l0.4,0.5h-4.2l0.4-0.5H33.7z M31.2,9H33v4.1h-1.8V9z M28.3,15.5h7.3v1.4h-7.3       V15.5z M28.3,17.9h2v3H30c-0.3,0-0.5,0.2-0.5,0.5v1.1l-0.8,1.1h-0.3V17.9z M28.3,24.6h7.3v2.6h-7.3V24.6z M37.9,55H26.1V30.2       h11.7V55z"/></g><path class="st3" d="M32,37.3c-1.5,0-2.7-1.2-2.7-2.7s1.2-2.7,2.7-2.7s2.7,1.2,2.7,2.7S33.5,37.3,32,37.3z M32,32.9      c-0.9,0-1.7,0.8-1.7,1.7s0.8,1.7,1.7,1.7s1.7-0.8,1.7-1.7S32.9,32.9,32,32.9z"/><path class="st3" d="M33.6,48.9h-3.1c-0.2,0-0.3-0.1-0.4-0.3c-0.1-0.2-0.1-0.3,0-0.5l1.6-2.7c0.2-0.3,0.7-0.3,0.9,0l1.6,2.7      c0.1,0.2,0.1,0.3,0,0.5C33.9,48.8,33.7,48.9,33.6,48.9z M31.3,47.9h1.4L32,46.7L31.3,47.9z"/><path class="st3" d="M32,53.7c-0.2,0-0.3-0.1-0.4-0.3L30,50.8c-0.1-0.2-0.1-0.3,0-0.5c0.1-0.2,0.3-0.3,0.4-0.3h3.1      c0.2,0,0.3,0.1,0.4,0.3c0.1,0.2,0.1,0.3,0,0.5l-1.6,2.7C32.4,53.6,32.2,53.7,32,53.7z M31.3,51l0.7,1.2l0.7-1.2H31.3z"/><path class="st3" d="M32.9,34.8c-0.1,0-0.3-0.1-0.3-0.3c0-0.4-0.3-0.6-0.6-0.6c-0.1,0-0.3-0.1-0.3-0.3s0.1-0.3,0.3-0.3      c0.6,0,1.1,0.5,1.1,1.1C33.1,34.7,33,34.8,32.9,34.8z"/></g></g></g></svg>