<?xml version="1.0" ?><svg data-name="Layer 1" height="150" id="Layer_1" viewBox="0 0 150 150" width="150" xmlns="http://www.w3.org/2000/svg"><defs><style>.cls-1{fill:#ecf2f6;}.cls-2{fill:#b2c0c9;}.cls-3{fill:#596069;}</style></defs><title/><path class="cls-1" d="M103.5,34a5.50743,5.50743,0,0,1,5.47748,5h-10.955A5.50743,5.50743,0,0,1,103.5,34Z"/><path class="cls-1" d="M84.5,34a5.50743,5.50743,0,0,1,5.47748,5h-10.955A5.50743,5.50743,0,0,1,84.5,34Z"/><path class="cls-1" d="M65.5,34a5.50743,5.50743,0,0,1,5.47748,5h-10.955A5.50743,5.50743,0,0,1,65.5,34Z"/><path class="cls-1" d="M46.5,34a5.50743,5.50743,0,0,1,5.47748,5h-10.955A5.50743,5.50743,0,0,1,46.5,34Z"/><path class="cls-2" d="M30,49a7.00794,7.00794,0,0,1,7-7h76a7.00794,7.00794,0,0,1,7,7v2H30Z"/><path class="cls-2" d="M120,91v18a7.00794,7.00794,0,0,1-7,7H85.0119a7.01119,7.01119,0,0,1-6.99994-6.98792A9.044,9.044,0,0,0,68.98193,100H37a7.00794,7.00794,0,0,1-7-7V54h90V75.25h-9a3,3,0,0,1-3-3v-9a4.5,4.5,0,0,0-9,0v11c0,.33759.01782.671.05048,1H92a3,3,0,0,1-3-3v-9a4.5,4.5,0,0,0-9,0v11c0,.33759.01782.671.05048,1H73a3,3,0,0,1-3-3v-9a4.5,4.5,0,0,0-9,0v11c0,.33759.01782.671.05048,1H54a3,3,0,0,1-3-3v-9a4.5,4.5,0,0,0-9,0v11a10,10,0,0,0,10,10h68Z"/><path class="cls-1" d="M92,78.25h7.83765a10.01112,10.01112,0,0,0,2.02673,3H90a7.00794,7.00794,0,0,1-7-7v-11a1.5,1.5,0,0,1,3,0v9A6.0068,6.0068,0,0,0,92,78.25Z"/><path class="cls-1" d="M73,78.25h7.83765a10.01112,10.01112,0,0,0,2.02673,3H71a7.00794,7.00794,0,0,1-7-7v-11a1.5,1.5,0,0,1,3,0v9A6.0068,6.0068,0,0,0,73,78.25Z"/><path class="cls-1" d="M54,78.25h7.83765a10.01112,10.01112,0,0,0,2.02673,3H52a7.00794,7.00794,0,0,1-7-7v-11a1.5,1.5,0,0,1,3,0v9A6.0068,6.0068,0,0,0,54,78.25Z"/><path class="cls-1" d="M120,81.25H109a7.00794,7.00794,0,0,1-7-7v-11a1.5,1.5,0,0,1,3,0v9a6.0068,6.0068,0,0,0,6,6h25v3Z"/><path class="cls-3" d="M17,72V86a1.5,1.5,0,0,1-3,0V68a1.52006,1.52006,0,0,1,1.5-1.5H17Z"/><path class="cls-3" d="M17,59v4.5H15.5A1.52006,1.52006,0,0,1,14,62V44a1.5,1.5,0,0,1,3,0Z"/><rect class="cls-3" height="12" width="13" x="123" y="94"/><path d="M137,84.25a2,2,0,0,0,2-2v-5a1.99069,1.99069,0,0,0-.34155-1.11823,2.01326,2.01326,0,0,0-.54022-.54022A1.991,1.991,0,0,0,137,75.25H123V49a10,10,0,0,0-10-10h-1.02527a8.48882,8.48882,0,0,0-16.94946,0H92.97473a8.48882,8.48882,0,0,0-16.94946,0H73.97473a8.48882,8.48882,0,0,0-16.94946,0H54.97473a8.48882,8.48882,0,0,0-16.94946,0H37A10,10,0,0,0,27,49V59H20V44a4.5,4.5,0,0,0-9,0V62a4.4641,4.4641,0,0,0,1.17474,3A4.4641,4.4641,0,0,0,11,68V86a4.5,4.5,0,0,0,9,0V72h7V93a10,10,0,0,0,10,10H68.98193a6.03,6.03,0,0,1,6.03,6.018v.00183A10,10,0,0,0,85.0119,119H113a10,10,0,0,0,10-10h13a3,3,0,0,0,3-3V94a3,3,0,0,0-3-3H123V84.25ZM17,72V86a1.5,1.5,0,0,1-3,0V68a1.52006,1.52006,0,0,1,1.5-1.5H17Zm0-13v4.5H15.5A1.52006,1.52006,0,0,1,14,62V44a1.5,1.5,0,0,1,3,0ZM27,69H20V62h7Zm76.5-35a5.50743,5.50743,0,0,1,5.47748,5h-10.955A5.50743,5.50743,0,0,1,103.5,34Zm-19,0a5.50743,5.50743,0,0,1,5.47748,5h-10.955A5.50743,5.50743,0,0,1,84.5,34Zm-19,0a5.50743,5.50743,0,0,1,5.47748,5h-10.955A5.50743,5.50743,0,0,1,65.5,34Zm-19,0a5.50743,5.50743,0,0,1,5.47748,5h-10.955A5.50743,5.50743,0,0,1,46.5,34ZM30,49a7.00794,7.00794,0,0,1,7-7h76a7.00794,7.00794,0,0,1,7,7v2H30Zm90,42v18a7.00794,7.00794,0,0,1-7,7H85.0119a7.01119,7.01119,0,0,1-6.99994-6.98792A9.044,9.044,0,0,0,68.98193,100H37a7.00794,7.00794,0,0,1-7-7V54h90V75.25h-9a3,3,0,0,1-3-3v-9a4.5,4.5,0,0,0-9,0v11c0,.33759.01782.671.05048,1H92a3,3,0,0,1-3-3v-9a4.5,4.5,0,0,0-9,0v11c0,.33759.01782.671.05048,1H73a3,3,0,0,1-3-3v-9a4.5,4.5,0,0,0-9,0v11c0,.33759.01782.671.05048,1H54a3,3,0,0,1-3-3v-9a4.5,4.5,0,0,0-9,0v11a10,10,0,0,0,10,10h68ZM92,78.25h7.83765a10.01112,10.01112,0,0,0,2.02673,3H90a7.00794,7.00794,0,0,1-7-7v-11a1.5,1.5,0,0,1,3,0v9A6.0068,6.0068,0,0,0,92,78.25Zm-19,0h7.83765a10.01112,10.01112,0,0,0,2.02673,3H71a7.00794,7.00794,0,0,1-7-7v-11a1.5,1.5,0,0,1,3,0v9A6.0068,6.0068,0,0,0,73,78.25Zm-19,0h7.83765a10.01112,10.01112,0,0,0,2.02673,3H52a7.00794,7.00794,0,0,1-7-7v-11a1.5,1.5,0,0,1,3,0v9A6.0068,6.0068,0,0,0,54,78.25ZM136,94v12H123V94ZM120,81.25H109a7.00794,7.00794,0,0,1-7-7v-11a1.5,1.5,0,0,1,3,0v9a6.0068,6.0068,0,0,0,6,6h25v3Z"/></svg>