<?xml version="1.0" ?><!DOCTYPE svg  PUBLIC '-//W3C//DTD SVG 1.1//EN'  'http://www.w3.org/Graphics/SVG/1.1/DTD/svg11.dtd'><svg enable-background="new 0 0 50 50" id="Layer_1" version="1.1" viewBox="0 0 50 50" xml:space="preserve" xmlns="http://www.w3.org/2000/svg" xmlns:xlink="http://www.w3.org/1999/xlink"><g id="XMLID_1049_"><g id="XMLID_1050_"><path d="M35.6,23.5c3.3,6.6,2.1,14.9-3.4,20.4c-6.9,6.9-18.1,6.9-25.1,0c-0.3-0.3-0.7-0.7-0.9-1    c-6-7-5.6-17.4,0.9-24c5.5-5.5,13.7-6.6,20.4-3.4l3.6-3.6l6.1,6.1l2,2L35.6,23.5z" fill="#344A4A" id="XMLID_1051_"/><path d="M33.7,21.5c3.3,6.6,2.1,14.9-3.4,20.4c-6.6,6.6-17.1,6.9-24,0.9c-6-7-5.6-17.4,0.9-24    c5.5-5.5,13.7-6.6,20.4-3.4l3.6-3.6l6.1,6.1L33.7,21.5z" fill="#4D5D5F" id="XMLID_1052_"/><path d="M39.2,19.8c-0.1,0.1-0.3,0.1-0.5-0.1c-0.8-0.4-2.4-1.7-4.1-3.3c-1.7-1.7-3-3.3-3.3-4.1    c-0.1-0.3-0.1-0.5-0.1-0.5c0.3-0.3,2.4,1.2,4.6,3.4C38.1,17.4,39.6,19.5,39.2,19.8z" fill="#231F20" id="XMLID_1053_"/><path d="M38.7,19.8c-0.7-0.3-2-1.3-3.4-2.6c-0.2-0.2-0.5-0.5-0.7-0.7c-0.2-0.2-0.3-0.4-0.5-0.5    c-1.4-1.5-2.5-2.8-2.8-3.6c0.8,0.4,2.3,1.6,4,3.2c0.1,0.1,0.1,0.1,0.2,0.2c0.3,0.3,0.7,0.7,1,1C37.5,18,38.4,19.1,38.7,19.8z" fill="#231F20" id="XMLID_1054_"/><g id="XMLID_1055_"><path d="M39.8,9.9c0,0.4-0.3,0.8-0.7,0.9c-0.3,0-0.8,0.7-0.9,1.1c-0.3,0.8-0.4,1.6-0.5,2.5     c-0.1,0.5-0.3,1.5-1.1,2.2c-0.1,0-0.1,0.1-0.2,0.1c-0.3,0.2-0.7,0.4-1,0.5c-0.2-0.2-0.5-0.5-0.7-0.7c-0.2-0.2-0.3-0.4-0.5-0.5     c0.1,0,0.1-0.1,0.2-0.1c0.1,0,0.3-0.1,0.4-0.1c0.2-0.1,0.4-0.1,0.6-0.2c0.1,0,0.2-0.1,0.3-0.2c0.3-0.2,0.5-0.7,0.6-1.2     c0.1-1,0.3-1.9,0.6-2.8c0.2-0.7,1-2,2.2-2.1C39.3,9.1,39.7,9.5,39.8,9.9z" fill="#FCBD74" id="XMLID_1056_"/></g><ellipse cx="10.9" cy="26.9" fill="#5A6869" rx="10.9" ry="6.6" transform="matrix(0.4693 -0.883 0.883 0.4693 -17.9437 23.9204)"/><ellipse cx="9.2" cy="25.9" fill="#FFFFFF" opacity="0.25" rx="4.8" ry="2.9" transform="matrix(0.4693 -0.883 0.883 0.4693 -18.0024 21.8574)"/></g><g id="XMLID_1057_"><path d="M43.4,1c-2.8,5.4-2.8,6.7-0.1,5.8c-2.7,0.9-1.6,1.7,4.7,3.4c-6.4-1.7-7.6-1.3-5.5,1.7    c-2.1-3-2.5-1.7-1.7,5.5c-0.7-7.2-1.5-8.3-3.3-4.7c1.8-3.6,0.5-3.6-5.8,0C37.9,9.1,38.7,8,35.1,8c3.6,0,3.2-1.3-1.8-5.5    c5,4.2,6.3,4.6,5.5,1.9C39.5,7.2,40.6,6.4,43.4,1z" fill="#F26731"/><path d="M42,3.7c-1.7,3.4-1.8,4.2-0.1,3.6c-1.7,0.6-1,1.1,2.9,2.1c-3.9-1-4.7-0.8-3.4,1c-1.3-1.8-1.5-1.1-1.1,3.4    c-0.4-4.5-0.9-5.2-2.1-2.9c1.1-2.2,0.3-2.2-3.6,0C38.6,8.7,39.1,8,36.8,8c2.2,0,2-0.8-1.1-3.4c3.1,2.6,3.9,2.9,3.4,1.2    C39.6,7.5,40.2,7,42,3.7z" fill="#FAF077"/><path d="M40.8,6c-0.8,1.5-0.8,1.9,0,1.6c-0.8,0.3-0.5,0.5,1.3,0.9c-1.8-0.5-2.1-0.4-1.6,0.5    c-0.6-0.8-0.7-0.5-0.5,1.6c-0.2-2-0.4-2.3-0.9-1.3c0.5-1,0.1-1-1.6,0c1.8-1,2-1.3,1-1.3c1,0,0.9-0.4-0.5-1.5    c1.4,1.2,1.8,1.3,1.5,0.5C39.7,7.8,40,7.6,40.8,6z" fill="#FAAF42"/></g></g></svg>