<?xml version="1.0" ?><svg viewBox="0 0 512 512" xmlns="http://www.w3.org/2000/svg"><title/><g data-name="filled outline" id="filled_outline"><path d="M473.928,454.284c4.474-97.209-7.677-224.251-16.516-260.332H54.588C45.749,230.033,33.6,357.075,38.072,454.284,30.929,458.84,21.13,473.96,26.234,481.9c4.971,7.732,16.021,3.165,23.2,2.945,46.688-1.425,93.9,19.148,206.568,19.148s159.88-20.573,206.568-19.148c7.177.22,18.227,4.787,23.2-2.945C490.87,473.96,481.071,458.84,473.928,454.284Z" style="fill:#aa5d3f"/><circle cx="255.994" cy="355.972" r="102.81" style="fill:#f9f0d9"/><path d="M316.38,439.18a102.885,102.885,0,0,1-113.57,4.8s14.51-9.78,21.12-15.78,12.97-10.22,19.31-10.07,5.58,1.59,11.4-2.38c7.61-5.19,19.7-2.98,41.68,13.08C300.59,431.95,316.38,439.18,316.38,439.18Z" style="fill:#774f47"/><path d="M245.626,367.89a3.969,3.969,0,0,1-2.141,3.735,31.667,31.667,0,0,1-30.643-.5c-11.721-6.721-18.693-20.778-21.644-28.011a3.994,3.994,0,0,1,3.059-5.454c7.8-1.28,23.7-2.7,35.458,4.038A31.665,31.665,0,0,1,245.626,367.89Z" style="fill:#a6c427"/><path d="M266.374,367.89a3.969,3.969,0,0,0,2.141,3.735,31.667,31.667,0,0,0,30.643-.5c11.721-6.721,18.693-20.778,21.644-28.011a4,4,0,0,0-3.059-5.454c-7.8-1.28-23.7-2.7-35.458,4.038A31.665,31.665,0,0,0,266.374,367.89Z" style="fill:#a6c427"/><path d="M253.652,331.957a3.968,3.968,0,0,0,4.305.016A31.665,31.665,0,0,0,272.869,305.2c.053-13.511-8.623-26.585-13.406-32.761a3.993,3.993,0,0,0-6.252-.084c-5.017,6.113-14.21,19.159-14.263,32.714A31.668,31.668,0,0,0,253.652,331.957Z" style="fill:#a6c427"/><path d="M491.176,472.2c-1.713-7.812-7.394-15.785-12.646-20.107,4.347-100.726-8.3-224.734-16.747-259.208a4.5,4.5,0,0,0-4.371-3.429H54.588a4.5,4.5,0,0,0-4.371,3.429C41.772,227.355,29.123,351.363,33.47,452.089c-5.252,4.322-10.933,12.3-12.646,20.107-1.028,4.687-.466,8.885,1.625,12.137,5.33,8.291,14.847,6.774,21.8,5.667a46.1,46.1,0,0,1,5.324-.657c18.811-.577,37.739,2.51,61.7,6.414,34.817,5.674,78.149,12.736,144.732,12.736s109.915-7.062,144.732-12.736c23.96-3.9,42.886-6.989,61.7-6.414a46.1,46.1,0,0,1,5.324.657c6.949,1.106,16.466,2.623,21.8-5.667C491.642,481.081,492.2,476.883,491.176,472.2Zm-9.195,7.27c-2,3.112-6.37,2.671-12.81,1.646a51.825,51.825,0,0,0-6.465-.765c-19.685-.6-38.984,2.545-63.421,6.528-34.5,5.621-77.431,12.618-143.285,12.618s-108.788-7-143.285-12.618c-22.413-3.653-40.506-6.6-58.534-6.6q-2.442,0-4.887.074a51.825,51.825,0,0,0-6.465.765c-6.439,1.025-10.81,1.466-12.81-1.646-.971-1.51-.756-3.739-.4-5.342,1.368-6.241,6.83-13.465,10.877-16.046a4.548,4.548,0,0,0,.4-.295c.018-.015.038-.024.055-.038a51.634,51.634,0,0,1,10.28-6.516,4.5,4.5,0,1,0-3.592-8.251,44.555,44.555,0,0,0-5.4,2.862c-3.394-94.3,7.99-210.526,15.941-247.388H453.827c7.951,36.862,19.335,153.089,15.941,247.388a44.555,44.555,0,0,0-5.4-2.862,4.5,4.5,0,1,0-3.592,8.251,51.6,51.6,0,0,1,10.277,6.514c.017.014.037.023.054.037a4.309,4.309,0,0,0,.4.3c4.047,2.581,9.509,9.805,10.877,16.046C482.737,475.727,482.952,477.956,481.981,479.466Z" style="fill:#513232"/><path d="M255.99,248.66A107.314,107.314,0,1,0,363.3,355.97,107.431,107.431,0,0,0,255.99,248.66Zm0,205.62a98.3,98.3,0,0,1-44.673-10.718,189.386,189.386,0,0,0,15.638-12.027c6.812-6.177,11.958-8.987,16.178-8.905,1.4.035,2.392.137,3.268.227,4.022.414,5.712.06,10.772-3.392,6.5-4.437,18.441-.188,36.49,12.994,2.625,1.917,8.682,5,13.62,7.4A97.519,97.519,0,0,1,255.99,454.28Zm0-152.117a4.5,4.5,0,0,0-4.5,4.5v17.773a26.5,26.5,0,0,1-8.046-19.351c.047-12.06,8.694-24.236,12.844-29.388,3.943,5.189,12.125,17.42,12.077,29.485a26.485,26.485,0,0,1-7.875,18.98v-17.5A4.5,4.5,0,0,0,255.994,302.163Zm59.84,131.8c-5.249-2.462-14.141-6.784-16.863-8.773-16.677-12.18-29-17.475-38.477-16.317V387.092a126.678,126.678,0,0,1,8.095-10.453,38.027,38.027,0,0,0,15.088,3.223,35.194,35.194,0,0,0,17.719-4.834c12.771-7.323,20.25-22.073,23.572-30.215a8.493,8.493,0,0,0-6.5-11.594c-8.842-1.451-25.59-2.785-38.426,4.574-15.445,8.856-17.849,23.833-18.166,29.86a8.422,8.422,0,0,0,.289,2.629c-.576.653-1.132,1.3-1.675,1.95V335.691c5.141-3.317,16.807-12.8,16.875-30.474.058-14.721-8.965-28.582-14.348-35.534a8.448,8.448,0,0,0-6.6-3.3,8.547,8.547,0,0,0-6.694,3.112c-5.683,6.926-15.226,20.755-15.284,35.551-.069,17.805,11.691,27.386,16.75,30.678.095.062.2.105.3.163v36.326c-.539-.643-1.091-1.287-1.663-1.935a8.415,8.415,0,0,0,.289-2.628c-.317-6.028-2.721-21-18.166-29.861-12.835-7.359-29.583-6.025-38.426-4.574a8.493,8.493,0,0,0-6.5,11.594c3.322,8.141,10.8,22.892,23.572,30.215a35.194,35.194,0,0,0,17.719,4.834,38.057,38.057,0,0,0,15.088-3.223,127.11,127.11,0,0,1,8.083,10.435v25.37c-2.411,1.638-2.535,1.628-4.169,1.461-.937-.1-2.221-.229-3.974-.272-8.67-.226-16.552,5.894-22.442,11.235-4.718,4.279-13.862,10.728-18.207,13.731A98.315,98.315,0,1,1,354.3,355.97,98.692,98.692,0,0,1,315.834,433.964Zm-21.609-79.456a4.5,4.5,0,0,0-5.72-2.791,55.821,55.821,0,0,0-16.246,8.976A26.375,26.375,0,0,1,284.523,345.6c10.462-6,25.332-4.612,31.87-3.6-2.517,6.012-9.007,19.219-19.474,25.22a26.578,26.578,0,0,1-21.337,2.415,48.351,48.351,0,0,1,15.852-9.408A4.5,4.5,0,0,0,294.225,354.508Zm-73.659,5.719a48.351,48.351,0,0,1,15.852,9.408,26.572,26.572,0,0,1-21.338-2.415c-10.467-6-16.956-19.209-19.473-25.22,6.538-1.013,21.408-2.4,31.87,3.6a26.375,26.375,0,0,1,12.264,15.092,55.821,55.821,0,0,0-16.246-8.976,4.5,4.5,0,1,0-2.929,8.51Z" style="fill:#513232"/><path d="M400.214,62.971a38.628,38.628,0,0,1-16.042-9.66c-17.7-17.865-35.081-30.68-80.672-29.667-8.173.182-25.775-13.2-47.5-15.4C186,4,158.423,44.543,148.85,45.918s-32.512,5.7-45.35,14.582c-7.594,5.257-14.294,11.829-26.459,28.817C188.878,167.207,309.9,162.954,438.475,91.1,435.15,82.88,426.436,71.079,400.214,62.971Z" style="fill:#774f47"/><path d="M461.8,139.12c4.408-9.463,8.533-14.12,6.473-28.609-1.517-10.663-15.829-23.868-29.8-19.413C351,119,188.5,123,77.041,89.317c-9.149-2.765-28.149-.491-30.374,21.016a33.331,33.331,0,0,0,7.677,24.42,9.734,9.734,0,0,1,2.094,9.519C53.55,152.36,41,154.333,41,172c0,20.275,14.941,22.59,24.3,24.544,148.37,30.994,289.352,26.069,392.115-2.592,7.848-2.189,10.756-7.732,10.678-15.88C467.919,160.324,452.4,159.3,461.8,139.12Z" style="fill:#cc7a4e"/><path d="M465.879,141.021c.681-1.461,1.362-2.819,2.021-4.133,3.625-7.221,6.756-13.456,4.828-27.011-1.038-7.3-6.563-15.057-14.077-19.771a26.374,26.374,0,0,0-17.657-4.173c-6.365-11.956-19.6-21.122-39.45-27.262a34.223,34.223,0,0,1-14.175-8.528c-17.433-17.592-35.765-32.054-83.97-31h-.082c-2.414,0-7.409-2.256-12.693-4.643-8.761-3.958-20.759-9.377-34.166-10.735l-.181-.015C201.617.441,172.35,23.321,156.626,35.614c-3.349,2.618-7.146,5.587-8.416,5.85-7.434,1.067-32.812,5.328-47.271,15.336C93.578,61.9,86.882,68.145,75.13,84.279a29.885,29.885,0,0,0-21.12,4.249c-4.709,3.134-10.582,9.38-11.82,21.343a37.819,37.819,0,0,0,8.722,27.793,5.269,5.269,0,0,1,1.288,5.095c-.66,1.849-2.393,3.468-4.586,5.518C42.924,152.661,36.5,158.666,36.5,172c0,23.209,17.468,26.806,26.853,28.738l1.024.211a995.324,995.324,0,0,0,201.9,21.224c69.492,0,135.3-7.975,192.347-23.886,9.373-2.615,14.072-9.43,13.969-20.258-.082-8.5-3.262-13.849-5.818-18.145C463.5,154.388,461.344,150.757,465.879,141.021ZM106.061,64.2c10.2-7.063,29.124-11.774,43.428-13.827,3.519-.5,7.163-3.355,12.68-7.669,14.777-11.552,42.277-33.048,93.472-29.973,11.911,1.226,22.647,6.075,31.277,9.974,6.848,3.093,12.245,5.55,16.682,5.439,44.665-1,60.865,11.672,77.376,28.334A43.248,43.248,0,0,0,398.885,67.27c16.415,5.076,27.522,12.164,33.138,21.1C349.607,112.948,197.168,119.018,84.451,86.8,94.182,73.751,99.908,68.459,106.061,64.2ZM456.2,189.618c-56.3,15.7-121.242,23.568-189.9,23.567A986.8,986.8,0,0,1,66.217,192.14l-1.05-.218C55.949,190.024,45.5,187.874,45.5,172c0-9.428,4.012-13.178,8.26-17.148,2.6-2.431,5.273-4.954,6.719-8.6,29.026,17.887,103.606,25.339,113.1,26.224.142.014.283.02.423.02a4.5,4.5,0,0,0,.413-8.98c-.258-.024-26.081-2.465-53.394-7.628-46.783-8.844-59.114-18.087-62.3-22.809l-.007-.008c-.293-.419-.6-.832-.941-1.232A28.648,28.648,0,0,1,51.143,110.8c.7-6.805,3.346-11.776,7.853-14.775A20.478,20.478,0,0,1,70.2,92.874a19.5,19.5,0,0,1,5.535.75c56.206,16.986,122.917,24.235,186.4,24.233,68.934,0,134.062-8.553,177.7-22.472,5.935-1.893,11.335.656,14.026,2.344,5.2,3.263,9.29,8.779,9.949,13.416,1.532,10.766-.535,14.883-3.96,21.706-.688,1.371-1.4,2.789-2.136,4.369h0c-.019.039-.034.076-.052.115h0c-8.006,18.546-79.141,24.161-122.113,23.34a4.5,4.5,0,0,0-.173,9c.075,0,2.064.037,5.493.037,9.813,0,31.416-.29,53.632-2.495,28.318-2.811,48.139-7.611,59.893-14.542.5,4.84,2.638,8.448,4.637,11.809,2.312,3.887,4.5,7.558,4.553,13.631C463.665,185.931,460.691,188.366,456.2,189.618Z" style="fill:#513232"/><path d="M115.8,75c-1.136-3.36-.447-5.8,2.914-6.938s7.059.128,8.194,3.488.393,6.343-2.967,7.479A6.423,6.423,0,0,1,115.8,75Z" style="fill:#513232"/><path d="M171.708,54.308c0,3.322-1.178,5-4.5,5S160.6,58.18,160.6,54.859a6.014,6.014,0,0,1,6.015-6.014C169.933,48.845,171.708,50.987,171.708,54.308Z" style="fill:#513232"/><path d="M155.556,70.881c0,3.57-1.977,4.536-3.8,4.814-2.737.416-6.224-1.244-6.224-4.814s1.784-4.805,4.553-4.805S155.556,67.312,155.556,70.881Z" style="fill:#513232"/><path d="M178.056,88.337c0,3.569-1.977,4.536-3.8,4.814-2.737.416-6.224-1.245-6.224-4.814s1.784-4.805,4.553-4.805S178.056,84.767,178.056,88.337Z" style="fill:#513232"/><path d="M143.528,88.337c0,3.569-1.977,4.536-3.8,4.814-2.737.416-6.224-1.245-6.224-4.814s1.784-4.805,4.553-4.805S143.528,84.767,143.528,88.337Z" style="fill:#513232"/></g></svg>