<?xml version="1.0" ?><svg id="Layer_1" style="enable-background:new 0 0 53 53;" version="1.1" viewBox="0 0 53 53" xml:space="preserve" xmlns="http://www.w3.org/2000/svg" xmlns:xlink="http://www.w3.org/1999/xlink"><style type="text/css">
	.st0{fill:#604836;}
	.st1{fill:#383330;}
	.st2{fill:#4F392D;}
	.st3{fill:#6B543D;}
	.st4{fill:#C9CEE2;}
	.st5{enable-background:new    ;}
	.st6{fill:#9EA9C9;}
	.st7{fill:#423B37;}
	.st8{fill:#282422;}
	.st9{fill:#2B2725;}
	.st10{fill:#191716;}
	.st11{fill:#E3E7F0;}
	.st12{fill:#B0B8CF;}
	.st13{fill:#514A46;}
	.st14{fill:#1F1C1A;}
	.st15{fill:#302C29;}
	.st16{fill:#1E1B1A;}
	.st17{fill:#52534D;}
	.st18{fill:#563F30;}
	.st19{fill:#BFB090;}
	.st20{fill:#878554;}
	.st21{fill:#B0AF6F;}
	.st22{fill:#989761;}
	.st23{fill:#8D613A;}
	.st24{fill:#B4895E;}
	.st25{fill:#4F4743;}
	.st26{fill:#5B5450;}
	.st27{fill:#23201E;}
	.st28{fill:#56514F;}
	.st29{fill:#423E3D;}
	.st30{fill:#55504E;}
	.st31{fill:#4A4644;}
	.st32{fill:#2E2B2A;}
	.st33{fill:#514A47;}
	.st34{fill:#F5C403;}
	.st35{fill:#4C4644;}
	.st36{fill:#262220;}
	.st37{fill:#312C29;}
	.st38{fill:#332E2A;}
	.st39{fill:#564E4A;}
	.st40{fill:#C69C6C;}
	.st41{fill:#4F4946;}
	.st42{fill:#FFFFFF;}
	.st43{fill:#151312;}
	.st44{fill:#D1C39F;}
	.st45{fill:#4C5C75;}
	.st46{fill:#2D2C2B;}
	.st47{fill:#B2A286;}
	.st48{fill:#A39379;}
	.st49{fill:none;}
	.st50{fill:#774B24;}
	.st51{fill:#7D6562;}
	.st52{fill:#663E20;}
	.st53{fill:#0F0E0E;}
	.st54{fill:#544B47;}
	.st55{fill:#5B5350;}
	.st56{fill:#4F4844;}
	.st57{fill:#5E5652;}
	.st58{fill:#4C4643;}
	.st59{fill:#514B48;}
	.st60{fill:#221F1D;}
	.st61{fill:#544D49;}
	.st62{fill:#BD9702;}
	.st63{fill:#4C4440;}
	.st64{fill:#514C49;}
	.st65{fill:#39332F;}
	.st66{fill:#403A36;}
	.st67{fill:#403935;}
	.st68{fill:#564D49;}
	.st69{fill:#23201D;}
	.st70{fill:#332E2B;}
	.st71{fill:#59524F;}
	.st72{fill:#423D9B;}
	.st73{fill:#6A543A;}
	.st74{fill:#997853;}
	.st75{fill:#AB865D;}
	.st76{fill:#595450;}
	.st77{fill:#4F4845;}
	.st78{fill:#0D0C0C;}
	.st79{fill:#8C8A9E;}
	.st80{fill:#352F2D;}
	.st81{fill:#3D3734;}
	.st82{fill:#2A2928;}
	.st83{fill:#3D3B39;}
	.st84{fill:#444140;}
	.st85{fill:#4F4C4A;}
	.st86{fill:#56504E;}
	.st87{fill:#161413;}
	.st88{fill:#383533;}
	.st89{fill:#545251;}
	.st90{fill:#514945;}
	.st91{fill:#42412A;}
	.st92{fill:#A4A259;}
	.st93{fill:#C0BD78;}
	.st94{fill:#A5A569;}
	.st95{fill:#B1B060;}
	.st96{fill:#5F5E33;}
	.st97{fill:#989753;}
	.st98{fill:#89884A;}
	.st99{fill:#7B7A4E;}
	.st100{fill:#525133;}
	.st101{fill:#7A794D;}
	.st102{fill:#43412C;}
	.st103{fill:#514B47;}
	.st104{fill:#211E1C;}
	.st105{fill:#494340;}
	.st106{fill:#1D1B19;}
	.st107{fill:#665B56;}
	.st108{fill:#F45170;}
	.st109{fill:#605753;}
	.st110{fill:#070707;}
	.st111{fill:#605A57;}
	.st112{fill:#4B4744;}
	.st113{fill:#2F2C2A;}
	.st114{fill:#33302F;}
	.st115{fill:#57524F;}
	.st116{fill:#56504D;}
	.st117{fill:#635B57;}
	.st118{fill:#DF3260;}
	.st119{fill:#5B534F;}
	.st120{fill:#605752;}
	.st121{fill:#C2CEE3;}
	.st122{fill:#685F5C;}
	.st123{fill:#3B3531;}
	.st124{fill:#59504C;}
	.st125{fill:#BDC172;}
	.st126{fill:#51502C;}
	.st127{fill:#D3A87D;}
	.st128{fill:#4C4541;}
	.st129{fill:#2D2826;}
	.st130{fill:#413A37;}
	.st131{fill:#48413D;}
	.st132{fill:#49423E;}
	.st133{fill:#544C48;}
	.st134{fill:#E5AF05;}
	.st135{fill:#D39E09;}
	.st136{fill:#C99209;}
	.st137{fill:#544E4B;}
	.st138{fill:#1C1A18;}
	.st139{fill:#595553;}
	.st140{fill:#564F4C;}
	.st141{fill:#59514D;}
	.st142{fill:#544E4C;}
	.st143{fill:#8B6A49;}
	.st144{fill:#5B5756;}
	.st145{fill:#686741;}
	.st146{fill:#65673D;}
	.st147{fill:#8C8F54;}
	.st148{fill:#A3A662;}
	.st149{fill:#929558;}
	.st150{fill:#514C4A;}
	.st151{fill:#BF7D5A;}
	.st152{fill:#9B9FAF;}
	.st153{fill:#544C47;}
	.st154{fill:#131211;}
	.st155{fill:#5E5753;}
	.st156{fill:#606060;}
</style><g id="_x33_1"><g><g><g><g><g class="st5"><g><g><polygon class="st40" points="14.2525759,26.6358604 16.4702797,25.3470764 16.4801655,25.3417454 14.2624607,26.6305332                   "/></g></g><g><g><path class="st40" d="M18.461298,28.2626133l-2.2177086,1.2887936          c0.0131912-0.0076675,0.0249939-0.0182648,0.0350513-0.0318871l2.2177029-1.2887878          C18.4862881,28.2443523,18.4744835,28.2549515,18.461298,28.2626133z"/></g></g><g><g><path class="st40" d="M15.9327068,21.1379032c-0.0000696,0.0056095-0.0000944,0.0112762-0.0000753,0.0170021          l-2.2177124,1.2887974c-0.0000105-0.0057335,0.0000143-0.0114021,0.0000839-0.0170116          C14.4542255,21.9971027,15.1934748,21.5675011,15.9327068,21.1379032z"/></g></g><g><g><path class="st40" d="M15.9327068,21.1379032c-0.7392321,0.4295979-1.4784813,0.8591995-2.2177105,1.2887936          c0.0033016-0.2661438,0.1057358-0.4034271,0.2252216-0.4728584l2.2176971-1.288784          C16.038435,20.7344818,15.9360018,20.8717651,15.9327068,21.1379032z"/></g></g><g><g><polygon class="st40" points="14.3249826,18.7771893 16.5426865,17.4884014 16.5338516,20.6048603 14.3161478,21.8936481                   "/></g></g><g><g><path class="st7" d="M13.9441166,21.958231l2.2176971-1.2887878          c0.1640129-0.0953121,0.3587933-0.0649586,0.3760433-0.0622692l-2.2177124,1.2887936          C14.3029032,21.8932743,14.1081228,21.8629208,13.9441166,21.958231z"/></g></g><g><g><path class="st23" d="M14.8300171,17.2594776l-2.2200317,1.289978c-1.0499878,0.1699829-4.1900024-1.4799805-5.75-2.3800049          c-0.4199829-0.2399902-0.7299805-0.4299927-0.8399658-0.5199585          c-0.5599976-0.3800049-1.1700439-1.0200195-1.2000122-1.0600586l2.2199707-1.289978          c0.0300293,0.039978,0.6400146,0.6799927,1.1900024,1.0700073c0.1199951,0.0800171,0.4299927,0.2700195,0.8500366,0.5100098          C10.6400146,15.7794361,13.7800293,17.4294605,14.8300171,17.2594776z"/></g></g><g><g><path class="st40" d="M4.8187518,14.5928774l2.2177-1.2887878c0.0321045,0.0337944,0.6420178,0.6758976,1.1963181,1.0606546          c0.1178627,0.0828037,0.4237232,0.2712154,0.8449059,0.5143862          c1.5595512,0.9004068,4.7018366,2.5525579,5.7511711,2.3828402l-2.2177038,1.2887878          c-1.0493345,0.1697197-4.1916199-1.4824333-5.7511711-2.3828392          c-0.4211826-0.2431707-0.7270427-0.4315825-0.8449059-0.5143871          C5.4607658,15.2687759,4.8508525,14.6266718,4.8187518,14.5928774z"/></g></g><g><g><path class="st40" d="M18.1665363,22.4723892c0.3491688,0.6137543,0.4345131,1.0187836,0.4351864,1.2722473          l-2.2177048,1.2887897c-0.0006714-0.2534657-0.0860157-0.6584949-0.4351854-1.2722473          C16.6141376,23.374548,17.5012169,22.8590317,18.1665363,22.4723892z"/></g></g><g><g><g><path class="st23" d="M18.5499878,26.7494678c0,0.039978-0.0100098,0.0700073-0.0299683,0.0899658           C18.5,26.869463,18.4699707,26.8794727,18.4400024,26.8794727h-0.1099854L18.5499878,26.7494678z"/></g></g></g><g><g><path class="st7" d="M20.7104206,25.5779476l-2.2177124,1.2887936          c-0.022707,0.0131969-0.0512066,0.0148907-0.0816383,0.013216l2.2176971-1.2887821          C20.6592045,25.592844,20.687706,25.5911484,20.7104206,25.5779476z"/></g></g><g><g><g><path class="st23" d="M18.5499878,26.7394581l0.0100098-1.4000244l-2.6099854-1.5799561           c0.3499756,0.6199951,0.4299927,1.0199585,0.4299927,1.2699585v0.0300293           c0,0.1900024-0.0700073,0.3300171-0.1900024,0.4000244l-1.9299927,1.1699829           c-0.0599976,0.0299683-0.1000366,0.0999756-0.1099854,0.2000122l-0.0100098,0.0700073           c-0.0200195,0.1699829,0.0599976,0.3999634,0.2000122,0.5699463l1.6199951,1.960022           C16,29.4794483,16.039978,29.5094776,16.0800171,29.5394459c0.0799561,0.0400391,0.1599731,0.0400391,0.2000122-0.0199585           L18.5,28.2294483l1.9699707-2.5999756L18.5499878,26.7394581z M18.5200195,26.8394337           C18.5,26.869463,18.4699707,26.8794727,18.4400024,26.8794727h-0.1099854l0.2199707-0.1300049           C18.5499878,26.7894459,18.539978,26.8194752,18.5200195,26.8394337z"/><path class="st23" d="M18.5499878,26.7494678c0,0.039978-0.0100098,0.0700073-0.0299683,0.0899658           C18.5,26.869463,18.4699707,26.8794727,18.4400024,26.8794727h-0.1099854L18.5499878,26.7494678z"/></g></g></g><g><g><g><polygon class="st23" points="18.2499771,26.9210548 20.46768,25.6322651 18.4963436,28.230732 16.2786407,29.5195198                     "/></g></g></g><g><g><g><path class="st24" d="M15.9488325,23.761179l2.6074743,1.5747986l-0.0079975,1.4058609           c-0.0001163,0.041111-0.010149,0.0753365-0.0284481,0.0992069           c-0.0201321,0.0250225-0.0469151,0.0379257-0.0806198,0.0366726l-0.1086731,0.0066319l-0.0805912,0.036705           l-1.9713364,2.598465c-0.0429344,0.0581493-0.1176987,0.0611954-0.1959286,0.0160294           c-0.039566-0.0228424-0.0800514-0.0580254-0.1177473-0.1046276l-1.6203661-1.9575462           c-0.1444016-0.1758556-0.224247-0.402319-0.1996088-0.5730667l0.0042152-0.0715656           c0.012372-0.0992203,0.0487804-0.1660614,0.1132555-0.1982098l1.9270496-1.1672993           c0.1169071-0.071249,0.189764-0.2095318,0.1943321-0.4057617c0.0001583-0.007843,0.0002079-0.0158577,0.0001774-0.0240459           C16.3833466,24.7799606,16.2980022,24.3749313,15.9488325,23.761179z"/></g></g></g><g><g><path class="st40" d="M15.9488325,23.761179c0.3491697,0.6137524,0.434514,1.0187817,0.4351873,1.2722473          c-0.0006847-0.2493172-0.0834885-0.645462-0.4184599-1.2424393          C15.9599657,23.7810287,15.9545622,23.771246,15.9488325,23.761179z"/></g></g><g><g><g><polygon class="st23" points="12.6111431,18.5507584 14.8288469,17.2619705 15.6788216,16.9896488 13.4611187,18.2784367                     "/></g></g></g><g><g><polygon class="st7" points="18.518383,26.8428574 20.7360859,25.5540676 21.3109531,26.2994919 19.0932484,27.5882816                   "/></g></g><g><g><path class="st40" d="M20.7282047,25.5625477c-0.0056953,0.0055141-0.011837,0.0102043-0.0184269,0.0140343          l-2.2177124,1.2887955c0.0065994-0.0038357,0.0127392-0.0085258,0.0184364-0.01404          C19.2497234,26.4217453,19.9889717,25.9921436,20.7282047,25.5625477z"/></g></g><g><g><path class="st40" d="M20.7282047,25.5625477c-0.0507431,0.0383949-0.109272,0.0635052-0.1638813,0.0952415          c-0.0545921,0.0317268-0.1092491,0.0634823-0.1638412,0.095211          c-0.6299992,0.3661098-1.2599888,0.7322292-1.8899899,1.0983391          c0.0032749-0.0031643,0.0063953-0.0065975,0.0093689-0.010294c0.0182991-0.0238705,0.0283318-0.0580959,0.0284481-0.0992069          l2.2176971-1.2887859c-0.0001106,0.0411072-0.0101414,0.0753345-0.0284424,0.099205          C20.7345905,25.555954,20.7314701,25.5593872,20.7282047,25.5625477z"/></g></g><g><g><path class="st23" d="M14.3200073,18.7794361v3.1100464c-0.0300293,0-0.6099854-0.0900269-0.6099854,0.5499878          l-1.0200195-0.5900269c-0.1199951-0.0499878-2.3400269-1.0199585-4.9000244-0.8899536          c-2.5700073,0.1399536-3.5599976,0-3.6099854-0.0100098c-0.0499878,0.0199585-0.9500122,0.3099976-1.4199829,0.039978          C2.5999756,20.8894825,2.5,20.7394581,2.5,20.4794483c0-0.1499634,0.0200195-6.8599854,0.0200195-7.2099609          l2.2199707-1.2900391l2.2999878,1.3200073l-2.2199707,1.289978          c0.0299683,0.0400391,0.6400146,0.6800537,1.2000122,1.0600586          c0.1099854,0.0899658,0.4199829,0.2799683,0.8399658,0.5199585c1.5599976,0.9000244,4.7000122,2.5499878,5.75,2.3800049          l0.8500366-0.2700195L14.3200073,18.7794361z"/><polygon class="st23" points="16.539978,17.4894581 14.3200073,18.7794361 13.460022,18.2794361 15.6799927,16.9894581                   "/></g></g><g><g><g><polygon class="st23" points="2.520462,13.2659588 4.7381659,11.9771709 7.0364556,13.3040886 4.8187518,14.5928774                     "/></g></g></g><g><g><g><path class="st24" d="M14.3249826,18.7771893l-0.0088348,3.1164589           c-0.0301714-0.0049324-0.6034203-0.0986633-0.6012201,0.550045l-1.0246048-0.5915565           c-0.1169691-0.0511131-2.3393831-1.0222969-4.9033923-0.8886738           c-2.5640364,0.133606-3.5576944-0.0051498-3.609992-0.0124531C4.1298385,20.9663486,3.234942,21.257782,2.762995,20.985302           c-0.1583149-0.0914021-0.2637146-0.2479095-0.2629912-0.5030136           c0.0004449-0.1569767,0.0194576-6.8633614,0.0204582-7.2163296l2.2982898,1.3269186           c0.0321007,0.0337944,0.642014,0.6758986,1.1963143,1.0606546           c0.1178632,0.0828047,0.4237232,0.2712164,0.8449059,0.5143871           c1.5595512,0.9004059,4.7018366,2.5525589,5.7511711,2.3828392l0.8499756-0.2723217L14.3249826,18.7771893z"/></g></g></g><g><g><polygon class="st40" points="13.4611187,18.2784367 15.6788216,16.9896488 16.5426865,17.4884014 14.3249826,18.7771893                   "/></g></g><g><g><polygon class="st7" points="19.0932484,27.5882816 21.3109531,26.2994919 22.1065044,26.7588043 19.8888016,28.0475941                   "/></g></g><g><g><polygon class="st40" points="15.9488325,23.761179 18.1665363,22.4723892 20.7740116,24.0471897 18.5563068,25.3359776                   "/></g></g><g><g><polygon class="st40" points="18.5563068,25.3359776 20.7740116,24.0471897 20.7660122,25.4530487 18.5483093,26.7418385                   "/></g></g><g><g><polygon class="st7" points="19.8888016,28.0475941 22.1065044,26.7588043 22.4773388,26.5566998 20.259634,27.8454876                   "/></g></g><g><g><polygon class="st7" points="20.388052,27.9797497 22.6057549,26.6909618 22.5855541,26.7116642 20.3678493,28.0004539                   "/></g></g><g><g><path class="st4" d="M21.4199829,25.9394703l-2.2199707,1.289978          c-0.0400391-0.0299683-0.7399902-0.6499634-0.3099976-1.6900024l0.4299927,0.25l2.1499634-1.25          C21.2999878,24.6394825,20.9199829,24.9894581,21.4199829,25.9394703z"/></g></g><g><g><path class="st4" d="M19.2552872,25.8298779l2.2177048-1.2887878          c-0.1736851,0.100935-0.5560551,0.4477139-0.0563774,1.3985748l-2.2177086,1.2887878          C18.6992321,26.2775917,19.0816021,25.9308128,19.2552872,25.8298779z"/></g></g><g><g><path class="st42" d="M18.8890209,25.5350475l0.4387112,0.260191          c-0.0386314,0.0135117-0.7369366,0.2760048-0.1288204,1.4332142          C19.1620235,27.1960697,18.4611549,26.5807953,18.8890209,25.5350475z"/></g></g><g><g><polygon class="st7" points="18.8890209,25.5350475 21.1067238,24.2462597 21.5454369,24.5064487 19.3277321,25.7952385                   "/></g></g><g><g><polygon class="st68" points="20.4860287,27.4906178 22.7037334,26.2018299 22.6057549,26.6909618 20.388052,27.9797497                   "/></g></g><g><g><polygon class="st7" points="20.4781475,27.4305725 22.6958504,26.1417847 22.7037334,26.2018299 20.4860287,27.4906178                   "/></g></g><g><g><polygon class="st7" points="20.2822704,26.9567719 22.4999733,25.6679821 22.6958504,26.1417847 20.4781475,27.4305725                   "/></g></g><g><g><polygon class="st7" points="20.1151943,26.2683678 22.3328972,24.979578 22.4273968,25.0341377 20.209692,26.3229256                   "/></g></g><g><g><path class="st1" d="M20.2518196,26.3472481l0.0304508,0.6095238l0.1958771,0.4738007l0.0078812,0.0600452          l-0.0979767,0.4891319l-0.0202026,0.0207043l-0.4071102,0.2227764l-0.0442619-0.0024242l-0.8437557-0.4871426          l-0.0361462-0.0347481l-0.6255054-0.8189583c0.0434437,0.0023918,0.0829487-0.0020847,0.1073132-0.0370998          l0.5748653,0.7454243l0.7955532,0.4593124l0.3708324-0.2021065l0.0897827-0.4383678l-0.191885-0.4576187          l-0.0079327-0.0415707l-0.0344048-0.6395626l0.0944977,0.0545578L20.2518196,26.3472481z"/></g></g><g><g><polygon class="st7" points="20.209692,26.3229256 22.4273968,25.0341377 22.4695225,25.0584583 20.2518196,26.3472481                   "/></g></g><g><g><polygon class="st68" points="20.2518196,26.3472481 22.4695225,25.0584583 22.4999733,25.6679821 20.2822704,26.9567719                   "/></g></g><g><g><polygon class="st8" points="27.4000244,27.5594654 27.3800049,34.0694733 25.1599731,35.3594513 21.5900269,34.2194366           21.6099854,27.7994556 25.1799927,28.8494434         "/></g></g><g><g><polygon class="st7" points="25.1799927,28.8494434 25.1599731,35.3594513 21.5900269,34.2194366 21.6099854,27.7994556                   "/></g><g><polygon class="st68" points="22.1914063,33.7815704 22.2080078,28.6009083 24.578125,29.2981739 24.5624866,34.5388947                   "/></g></g><g><g><polygon class="st8" points="25.1788311,28.8496513 27.396534,27.5608635 27.3780918,34.0661697 25.160387,35.3549576                   "/></g></g><g><g><polygon class="st7" points="25.4613876,28.5549622 27.6790905,27.2661743 27.5090961,27.5980949 25.2913914,28.8868847                   "/></g></g><g><g><polygon class="st1" points="21.6079922,27.8017273 23.825695,26.5129395 27.396534,27.5608635 25.1788311,28.8496513                   "/></g></g><g><g><polygon class="st7" points="25.7437992,28.3110447 27.961504,27.0222549 27.6790905,27.2661743 25.4613876,28.5549622                   "/></g></g><g><g><polygon class="st7" points="25.7521114,25.3792725 27.9698143,24.0904827 27.961504,27.0222549 25.7437992,28.3110447                   "/></g></g><g><g><path class="st1" d="M25.7521114,25.3792725l-0.0083122,2.9317722l-0.2824116,0.2439175l-0.1699963,0.3319225          l-0.1125717-0.0331459l-3.5708122-1.0575523l-0.4383335-0.1235943l0.0021992-0.7756481l-0.9200287-0.5488663          l-0.0421524-0.0251522l-0.8835983-0.5271282l-0.4363041-0.2626572l-0.3334846-0.1965828l-2.6074724-1.5753784          l-2.2339182-1.3128681c0.001833-0.6463795,0.5750685-0.5570507,0.6052389-0.5523491l0.0088224-3.1118412          L25.7521114,25.3792725z"/></g></g><g><g><g><path class="st6" d="M14.776885,22.5527344c0,0.0461063-0.0102596,0.0819836-0.0307484,0.097374           c-0.0153894,0.0102272-0.0153894,0.0102272-0.0205193,0.015358           c-0.0307484,0.0153904-0.0666256,0.0256176-0.1076021,0.0256176c-0.1281214,0-0.2306252-0.1076012-0.2306252-0.2306252           c0-0.0768528,0.0461063-0.1537399,0.1025038-0.1896172c0.0102282,0,0.015358-0.0050983,0.0256176-0.015358           c0.0307484-0.0051308,0.0614958,0,0.1025038,0.0256176C14.7102585,22.3323383,14.776885,22.4502316,14.776885,22.5527344z"/></g></g></g><g><g><g><path class="st6" d="M14.88309,19.5526752c0,0.0461063-0.0102596,0.0819836-0.0307484,0.097374           c-0.0153894,0.0102272-0.0153894,0.0102272-0.0205193,0.015358           c-0.0307484,0.0153904-0.0666256,0.0256176-0.1076021,0.0256176c-0.1281214,0-0.2306252-0.1076012-0.2306252-0.2306252           c0-0.0768547,0.0461063-0.1537399,0.1025038-0.1896172c0.0102282,0,0.015358-0.0050983,0.0256176-0.015358           c0.0307484-0.0051308,0.0614958,0,0.1025038,0.0256176C14.8164644,19.3322792,14.88309,19.4501724,14.88309,19.5526752z"/></g></g></g><g><g><polygon class="st7" points="14.3289757,18.7841206 16.5466785,17.4953327 27.9698143,24.0904827 25.7521114,25.3792725                   "/></g></g><g><g><polygon class="st7" points="25.7521114,25.3792725 27.9698143,24.0904827 29.2635822,24.8374405 27.0458794,26.1262283                   "/></g></g><g><g><polygon class="st1" points="27.0458794,26.1262283 29.2635822,24.8374405 29.2566452,27.2844429 27.0389423,28.5732307                   "/></g></g><g><g><polygon class="st1" points="27.0458794,26.1262283 27.0389423,28.5732307 25.7451744,27.8262749 25.7521114,25.3792725                   "/></g></g><g><g><g><path class="st24" d="M39.4299927,30.3294849c-1,0.0499878-1.6799927,0.5599976-2.210022,1.2799683l-0.0099487,3.1000347           L27.039978,28.8394337v-0.2699585l0.0100098-2.4400024v-0.3900146l2.210022-1.289978L39.4299927,30.3294849z"/></g></g></g><g><g><g><polygon class="st24" points="37.2164993,31.6144142 37.2077141,34.7123833 27.0381832,28.8410015 27.0389423,28.5732307            27.0458794,26.1262283 27.0469646,25.7430305          "/></g></g></g><g><g><path class="st40" d="M27.0469646,25.7430305l2.2177048-1.2887878l10.1695538,5.8713779          c-1.0026093,0.0583668-1.6853409,0.5675335-2.2176933,1.2887745L27.0469646,25.7430305z"/></g></g></g></g><g><g><g><path class="st23" d="M37.2164917,31.614397c0.6603394-0.9922485,1.4316406-1.3059082,2.2177124-1.2887573         l-0.0087738,3.0979595c-0.5853767,0.8228722-1.3633461,1.15345-2.2177124,1.2887917L37.2164917,31.614397z"/></g></g></g></g><g><g class="st5"><g><g><g class="st5"><g><g><path class="st7" d="M41.7718582,33.7681084c-0.161644-0.0946922-0.3853073-0.0799942-0.633461,0.0620422            c-0.4897728,0.2824326-0.8881149,0.9697495-0.8864784,1.534626            c0.0016327,0.2807999,0.1012192,0.4767113,0.2595749,0.569767l-2.8210526-1.6224823            c-0.1599884-0.0930595-0.2579498-0.2906036-0.2595825-0.569767            c-0.0016365-0.5648766,0.3967133-1.2521973,0.8864899-1.5346298            c0.246521-0.1436691,0.471817-0.1567307,0.6318054-0.0620384L41.7718582,33.7681084z"/></g></g><g><g><path class="st10" d="M41.1389999,33.83004c0.4907875-0.2833557,0.8898201-0.0559654,0.8914223,0.5079842            c0.0015984,0.5648956-0.3948441,1.2515602-0.8856316,1.5349159            c-0.4907875,0.2833595-0.8906364,0.0564346-0.8922386-0.508461            C40.2509537,34.8005257,40.6482124,34.1133957,41.1389999,33.83004z"/></g></g></g></g></g></g></g><g><g class="st5"><g><g><g class="st5"><g><g><path class="st10" d="M43.3099976,34.9394684c0,0.6599731-0.460022,1.460022-1.0299683,1.789978            C41.9699707,36.9094391,41.6900024,36.9094391,41.5,36.7594757            c0.0100098,0.0199585,0.0300293,0.0299683,0.039978,0.039978l-1.0799561-0.6199951            c-0.1900024-0.1099854-0.3000488-0.3400269-0.3000488-0.6599731c0-0.6600342,0.460022-1.460022,1.0300293-1.7900391            c0.2799683-0.1599731,0.5499878-0.1799927,0.7299805-0.0700073l1.0900269,0.6199951            c-0.0200195-0.0099487-0.0300293-0.0199585-0.0499878-0.0199585            C43.1699829,34.3594513,43.2999878,34.5894318,43.3099976,34.9394684z"/></g></g></g></g></g></g></g><g><g class="st5"><g><g><g class="st5"><g><g><path class="st119" d="M43.0057182,34.2818794c-0.1878319-0.1100349-0.447731-0.0929565-0.7360916,0.0720901            c-0.5691223,0.3281898-1.0319977,1.1268654-1.0301018,1.7832603            c0.0018997,0.3262939,0.1176186,0.5539436,0.3016319,0.6620789l-1.0822868-0.6210594            c-0.1859093-0.1081352-0.2997437-0.3376846-0.3016434-0.6620789            c-0.0018959-0.656395,0.4609909-1.4550705,1.0301132-1.7832603            c0.2864609-0.1669464,0.5482597-0.1821251,0.734169-0.0720901L43.0057182,34.2818794z"/></g></g><g><g><path class="st10" d="M42.2703285,34.3538399c0.5703049-0.3292618,1.0339851-0.0650291,1.0358429,0.5902901            c0.0018616,0.6564178-0.4588089,1.4543304-1.0291138,1.783596            c-0.5703011,0.3292618-1.0349312,0.0655746-1.0367928-0.5908432            C41.2384071,35.4815636,41.7000275,34.6831055,42.2703285,34.3538399z"/></g></g></g></g></g></g></g><g><g class="st5"><g><g><path class="st8" d="M40.5999756,31.2694874v1.6799908C40.5,32.9594879,40.4000244,33.0294342,40.289978,33.1294708         l-1.5599976-0.9000244l0.0100098-1.6799908c0-0.2600098,0.1000366-0.4400024,0.25-0.5100098l0.2800293-0.1699829         c0.1399536-0.0800171,0.3399658-0.0700073,0.5499878,0.0599976c0.2199707,0.1199951,0.4099731,0.3300171,0.5599976,0.5800171         C40.5200195,30.7494678,40.5999756,31.0194874,40.5999756,31.2694874z"/></g></g></g></g><g><g class="st5"><g><path class="st8" d="M40.3760452,30.5064449c-0.144558-0.243927-0.3395042-0.4560184-0.5514641-0.5783958        c-0.2161179-0.1247749-0.4113617-0.136692-0.5521584-0.0548687l-0.307888,0.1789265        c0.1408272-0.081852,0.3360405-0.0699081,0.5521584,0.0548687c0.2119865,0.1223755,0.4069328,0.3344421,0.5514946,0.5783939        c0.1389847,0.2439785,0.2248077,0.5149937,0.2241135,0.7617722l-0.0047531,1.6793079        c0.1088905-0.0946541,0.2139473-0.1679878,0.3078651-0.178978l0.0047493-1.6792545        C40.6008568,31.0214634,40.5150337,30.7504234,40.3760452,30.5064449z"/></g><g><g><path class="st119" d="M39.5167007,30.106966c0.2119675,0.1223793,0.4069138,0.3344593,0.5514755,0.5784016         c0.1389847,0.243969,0.2248154,0.5150013,0.2241135,0.7617626l-0.0047607,1.6792774l-1.5534477-0.8968849         l0.0047607-1.6792774C38.740242,30.0567226,39.0872078,29.8589973,39.5167007,30.106966z"/></g></g></g></g><g><g class="st5"><g><g><g class="st5"><g><g><path class="st10" d="M41.6500244,32.8694611c0,0.289978-0.210022,0.6400146-0.460022,0.789978            c-0.1500244,0.0800171-0.2800293,0.0800171-0.3599854-0.0099487c0,0.0199585,0.0100098,0.0299683,0.0299683,0.039978            l-1.789978-1.039978c-0.0800171-0.0500488-0.1300049-0.1500244-0.1300049-0.3000488            c0-0.289978,0.2000122-0.6399517,0.4500122-0.7899761c0.1300049-0.0700073,0.25-0.0800171,0.3299561-0.0300293            l1.7700195,1.0300274C41.5900269,32.6094513,41.6500244,32.7094879,41.6500244,32.8694611z"/></g></g></g></g></g></g></g><g><g class="st5"><g><g><g class="st5"><g><g><path class="st10" d="M41.6500244,32.8694611c0,0.289978-0.210022,0.6400146-0.460022,0.789978            c-0.1500244,0.0800171-0.2800293,0.0800171-0.3599854-0.0099487c0,0.0199585,0.0100098,0.0299683,0.0299683,0.039978            l-1.789978-1.039978c-0.0800171-0.0500488-0.1300049-0.1500244-0.1300049-0.3000488            c0-0.289978,0.2000122-0.6399517,0.4500122-0.7899761c0.1300049-0.0700073,0.25-0.0800171,0.3299561-0.0300293            l1.7700195,1.0300274C41.5900269,32.6094513,41.6500244,32.7094879,41.6500244,32.8694611z"/></g></g></g></g></g></g></g><g><g class="st5"><g><g><g class="st5"><g><g><path class="st1" d="M41.5135612,32.5715866c-0.0832939-0.0487976-0.1985474-0.0412216-0.3264236,0.0319672            c-0.2523804,0.1455383-0.4576454,0.4997139-0.4568024,0.7907982            c0.000843,0.1446953,0.0521584,0.2456474,0.1337585,0.293602l-1.7925377-1.0405197            c-0.0824432-0.0479546-0.1329231-0.1497498-0.1337662-0.2936058            c-0.000843-0.2910805,0.2044296-0.645256,0.45681-0.7907944c0.1270332-0.0740318,0.2431297-0.0807648,0.325573-0.0319691            L41.5135612,32.5715866z"/></g></g><g><g><path class="st10" d="M41.1874504,32.6034966c0.252903-0.1460114,0.4585266-0.0288391,0.4593506,0.2617683            c0.000824,0.2910919-0.2034645,0.6449318-0.4563675,0.7909431            c-0.252903,0.1460152-0.4589462,0.0290794-0.4597702-0.2620125            C40.7298393,33.1035919,40.9345474,32.7495117,41.1874504,32.6034966z"/></g></g></g></g></g></g></g><g class="st5"><g><g><g class="st5"><g><g><path class="st7" d="M38.0197372,30.805521c0.1184273-0.069376,0.2822914-0.0586071,0.4640999,0.0454521           c0.3588295,0.2069225,0.6506691,0.7104816,0.6494713,1.1243343           c-0.001194,0.2057266-0.0741577,0.3492584-0.1901741,0.4174385l1.0224724-0.5966969           c0.1172142-0.0681782,0.1889877-0.2129078,0.1901817-0.4174366           c0.0011978-0.4138527-0.2906494-0.9174118-0.6494789-1.1243343           c-0.1806107-0.105257-0.3456726-0.1148281-0.4628868-0.0454521L38.0197372,30.805521z"/></g></g><g><g><path class="st10" d="M38.4833946,30.850893c-0.3595734-0.2075996-0.6519203-0.0410042-0.6530914,0.3721733           c-0.0011749,0.413866,0.2892761,0.9169445,0.6488495,1.1245441           c0.3595695,0.2075996,0.6525192,0.0413437,0.6536903-0.3725224           C39.1340141,31.5619125,38.842968,31.0584908,38.4833946,30.850893z"/></g></g></g></g></g></g><g><g class="st5"><g><g><path class="st8" d="M39.539978,31.8894825l-0.0099487,1.5499859         c-0.1100464,0.039978-0.210022,0.1499634-0.3000488,0.2999878l-1.5599976-0.8900146l0.0100098-1.6799908         c0-0.2600098,0.1000366-0.4400024,0.2600098-0.5100098c-0.0200195,0-0.0300293,0-0.039978,0.0100098l0.3099976-0.1799927         c0.1399536-0.0800171,0.3399658-0.0700073,0.5499878,0.0599976c0.2099609,0.1199951,0.4099731,0.3300171,0.5499878,0.5700073         C39.4500122,31.369463,39.539978,31.6394825,39.539978,31.8894825z"/></g></g></g></g><g><g class="st5"><g><path class="st8" d="M39.539978,31.8894825l-0.0099487,1.5548687        c-0.1079102,0.0400391-0.2069092,0.1455078-0.3000488,0.295105v-1.6799927        c0-0.2399883-0.0799561-0.5100079-0.2199707-0.7600079c-0.1500244-0.2399902-0.3400269-0.4500122-0.5599976-0.5800171        c-0.210022-0.1199951-0.4100342-0.1300049-0.5499878-0.0499878l0.3099976-0.1799927        c0.1399536-0.0800171,0.3399658-0.0700073,0.5499878,0.0599976c0.2099609,0.1199951,0.4099731,0.3300171,0.5499878,0.5700073        C39.4500122,31.369463,39.539978,31.6394825,39.539978,31.8894825z"/></g><g><g><path class="st119" d="M38.4547119,30.724184c0.2119675,0.1223793,0.4069138,0.3344593,0.5514717,0.5784016         c0.1389885,0.2439709,0.2248154,0.5150013,0.2241173,0.7617607l-0.0047607,1.6792793l-1.5534515-0.8968849         l0.0047607-1.6792774C37.6782494,30.6739407,38.0252151,30.4762154,38.4547119,30.724184z"/></g></g></g></g><g><g class="st5"><g><g><g class="st5"><g><g><path class="st7" d="M45.7855492,36.1627007c-0.1616402-0.0946922-0.3853035-0.0799942-0.633461,0.0620384            c-0.4897728,0.2824326-0.8881111,0.9697533-0.8864784,1.5346298            c0.0016365,0.2807961,0.1012192,0.4767075,0.2595749,0.569767l-2.8210487-1.6224823            c-0.1599884-0.0930595-0.2579498-0.2906036-0.2595863-0.5697708            c-0.0016327-0.5648766,0.3967171-1.2521935,0.8864899-1.534626            c0.246521-0.1436691,0.471817-0.1567307,0.6318092-0.0620384L45.7855492,36.1627007z"/></g></g><g><g><path class="st10" d="M45.1526947,36.2246284c0.4907875-0.2833557,0.8898201-0.0559654,0.8914185,0.507988            c0.0016022,0.5648956-0.3948402,1.2515602-0.8856277,1.5349159s-0.8906364,0.0564346-0.8922386-0.508461            C44.2646484,37.195118,44.6619072,36.507988,45.1526947,36.2246284z"/></g></g></g></g></g></g></g><g><g class="st5"><g><g><g class="st5"><g><g><path class="st119" d="M50.5,39.0994415c0,0.6500244-0.460022,1.4500122-1.0300293,1.7800293            c-0.3099976,0.1799927-0.5899658,0.1799927-0.7799683,0.0299683            c0.0100098,0.0200195,0.0200195,0.0300293,0.039978,0.0400391l-4.4199829-2.5499878            c-0.1799927-0.1000366-0.2999878-0.3300171-0.2999878-0.6600342c0-0.6599731,0.4599609-1.4500122,1.0299683-1.7799683            c0.2900391-0.1700439,0.5500488-0.1800537,0.7300415-0.0700073l4.3899536,2.5299683            C50.3699951,38.5094757,50.5,38.7494659,50.5,39.0994415z"/></g></g></g></g><g><g class="st5"><g><g><path class="st119" d="M50.1995392,38.4352379c-0.1878319-0.1100349-0.447731-0.0929565-0.7360916,0.0720901            c-0.5691223,0.3281898-1.0319977,1.1268654-1.0301018,1.7832603            c0.0018997,0.3262901,0.1176186,0.5539436,0.3016319,0.6620789l-4.4232559-2.5499687            c-0.1859093-0.1081352-0.2997398-0.3376846-0.3016396-0.6620789            c-0.0018997-0.656395,0.4609909-1.4550705,1.0301132-1.7832603            c0.2864609-0.1669426,0.5482597-0.1821251,0.734169-0.0720901L50.1995392,38.4352379z"/></g></g><g><g><path class="st10" d="M49.4641495,38.5071983c0.5703049-0.3292656,1.033989-0.065033,1.0358467,0.5902901            c0.0018578,0.656414-0.4588127,1.4543304-1.0291176,1.7835922            c-0.5703011,0.3292656-1.0349312,0.0655746-1.0367928-0.5908394            C48.4322281,39.6349182,48.8938484,38.8364639,49.4641495,38.5071983z"/></g></g></g></g></g></g></g><g><g><g><path class="st1" d="M47.5439453,39.864399l-2.4723358-1.4109421        c-0.1409683-0.0811119-0.2540245-0.279274-0.2540245-0.4415283c0-0.0464249,0.0111427-0.0823517,0.0276871-0.1118431        c-0.0172539,0.0022087-0.0357628,0.0017242-0.0500336,0.0098839        c-0.0465393,0.0265923-0.0744858,0.0837708-0.0744858,0.1648979c0,0.1622505,0.1130562,0.3604164,0.2540245,0.4415398        l2.4723358,1.4109268c0.0704994,0.0398941,0.1343231,0.0452156,0.1808777,0.0172882        c0.020237-0.0109825,0.0354118-0.0305099,0.0481339-0.052906        C47.6369247,39.8972778,47.5933685,39.8923759,47.5439453,39.864399z"/></g></g><g><g><path class="st10" d="M47.4497757,39.3395042l-2.4723396-1.4109268        c-0.0498123-0.0285912-0.0931396-0.0335083-0.132164-0.028492c-0.0165443,0.0294914-0.0276871,0.0654182-0.0276871,0.1118431        c0,0.1622543,0.1130562,0.3604164,0.2540245,0.4415283l2.4723358,1.4109421        c0.0494232,0.027977,0.0929794,0.0328789,0.1321793,0.027317c0.0165291-0.0291252,0.0276718-0.0648232,0.0276718-0.1106834        C47.7051163,39.6187935,47.5907555,39.4206314,47.4497757,39.3395042z"/></g></g></g></g><g><g><path class="st8" d="M50.1822624,39.1917992c0,0.2554245-0.093647,0.5364227-0.2469025,0.7833786      c-0.0085258,0.0169945-0.0255699,0.0425644-0.0340919,0.0595589c-0.1362114,0.221386-0.3150368,0.4087334-0.5108566,0.5194283      c-0.1106949,0.0680809-0.2128639,0.1021729-0.3065109,0.1021729c-0.2043457,0-0.3320847-0.1788254-0.3320847-0.4682961      c0-0.2043915,0.0596085-0.4257278,0.1703033-0.6385918c0.008522-0.0170479,0.0169945-0.0255699,0.0255165-0.0426178      c0.1447868-0.2894669,0.3491287-0.5364227,0.5960312-0.6726341c0.1106949-0.0681305,0.2128677-0.102169,0.3065147-0.102169      C50.0545235,38.732029,50.1737404,38.9023323,50.1822624,39.1917992z"/></g><g><path class="st26" d="M49.93536,39.9751778c-0.0085258,0.0169945-0.0255699,0.0425644-0.0340919,0.0595589      c-0.1362114,0.221386-0.3150368,0.4087334-0.5108566,0.5194283c-0.1106949,0.0680809-0.2128639,0.1021729-0.3065109,0.1021729      c-0.2043457,0-0.3320847-0.1788254-0.3320847-0.4682961c0-0.2043915,0.0596085-0.4257278,0.1703033-0.6385918      c0.008522-0.0170479,0.0169945-0.0255699,0.0255165-0.0426178L49.93536,39.9751778z"/></g></g></g><g><g><g><g><path class="st23" d="M38.4000244,29.9794483l-1.5900269,0.9200439l-8.8499756-4.9700317       c0-0.5,0.3499756-1.0999756,0.7999878-1.3499756c0.2099609-0.1400146,0.4099731-0.1500244,0.5599976-0.0599976       l8.8200073,4.9499512C38.2999878,29.5394459,38.4000244,29.7194386,38.4000244,29.9794483z"/></g></g></g></g><g><g><g><path class="st24" d="M38.1667633,29.4825401c-0.1452026-0.0870762-0.3484802-0.0773869-0.5710716,0.0580692      c-0.4355545,0.2516575-0.7839737,0.8614216-0.7839737,1.3550453l-8.850214-4.9639206      c0-0.5033131,0.3484192-1.1033878,0.7936611-1.3550453c0.212904-0.1354561,0.4161797-0.1451454,0.5613251-0.0580692      L38.1667633,29.4825401z"/></g></g><g><g><g><path class="st23" d="M37.5963058,29.5364418c0.4371872-0.2524109,0.7988281-0.0551243,0.8002548,0.4472389       l-1.5876923,0.9166527C36.8074455,30.3979702,37.1591148,29.7888527,37.5963058,29.5364418z"/></g></g></g></g><g><g><g><g><path class="st10" d="M27.2000122,23.7494678l-1.6900024,0.9699707H25.5l-9.4799805-5.3099976       c0-0.539978,0.3800049-1.1900024,0.8499756-1.4599609c0.2299805-0.1400146,0.4500122-0.1500244,0.6099854-0.0599976       l9.4400024,5.2999878C27.0900269,23.2694874,27.2000122,23.4594898,27.2000122,23.7494678z"/><polygon class="st10" points="25.5100098,24.7194386 25.5,24.7294483 25.5,24.7194386      "/></g></g></g></g><g><g><path class="st1" d="M26.9579353,23.2090912c-0.1555634-0.0932865-0.3733387-0.0829067-0.6118088,0.0622139     c-0.4666252,0.2696075-0.839901,0.9228706-0.839901,1.4517078l-9.4815502-5.3180256     c0-0.539217,0.3732758-1.1820984,0.8502789-1.4517078c0.2280922-0.1451206,0.4458675-0.1554985,0.601366-0.062212     L26.9579353,23.2090912z"/></g><g><g><g><path class="st10" d="M26.3467808,23.26684c0.4683762-0.2704182,0.8558159-0.0590572,0.8573418,0.4791431l-1.7009487,0.9820423       C25.5016479,24.1898251,25.8784046,23.5372562,26.3467808,23.26684z"/></g></g></g></g><g><g><g class="st5"><g><g><g><path class="st6" d="M24.4000244,26.3094654c0,0.1699829-0.0599976,0.289978-0.1600342,0.3499756l-0.3699951,0.2300415         c0.0300293-0.0200195,0.0599976-0.0400391,0.0700073-0.0700073c-0.0900269,0.1199951-0.2700195,0.1400146-0.460022,0.0299683         c-0.2999878-0.1799927-0.5499878-0.5999756-0.5499878-0.9499512c0-0.1800537,0.0700073-0.3100586,0.1799927-0.3600464         l0.3599854-0.2199707c0.1000366-0.0499878,0.2300415-0.0499878,0.3900146,0.039978         C24.1599731,25.5394459,24.4000244,25.9594898,24.4000244,26.3094654z"/></g></g></g></g></g><g><g class="st5"><g><g><path class="st4" d="M23.8573914,25.3622017c-0.1526985-0.0881577-0.290863-0.0964565-0.3905602-0.0385151        l-0.3747673,0.223959c0.0997086-0.0579472,0.2378502-0.0496483,0.3905487,0.0385094        c0.3028393,0.1748505,0.5472641,0.5981922,0.5462685,0.9468784c-0.0004807,0.1730499-0.0615692,0.2948875-0.1601181,0.35215        l0.3747807-0.2239532c0.0985241-0.0572624,0.1596127-0.1791058,0.1601048-0.35215        C24.4046326,25.9603863,24.1602325,25.5370445,23.8573914,25.3622017z"/></g></g><g><g><g><path class="st6" d="M23.4826183,25.5861588c0.3028412,0.1748447,0.5472527,0.5981865,0.5462646,0.9468765         c-0.0009861,0.3479824-0.2469997,0.4888821-0.549839,0.3140373         c-0.3034477-0.1751957-0.5478592-0.5992413-0.5468731-0.9472237         C22.9331608,25.5511589,23.1791706,25.4109631,23.4826183,25.5861588z"/></g></g></g></g></g><g><g class="st5"><g><g><g><path class="st6" d="M23.8499756,26.4694386c0,0.1300049-0.0499878,0.2300415-0.1300049,0.2700195l-0.8799438,0.5300293         c-0.0800171,0.0599976-0.1900024,0.0599976-0.3200073-0.0100098         c-0.2300415-0.1400146-0.4200439-0.460022-0.4200439-0.7300415c0-0.1599731,0.0599976-0.2599487,0.1600342-0.2799683         l0.8699951-0.5300293c0.0800171-0.0499878,0.1799927-0.039978,0.2999878,0.0200195         C23.6599731,25.8794727,23.8499756,26.1994801,23.8499756,26.4694386z"/></g></g></g></g></g><g><g class="st5"><g><g><path class="st11" d="M23.428154,25.7441235c-0.1171055-0.0676098-0.2230663-0.0739746-0.2995243-0.0295372        l-0.9022408,0.5442982c0.0764675-0.0444412,0.1824093-0.0380764,0.2995148,0.0295315        c0.2322521,0.1340961,0.4197044,0.4587612,0.4189396,0.7261734c-0.0003681,0.1327152-0.0472164,0.2261543-0.1227951,0.2700672        l0.9022503-0.5442924c0.0755596-0.0439148,0.1224098-0.1373577,0.1227875-0.2700691        C23.8478413,26.202879,23.6604061,25.878212,23.428154,25.7441235z"/></g></g><g><g><g><path class="st6" d="M22.5259075,26.2884197c0.232254,0.1340904,0.4196968,0.4587574,0.4189377,0.7261715         c-0.0007572,0.2668724-0.1894264,0.3749294-0.4216785,0.240839         c-0.2327175-0.1343594-0.4201584-0.4595661-0.4194031-0.7264385         C22.1045227,26.2615776,22.29319,26.1540604,22.5259075,26.2884197z"/></g></g></g></g></g><g><g class="st5"><g><g><g><path class="st6" d="M23.2000122,27.0494556c0,0.1799927-0.0599976,0.3099976-0.1699829,0.3599854l-0.3100586,0.1799927         l-0.0699463,0.0500488c-0.1000366,0.0599976-0.2400513,0.0499878-0.4000244-0.0400391         c-0.3099976-0.1699829-0.5599976-0.6099854-0.5599976-0.9699707c0-0.1900024,0.0700073-0.3200073,0.1900024-0.3699951         l0.3599854-0.2200317c0.1000366-0.0599976,0.2399902-0.0499878,0.4000244,0.0400391         C22.9500122,26.2594776,23.2000122,26.6994801,23.2000122,27.0494556z"/></g></g></g></g></g><g><g class="st5"><g><g><path class="st4" d="M22.6382885,26.0817089c-0.1565742-0.0903969-0.2982464-0.0989056-0.4004745-0.0394936        l-0.384285,0.2296467c0.1022415-0.0594196,0.2438889-0.050909,0.400465,0.0394859        c0.3105297,0.1792908,0.561161,0.6133823,0.5601387,0.9709225c-0.0004921,0.1774445-0.0631313,0.3023758-0.1641827,0.3610916        l0.3842964-0.229641c0.1010265-0.0587158,0.1636658-0.1836529,0.1641712-0.3610916        C23.1994267,26.6950836,22.9488201,26.2609921,22.6382885,26.0817089z"/></g></g><g><g><g><path class="st6" d="M22.2539997,26.3113537c0.3105297,0.1792831,0.5611496,0.6133747,0.5601349,0.9709187         c-0.0010109,0.3568172-0.2532692,0.501297-0.5638008,0.3220119         c-0.3111534-0.1796455-0.5617695-0.6144581-0.5607567-0.9712772         C21.6905899,26.275465,21.9428463,26.1317081,22.2539997,26.3113537z"/></g></g></g><g><g><g><path class="st4" d="M22.6702404,27.2005329c0,0.2626743-0.1911011,0.3701782-0.4179897,0.238842         c-0.2387695-0.1313381-0.4179173-0.4537773-0.4179173-0.728405c0-0.2627468,0.1910286-0.3702526,0.4179173-0.238842         C22.4910927,26.603466,22.6702404,26.9377861,22.6702404,27.2005329z"/></g></g></g></g></g></g><g><g><g><g><polygon class="st40" points="28.1450119,26.96451 27.9799309,26.8691635 27.9752083,27.8849735 30.4606476,29.3207092        30.4615173,29.1324215 28.1411591,27.7920322      "/></g></g><g><g><polygon class="st23" points="28.1450119,26.96451 28.1411591,27.7920322 30.4615173,29.1324215 30.4653988,28.3048992             "/></g></g></g><g><g><g><polygon class="st40" points="31.0520496,28.6437817 30.8869667,28.5484352 30.882246,29.5642471 33.3676834,30.9999809        33.3685532,30.8116932 31.0481949,29.4713039      "/></g></g><g><g><polygon class="st23" points="31.0520496,28.6437817 31.0481949,29.4713039 33.3685532,30.8116932 33.3724365,29.9841709             "/></g></g></g><g><g><g><polygon class="st40" points="33.9590874,30.3230534 33.7940025,30.2277069 33.7892838,31.2435188 36.2747192,32.6792526        36.275589,32.4909668 33.9552307,31.1505756      "/></g></g><g><g><polygon class="st23" points="33.9590874,30.3230534 33.9552307,31.1505756 36.275589,32.4909668 36.2794724,31.6634426             "/></g></g></g></g><g><g><g><path class="st1" d="M13.614706,21.5965614c0,0.0647316-0.0144043,0.1151047-0.04317,0.1367111      c-0.0216064,0.0143604-0.0216064,0.0143604-0.0288086,0.0215626c-0.04317,0.0216064-0.0935421,0.0359669-0.1510715,0.0359669      c-0.1798811,0-0.3237944-0.1510715-0.3237944-0.3237934c0-0.1079025,0.0647326-0.2158489,0.1439133-0.2662201      c0.0143604,0,0.0215626-0.0071583,0.0359669-0.0215626c0.04317-0.0072021,0.08634,0,0.1439142,0.0359669      C13.5211639,21.2871284,13.614706,21.4526482,13.614706,21.5965614z"/></g></g></g><g><g><g><path class="st1" d="M3.4350023,20.571701c0,0.0647335-0.0144045,0.1151047-0.0431697,0.1367111      c-0.0216067,0.0143604-0.0216067,0.0143604-0.0288091,0.0215626c-0.0431695,0.0216064-0.0935414,0.0359669-0.1510715,0.0359669      c-0.1798809,0-0.3237941-0.1510715-0.3237941-0.3237934c0-0.1079025,0.0647323-0.2158489,0.1439133-0.2662201      c0.0143607,0,0.0215628-0.0071583,0.0359674-0.0215626c0.0431697-0.0072021,0.0863392,0,0.1439135,0.0359669      C3.3414607,20.2622681,3.4350023,20.4277878,3.4350023,20.571701z"/></g></g></g><g><g><g><path class="st1" d="M3.2735395,14.3986359c0,0.0647326-0.0144045,0.1151047-0.0431697,0.1367111      c-0.0216067,0.0143604-0.0216067,0.0143604-0.0288088,0.0215626c-0.0431697,0.0216074-0.0935416,0.0359678-0.1510718,0.0359678      c-0.1798809,0-0.3237941-0.1510715-0.3237941-0.3237944c0-0.1079016,0.0647323-0.215848,0.1439133-0.2662201      c0.0143607,0,0.0215628-0.0071583,0.0359674-0.0215626c0.0431697-0.0072021,0.0863392,0,0.1439135,0.0359678      C3.1799979,14.0892029,3.2735395,14.2547226,3.2735395,14.3986359z"/></g></g></g><g><g><g><path class="st1" d="M7.9933276,18.9276791c0,0.1606865-0.0357447,0.2767467-0.0982428,0.3303089      c-0.0535622,0.0356903-0.0535622,0.0356903-0.0713797,0.0446262c-0.1071243,0.0535622-0.2231846,0.0892506-0.3571172,0.0892506      c-0.4284968,0-0.7677417-0.3570614-0.7677417-0.7677402c0-0.2588749,0.1517501-0.5088673,0.3392448-0.6338654      l0.0803161-0.0535603c0.1071239-0.0089378,0.2053666,0,0.3481808,0.0893059      C7.770143,18.1956272,7.9933276,18.5884342,7.9933276,18.9276791z"/></g></g></g><g><g><g><path class="st26" d="M21.2947464,24.1541176l-5.1155434-2.9518528      c-0.2734308-0.1582413-0.4892664-0.5371456-0.4892664-0.8489151c0-0.0982018,0.0276928-0.1698761,0.0660315-0.2279358      c-0.1443949,0.0136127-0.2466698,0.1278133-0.2466698,0.3351555c0,0.3117695,0.2158356,0.6906738,0.4892664,0.8489151      l5.1155424,2.9518528c0.1833744,0.1080341,0.3384724,0.0740013,0.4221897-0.0510788      C21.4638081,24.2173557,21.384222,24.2068844,21.2947464,24.1541176z"/></g><g><path class="st8" d="M21.1141071,23.134222l-5.1155424-2.9518528c-0.089941-0.0529995-0.1698761-0.0638199-0.2425966-0.0569553      c-0.0383387,0.0580597-0.0660315,0.129734-0.0660315,0.2279358c0,0.3117695,0.2158356,0.6906738,0.4892664,0.8489151      l5.1155434,2.9518528c0.0894756,0.0527668,0.1690617,0.0632381,0.2415504,0.0561409      c0.0389194-0.0581188,0.0670185-0.1296749,0.0670185-0.2271214      C21.6033154,23.6665974,21.3874798,23.2925205,21.1141071,23.134222z"/></g></g><g><g><path class="st26" d="M21.2947464,25.7422371l-5.1155434-2.9518547      c-0.2734308-0.1582394-0.4892664-0.5371456-0.4892664-0.8489132c0-0.0982037,0.0276928-0.1698761,0.0660315-0.2279377      c-0.1443949,0.0136147-0.2466698,0.1278152-0.2466698,0.3351574c0,0.3117676,0.2158356,0.6906719,0.4892664,0.8489132      l5.1155424,2.9518547c0.1833744,0.1080341,0.3384724,0.0740013,0.4221897-0.0510788      C21.4638081,25.8054752,21.384222,25.7950039,21.2947464,25.7422371z"/></g><g><path class="st8" d="M21.1141071,24.7223415l-5.1155424-2.9518547c-0.089941-0.0529995-0.1698761-0.0638199-0.2425966-0.0569553      c-0.0383387,0.0580616-0.0660315,0.129734-0.0660315,0.2279377c0,0.3117676,0.2158356,0.6906738,0.4892664,0.8489132      l5.1155434,2.9518547c0.0894756,0.0527668,0.1690617,0.0632381,0.2415504,0.0561409      c0.0389194-0.0581188,0.0670185-0.1296768,0.0670185-0.2271233      C21.6033154,25.2547169,21.3874798,24.88064,21.1141071,24.7223415z"/></g></g></g><g><g class="st5"><g><g><g><path class="st6" d="M38.8699951,31.7494678c0,0.1300049-0.039978,0.2299805-0.1199951,0.2700176l-0.2800293,0.1699829        L38.5,32.1594391c-0.0700073,0.0700073-0.1900024,0.0700073-0.3200073,0        c-0.2299805-0.1300049-0.4099731-0.4499493-0.4099731-0.709959c0-0.1400146,0.0499878-0.2300415,0.1199951-0.2700195        c0.0100098,0,0.0100098-0.0100098,0.0199585-0.0100098l0.2600098-0.1599731        c0.0700073-0.0400391,0.1799927-0.0300293,0.2900391,0.0299683        C38.6900024,31.1694508,38.8699951,31.4894581,38.8699951,31.7494678z"/></g></g></g></g></g><g><g class="st5"><g><g><path class="st4" d="M38.4633293,31.041544c-0.1147385-0.0662403-0.2185555-0.0724754-0.2934647-0.0289383l-0.281601,0.1682816       c0.0749207-0.043541,0.1787186-0.0373058,0.293457,0.0289364c0.2275543,0.131382,0.4112129,0.449482,0.4104652,0.711483       c-0.0003624,0.1300316-0.0462608,0.2215805-0.1203117,0.2646065l0.2816086-0.1682777       c0.0740318-0.0430279,0.1199341-0.1345806,0.1203041-0.2646065       C38.874527,31.4910221,38.6908836,31.1729221,38.4633293,31.041544z"/></g></g><g><g><g><path class="st6" d="M38.1817245,31.2098274c0.2275543,0.1313782,0.4112053,0.4494762,0.4104614,0.7114811        c-0.0007401,0.2614727-0.1855927,0.3673458-0.413147,0.2359676c-0.2280121-0.1316414-0.4116592-0.4502697-0.4109192-0.7117424        C37.7688637,31.183527,37.9537125,31.0781841,38.1817245,31.2098274z"/></g></g></g></g></g></g></svg>