<?xml version="1.0" ?><!DOCTYPE svg  PUBLIC '-//W3C//DTD SVG 1.1//EN'  'http://www.w3.org/Graphics/SVG/1.1/DTD/svg11.dtd'><svg enable-background="new 0 0 283.46 283.46" height="283.46px" id="Warstwa_1" version="1.1" viewBox="0 0 283.46 283.46" width="283.46px" xml:space="preserve" xmlns="http://www.w3.org/2000/svg" xmlns:xlink="http://www.w3.org/1999/xlink"><g><g><path d="M277.064,225.542L164.861,31.219c-4.82-8.353-13.464-13.344-23.105-13.344l-1.43,0.045    c-9.062,0.47-17.184,5.446-21.718,13.299L6.406,225.542c-4.761,8.233-4.761,18.468,0,26.703    c4.755,8.228,13.613,13.345,23.118,13.345h224.411c9.522,0,18.387-5.117,23.124-13.345    C281.819,244.01,281.819,233.775,277.064,225.542z" fill="#FFD500"/><path d="M269.188,230.085L156.996,35.762c-3.188-5.512-8.894-8.798-15.24-8.798c-0.323,0-0.64,0.015-0.957,0.033    c-5.976,0.305-11.334,3.595-14.319,8.766L14.277,230.085c-3.146,5.434-3.146,12.181,0,17.618    c3.134,5.439,8.978,8.798,15.247,8.798h224.411c6.281,0,12.124-3.358,15.253-8.798    C272.327,242.266,272.327,235.519,269.188,230.085z M260.892,242.909c-1.43,2.484-4.098,4.022-6.957,4.022H29.523    c-2.865,0-5.527-1.538-6.95-4.022c-1.43-2.471-1.43-5.548-0.006-8.033L134.77,40.556c1.37-2.363,3.799-3.846,6.538-4.007    c0.144,0,0.287,0,0.431,0c2.895,0,5.509,1.501,6.962,4.025l112.191,194.302C262.32,237.346,262.32,240.424,260.892,242.909z" fill="#1A171B"/></g><g><path d="M156.105,232.421c7.835-3.481,26.449-13.668,26.449-32.174c0-23.443-8.267-33.092-8.267-33.092    s-0.467,11.033-6.902,15.624c0,0,4.6-29.871-16.078-52.848c0,0,10.109,22.059-1.836,32.625c0,0,1.376-23.895-18.38-39.515    c0,0,10.108,27.113-2.304,49.623c0,0,3.225-15.62-5.054-27.109c0,0,2.764,14.247-11.484,30.337    c-14.247,16.081-11.029,28.495-11.029,28.495s1.687,18.686,23.172,28.034h-23.495v2.751h34.584    c-1.949-0.709-16.353-6.325-16.353-18.668c0-12.635,4.426-17.946,4.617-18.168l1.514-1.771l0.102,2.33    c0,0.039,0.167,3.242,1.603,5.694c-0.191-5.183,0.503-16.604,9.002-26.033l4.002-4.469l-2.488,5.464    c-0.036,0.093-4.02,8.981-0.706,14.493c0.335-4.232,2.034-12.929,10.043-19.263l2.571-2.034l-1.142,3.068    c-0.048,0.123-3.816,10.521-0.855,20.711c0.173-2.907,0.915-6.499,3.151-9.601l2.447-3.395l-0.796,4.106    c-0.012,0.06-1.256,7.262,5.886,15.324c7.452,8.406,6.269,15.055,6.077,15.889c-0.108,1.068-1.579,11.676-14.708,16.32h33.118    v-2.751H156.105z" fill="#1A171B"/><path d="M164.646,133.113c0,0,7.812,4.594,7.812,10.568c0,5.973-4.594,9.196-4.594,9.196    S172.003,142.758,164.646,133.113z" fill="#1A171B"/><path d="M121.438,124.372c0,0-3.685,2.303-3.685,6.436c0,4.136,3.685,5.972,3.685,5.972    S118.214,130.808,121.438,124.372z" fill="#1A171B"/><path d="M142.121,87.596c0,0,6.896,3.676,6.896,8.275c0,4.605-2.303,6.436-2.303,6.436    S148.557,94.953,142.121,87.596z" fill="#1A171B"/><path d="M136.146,105.07c0,0,1.836,5.972,5.976,8.272c4.139,2.297,2.751,11.029,2.751,11.029    s-1.842-6.436-5.048-8.732C137.646,114.078,136.146,105.07,136.146,105.07z" fill="#1A171B"/></g></g></svg>