<?xml version="1.0" ?><svg viewBox="0 0 512 512" xmlns="http://www.w3.org/2000/svg"><defs><style>.cls-1{fill:#ff9499;}.cls-2{fill:#ffd7da;}.cls-3{fill:#f4b78e;}.cls-4{fill:#767c93;}.cls-5{fill:#dae1ea;}.cls-6{opacity:0.2;}.cls-7{fill:#fff;}.cls-8{opacity:0.5;}.cls-9{fill:#3f456b;}.cls-10{opacity:0.15;}.cls-11{fill:#fff5e9;}.cls-12{opacity:0.7;}.cls-13{fill:#f0f3f7;}.cls-14{fill:#a7aec1;}</style></defs><title/><g id="Colors"><circle class="cls-1" cx="369" cy="367.93" r="129"/><circle class="cls-2" cx="369" cy="367.93" r="102.24"/><path class="cls-3" d="M149.61,439l-25.38,34.08S135.22,498,177,498s52.77-24.92,52.77-24.92L203.34,439"/><path class="cls-4" d="M39,401.58s5-125.3,7-136S55,256,55,256s6,0,8,9.61,7,134.9,7,134.9"/><path class="cls-5" d="M81,438V411.58a10,10,0,0,0-10-10H40a10,10,0,0,0-10,10V438Z"/><path class="cls-3" d="M81,438s12,20,12,58H16a130.34,130.34,0,0,1,14-58"/><g class="cls-6"><path class="cls-7" d="M40,438a308.65,308.65,0,0,0-9.25,58h19.5S49,455,54,438Z"/></g><g class="cls-8"><path class="cls-9" d="M40.67,501a5,5,0,0,1-5-5,305.61,305.61,0,0,1,2.38-33.65A5,5,0,0,1,48,463.64,299.57,299.57,0,0,0,45.67,496,5,5,0,0,1,40.67,501Z"/><path class="cls-9" d="M69,501a5,5,0,0,1-5-5,302.45,302.45,0,0,0-2.3-32.36,5,5,0,0,1,9.92-1.29A308.36,308.36,0,0,1,74,496,5,5,0,0,1,69,501Z"/></g><g class="cls-8"><rect class="cls-7" height="37" width="17" x="42" y="401"/></g><path class="cls-4" d="M160,402.58s5-125.3,7-136,9-9.61,9-9.61,6,0,8,9.61,7,134.9,7,134.9"/><path class="cls-5" d="M202,439V412.58a10,10,0,0,0-10-10H161a10,10,0,0,0-10,10V439Z"/><g class="cls-8"><rect class="cls-7" height="37" width="17" x="163" y="402"/></g><g class="cls-8"><path class="cls-9" d="M144.93,496.92a5,5,0,0,1-4.5-7.18l13.07-26.92a5,5,0,1,1,9,4.36l-13.07,26.93A5,5,0,0,1,144.93,496.92Z"/><path class="cls-9" d="M209,496.92a5,5,0,0,1-4.5-2.81l-13.07-26.93a5,5,0,1,1,9-4.36l13.07,26.92a5,5,0,0,1-4.5,7.18Z"/><path class="cls-9" d="M177,503a5,5,0,0,1-5-5V465a5,5,0,0,1,10,0v33A5,5,0,0,1,177,503Z"/></g><g class="cls-6"><path class="cls-7" d="M163,439l-25.74,48.24s8.76,6.14,27.25,9.95l11-58.19Z"/></g><g class="cls-10"><path class="cls-9" d="M266.76,367.39s8.57,86.72,102.78,86.72,101.7-85.65,101.7-85.65-5.36,101.71-101.7,101.71S266.76,367.39,266.76,367.39Z"/></g><g class="cls-10"><path class="cls-9" d="M240.14,368.46S250.93,483,369.67,483s128.19-113.2,128.19-113.2S491.11,498,369.67,498,240.14,368.46,240.14,368.46Z"/></g><g class="cls-10"><path class="cls-7" d="M497.86,368.46S487.07,253.92,368.33,253.92s-128.19,113.2-128.19,113.2,6.75-128.19,128.19-128.19S497.86,368.46,497.86,368.46Z"/></g><g class="cls-8"><path class="cls-7" d="M471.24,368.46s-8.57-86.71-102.78-86.71-101.7,85.64-101.7,85.64,5.36-101.7,101.7-101.7S471.24,368.46,471.24,368.46Z"/></g><g class="cls-10"><circle class="cls-9" cx="369" cy="256.59" r="88.32"/></g><circle class="cls-11" cx="369" cy="233.04" r="88.32"/><g class="cls-10"><path class="cls-9" d="M279.54,230.37s7.5,75.87,89.93,75.87,89-74.94,89-74.94-4.69,89-89,89S279.54,230.37,279.54,230.37Z"/></g><g class="cls-12"><path class="cls-7" d="M458.46,234.65s-7.5-75.88-89.93-75.88-89,74.94-89,74.94,4.69-89,89-89S458.46,234.65,458.46,234.65Z"/></g><g data-name="&lt;编组&gt;" id="_编组_"><path class="cls-1" d="M454,214a57.58,57.58,0,0,1-1,41.21H285A57.58,57.58,0,0,1,284,214l.93.07H453Z"/></g><g class="cls-10"><polygon class="cls-9" points="456.25 244.07 281.75 244.07 286.03 255.21 451.97 255.21 456.25 244.07"/></g><g class="cls-6"><polygon class="cls-7" points="281.75 225.21 456.25 225.21 451.97 214.07 286.03 214.07 281.75 225.21"/></g><path class="cls-13" d="M407.5,119.77s42.75-8.09,48-51.77c0,0,7.5,45.3,48,51.77,0,0-41.5,8.63-48,51.23C455.5,171,446,128.4,407.5,119.77Z"/><g class="cls-8"><path class="cls-7" d="M407,120s29,3,41-8,7-44,7-44-.67,19.67-15.83,33.83C422,118,407,120,407,120Z"/></g><path class="cls-14" d="M285,60.28s-230.75-5-250.49-7-17.76-9-17.76-9,0-6,17.76-8,249.52-7,249.52-7h68V60Z"/><rect class="cls-4" height="31" width="51" x="301" y="29"/><path class="cls-14" d="M208.18,127.28s-164.68-5-178.77-7-12.67-9-12.67-9,0-6,12.67-8,178.08-7,178.08-7H256V127Z"/><rect class="cls-4" height="31" width="36.4" x="219.6" y="96"/><path class="cls-3" d="M255.55,96c4.49-4.31,12.2-7,24.8-7C304.46,89,324,98.85,324,111s-19.54,22-43.65,22c-11.31,0-18.68-2.17-23.32-5.72"/><g class="cls-10"><path class="cls-9" d="M17,111l203,4.5h36.6S299,128,324,111c0,0,1.93,19.67-39,23.33,0,0-19,.67-29-7.33H220L29,120S17,119,17,111Z"/></g><g class="cls-10"><path class="cls-9" d="M351.81,48.5H300.66L17,44c0,8,16.77,9,16.77,9l266.89,7H351l1,.56v-12Z"/></g></g><g id="Lines"><path class="cls-9" d="M65.77,212.29c-37.12,0-49.2-17.86-49.69-18.62a5,5,0,0,1,8.34-5.51c.11.15,2.59,3.59,8.69,7,5.83,3.25,16.22,7.13,32.66,7.13s26.82-3.88,32.65-7.13c6.21-3.47,8.67-7,8.69-7a5,5,0,0,1,6.91-1.43,5,5,0,0,1,1.44,6.95C115,194.43,102.88,212.29,65.77,212.29Z"/><path class="cls-9" d="M65.48,231a5,5,0,0,1-5-5V207.21a5,5,0,1,1,10,0V226A5,5,0,0,1,65.48,231Z"/><path class="cls-9" d="M47.48,227.79a4.82,4.82,0,0,1-1.12-.13,5,5,0,0,1-3.76-6l3.65-15.95A5,5,0,0,1,56,208l-3.65,16A5,5,0,0,1,47.48,227.79Z"/><path class="cls-9" d="M29.33,222a5,5,0,0,1-4.43-7.29l7.51-14.55a5,5,0,0,1,8.88,4.59l-7.51,14.54A5,5,0,0,1,29.33,222Z"/><path class="cls-9" d="M16,209.65a5,5,0,0,1-3.6-8.47l8.79-9.1a5,5,0,0,1,7.2,6.95l-8.79,9.1A5,5,0,0,1,16,209.65Z"/><path class="cls-9" d="M84.48,227.79a5,5,0,0,1-4.87-3.89L76,208a5,5,0,1,1,9.75-2.23l3.65,15.95a5,5,0,0,1-3.76,6A4.76,4.76,0,0,1,84.48,227.79Z"/><path class="cls-9" d="M102.63,222a5,5,0,0,1-4.44-2.71l-7.52-14.54a5,5,0,0,1,8.89-4.59l7.51,14.55a5,5,0,0,1-2.15,6.73A4.93,4.93,0,0,1,102.63,222Z"/><path class="cls-9" d="M116,209.65a5,5,0,0,1-3.6-1.52l-8.79-9.1a5,5,0,0,1,7.19-6.95l8.79,9.1a5,5,0,0,1-3.59,8.47Z"/><path class="cls-9" d="M210.8,212.29c-37.12,0-49.19-17.86-49.69-18.62a5,5,0,0,1,8.35-5.51c.1.15,2.58,3.59,8.69,7,5.82,3.25,16.22,7.13,32.65,7.13s26.83-3.88,32.66-7.13c6.2-3.47,8.66-7,8.69-7a5,5,0,0,1,6.9-1.43,5,5,0,0,1,1.44,6.95C260,194.43,247.92,212.29,210.8,212.29Z"/><path class="cls-9" d="M210.52,231a5,5,0,0,1-5-5V207.21a5,5,0,0,1,10,0V226A5,5,0,0,1,210.52,231Z"/><path class="cls-9" d="M192.52,227.79a4.76,4.76,0,0,1-1.12-.13,5,5,0,0,1-3.76-6l3.65-15.95A5,5,0,0,1,201,208l-3.65,16A5,5,0,0,1,192.52,227.79Z"/><path class="cls-9" d="M174.37,222a4.93,4.93,0,0,1-2.29-.56,5,5,0,0,1-2.15-6.73l7.51-14.55a5,5,0,0,1,8.89,4.59l-7.52,14.54A5,5,0,0,1,174.37,222Z"/><path class="cls-9" d="M161,209.65a5,5,0,0,1-3.59-8.47l8.79-9.1a5,5,0,1,1,7.19,6.95l-8.79,9.1A5,5,0,0,1,161,209.65Z"/><path class="cls-9" d="M229.52,227.79a5,5,0,0,1-4.87-3.89L221,208a5,5,0,1,1,9.75-2.23l3.65,15.95a5,5,0,0,1-3.76,6A4.82,4.82,0,0,1,229.52,227.79Z"/><path class="cls-9" d="M247.67,222a5,5,0,0,1-4.45-2.71l-7.51-14.54a5,5,0,0,1,8.88-4.59l7.51,14.55a5,5,0,0,1-4.43,7.29Z"/><path class="cls-9" d="M261,209.65a5,5,0,0,1-3.6-1.52l-8.79-9.1a5,5,0,0,1,7.2-6.95l8.79,9.1a5,5,0,0,1-3.6,8.47Z"/><path class="cls-9" d="M39,406.58h-.2a5,5,0,0,1-4.8-5.2c.52-12.86,5.08-126,7.09-136.7,2.22-11.84,10.11-14.11,14.3-13.67,3.81.19,10.35,3.21,12.51,13.58,2,9.72,6.58,122.86,7.1,135.72a5,5,0,0,1-10,.4c-2-50.2-5.49-127.34-6.9-134.09-.81-3.91-2.35-5.33-3.25-5.6-.4.07-.07.08-.5,0-1.15.07-2.68,1.55-3.44,5.56C49.33,275,45.38,367,44,401.78A5,5,0,0,1,39,406.58ZM54.25,260.94Z"/><path class="cls-9" d="M285,65.28h-.11c-9.43-.2-231.17-5-250.88-7-10.84-1.1-17.6-3.82-20.66-8.31a8.8,8.8,0,0,1-1.57-6.3c.31-3,3.09-10.18,22.17-12.33,17.79-2,240.5-6.83,250-7H352a5,5,0,0,1,5,5V60a5,5,0,0,1-5,5l-67,.28ZM22.21,44.86c1.18.89,4.47,2.6,12.81,3.44,19.2,2,245.11,6.87,250,7L347,55V34.28H284.08c-4.64.1-231.76,5-249,7C26.88,42.17,23.48,43.93,22.21,44.86Zm-.46-.55h0Zm0,0h0Zm0,0h0Zm0,0h0Z"/><path class="cls-9" d="M81,443H30a5,5,0,0,1-5-5V411.58a15,15,0,0,1,15-15H71a15,15,0,0,1,15,15V438A5,5,0,0,1,81,443ZM35,433H76V411.58a5,5,0,0,0-5-5H40a5,5,0,0,0-5,5Z"/><path class="cls-9" d="M93,501H16a5,5,0,0,1-5-5c0-33.91,14-59.38,14.64-60.44a5,5,0,1,1,8.72,4.88A126.87,126.87,0,0,0,21.11,491H87.93c-1-32.72-11.12-50.26-11.23-50.44a5,5,0,0,1,8.59-5.13C85.81,436.29,98,457.06,98,496A5,5,0,0,1,93,501Z"/><path class="cls-9" d="M160,407.58h-.2a5,5,0,0,1-4.8-5.2c.52-12.86,5.08-126,7.09-136.7,2.22-11.84,10.11-14.12,14.3-13.67,3.81.19,10.35,3.21,12.51,13.58,2,9.72,6.58,122.86,7.1,135.72a5,5,0,0,1-10,.4c-2-50.2-5.49-127.34-6.9-134.09-.81-3.91-2.35-5.33-3.25-5.6-.4.07-.07.08-.5,0-1.15.07-2.68,1.55-3.44,5.56C170.33,276,166.38,368,165,402.78A5,5,0,0,1,160,407.58Zm15.25-145.64Z"/><path class="cls-9" d="M202,444H151a5,5,0,0,1-5-5V412.58a15,15,0,0,1,15-15h31a15,15,0,0,1,15,15V439A5,5,0,0,1,202,444Zm-46-10h41V412.58a5,5,0,0,0-5-5H161a5,5,0,0,0-5,5Z"/><path class="cls-9" d="M177,503c-44.52,0-56.84-26.76-57.34-27.9a5,5,0,0,1,.56-5L145.6,436a5,5,0,0,1,8,6L130.2,473.44C134,479.14,146.46,493,177,493s42.87-13.74,46.76-19.5l-24.37-31.44a5,5,0,0,1,7.9-6.12L233.72,470a5,5,0,0,1,.62,5.08C233.84,476.24,221.52,503,177,503Z"/><path class="cls-9" d="M369,501.93c-73.89,0-134-60.11-134-134a133.64,133.64,0,0,1,48.76-103.4,5,5,0,0,1,6.37,7.71,124,124,0,1,0,157.72,0,5,5,0,0,1,6.36-7.71A133.63,133.63,0,0,1,503,367.93C503,441.82,442.89,501.93,369,501.93Z"/><path class="cls-9" d="M369,475.17a107.24,107.24,0,0,1-72.1-186.62,5,5,0,1,1,6.72,7.4,97.24,97.24,0,1,0,129.49-1.13,5,5,0,1,1,6.6-7.51A107.24,107.24,0,0,1,369,475.17Z"/><path class="cls-9" d="M369,326.36A93.32,93.32,0,1,1,462.32,233,93.42,93.42,0,0,1,369,326.36Zm0-176.64A83.32,83.32,0,1,0,452.32,233,83.42,83.42,0,0,0,369,149.72Z"/><path class="cls-9" d="M369,445.19a5,5,0,0,1,0-10,67.33,67.33,0,0,0,67.26-67.26,5,5,0,0,1,10,0A77.35,77.35,0,0,1,369,445.19Z"/><path class="cls-9" d="M453,219.07H285a5,5,0,0,1,0-10H453a5,5,0,0,1,0,10Z"/><path class="cls-9" d="M453,260.21H285a5,5,0,0,1,0-10H453a5,5,0,1,1,0,10Z"/><path class="cls-9" d="M455.5,176a5,5,0,0,1-4.88-3.91c-.09-.39-9.36-39.63-44.21-47.44a5,5,0,0,1,.15-9.79c1.6-.31,39.24-8.06,44-47.46a5,5,0,0,1,9.89-.22,74.68,74.68,0,0,0,8.38,22.06c8.41,14.56,20.35,23.17,35.48,25.59a5,5,0,0,1,.23,9.84c-1.55.32-38.2,8.55-44.08,47.08a5,5,0,0,1-4.77,4.25Zm-32.9-56.18c17.1,8.46,26.94,23.37,32.27,34.74a64.52,64.52,0,0,1,24.29-29.31,75.28,75.28,0,0,1,8.66-5C476.44,115.08,467,106.17,460,93.94A83.53,83.53,0,0,1,456,86a62.36,62.36,0,0,1-23.72,28.41A73.94,73.94,0,0,1,422.6,119.82Z"/><path class="cls-9" d="M303,65a5,5,0,0,1-5-5V30a5,5,0,0,1,10,0V60A5,5,0,0,1,303,65Z"/><path class="cls-9" d="M208.18,132.28H208c-6.73-.2-165.12-5-179.32-7-7.25-1-12.29-3.49-15-7.31a10.35,10.35,0,0,1-1.94-7.31c.28-2.43,2.32-10,16.85-12.27,12.84-2,171.94-6.86,178.71-7.06H256a5,5,0,0,1,5,5V127a5,5,0,0,1-5,5l-47.82.28ZM21.71,111.83c.17.59,1.89,2.57,8.41,3.5,10.91,1.55,121.23,5.22,178.12,7L251,122V101.28H207.56C150.44,103,40,106.67,30.19,108.21,23.39,109.29,21.92,111.43,21.71,111.83Zm-.07.43Zm0,0Zm.1-.94Zm0,0h0Zm0,0h0Zm0,0h0Zm0,0Z"/><path class="cls-9" d="M221,132a5,5,0,0,1-5-5V97a5,5,0,1,1,10,0v30A5,5,0,0,1,221,132Z"/><path class="cls-9" d="M497,50H352a5,5,0,0,1,0-10H497a5,5,0,0,1,0,10Z"/><path class="cls-9" d="M481,56.88a5,5,0,0,1-5-5V38.12a5,5,0,0,1,10,0V51.88A5,5,0,0,1,481,56.88Z"/><path class="cls-9" d="M455.25,58.41a5,5,0,0,1-5-5V36.59a5,5,0,1,1,10,0V53.41A5,5,0,0,1,455.25,58.41Z"/><path class="cls-9" d="M429.5,59.94a5,5,0,0,1-5-5V35.06a5,5,0,0,1,10,0V54.94A5,5,0,0,1,429.5,59.94Z"/><path class="cls-9" d="M403.75,61.47a5,5,0,0,1-5-5V33.53a5,5,0,1,1,10,0V56.47A5,5,0,0,1,403.75,61.47Z"/><path class="cls-9" d="M378,63a5,5,0,0,1-5-5V32a5,5,0,0,1,10,0V58A5,5,0,0,1,378,63Z"/><path class="cls-9" d="M280.35,138c-11.81,0-20.43-2.21-26.36-6.76a5,5,0,1,1,6.08-7.93c4.06,3.11,10.88,4.69,20.28,4.69,22.78,0,38.65-9,38.65-17s-15.87-17-38.65-17c-10.28,0-17.46,1.89-21.34,5.6a5,5,0,1,1-6.92-7.21C258,86.74,267.22,84,280.35,84,307.63,84,329,95.86,329,111S307.63,138,280.35,138Z"/></g></svg>