<?xml version="1.0" ?><svg viewBox="0 0 64 64" xmlns="http://www.w3.org/2000/svg"><g data-name="10-Casino chip" id="_10-Casino_chip"><ellipse cx="24" cy="6" rx="16" ry="2" style="fill:#f7f3e1"/><path d="M8,6c0,1.1,7.16,2,16,2s16-.9,16-2S32.84,4,24,4,8,4.9,8,6ZM24,1C36.7,1,47,3.24,47,6c0,2.07-5.77,3.84-14,4.61-2.76.25-5.81.39-9,.39s-6.24-.14-9-.39C6.77,9.84,1,8.07,1,6,1,3.24,11.3,1,24,1Z" style="fill:#d1013e"/><path d="M33,52.61c8.23-.77,14-2.54,14-4.61v6c0,2.23-6.72,4.12-16,4.77v-6C31.68,52.72,32.35,52.66,33,52.61Z" style="fill:#8f0029"/><path d="M15,52.61c.65.05,1.32.11,2,.16v6C7.72,58.12,1,56.23,1,54V48C1,50.07,6.77,51.84,15,52.61Z" style="fill:#8f0029"/><path d="M31,46.77c.68-.05,1.35-.11,2-.16v6c-.65.05-1.32.11-2,.16-2.21.15-4.56.23-7,.23s-4.79-.08-7-.23c-.68-.05-1.35-.11-2-.16v-6c.65.05,1.32.11,2,.16,2.21.15,4.56.23,7,.23S28.79,46.92,31,46.77Z" style="fill:#8f0029"/><path d="M17,40.77v6c-.68-.05-1.35-.11-2-.16C6.77,45.84,1,44.07,1,42V36c0,2.07,5.77,3.84,14,4.61C15.65,40.66,16.32,40.72,17,40.77Z" style="fill:#8f0029"/><path d="M33,46.61c-.65.05-1.32.11-2,.16v-6c.68-.05,1.35-.11,2-.16,8.23-.77,14-2.54,14-4.61v6C47,44.07,41.23,45.84,33,46.61Z" style="fill:#8f0029"/><path d="M31,34.77c.68-.05,1.35-.11,2-.16v6c-.65.05-1.32.11-2,.16-2.21.15-4.56.23-7,.23s-4.79-.08-7-.23c-.68-.05-1.35-.11-2-.16v-6c.65.05,1.32.11,2,.16,2.21.15,4.56.23,7,.23S28.79,34.92,31,34.77Z" style="fill:#8f0029"/><path d="M33,34.61c-.65.05-1.32.11-2,.16v-6c.68-.05,1.35-.11,2-.16,8.23-.77,14-2.54,14-4.61v6C47,32.07,41.23,33.84,33,34.61Z" style="fill:#a80132"/><path d="M17,28.77v6c-.68-.05-1.35-.11-2-.16C6.77,33.84,1,32.07,1,30V24c0,2.07,5.77,3.84,14,4.61C15.65,28.66,16.32,28.72,17,28.77Z" style="fill:#a80132"/><path d="M31,22.77c.68-.05,1.35-.11,2-.16v6c-.65.05-1.32.11-2,.16-2.21.15-4.56.23-7,.23s-4.79-.08-7-.23c-.68-.05-1.35-.11-2-.16v-6c.65.05,1.32.11,2,.16,2.21.15,4.56.23,7,.23S28.79,22.92,31,22.77Z" style="fill:#a80132"/><path d="M17,16.77v6c-.68-.05-1.35-.11-2-.16C6.77,21.84,1,20.07,1,18V12c0,2.07,5.77,3.84,14,4.61C15.65,16.66,16.32,16.72,17,16.77Z" style="fill:#a80132"/><path d="M33,22.61c-.65.05-1.32.11-2,.16v-6c.68-.05,1.35-.11,2-.16,8.23-.77,14-2.54,14-4.61v6C47,20.07,41.23,21.84,33,22.61Z" style="fill:#a80132"/><path d="M31,16.77c-2.21.15-4.56.23-7,.23s-4.79-.08-7-.23c-.68-.05-1.35-.11-2-.16v-6c2.76.25,5.81.39,9,.39s6.24-.14,9-.39v6C32.35,16.66,31.68,16.72,31,16.77Z" style="fill:#a80132"/><path d="M31,52.77v6c-2.21.15-4.56.23-7,.23s-4.79-.08-7-.23v-6c2.21.15,4.56.23,7,.23S28.79,52.92,31,52.77Z" style="fill:#e3decb"/><path d="M47,42v6c0,2.07-5.77,3.84-14,4.61v-6C41.23,45.84,47,44.07,47,42Z" style="fill:#f7f3e1"/><path d="M15,46.61v6C6.77,51.84,1,50.07,1,48V42C1,44.07,6.77,45.84,15,46.61Z" style="fill:#f7f3e1"/><path d="M31,40.77v6c-2.21.15-4.56.23-7,.23s-4.79-.08-7-.23v-6c2.21.15,4.56.23,7,.23S28.79,40.92,31,40.77Z" style="fill:#f7f3e1"/><path d="M47,30v6c0,2.07-5.77,3.84-14,4.61v-6C41.23,33.84,47,32.07,47,30Z" style="fill:#f7f3e1"/><path d="M15,34.61v6C6.77,39.84,1,38.07,1,36V30C1,32.07,6.77,33.84,15,34.61Z" style="fill:#f7f3e1"/><path d="M31,28.77v6c-2.21.15-4.56.23-7,.23s-4.79-.08-7-.23v-6c2.21.15,4.56.23,7,.23S28.79,28.92,31,28.77Z" style="fill:#f7f3e1"/><path d="M47,18v6c0,2.07-5.77,3.84-14,4.61v-6C41.23,21.84,47,20.07,47,18Z" style="fill:#f7f3e1"/><path d="M15,22.61v6C6.77,27.84,1,26.07,1,24V18C1,20.07,6.77,21.84,15,22.61Z" style="fill:#f7f3e1"/><path d="M31,16.77v6c-2.21.15-4.56.23-7,.23s-4.79-.08-7-.23v-6c2.21.15,4.56.23,7,.23S28.79,16.92,31,16.77Z" style="fill:#f7f3e1"/><path d="M33,10.61C41.23,9.84,47,8.07,47,6v6c0,2.07-5.77,3.84-14,4.61Z" style="fill:#f7f3e1"/><path d="M15,10.61v6C6.77,15.84,1,14.07,1,12V6C1,8.07,6.77,9.84,15,10.61Z" style="fill:#f7f3e1"/><path d="M40,6c0,.17-.17.34-.5.5C37.72,5.64,31.46,5,24,5S10.28,5.64,8.5,6.5C8.17,6.34,8,6.17,8,6c0-1.1,7.16-2,16-2S40,4.9,40,6Z" style="fill:#c7c3b2"/><path d="M31,20.77v2c-2.21.15-4.56.23-7,.23s-4.79-.08-7-.23v-2c2.21.15,4.56.23,7,.23S28.79,20.92,31,20.77Z" style="fill:#e3decb"/><path d="M47,16v2c0,2.07-5.77,3.84-14,4.61-.65.05-1.32.11-2,.16v-2c.68-.05,1.35-.11,2-.16C41.23,19.84,47,18.07,47,16Z" style="fill:#7d0126"/><path d="M31,32.77v2c-2.21.15-4.56.23-7,.23s-4.79-.08-7-.23v-2c2.21.15,4.56.23,7,.23S28.79,32.92,31,32.77Z" style="fill:#e3decb"/><path d="M47,28v2c0,2.07-5.77,3.84-14,4.61-.65.05-1.32.11-2,.16v-2c.68-.05,1.35-.11,2-.16C41.23,31.84,47,30.07,47,28Z" style="fill:#7d0126"/><path d="M31,44.77v2c-2.21.15-4.56.23-7,.23s-4.79-.08-7-.23v-2c2.21.15,4.56.23,7,.23S28.79,44.92,31,44.77Z" style="fill:#e3decb"/><path d="M47,40v2c0,2.07-5.77,3.84-14,4.61-.65.05-1.32.11-2,.16v-2c.68-.05,1.35-.11,2-.16C41.23,43.84,47,42.07,47,40Z" style="fill:#7d0126"/><path d="M33,14.61v2c-.65.05-1.32.11-2,.16-2.21.15-4.56.23-7,.23s-4.79-.08-7-.23c-.68-.05-1.35-.11-2-.16v-2c2.76.25,5.81.39,9,.39S30.24,14.86,33,14.61Z" style="fill:#7d0126"/><path d="M47,10v2c0,2.07-5.77,3.84-14,4.61v-2C41.23,13.84,47,12.07,47,10Z" style="fill:#e3decb"/><path d="M33,26.61v2c-.65.05-1.32.11-2,.16-2.21.15-4.56.23-7,.23s-4.79-.08-7-.23c-.68-.05-1.35-.11-2-.16v-2c2.76.25,5.81.39,9,.39S30.24,26.86,33,26.61Z" style="fill:#7d0126"/><path d="M47,22v2c0,2.07-5.77,3.84-14,4.61v-2C41.23,25.84,47,24.07,47,22Z" style="fill:#e3decb"/><path d="M33,38.61v2c-.65.05-1.32.11-2,.16-2.21.15-4.56.23-7,.23s-4.79-.08-7-.23c-.68-.05-1.35-.11-2-.16v-2c2.76.25,5.81.39,9,.39S30.24,38.86,33,38.61Z" style="fill:#7d0126"/><path d="M47,34v2c0,2.07-5.77,3.84-14,4.61v-2C41.23,37.84,47,36.07,47,34Z" style="fill:#e3decb"/><path d="M47,46v2c0,2.07-5.77,3.84-14,4.61v-2C41.23,49.84,47,48.07,47,46Z" style="fill:#e3decb"/><path d="M47,48v6c0,2.23-6.72,4.12-16,4.77v-6c.68-.05,1.35-.11,2-.16,1.73-.16,3.34-.37,4.82-.61H43A4,4,0,0,0,47,48Z" style="fill:#7d0126"/><path d="M15,52.61c.65.05,1.32.11,2,.16v6C7.72,58.12,1,56.23,1,54V48C1,50.07,6.77,51.84,15,52.61Z" style="fill:#7d0126"/><path d="M28.038,50.919A29.6,29.6,0,0,1,19.26,46.89h-.01Q18.1,46.845,17,46.77c-.68-.05-1.35-.11-2-.16v6c.65.05,1.32.11,2,.16,2.21.15,4.56.23,7,.23s4.79-.08,7-.23c.68-.05,1.35-.11,2-.16v-2C31.433,50.752,29.765,50.854,28.038,50.919Z" style="fill:#7d0126"/><path d="M16.429,44.724a30.06,30.06,0,0,1-4.2-4.424C5.51,39.42,1,37.83,1,36v6c0,2.07,5.77,3.84,14,4.61.65.05,1.32.11,2,.16v-2C16.806,44.756,16.621,44.74,16.429,44.724Z" style="fill:#7d0126"/><path d="M15,32.61a60.967,60.967,0,0,1-7.452-1.118A28.471,28.471,0,0,1,6.47,27.23C3.06,26.37,1,25.24,1,24v6c0,2.07,5.77,3.84,14,4.61.65.05,1.32.11,2,.16v-2C16.32,32.72,15.65,32.66,15,32.61Z" style="fill:#7d0126"/><path d="M15,20.61a54.671,54.671,0,0,1-9-1.5v-4C2.87,14.26,1,13.18,1,12v6c0,2.07,5.77,3.84,14,4.61.65.05,1.32.11,2,.16v-2C16.32,20.72,15.65,20.66,15,20.61Z" style="fill:#7d0126"/><path d="M31,52.77v6c-2.21.15-4.56.23-7,.23s-4.79-.08-7-.23v-6c2.21.15,4.56.23,7,.23S28.79,52.92,31,52.77Z" style="fill:#d9d4c2"/><path d="M15,46.61v6C6.77,51.84,1,50.07,1,48V42C1,44.07,6.77,45.84,15,46.61Z" style="fill:#e3decb"/><path d="M15,38.61c-1.528-.143-2.971-.321-4.308-.528A30.335,30.335,0,0,1,8.36,33.67v-.01C3.83,32.75,1,31.45,1,30v6c0,1.828,4.506,3.422,11.228,4.3h0q1.331.172,2.77.31Z" style="fill:#e3decb"/><path d="M6.177,25.158A29.2,29.2,0,0,1,6,22v-.89C2.87,20.26,1,19.18,1,18v6c0,2.07,5.77,3.84,14,4.61v-2A55.273,55.273,0,0,1,6.177,25.158Z" style="fill:#e3decb"/><path d="M6,13.113v-4C2.87,8.26,1,7.18,1,6v6c0,2.07,5.77,3.84,14,4.61v-2A54.671,54.671,0,0,1,6,13.113Z" style="fill:#e3decb"/><path d="M62.5,35.23a23,23,0,0,1,0,9.54l-1.36-.59c-.7-.45-1.68-.02-2.18.95L55.3,52.19a2,2,0,0,0,.35,2.58l1.1.98A22.9,22.9,0,0,1,46,62.2V60.6A1.839,1.839,0,0,0,44,59H36a1.839,1.839,0,0,0-2,1.6v1.6a22.849,22.849,0,0,1-10.74-6.44l1.11-.99a2.017,2.017,0,0,0,.35-2.58l-3.66-7.06c-.51-.97-1.48-1.4-2.18-.95l-1.38.59A22.7,22.7,0,0,1,17,40a22.154,22.154,0,0,1,.51-4.78l1.37.59c.7.45,1.67.03,2.18-.95l3.66-7.05a2.014,2.014,0,0,0-.35-2.58l-1.1-.99A22.769,22.769,0,0,1,34,17.8v1.6A1.839,1.839,0,0,0,36,21h8a1.839,1.839,0,0,0,2-1.6V17.8a22.818,22.818,0,0,1,10.74,6.45l-1.09.98a2,2,0,0,0-.35,2.58l3.66,7.05c.5.98,1.48,1.4,2.18.95ZM55,40A15,15,0,1,0,40,55,15.005,15.005,0,0,0,55,40Z" style="fill:#d1013e"/><path d="M40,25A15,15,0,1,1,25,40,15.005,15.005,0,0,1,40,25Zm8,15c-4.57-1.29-8-9-8-9s-3.43,7.71-8,9c4.57,1.29,8,9,8,9S43.43,41.29,48,40Z" style="fill:#fffced"/><path d="M40,31s3.43,7.71,8,9c-4.57,1.29-8,9-8,9s-3.43-7.71-8-9C36.57,38.71,40,31,40,31Z" style="fill:#d1013e"/><path d="M46,60.6v1.6a22.9,22.9,0,0,1-12,0V60.6A1.839,1.839,0,0,1,36,59h8A1.839,1.839,0,0,1,46,60.6Z" style="fill:#f7f3e1"/><path d="M18.88,44.18c.7-.45,1.67-.02,2.18.95l3.66,7.06a2.017,2.017,0,0,1-.35,2.58l-1.11.99A22.938,22.938,0,0,1,17.5,44.77Z" style="fill:#f7f3e1"/><path d="M21.06,34.86c-.51.98-1.48,1.4-2.18.95l-1.37-.59a22.736,22.736,0,0,1,5.76-10.98l1.1.99a2.014,2.014,0,0,1,.35,2.58Z" style="fill:#f7f3e1"/><path d="M46,17.8v1.6A1.839,1.839,0,0,1,44,21H36a1.839,1.839,0,0,1-2-1.6V17.8a22.9,22.9,0,0,1,12,0Z" style="fill:#f7f3e1"/><path d="M61.14,35.81c-.7.45-1.68.03-2.18-.95L55.3,27.81a2,2,0,0,1,.35-2.58l1.09-.98A22.82,22.82,0,0,1,62.5,35.23Z" style="fill:#f7f3e1"/><path d="M58.96,45.13c.5-.97,1.48-1.4,2.18-.95l1.36.59a22.89,22.89,0,0,1-5.75,10.98l-1.1-.98a2,2,0,0,1-.35-2.58Z" style="fill:#f7f3e1"/><path d="M40,24A16,16,0,1,0,56,40,16,16,0,0,0,40,24Zm0,31A15,15,0,1,1,55,40,15.005,15.005,0,0,1,40,55Z" style="fill:#a80132"/><path d="M40,25A15,15,0,1,0,55,40,15.005,15.005,0,0,0,40,25Zm0,29A14,14,0,1,1,54,40,14,14,0,0,1,40,54Z" style="fill:#e3decb"/><path d="M46,60.6v1.6a22.9,22.9,0,0,1-12,0V60.6A1.839,1.839,0,0,1,36,59h8A1.839,1.839,0,0,1,46,60.6Z" style="fill:#e3decb"/><path d="M24.37,54.77l-1.11.99A22.938,22.938,0,0,1,17.5,44.77l1.38-.59c.7-.45,1.67-.02,2.18.95l3.66,7.06A2.017,2.017,0,0,1,24.37,54.77Z" style="fill:#e3decb"/><path d="M62.5,44.77a22.89,22.89,0,0,1-5.75,10.98l-1.1-.98a2,2,0,0,1-.35-2.58l3.66-7.06c.5-.97,1.48-1.4,2.18-.95Z" style="fill:#e3decb"/><path d="M18,40a22.111,22.111,0,0,1,.437-4.381l-.927-.4A22.154,22.154,0,0,0,17,40a22.7,22.7,0,0,0,.5,4.77l.936-.4A22.083,22.083,0,0,1,18,40Z" style="fill:#8f0029"/><path d="M34,18.835V17.8a22.769,22.769,0,0,0-10.73,6.44l.736.663A21.987,21.987,0,0,1,34,18.835Z" style="fill:#8f0029"/><path d="M24.005,55.1l-.745.664A22.849,22.849,0,0,0,34,62.2V61.165A21.987,21.987,0,0,1,24.005,55.1Z" style="fill:#8f0029"/><path d="M56,24.912l.737-.662A22.818,22.818,0,0,0,46,17.8v1.035A21.986,21.986,0,0,1,56,24.912Z" style="fill:#8f0029"/><path d="M62.5,35.23l-.936.4a22.123,22.123,0,0,1,0,8.736l.935.405a23,23,0,0,0,0-9.54Z" style="fill:#8f0029"/><path d="M46,61.165V62.2a22.9,22.9,0,0,0,10.75-6.45l-.745-.664A21.987,21.987,0,0,1,46,61.165Z" style="fill:#8f0029"/><path d="M40,62a22,22,0,0,1-6-.835V62.2a22.9,22.9,0,0,0,12,0V61.165A22,22,0,0,1,40,62Z" style="fill:#c7c3b2"/><path d="M18.436,44.37l-.936.4a22.938,22.938,0,0,0,5.76,10.99l.745-.664A21.931,21.931,0,0,1,18.436,44.37Z" style="fill:#c7c3b2"/><path d="M24.006,24.9l-.736-.663a22.736,22.736,0,0,0-5.76,10.98l.927.4A21.936,21.936,0,0,1,24.006,24.9Z" style="fill:#e3decb"/><path d="M40,18a22,22,0,0,1,6,.835V17.8a22.9,22.9,0,0,0-12,0v1.035A22,22,0,0,1,40,18Z" style="fill:#e3decb"/><path d="M61.564,35.629l.936-.4a22.82,22.82,0,0,0-5.76-10.98L56,24.912A21.932,21.932,0,0,1,61.564,35.629Z" style="fill:#e3decb"/><path d="M56.005,55.086l.745.664A22.89,22.89,0,0,0,62.5,44.77l-.935-.405A21.935,21.935,0,0,1,56.005,55.086Z" style="fill:#c7c3b2"/><circle cx="59" cy="40" r="1" style="fill:#fffced"/><circle cx="21" cy="40" r="1" style="fill:#fffced"/><circle cx="30" cy="56" r="1" style="fill:#fffced"/><circle cx="50" cy="56" r="1" style="fill:#fffced"/><circle cx="30" cy="24" r="1" style="fill:#fffced"/><circle cx="50" cy="24" r="1" style="fill:#fffced"/></g></svg>