<?xml version="1.0" ?><svg id="icons" viewBox="0 0 60 60" xmlns="http://www.w3.org/2000/svg"><circle cx="30" cy="30" fill="#e3c84c" r="29"/><circle cx="30" cy="30" fill="#fde05e" r="25"/><path d="M39.486,13.649,34.973,21.54a1.976,1.976,0,0,1-2.357.9,7.962,7.962,0,0,0-5.232,0,1.976,1.976,0,0,1-2.357-.9l-4.513-7.891a1.984,1.984,0,0,1,.864-2.792,20.944,20.944,0,0,1,17.244,0A1.984,1.984,0,0,1,39.486,13.649Z" fill="#847949"/><path d="M11.1,29.961l9.09-.038a1.976,1.976,0,0,1,1.959,1.591,7.978,7.978,0,0,0,2.616,4.531,1.975,1.975,0,0,1,.4,2.492L20.583,46.39a1.985,1.985,0,0,1-2.85.649A20.945,20.945,0,0,1,9.11,32.1,1.985,1.985,0,0,1,11.1,29.961Z" fill="#847949"/><path d="M39.417,46.39,34.84,38.537a1.975,1.975,0,0,1,.4-2.492,7.978,7.978,0,0,0,2.616-4.531,1.976,1.976,0,0,1,1.959-1.591l9.09.038A1.985,1.985,0,0,1,50.89,32.1a20.945,20.945,0,0,1-8.623,14.935A1.985,1.985,0,0,1,39.417,46.39Z" fill="#847949"/><circle cx="30" cy="30" fill="#847949" r="4"/><path d="M30,56A26,26,0,0,1,30,4a1,1,0,0,1,0,2,23.993,23.993,0,1,0,7.68,1.26,1,1,0,0,1,.64-1.895A26,26,0,0,1,30,56Z" fill="#c9ae3d"/></svg>