<?xml version="1.0" ?><svg style="enable-background:new 0 0 512 512;" version="1.1" viewBox="0 0 512 512" xml:space="preserve" xmlns="http://www.w3.org/2000/svg" xmlns:xlink="http://www.w3.org/1999/xlink"><g id="_x33_6_Hoverboard"><g><path d="M426.129,261.51V372.97c0,11.921,9.664,21.584,21.584,21.584h24.611    c11.921,0,21.584-9.664,21.584-21.584V261.51H426.129z" style="fill:#7C8A8D;"/><path d="M85.871,261.51V372.97c0,11.921-9.664,21.584-21.584,21.584H39.676    c-11.921,0-21.584-9.664-21.584-21.584V261.51H85.871z" style="fill:#7C8A8D;"/><path d="M426.129,275.592v72.159h-95.777c-13.221,0-26.146-3.909-37.151-11.235l-0.051-0.034    c-22.503-14.98-51.8-14.98-74.303,0l-0.051,0.034c-11.005,7.326-23.931,11.235-37.151,11.235H85.869v-72.159h95.835    c13.184,0,26.076-3.887,37.062-11.176l0.204-0.135c22.499-14.925,51.755-14.899,74.227,0.068l0,0    c11.008,7.331,23.938,11.243,37.164,11.243H426.129z" style="fill:#D2D8D8;"/><rect height="72.159" style="opacity:0.5;fill:#FFFFFF;" width="55.946" x="85.87" y="275.576"/><rect height="72.159" style="opacity:0.15;" width="36.533" x="389.597" y="275.576"/><path d="M153.913,298.631h-18.368c-7.201,0-13.039,5.838-13.039,13.039v0    c0,7.201,5.838,13.039,13.039,13.039h18.368c7.201,0,13.039-5.838,13.039-13.039v0    C166.952,304.469,161.114,298.631,153.913,298.631z" style="fill:#FDDC8D;"/><path d="M376.452,298.631h-18.368c-7.201,0-13.039,5.838-13.039,13.039v0    c0,7.201,5.838,13.039,13.039,13.039h18.368c7.201,0,13.039-5.838,13.039-13.039v0    C389.492,304.469,383.654,298.631,376.452,298.631z" style="fill:#FDDC8D;"/><path d="M98.624,232.711v96.828c0,10.054-8.15,18.205-18.205,18.205h0c-10.054,0-18.205-8.15-18.205-18.205    v-22.833c0-10.054-8.15-18.205-18.205-18.205H23.543c-10.054,0-18.205-8.15-18.205-18.205v-37.585    c0-25.76,20.883-46.643,46.643-46.643h0C77.742,186.068,98.624,206.951,98.624,232.711z" style="fill:#EFEFEF;"/><path d="M98.616,232.697v96.852c0,10.026-8.16,18.186-18.186,18.186c-4.373,0-8.427-1.547-11.573-4.107    c4.053-3.359,6.667-8.426,6.667-14.079v-96.852c0-12.853-5.226-24.533-13.653-32.96c-5.813-5.813-13.173-10.079-21.386-12.16    c3.68-1.013,7.52-1.493,11.52-1.493c12.853,0,24.533,5.226,32.959,13.653C93.39,208.165,98.616,219.844,98.616,232.697z" style="opacity:0.15;"/><path d="M413.376,232.711v96.828c0,10.054,8.15,18.205,18.205,18.205h0c10.054,0,18.205-8.15,18.205-18.205    v-22.833c0-10.054,8.15-18.205,18.205-18.205h20.468c10.054,0,18.205-8.15,18.205-18.205v-37.585    c0-25.76-20.883-46.643-46.643-46.643h0C434.258,186.068,413.376,206.951,413.376,232.711z" style="fill:#EFEFEF;"/><path d="M506.662,232.697v37.599c0,10.081-8.16,18.186-18.186,18.186h-20.48    c-10.08,0-18.186,8.16-18.186,18.24v22.826c0,5.013-2.027,9.546-5.333,12.853c-3.307,3.307-7.893,5.333-12.907,5.333    c-4.373,0-8.373-1.547-11.52-4.16c0.427-0.373,0.853-0.746,1.28-1.173c3.307-3.307,5.333-7.84,5.333-12.853v-22.826    c0-10.08,8.16-18.24,18.24-18.24h20.426c10.08,0,18.24-8.106,18.24-18.186v-37.599c0-21.759-14.933-40.053-35.092-45.12    c3.68-1.013,7.52-1.493,11.52-1.493C485.756,186.085,506.662,206.938,506.662,232.697z" style="opacity:0.15;"/><g><path d="M153.913,293.3h-18.367c-10.133,0-18.375,8.239-18.375,18.369s8.242,18.375,18.375,18.375h18.367     c10.13,0,18.372-8.245,18.372-18.375S164.043,293.3,153.913,293.3z M153.913,319.377h-18.367c-4.25,0-7.708-3.458-7.708-7.708     c0-4.25,3.458-7.703,7.708-7.703h18.367c4.25,0,7.706,3.453,7.706,7.703C161.619,315.919,158.163,319.377,153.913,319.377z"/><path d="M376.453,293.3h-18.369c-10.13,0-18.372,8.239-18.372,18.369s8.242,18.375,18.372,18.375h18.369     c10.13,0,18.372-8.245,18.372-18.375S386.583,293.3,376.453,293.3z M376.453,319.377h-18.369c-4.25,0-7.706-3.458-7.706-7.708     c0-4.25,3.456-7.703,7.706-7.703h18.369c4.25,0,7.706,3.453,7.706,7.703C384.159,315.919,380.703,319.377,376.453,319.377z"/><path d="M203.845,144.329c28.669-28.68,75.46-28.798,104.31,0.047c2.083,2.083,5.458,2.083,7.542,0     c2.083-2.083,2.083-5.458,0-7.542c-32.898-32.898-86.438-33.008-119.393-0.047c-2.083,2.083-2.083,5.458,0,7.542     C198.387,146.412,201.761,146.412,203.845,144.329z"/><path d="M296.304,163.771c2.083-2.083,2.083-5.458,0-7.542c-22.215-22.215-58.352-22.308-80.608-0.052     c-2.083,2.083-2.083,5.458,0,7.542c2.083,2.083,5.458,2.083,7.542,0c17.779-17.774,47.176-18.297,65.525,0.052     C290.846,165.854,294.221,165.854,296.304,163.771z"/><path d="M256,191.17c-3.163-0.036-5.281,2.867-5.281,5.314c0,3.212,2.468,5.333,5.281,5.333c3.119,0,5.385-2.477,5.385-5.333     C261.385,194.168,259.364,191.208,256,191.17z"/><path d="M276.911,183.161c2.083-2.083,2.083-5.458,0-7.542c-11.549-11.547-30.307-11.562-41.819-0.047     c-2.083,2.083-2.083,5.458,0,7.542c2.083,2.083,5.458,2.083,7.542,0c7.351-7.359,19.349-7.333,26.736,0.047     C271.453,185.245,274.828,185.245,276.911,183.161z"/><path d="M460.019,180.734c-28.661,0-51.978,23.317-51.978,51.978v37.546h-77.681c-12.213,0-24.044-3.578-34.208-10.349     c-24.328-16.198-55.783-16.234-80.334,0.063c-10.143,6.729-21.937,10.286-34.114,10.286h-77.746v-37.546     c0-28.661-23.317-51.978-51.978-51.978c-28.658,0-51.976,23.317-51.976,51.978v37.583c0,9.071,5.214,16.872,12.752,20.8v81.875     c0,14.843,12.075,26.916,26.919,26.916h24.611c14.841,0,26.916-12.073,26.916-26.916v-19.885h90.441     c14.315,0,28.184-4.193,40.158-12.166c20.77-13.817,47.616-13.828,68.444,0.042c11.924,7.932,25.794,12.125,40.106,12.125h90.444     v19.885c0,14.843,12.075,26.916,26.916,26.916h24.612c14.843,0,26.919-12.073,26.919-26.916v-81.875     c7.538-3.928,12.752-11.729,12.752-20.8v-37.583C511.995,204.052,488.678,180.734,460.019,180.734z M10.671,232.712     c0-22.781,18.531-41.312,41.309-41.312s41.312,18.531,41.312,41.312v96.826c0,7.099-5.773,12.87-12.872,12.87     c-7.099,0-12.872-5.771-12.872-12.87v-22.833c0-12.979-10.557-23.536-23.536-23.536H23.544c-7.099,0-12.872-5.776-12.872-12.875     V232.712z M64.288,389.22H39.676c-8.961,0-16.252-7.292-16.252-16.25v-79.146c0.041,0,0.079,0.012,0.12,0.012h20.468     c7.096,0,12.87,5.771,12.87,12.87v22.833c0,12.979,10.56,23.536,23.539,23.536c0.04,0,0.077-0.012,0.117-0.012v19.907     C80.537,381.928,73.248,389.22,64.288,389.22z M296.106,332.044c-24.249-16.149-55.744-16.291-80.264,0.031     c-10.166,6.766-21.992,10.344-34.197,10.344H100.08c2.436-3.706,3.879-8.122,3.879-12.88v-48.614h77.746     c14.281,0,28.117-4.172,40.213-12.203c20.763-13.765,47.582-13.745,68.324,0.063c11.919,7.943,25.794,12.14,40.119,12.14h77.681     v48.614c0,4.758,1.442,9.174,3.878,12.88h-81.567C318.15,342.419,306.325,338.841,296.106,332.044z M488.576,372.97     c0,8.958-7.292,16.25-16.252,16.25h-24.612c-8.961,0-16.25-7.292-16.25-16.25v-19.907c0.04,0,0.077,0.012,0.117,0.012     c12.979,0,23.539-10.557,23.539-23.536v-22.833c0-7.099,5.773-12.87,12.87-12.87h20.468c0.041,0,0.079-0.012,0.12-0.012V372.97z      M501.329,270.295c0,7.099-5.773,12.875-12.872,12.875h-20.468c-12.979,0-23.536,10.557-23.536,23.536v22.833     c0,7.099-5.773,12.87-12.872,12.87c-7.099,0-12.872-5.771-12.872-12.87v-96.826c0-22.781,18.534-41.312,41.312-41.312     s41.309,18.531,41.309,41.312V270.295z"/></g></g></g><g id="Layer_1"/></svg>