<?xml version="1.0" ?><!DOCTYPE svg  PUBLIC '-//W3C//DTD SVG 1.1//EN'  'http://www.w3.org/Graphics/SVG/1.1/DTD/svg11.dtd'><svg enable-background="new 0 0 512 512" height="512px" version="1.1" viewBox="0 0 512 512" width="512px" xml:space="preserve" xmlns="http://www.w3.org/2000/svg" xmlns:xlink="http://www.w3.org/1999/xlink"><g id="Colors"><g><g><g><g><circle cx="257" cy="257.5" fill="#FFDACA" r="239.5"/></g></g></g></g><g><g><g><path d="M95.871,404.521c0,0-22.871,1.449-28.371,24.464c0,0-32.5-12.826-48,10.844S15,504,54.5,494      c0,0,13.833-3.333,23.5-10.667c0,0,22.698,23,64.849,4.667l229.583-3.381c0,0,28.235,22.381,64.902,3.381      c0,0,19.333,12.769,43.167,2.134s25.167-68.392-8.167-87.263c0,0,0.557-40.312-42.055-33.758l-349.231-3.005      c0,0-59.714,10.392-35.714,69.892" fill="#F2A19C"/></g></g></g><g><g><g><path d="M347.707,64c0,0-9.178,49.786,41.957,66.382c51.135,16.595,74.736,87.99,55.943,182.55      c-18.794,94.559-69.492,166.213-69.492,166.213S366.937,496,354.262,496H158.125c-12.674,0-21.853-16.855-21.853-16.855      S85.574,407.621,66.78,313.061c-18.793-94.559,4.808-166.019,55.943-182.614c51.135-16.596,41.957-66.415,41.957-66.415" fill="#F0F3F7"/></g></g></g><g><g><g><path d="M448.8,212.87c-49.859-40.37-121.399-48.203-198.895-23.911c-83.848,26.283-178.651-4.313-178.651-4.313      S18.268,318,152.006,497h203.667C355.672,497,465.782,402.122,448.8,212.87z" fill="#F9715F"/></g></g></g><g><g><g><g><path d="M443.738,225.064c-47.038-38.444-115.025-46.425-191.439-22.471       c-85.296,26.739-179.531-3.068-183.501-4.35L73.708,183c0.001,0,0.002,0,0.003,0l0,0c1.126,0,93.541,29.47,173.801,4.309       c81.723-25.617,155.005-16.605,206.35,25.358L443.738,225.064z" fill="#F2A19C"/></g></g></g></g><g><g><g><path d="M265,67.72c0,0-3.595,14.614,8.536,11.28s16.54,5.773,11.131,21.333s21,17,16.333,1.667      s-6.333-28.667,11.667-25.333s22.667-2.333,19-12C331.667,64.667,289.667,63.106,265,67.72z" fill="#EF5362"/></g></g></g><g><g><g><path d="M368,51.32c0,6.727-4.003,12.68-8.831,12.68H152.88c-4.828,0-8.88-5.953-8.88-12.68V28.18      c0-6.727,4.052-12.18,8.88-12.18h206.289c4.828,0,8.831,5.453,8.831,12.18V51.32z" fill="#D9E0ED"/></g></g></g><g opacity="0.1"><g><g><rect fill="#3F456B" height="16" width="185" x="164" y="64"/></g></g></g><g opacity="0.5"><g><g><rect fill="#FFFFFF" height="50" width="55" x="184" y="15"/></g></g></g><g opacity="0.15"><g><g><rect fill="#3F456B" height="50" width="55" x="312" y="15"/></g></g></g><g opacity="0.15"><g><g><rect fill="#3F456B" height="16" width="221" x="146" y="48"/></g></g></g><g opacity="0.5"><g><g><rect fill="#FFFFFF" height="16" width="221" x="146" y="16"/></g></g></g><g><g><g><g><circle cx="256.072" cy="343.096" fill="#FFE0DC" r="120.516"/></g></g></g><g opacity="0.1"><g><g><path d="M371.389,310.849c17.836,64.092-19.664,130.509-83.755,148.344       c-64.093,17.834-130.508-19.661-148.342-83.756c0,0,48.58,86.548,145.072,59.697       C380.854,408.279,371.389,310.849,371.389,310.849z" fill="#C1272D"/></g></g></g><g><g><g><circle cx="256.199" cy="343.045" fill="#ABD3F4" r="84.501"/></g></g></g><g opacity="0.2"><g><g><path d="M337.696,321.39c12.562,45.135-13.846,91.909-58.982,104.469       c-45.136,12.559-91.908-13.847-104.468-58.984c0,0,34.212,60.95,102.165,42.041C344.362,390.004,337.696,321.39,337.696,321.39       z" fill="#3F456B"/></g></g></g><g opacity="0.5"><g><g><path d="M174.562,366.108c-12.56-45.135,13.848-91.908,58.984-104.469       c45.135-12.56,91.908,13.847,104.467,58.984c0,0-34.212-60.95-102.164-42.041C167.896,297.495,174.562,366.108,174.562,366.108       z" fill="#FFFFFF"/></g></g></g><g><g><g><circle cx="256.2" cy="343.045" fill="#757C9E" r="38.592"/></g></g></g><g opacity="0.5"><g><g><path d="M292.269,329.426c5.717,20.542-6.302,41.831-26.846,47.548c-20.543,5.716-41.83-6.302-47.547-26.846       c0,0,15.571,27.741,46.5,19.135C295.302,360.655,292.269,329.426,292.269,329.426z" fill="#3F456B"/></g></g></g><g opacity="0.3"><g><g><path d="M219.713,356.008c-5.716-20.542,6.303-41.831,26.846-47.547c20.543-5.717,41.831,6.302,47.547,26.846       c0,0-15.571-27.741-46.499-19.134C216.681,324.779,219.713,356.008,219.713,356.008z" fill="#FFFFFF"/></g></g></g><g opacity="0.3"><g><g><circle cx="238.535" cy="282.051" fill="#FFFFFF" r="57.2"/></g></g></g><g><g><g><path d="M255.999,468.641c-56.445,0-106.221-38.085-121.046-92.616       c-18.157-66.786,21.405-135.892,88.189-154.048c10.804-2.938,21.908-4.427,33.002-4.427       c56.445,0,106.221,38.085,121.046,92.617c8.796,32.352,4.467,66.192-12.19,95.289c-16.657,29.096-43.647,49.964-76,58.759       C278.196,467.152,267.093,468.641,255.999,468.641z M256.144,227.55c-10.208,0-20.429,1.372-30.378,4.077       c-61.464,16.71-97.874,80.311-81.164,141.775c13.645,50.188,59.453,85.239,111.397,85.239c10.208,0,20.429-1.371,30.378-4.076       c29.775-8.095,54.615-27.3,69.945-54.078c15.33-26.778,19.314-57.923,11.219-87.697       C353.896,262.602,308.088,227.55,256.144,227.55z" fill="#3F456B"/></g></g></g><g opacity="0.7"><g><g><path d="M322.997,369.581c10.188-2.77,20.691,3.243,23.461,13.431c2.77,10.188-3.243,20.692-13.431,23.462       c-10.188,2.77-20.691-3.244-23.461-13.432C306.796,382.854,312.809,372.351,322.997,369.581" fill="#FFFFFF"/></g></g></g><g><g><g><g><g><path d="M197.896,354.93c-3.658,0.58-7.195-1.759-8.049-5.421c-7.322-31.436,16.214-47.952,17.22-48.64         c3.248-2.222,7.681-1.389,9.902,1.858c2.213,3.237,1.395,7.65-1.825,9.878c-0.751,0.532-16.476,11.965-11.42,33.671         c0.892,3.832-1.49,7.662-5.323,8.554C198.232,354.869,198.064,354.901,197.896,354.93z" fill="#FFFFFF"/></g></g></g></g><g><g><g><circle cx="202.947" cy="370.442" fill="#FFFFFF" r="8.707"/></g></g></g></g><g><g><g><circle cx="256.719" cy="342.304" fill="#3F456B" r="7.277"/></g></g></g><g><g><g><path d="M256.149,432.567c-40.249,0-75.744-27.157-86.315-66.041c-6.272-23.069-3.185-47.2,8.692-67.948       s31.123-35.628,54.192-41.9c7.704-2.094,15.621-3.156,23.532-3.156c40.25,0,75.744,27.157,86.315,66.042       c6.272,23.069,3.186,47.2-8.692,67.947c-11.877,20.748-31.124,35.628-54.193,41.9       C271.977,431.505,264.06,432.567,256.149,432.567z M256.25,263.522c-7.025,0-14.06,0.944-20.908,2.806       c-20.491,5.571-37.587,18.789-48.137,37.219c-10.55,18.429-13.292,39.864-7.721,60.355       c9.392,34.541,40.917,58.665,76.666,58.665c7.025,0,14.06-0.944,20.908-2.806c20.492-5.572,37.587-18.79,48.138-37.219       s13.292-39.864,7.721-60.355C323.525,287.646,291.999,263.522,256.25,263.522z" fill="#3F456B"/></g></g></g><g><g><g><path d="M256.176,386.646c-19.604,0-36.892-13.227-42.041-32.165c-3.055-11.236-1.552-22.989,4.233-33.093       c5.785-10.105,15.158-17.353,26.394-20.407c3.75-1.02,7.606-1.537,11.46-1.537c19.605,0,36.893,13.227,42.042,32.165       c6.306,23.194-7.434,47.194-30.628,53.5C263.885,386.129,260.03,386.646,256.176,386.646z M256.223,309.444       c-2.968,0-5.94,0.399-8.836,1.187c-8.659,2.354-15.882,7.939-20.34,15.726c-4.458,7.787-5.616,16.844-3.262,25.501       c3.968,14.595,17.288,24.789,32.392,24.789c2.967,0,5.94-0.399,8.835-1.186c17.874-4.86,28.462-23.354,23.603-41.228       C284.647,319.637,271.327,309.444,256.223,309.444z" fill="#3F456B"/></g></g></g><g opacity="0.1"><g><g><g><g><g><path d="M228.955,249.08c-2.201,0-4.217-1.464-4.822-3.689l-4.719-17.358          c-0.725-2.665,0.848-5.413,3.513-6.137c2.668-0.728,5.412,0.849,6.137,3.513l4.719,17.358          c0.725,2.665-0.848,5.413-3.513,6.137C229.831,249.023,229.389,249.08,228.955,249.08z" fill="#3F456B"/></g></g></g><g><g><g><path d="M287.651,464.973c-2.201,0-4.217-1.464-4.822-3.689l-4.719-17.357          c-0.725-2.665,0.848-5.413,3.513-6.137c2.666-0.728,5.413,0.848,6.137,3.513l4.719,17.357          c0.725,2.665-0.848,5.413-3.513,6.137C288.527,464.916,288.085,464.973,287.651,464.973z" fill="#3F456B"/></g></g></g></g><g><g><g><g><path d="M354.816,322.049c-2.201,0-4.217-1.464-4.822-3.69c-0.725-2.665,0.848-5.412,3.513-6.136          l17.358-4.719c2.664-0.726,5.412,0.848,6.136,3.513c0.725,2.665-0.848,5.412-3.513,6.136l-17.358,4.719          C355.692,321.992,355.25,322.049,354.816,322.049z" fill="#3F456B"/></g></g></g><g><g><g><path d="M138.923,380.746c-2.201,0-4.217-1.464-4.822-3.689c-0.725-2.665,0.848-5.413,3.513-6.137          l17.358-4.719c2.667-0.728,5.412,0.849,6.137,3.513c0.725,2.665-0.848,5.413-3.513,6.137l-17.358,4.719          C139.799,380.688,139.357,380.746,138.923,380.746z" fill="#3F456B"/></g></g></g></g></g><g><g><g><g><g><path d="M183.158,275.848c-1.273,0-2.547-0.483-3.522-1.452l-12.858-12.764          c-1.96-1.945-1.972-5.111-0.026-7.071c1.944-1.959,5.111-1.972,7.071-0.026l12.858,12.764          c1.96,1.945,1.972,5.111,0.026,7.071C185.729,275.355,184.444,275.848,183.158,275.848z" fill="#3F456B"/></g></g></g><g><g><g><path d="M341.471,433.006c-1.273,0-2.547-0.483-3.522-1.452l-12.858-12.764          c-1.96-1.945-1.972-5.111-0.026-7.071c1.944-1.96,5.111-1.972,7.071-0.026l12.858,12.764          c1.96,1.945,1.972,5.111,0.026,7.071C344.042,432.513,342.756,433.006,341.471,433.006z" fill="#3F456B"/></g></g></g></g><g><g><g><g><path d="M328.084,276.12c-1.273,0-2.547-0.483-3.522-1.452c-1.96-1.945-1.972-5.111-0.026-7.071          l12.765-12.859c1.945-1.96,5.11-1.972,7.071-0.026c1.96,1.945,1.972,5.111,0.026,7.071l-12.765,12.859          C330.655,275.626,329.37,276.12,328.084,276.12z" fill="#3F456B"/></g></g></g><g><g><g><path d="M170.927,434.432c-1.273,0-2.547-0.483-3.522-1.451c-1.96-1.945-1.972-5.111-0.026-7.071          l12.764-12.859c1.945-1.96,5.111-1.972,7.071-0.026s1.972,5.111,0.026,7.071l-12.764,12.859          C173.499,433.939,172.213,434.432,170.927,434.432z" fill="#3F456B"/></g></g></g></g></g><g><g><g><g><g><path d="M156.753,321.792c-0.423,0-0.852-0.054-1.28-0.167L137.957,317c-2.67-0.705-4.263-3.441-3.558-6.111          c0.706-2.671,3.443-4.263,6.111-3.558l17.517,4.625c2.67,0.705,4.263,3.441,3.558,6.111          C160.992,320.31,158.967,321.792,156.753,321.792z" fill="#3F456B"/></g></g></g><g><g><g><path d="M372.435,378.739c-0.423,0-0.852-0.054-1.28-0.167l-17.518-4.625          c-2.67-0.705-4.263-3.441-3.558-6.111c0.705-2.67,3.441-4.263,6.111-3.558l17.518,4.625c2.67,0.705,4.263,3.441,3.558,6.111          C376.674,377.256,374.649,378.739,372.435,378.739z" fill="#3F456B"/></g></g></g></g><g><g><g><g><path d="M282.399,249.564c-0.423,0-0.852-0.054-1.28-0.167c-2.67-0.705-4.263-3.441-3.558-6.111          l4.625-17.518c0.705-2.67,3.443-4.263,6.111-3.558c2.67,0.705,4.263,3.441,3.558,6.111l-4.625,17.518          C286.638,248.081,284.613,249.564,282.399,249.564z" fill="#3F456B"/></g></g></g><g><g><g><path d="M225.452,465.245c-0.423,0-0.852-0.054-1.28-0.167c-2.67-0.705-4.263-3.441-3.558-6.111          l4.625-17.517c0.706-2.67,3.443-4.264,6.111-3.558c2.67,0.705,4.263,3.441,3.558,6.111l-4.625,17.517          C229.691,463.762,227.667,465.245,225.452,465.245z" fill="#3F456B"/></g></g></g></g></g></g><g opacity="0.1"><g><g><g><g><g><path d="M204.126,259.537c-1.722,0-3.397-0.89-4.326-2.485l-9.107-15.641          c-1.39-2.386-0.582-5.447,1.805-6.836c2.386-1.389,5.447-0.581,6.836,1.805l9.107,15.641          c1.39,2.386,0.582,5.447-1.805,6.836C205.846,259.318,204.98,259.537,204.126,259.537z" fill="#3F456B"/></g></g></g><g><g><g><path d="M316.565,452.651c-1.722,0-3.397-0.89-4.326-2.485l-9.107-15.642          c-1.39-2.387-0.582-5.448,1.805-6.837c2.387-1.39,5.448-0.581,6.837,1.805l9.107,15.642c1.39,2.387,0.582,5.448-1.805,6.837          C318.285,452.432,317.419,452.651,316.565,452.651z" fill="#3F456B"/></g></g></g></g><g><g><g><g><path d="M344.403,297.083c-1.722,0-3.397-0.89-4.326-2.485c-1.39-2.387-0.582-5.447,1.805-6.837l15.64-9.107          c2.389-1.389,5.448-0.581,6.837,1.805c1.39,2.387,0.582,5.447-1.805,6.837l-15.64,9.107          C346.123,296.864,345.257,297.083,344.403,297.083z" fill="#3F456B"/></g></g></g><g><g><g><path d="M151.289,409.522c-1.722,0-3.397-0.89-4.326-2.485c-1.39-2.387-0.582-5.447,1.805-6.837          l15.641-9.107c2.388-1.389,5.448-0.581,6.837,1.805c1.39,2.387,0.582,5.447-1.805,6.837l-15.641,9.107          C153.008,409.303,152.143,409.522,151.289,409.522z" fill="#3F456B"/></g></g></g></g></g><g><g><g><g><g><path d="M166.828,297.043c-0.842,0-1.696-0.213-2.479-0.662l-15.724-9c-2.396-1.372-3.228-4.427-1.855-6.823          c1.372-2.396,4.428-3.226,6.823-1.855l15.724,9c2.396,1.372,3.228,4.427,1.855,6.823          C170.249,296.139,168.563,297.043,166.828,297.043z" fill="#3F456B"/></g></g></g><g><g><g><path d="M360.422,407.872c-0.843,0-1.696-0.213-2.48-0.662l-15.723-9.001          c-2.396-1.372-3.227-4.427-1.855-6.824c1.372-2.397,4.426-3.226,6.824-1.855l15.723,9.001          c2.396,1.372,3.227,4.427,1.855,6.824C363.842,406.968,362.157,407.872,360.422,407.872z" fill="#3F456B"/></g></g></g></g><g><g><g><g><path d="M306.886,259.795c-0.842,0-1.696-0.213-2.479-0.662c-2.396-1.373-3.227-4.427-1.854-6.824          l9.003-15.724c1.372-2.397,4.428-3.226,6.823-1.854c2.396,1.372,3.227,4.427,1.854,6.823l-9.003,15.724          C310.306,258.892,308.62,259.795,306.886,259.795z" fill="#3F456B"/></g></g></g><g><g><g><path d="M196.058,453.389c-0.842,0-1.696-0.213-2.479-0.662c-2.396-1.372-3.227-4.427-1.855-6.823          l9.001-15.724c1.372-2.396,4.427-3.226,6.824-1.855c2.396,1.372,3.227,4.427,1.855,6.823l-9.001,15.724          C199.479,452.485,197.793,453.389,196.058,453.389z" fill="#3F456B"/></g></g></g></g></g><g><g><g><g><g><path d="M135.098,348c-2.753,0-4.99-2.066-5-4.822c-0.01-2.761,2.221-5.056,4.982-5.065L153.196,338          c0.006,0,0.012,0,0.019,0c2.753,0,4.99,2.354,5,5.109c0.01,2.761-2.221,4.912-4.982,4.922L135.117,348          C135.111,348,135.104,348,135.098,348z" fill="#3F456B"/></g></g></g><g><g><g><path d="M358.168,348c-2.753,0-4.989-2.475-5-5.229c-0.01-2.762,2.22-5.351,4.981-5.361L376.268,337          c0.006,0,0.013,0,0.019,0c2.753,0,4.989,2.445,5,5.2c0.01,2.762-2.22,5.366-4.981,5.376L358.188,348          C358.181,348,358.175,348,358.168,348z" fill="#3F456B"/></g></g></g></g><g><g><g><g><path d="M255.884,246c-2.753,0-4.99-2.243-5-4.998l-0.065-18.051c-0.01-2.761,2.221-4.951,4.982-4.951          c0.006,0,0.012,0,0.019,0c2.753,0,4.99,2.151,5,4.907l0.065,18.096c0.01,2.761-2.221,4.997-4.982,4.997          C255.897,246,255.891,246,255.884,246z" fill="#3F456B"/></g></g></g><g><g><g><path d="M256.701,469c-2.753,0-4.989-2.208-5-4.963l-0.066-18.068c-0.01-2.761,2.22-4.969,4.982-4.969          c0.006,0,0.012,0,0.019,0c2.753,0,4.989,2.187,5,4.942l0.066,18.078c0.01,2.762-2.22,4.979-4.982,4.979          C256.713,469,256.707,469,256.701,469z" fill="#3F456B"/></g></g></g></g></g></g></g><g opacity="0.5"><g><g><path d="M193.926,65c0,0,7.011,50-36.694,81c-43.705,31-51.563,95-41.074,152s60.271,166,78.216,199h55.532      c0,0-19.23-117-30.594-198.002c-4.324-30.825-7.357-63.748-3.165-94.841c4.155-30.815,18.438-58.13,24.779-88.243      c3.5-16.625,3.853-34.905,2.862-51.914L193.926,65z" fill="#FFFFFF"/></g></g></g><g opacity="0.3"><g><g><path d="M363.035,176.333c14.193,23.265,20.387,50.539,17.653,79.574C376.609,299.24,359.169,423,310.219,494      h43.706c0,0,10.489,0,20.979-14.667S452.027,359,452.027,256c0-18.789-1.583-34.727-4.233-48.275      C422.763,189.283,392.48,182.405,363.035,176.333z" fill="#991721"/></g></g></g><g opacity="0.1"><g><g><path d="M392.822,130.813c-11.8-4.5-46.053-13.813-45.316-65.813h-43.575c0,0-0.207,52.147,32.426,80.147      c10.768,9.239,19.688,19.729,26.677,31.186c29.446,6.072,59.728,12.95,84.759,31.392      C435.912,146.998,402.47,134.493,392.822,130.813z" fill="#3F456B"/></g></g></g><g opacity="0.3"><g><g><polygon fill="#991721" points="358.513,497 152.006,497 138.166,479 375.777,479     "/></g></g></g><g opacity="0.2"><g><g><path d="M15.667,464.038c0,0,20,29.295,60.333-2.038c0,0,17.632,19.282,50.316,1.641L141.333,488      c0,0-35,17.333-63.333-4.667c0,0-14.667,14.298-42,12.315S15.667,464.038,15.667,464.038z" fill="#C1272D"/></g></g></g><g opacity="0.2"><g><g><path d="M385.496,462.801c0,0,22.504,21.78,51.504,4.323c0,0,18,17.542,39.667,3.542s12.667-47,12.667-47      s29,51-18.333,69.667c0,0-17.07,5.675-32.535-4.663c0,0-36.465,18.663-64.465-3.337L385.496,462.801z" fill="#C1272D"/></g></g></g><g opacity="0.2"><g><g><path d="M419.124,398.32c0,0,21.876,1.404,23.376,19.167c0,0,23.75-3.737,20.25,19.513l-26.687-0.48      c0,0-1.934-20.078-21.124-23.049L419.124,398.32z" fill="#C1272D"/></g></g></g><g opacity="0.3"><g><g><path d="M85.062,378.395c0,0-29.729,4.605-32.729,44.605H41c0,0-8.803-44.784,37.099-56.892L85.062,378.395z" fill="#FFFFFF"/></g></g></g><g opacity="0.3"><g><g><path d="M80.5,435.167c0,0-5.167,8.5-18.5,5S31.5,442,34.5,451.333s14.667,8.833,25,2.333      S79.667,442.333,94,447.5s23.333,0.333,23.333,0.333l-14-24.833C103.333,423,92.167,419.334,80.5,435.167z" fill="#FFFFFF"/></g></g></g><g opacity="0.3"><g><g><path d="M406.467,431.006c0,0,18.533-1.506,17.033,14.994c0,0,1.112,11.25,10.681,7.5s15.319-8.47,22.319,0.765      s22,2.985,6.75-10.265s-29.069-4.19-29.069-4.19s-1.552-19.99-20.242-19.15L406.467,431.006z" fill="#FFFFFF"/></g></g></g><g opacity="0.3"><g><g><path d="M425.695,380.678c0,0,42.675-6.602,45.157,22.193c0,0,6.013-38.419-37.919-34.479L425.695,380.678z" fill="#FFFFFF"/></g></g></g><g><g><g><circle cx="213" cy="52.957" fill="#EF5362" r="10"/></g></g></g><g><g><g><circle cx="333" cy="135.957" fill="#EF5362" r="10"/></g></g></g><g><g><g><circle cx="282" cy="155.957" fill="#EF5362" r="7.5"/></g></g></g><g><g><g><circle cx="277" cy="34.957" fill="#EF5362" r="7.5"/></g></g></g></g><g id="Lines"><g><g><g><circle cx="403.906" cy="106.662" fill="#3F456B" r="6.473"/></g></g></g><g><g><g><circle cx="42.906" cy="315.662" fill="#3F456B" r="6.473"/></g></g></g><g><g><g><path d="M354.262,501H158.125c-14.656,0-24.712-16.763-26.095-19.197c-3.214-4.629-51.901-75.932-70.153-167.768      c-9.306-46.822-8.656-89.358,1.88-123.012c10.646-34.004,30.502-56.596,57.423-65.333      c46.227-15.003,38.915-58.903,38.581-60.764c-0.487-2.713,1.314-5.315,4.026-5.808c2.71-0.495,5.311,1.296,5.811,4.008      c0.102,0.555,2.455,13.776-1.908,29.247c-4.069,14.43-14.906,33.575-43.423,42.83c-49.299,15.999-70.43,87.083-52.582,176.884      c18.373,92.444,68.166,163.46,68.667,164.167c0.114,0.161,0.218,0.328,0.312,0.5c2.174,3.957,9.559,14.246,17.461,14.246      h196.138c7.903,0,15.287-10.29,17.466-14.254c0.091-0.165,0.196-0.334,0.304-0.487c0.501-0.709,50.316-71.955,68.67-164.301      c17.841-89.764-3.291-160.823-52.582-176.819c-28.517-9.255-39.354-28.39-43.423-42.812c-4.363-15.463-2.01-28.677-1.908-29.231      c0.5-2.716,3.11-4.512,5.823-4.011c2.715,0.5,4.51,3.105,4.012,5.82c-0.353,1.975-7.579,45.742,38.583,60.723      c26.922,8.737,46.778,31.317,57.423,65.299c10.536,33.636,11.186,76.162,1.881,122.981      c-18.256,91.851-66.956,163.282-70.153,167.895C378.979,484.229,368.922,501,354.262,501z" fill="#3F456B"/></g></g></g><g><g><g><path d="M359.169,69H152.88C145.227,69,139,61.069,139,51.32V28.18c0-9.473,6.227-17.18,13.88-17.18h206.289      C366.795,11,373,18.707,373,28.18V51.32C373,61.069,366.795,69,359.169,69z M152.88,21c-1.544,0-3.88,2.864-3.88,7.18V51.32      c0,4.513,2.517,7.68,3.88,7.68h206.289c1.346,0,3.831-3.167,3.831-7.68V28.18c0-4.316-2.306-7.18-3.831-7.18H152.88z" fill="#3F456B"/></g></g></g><g opacity="0.7"><g><g><path d="M438.01,210.9c-2.24-1.61-2.76-4.74-1.15-6.98l0,0c1.61-2.24,4.74-2.76,6.98-1.15l0,0      c2.24,1.61,2.76,4.74,1.15,6.98l0,0c-0.98,1.36-2.51,2.09-4.07,2.09l0,0C439.91,211.84,438.89,211.53,438.01,210.9z M169.83,205      c-2.76,0-4.97-2.515-4.93-5.275l0,0c0.04-2.76,2.31-5.073,5.07-5.033l0,0c2.76,0.04,4.97,2.454,4.93,5.224l0,0      c-0.04,2.73-2.27,5.084-5,5.084l0,0C169.88,205,169.86,205,169.83,205z M184.9,199.37c-0.14-2.76,1.98-5.056,4.74-5.195l0,0      c2.75-0.14,5.1,1.898,5.25,4.658l0,0c0.14,2.76-1.98,5.167-4.74,5.167l0,0c-0.09,0-0.18,0-0.26,0l0,0      C187.24,204,185.03,202.04,184.9,199.37z M149.56,203.72c-2.76-0.2-4.83-2.59-4.63-5.34l0,0c0.19-2.76,2.59-4.83,5.34-4.63l0,0      c2.76,0.19,4.83,2.58,4.63,5.34l0,0c-0.19,2.63-2.38,4.64-4.98,4.64l0,0C149.8,203.73,149.68,203.73,149.56,203.72z       M204.85,198.11c-0.34-2.74,1.61-5.24,4.35-5.58l0,0c2.74-0.34,5.23,1.61,5.57,4.35l0,0c0.34,2.74-1.6,5.24-4.34,5.58l0,0      c-0.21,0.02-0.42,0.04-0.63,0.04l0,0C207.32,202.5,205.16,200.64,204.85,198.11z M129.38,201.73c-2.74-0.34-4.68-2.84-4.34-5.58      l0,0c0.35-2.74,2.85-4.69,5.59-4.34l0,0c2.74,0.34,4.68,2.84,4.34,5.58l0,0c-0.32,2.53-2.47,4.38-4.96,4.38l0,0      C129.81,201.77,129.6,201.76,129.38,201.73z M421.61,200.63c-2.43-1.31-3.33-4.35-2.02-6.78l0,0c1.32-2.43,4.35-3.33,6.78-2.01      l0,0l0,0l0,0c2.43,1.31,3.33,4.35,2.02,6.78l0,0c-0.91,1.67-2.63,2.62-4.41,2.62l0,0C423.18,201.24,422.36,201.04,421.61,200.63      z M224.64,195.26c-0.56-2.71,1.17-5.35,3.88-5.92l0,0c2.7-0.56,5.35,1.17,5.91,3.88l0,0c0.57,2.7-1.17,5.35-3.87,5.91l0,0      c-0.34,0.07-0.69,0.11-1.03,0.11l0,0C227.22,199.24,225.14,197.62,224.64,195.26z M109.35,198.7c-2.72-0.49-4.53-3.08-4.05-5.8      l0,0c0.48-2.72,3.08-4.53,5.8-4.05l0,0c2.71,0.48,4.53,3.08,4.05,5.8l0,0c-0.43,2.42-2.54,4.13-4.92,4.13l0,0      C109.94,198.78,109.65,198.75,109.35,198.7z M89.49,194.65c-2.69-0.62-4.37-3.31-3.75-6l0,0c0.62-2.69,3.31-4.36,6-3.74l0,0      c2.69,0.62,4.37,3.3,3.75,6l0,0c-0.54,2.31-2.6,3.87-4.87,3.87l0,0C90.25,194.78,89.87,194.74,89.49,194.65z M244.13,190.74      c-0.82-2.64,0.66-5.44,3.3-6.25l0,0c2.64-0.81,5.44,0.67,6.25,3.31l0,0c0.81,2.64-0.66,5.44-3.3,6.25l0,0      c-0.49,0.15-0.99,0.22-1.48,0.22l0,0C246.77,194.27,244.79,192.89,244.13,190.74z M404.04,192.47      c-2.58-1.01-3.84-3.92-2.83-6.49l0,0c1.01-2.57,3.91-3.83,6.48-2.82l0,0c2.57,1.01,3.84,3.91,2.83,6.48l0,0      c-0.78,1.97-2.66,3.17-4.66,3.17l0,0C405.25,192.81,404.64,192.7,404.04,192.47z M69.72,189.4c-2.63-0.84-4.07-3.66-3.22-6.29      l0,0c0.84-2.63,3.66-4.07,6.29-3.22l0,0c2.63,0.84,4.07,3.66,3.22,6.29l0,0c-0.68,2.12-2.64,3.47-4.75,3.47l0,0      C70.75,189.65,70.23,189.57,69.72,189.4z M263.3,185.02c-0.68-2.68,0.94-5.4,3.62-6.07l0,0c2.68-0.68,5.215,0.95,5.885,3.62l0,0      c0.681,2.68-0.805,5.4-3.805,6.08v-0.01c0,0.11-0.645,0.16-1.045,0.16l0,0C265.715,188.8,263.87,187.29,263.3,185.02z       M385.58,186.42c-2.67-0.7-4.26-3.44-3.55-6.11l0,0c0.71-2.67,3.45-4.26,6.12-3.55l0,0c2.67,0.71,4.26,3.45,3.55,6.12l0,0      c-0.6,2.23-2.62,3.71-4.83,3.71l0,0C386.44,186.59,386.01,186.54,385.58,186.42z M282.77,180.43c-0.5-2.71,1.29-5.32,4.01-5.82      l0,0c2.72-0.5,5.32,1.3,5.82,4.01l0,0c0.5,2.72-1.29,5.33-4.01,5.83l0,0c-0.31,0.05-0.61,0.08-0.91,0.08l0,0      C285.31,184.53,283.21,182.84,282.77,180.43z M366.53,182.45c-2.73-0.42-4.6-2.98-4.18-5.71l0,0c0.42-2.73,2.98-4.6,5.7-4.17      l0,0c2.73,0.42,4.6,2.97,4.18,5.7l0,0c-0.38,2.47-2.51,4.24-4.93,4.24l0,0C367.04,182.51,366.79,182.49,366.53,182.45z       M302.5,177.15c-0.3-2.74,1.68-5.21,4.42-5.51l0,0c2.75-0.31,5.22,1.67,5.52,4.42l0,0c0.3,2.74-1.68,5.21-4.42,5.52l0,0      c-0.19,0.02-0.37,0.03-0.56,0.03l0,0C304.95,181.61,302.78,179.71,302.5,177.15z M347.12,180.42c-2.75-0.16-4.86-2.52-4.7-5.28      l0,0c0.15-2.75,2.51-4.86,5.27-4.71l0,0c2.76,0.16,4.87,2.52,4.71,5.28l0,0c-0.15,2.66-2.35,4.72-4.99,4.72l0,0      C347.32,180.43,347.22,180.42,347.12,180.42z M322.42,175.25c-0.09-2.76,2.08-5.025,4.84-5.105l0,0      c2.76-0.09,5.07,2.013,5.15,4.772l0,0c0.09,2.76-2.08,5.083-4.84,5.083l0,0c-0.05,0-0.1,0-0.16,0l0,0      C324.72,180,322.5,177.95,322.42,175.25z" fill="#3F456B"/></g></g></g><g opacity="0.5"><g><g><g><circle cx="384.062" cy="287.062" fill="#FFE0DC" r="12.062"/></g></g></g><g><g><g><circle cx="340.062" cy="455.062" fill="#FFE0DC" r="12.062"/></g></g></g><g><g><g><circle cx="407.062" cy="350.062" fill="#FFE0DC" r="12.062"/></g></g></g><g><g><g><circle cx="172.062" cy="448.062" fill="#FFE0DC" r="12.062"/></g></g></g><g><g><g><circle cx="122.062" cy="375.062" fill="#FFE0DC" r="12.062"/></g></g></g><g><g><g><circle cx="376" cy="223" fill="#FFE0DC" r="19"/></g></g></g><g><g><g><circle cx="103" cy="242" fill="#FFE0DC" r="19"/></g></g></g></g><g><g><g><path d="M42.68,500.596c-15.298,0-23.749-8.11-27.768-13.745c-9.721-13.631-9.551-34.558,0.404-49.761      c12.348-18.856,35.098-18.236,48.928-14.438c6.604-16.99,22.923-22.589,31.31-23.121c2.758-0.172,5.132,1.917,5.307,4.673      c0.174,2.749-1.908,5.12-4.654,5.305c-0.824,0.061-19.305,1.642-23.844,20.637c-0.337,1.409-1.269,2.603-2.554,3.272      c-1.285,0.668-2.797,0.749-4.145,0.216c-0.066-0.026-7.64-2.941-16.74-3.112c-11.379-0.224-19.869,3.838-25.242,12.045      c-7.66,11.697-7.93,28.238-0.629,38.476c6.227,8.732,16.676,11.536,30.219,8.108c0.18-0.044,13.019-3.213,21.705-9.803      c2-1.518,4.816-1.317,6.581,0.471c0.823,0.813,21.071,20.219,59.296,3.594c2.53-1.103,5.478,0.058,6.579,2.591      c1.102,2.532-0.059,5.478-2.591,6.579c-12.777,5.558-23.917,7.561-33.329,7.562c-17.127,0.001-28.549-6.629-33.798-10.54      c-9.881,6.273-21.501,9.123-22.045,9.254C50.875,500.075,46.558,500.596,42.68,500.596z" fill="#3F456B"/></g></g></g><g><g><g><path d="M466.502,448c-1.432,0-2.853-0.612-3.842-1.797c-9.441-11.318-26.033-4.628-26.734-4.339      c-1.52,0.628-3.26,0.473-4.641-0.422s-2.239-2.41-2.284-4.055c-0.158-5.775-1.759-9.894-4.758-12.243      c-4.982-3.902-12.673-2.365-12.749-2.349c-2.698,0.588-5.362-1.122-5.95-3.82c-0.588-2.698,1.122-5.362,3.82-5.95      c0.499-0.108,12.322-2.585,21.044,4.247c4.065,3.184,6.706,7.702,7.889,13.478c2.06-0.462,4.514-0.866,7.18-1.011      c10.308-0.561,18.904,2.917,24.861,10.06c1.769,2.121,1.484,5.273-0.637,7.042C468.768,447.62,467.632,448,466.502,448z" fill="#3F456B"/></g></g></g><g><g><g><path d="M407.229,500.718c-22.177,0-37.027-11.485-37.904-12.18c-2.164-1.715-2.528-4.86-0.812-7.024      c1.713-2.161,4.851-2.527,7.014-0.82c1.095,0.856,26.33,20.061,59.506,2.868c1.609-0.834,3.543-0.731,5.056,0.267      c0.688,0.446,17.475,11.064,38.374,1.741c8.055-3.594,13.707-15.262,14.397-29.724c1.223-25.59-11.62-42.186-22.99-48.623      c-1.589-0.899-2.562-2.594-2.536-4.42c0.001-0.135,0.003-15.023-9.72-23.431c-6.125-5.297-15.065-7.086-26.575-5.316      c-2.733,0.417-5.282-1.452-5.702-4.182s1.453-5.282,4.182-5.702c14.584-2.242,26.26,0.349,34.709,7.699      c10.254,8.921,12.492,22.216,12.975,28.104c20.233,13.037,26.512,38.218,25.646,56.347      c-0.882,18.477-8.666,33.182-20.312,38.378c-21.067,9.4-38.862,2.315-45.356-1.041      C426.298,498.852,416.168,500.718,407.229,500.718z" fill="#3F456B"/></g></g></g><g><g><g><path d="M41.63,430.979c-2.347,0-4.44-1.66-4.903-4.05c-3.498-18.063-0.991-33.147,7.452-44.833      c12.875-17.82,34.756-20.828,35.682-20.947c2.728-0.35,5.245,1.58,5.598,4.32c0.353,2.735-1.576,5.238-4.308,5.597      c-0.263,0.036-18.661,2.683-28.92,16.961c-6.717,9.349-8.63,21.798-5.687,37c0.525,2.711-1.247,5.334-3.958,5.859      C42.265,430.949,41.945,430.979,41.63,430.979z" fill="#3F456B"/></g></g></g><g><g><g><path d="M466.995,187.501c-2.349,0-4.443-1.663-4.904-4.055c-7.497-38.888-40.376-59.482-40.708-59.686      c-2.353-1.445-3.088-4.524-1.643-6.877c1.445-2.352,4.524-3.087,6.877-1.643c1.505,0.925,36.971,23.148,45.292,66.314      c0.522,2.711-1.252,5.333-3.963,5.856C467.627,187.471,467.308,187.501,466.995,187.501z" fill="#3F456B"/></g></g></g><g><g><g><path d="M37.351,301.575c-2.202,0-4.22-1.466-4.823-3.694c-12.399-45.765-1.268-86.029-0.788-87.721      c0.753-2.656,3.516-4.197,6.175-3.445c2.655,0.753,4.198,3.515,3.447,6.171l0,0c-0.11,0.389-10.829,39.39,0.819,82.38      c0.722,2.666-0.854,5.412-3.519,6.134C38.223,301.519,37.783,301.575,37.351,301.575z" fill="#3F456B"/></g></g></g></g></svg>