<?xml version="1.0" ?><svg id="Layer_1" style="enable-background:new 0 0 48 48;" version="1.0" viewBox="0 0 48 48" xml:space="preserve" xmlns="http://www.w3.org/2000/svg" xmlns:xlink="http://www.w3.org/1999/xlink"><style type="text/css">
	.st0{fill:#BAB7B3;}
	.st1{fill:#CCCCCC;}
	.st2{fill:#E5E5E5;}
	.st3{fill:#EFEFEF;}
	.st4{fill:#D3D3D3;}
	.st5{fill:#E2E2E2;}
	.st6{fill:#161616;}
</style><g><g><g><path class="st0" d="M18.29,14.3c0,0,1.44,0,3.6-1.44s4.68-0.36,5.76,0.72c0,0-1.44,5.04-3.6,6.48     c-2.16,1.44-2.88,2.16-2.88,2.88C21.17,22.95,16.12,20.07,18.29,14.3z"/></g><g><path class="st1" d="M24.05,18.63c-2.16,1.44-2.88,2.16-2.88,2.88c0,0-3.01-1.72-3.38-5.16c-0.47,4.4,3.38,6.6,3.38,6.6     c0-0.72,0.72-1.44,2.88-2.88c2.16-1.44,3.6-6.48,3.6-6.48c-0.11-0.11-0.23-0.21-0.37-0.32C26.73,14.83,25.57,17.61,24.05,18.63z"/></g><g><path class="st0" d="M18.24,14.43c0.02-0.04,0.03-0.09,0.04-0.13c0,0,1.44,0,3.6-1.44c0.7-0.47,1.44-0.67,2.15-0.69     c0-0.01,0.01-0.03,0.01-0.03c-0.72-2.88-2.88-2.88-3.6-1.44c-0.72,1.44-2.88,3.6-2.88,3.6c0.25,0,0.49,0,0.72,0.01     C18.27,14.35,18.25,14.39,18.24,14.43z"/></g><g><path class="st1" d="M21.89,12.14c-2.16,1.44-3.6,1.44-3.6,1.44c-0.02,0.04-0.03,0.08-0.04,0.13c0.01-0.04,0.03-0.13,0.04-0.13     c-0.01,0-0.03,0-0.04,0c-0.39,0.72-0.68,0.72-0.68,0.72c0.25,0,0.49,0,0.72,0.01c-0.02,0.04-0.03,0.08-0.04,0.12     c0.02-0.04,0.03-0.09,0.04-0.13c0,0,1.44,0,3.6-1.44c0.7-0.47,1.44-0.67,2.15-0.69c0-0.01,0.01-0.03,0.01-0.03     c-0.06-0.25-0.14-0.46-0.22-0.67C23.18,11.52,22.52,11.72,21.89,12.14z"/></g><g><path class="st2" d="M13.96,20.07c0,0-4.32,2.16-7.21-2.16c0,0,1.28,8.12,8.48,3.8C15.24,21.7,14.49,21.07,13.96,20.07z"/></g><g><path class="st3" d="M14.21,20.48c-0.09-0.13-0.17-0.27-0.25-0.42c0,0-4.32,2.16-7.21-2.16c0,0,0.12,0.75,0.48,1.67     C10.16,22.43,13.2,21.08,14.21,20.48z"/></g><g><g><path class="st0" d="M11.37,22.97c-0.89-0.01-1.61-0.29-2.2-0.71c-0.02,0.86,0.11,1.82,0.46,2.86c1.44,4.32,1.44,4.32,1.44,5.76      c0,0,0.72,0.72,1.44,0c0,0,0.72-3.6-0.72-6.48C11.57,23.92,11.44,23.44,11.37,22.97z"/></g><g><path class="st0" d="M34.14,18.63c-3.22,0-5.29-0.58-7.76-1.73c-0.61,1.27-1.4,2.55-2.33,3.17c-2.16,1.44-2.88,2.16-2.88,2.88      c0,0-5.04-2.88-2.88-8.64c-0.23,0-0.47-0.01-0.72-0.01c-4.32,0-2.88,2.16-5.04,2.88c-1.2,0.4-2.39,1.46-2.98,3.07      c0.75,0.29,1.49,0.37,2.14,0.34c0.52-1.18,1.5-1.7,2.28-0.53c0.05,0.1,0.11,0.19,0.16,0.28c0.46,0.74,1.96,2.74,4.88,3.32      c0,0,0,4.32,0.72,7.21v4.32c0,0-0.72,0.72-0.72,1.44v0.72h2.88V35.2l0.72-4.32v-2.88c0,0,5.76,2.88,11.53,0.72v6.48      c0,0-0.72,0.72-0.72,1.44v0.72h2.88V35.2v-4.32c0,0,1.44-2.16,1.44-6.48C37.74,24.39,37.74,18.63,34.14,18.63z"/></g></g><g><path class="st1" d="M10.63,22.88c-0.56-0.11-1.04-0.33-1.46-0.63c-0.02,0.86,0.11,1.82,0.46,2.86c1.44,4.32,1.44,4.32,1.44,5.76     c0,0,0.72,0.72,1.44,0c0-1.44,0-1.44-1.44-5.76C10.82,24.32,10.68,23.57,10.63,22.88z"/></g><g><path class="st1" d="M10.98,20.25c0.58-1.6,1.78-2.67,2.98-3.07c2.03-0.68,0.88-2.62,4.31-2.86c0-0.01,0-0.01,0.01-0.02     c-0.23,0-0.47-0.01-0.72-0.01c-4.32,0-2.88,2.16-5.04,2.88c-1.2,0.4-2.39,1.46-2.98,3.07c0.75,0.29,1.49,0.37,2.14,0.34     c0.02-0.04,0.04-0.08,0.06-0.12C11.49,20.42,11.24,20.35,10.98,20.25z"/></g><g><path class="st1" d="M21.17,35.2v-4.32c-0.72-2.88-0.72-7.21-0.72-7.21c-2.92-0.58-4.42-2.59-4.88-3.32     c-0.05-0.09-0.11-0.18-0.16-0.28c-0.54-0.82-1.19-0.8-1.7-0.32c0.09,0.09,0.18,0.19,0.26,0.32c0.05,0.1,0.11,0.19,0.16,0.28     c0.46,0.74,1.96,2.74,4.88,3.32c0,0,0,4.32,0.72,7.21v4.32c0,0-0.72,0.72-0.72,1.44v0.72h1.44v-0.72     C20.45,35.92,21.17,35.2,21.17,35.2z"/></g><g><path class="st1" d="M35.58,35.2v-7.21c0,0-0.96,0.61-1.44,0.72v6.48c0,0-0.72,0.72-0.72,1.44v0.72h1.44v-0.72     C34.86,35.92,35.58,35.2,35.58,35.2z"/></g><g><path class="st0" d="M41.85,23.88c-0.13-0.31-0.2,0.07-0.4,0.37c0.02-0.31-0.11-0.58-0.11-0.58c0,0.36-0.36,0.72-0.73,0.99     c-1.14,0.05-2.84-0.96-2.88-0.99c-0.28-0.28-0.23-0.79-0.51-0.51c-0.28,0.28,0.23,0.95,0.51,1.23c0.62,0.62,1.28,1.21,2.45,1.21     c0.58,0,1.15-0.2,1.66-0.7C42.13,24.62,42.06,24.39,41.85,23.88z"/></g><g><circle class="st4" cx="15.4" cy="17.9" r="0.72"/></g><g><path class="st5" d="M15.4,17.9c0,0.26,0.15,0.48,0.36,0.61c-0.11,0.06-0.23,0.11-0.36,0.11c-0.4,0-0.72-0.32-0.72-0.72     s0.32-0.72,0.72-0.72c0.13,0,0.25,0.05,0.36,0.11C15.55,17.42,15.4,17.64,15.4,17.9z"/></g></g><g><g><path class="st6" d="M21.17,23.67c-0.12,0-0.25-0.03-0.36-0.09c-0.06-0.03-5.55-3.26-3.2-9.52c0.1-0.28,0.37-0.46,0.67-0.47     c0.04,0,1.31-0.06,3.21-1.32c2.56-1.71,5.45-0.41,6.67,0.81c0.19,0.19,0.26,0.46,0.18,0.71c-0.16,0.54-1.58,5.34-3.9,6.89     c-1.19,0.8-2.56,1.77-2.56,2.28c0,0.26-0.14,0.49-0.36,0.62C21.42,23.64,21.29,23.67,21.17,23.67z M18.82,14.97     c-1.17,3.65,0.85,5.91,2,6.85c0.47-0.7,1.41-1.41,2.83-2.35c1.44-0.96,2.67-4.08,3.18-5.65c-0.94-0.72-2.84-1.49-4.54-0.36     C20.71,14.51,19.48,14.86,18.82,14.97z"/></g><g><path class="st6" d="M18.24,15.15c-0.08,0-0.17-0.01-0.25-0.04c-0.06-0.02-0.11-0.05-0.16-0.08c-0.09,0-0.18,0-0.27,0     c-0.29,0-0.55-0.18-0.67-0.44c-0.11-0.27-0.05-0.58,0.16-0.79c0.02-0.02,2.09-2.1,2.75-3.42c0.46-0.91,1.37-1.44,2.32-1.33     c1.22,0.13,2.2,1.23,2.63,2.92c0.03,0.13,0.03,0.26-0.01,0.39c-0.09,0.29-0.37,0.53-0.67,0.54c-0.64,0.02-1.24,0.21-1.78,0.57     c-1.67,1.12-2.96,1.44-3.59,1.53C18.57,15.09,18.41,15.15,18.24,15.15z M21.88,10.47c-0.32,0-0.62,0.2-0.79,0.55     c-0.36,0.71-1.02,1.57-1.63,2.28c0.53-0.19,1.22-0.51,2.03-1.04c0.5-0.33,1.04-0.57,1.61-0.69c-0.33-0.74-0.78-1.05-1.13-1.09     C21.94,10.48,21.91,10.47,21.88,10.47z"/></g><g><path class="st6" d="M11.44,23.69c-0.7,0-1.35-0.14-1.96-0.42c-2.78-1.3-3.41-5.09-3.43-5.25c-0.05-0.33,0.14-0.66,0.45-0.78     c0.31-0.12,0.67-0.01,0.86,0.27c2.5,3.75,6.13,1.99,6.28,1.92c0.35-0.17,0.77-0.04,0.96,0.31c0.46,0.86,1.1,1.42,1.11,1.43     c0.18,0.15,0.27,0.38,0.25,0.61c-0.02,0.23-0.15,0.44-0.35,0.56C14.09,23.23,12.69,23.69,11.44,23.69z M8.58,20.6     c0.38,0.56,0.87,1.06,1.51,1.36c1.06,0.5,2.4,0.35,3.98-0.44c-0.13-0.16-0.27-0.34-0.41-0.55C12.38,21.42,10.42,21.61,8.58,20.6z     "/></g><g><path class="st6" d="M11.83,31.92c-0.52,0-0.98-0.25-1.26-0.53c-0.14-0.14-0.21-0.32-0.21-0.51c0-1.32,0-1.32-1.4-5.54     c-0.35-1.06-0.52-2.1-0.5-3.1c0.01-0.27,0.16-0.51,0.4-0.63c0.24-0.12,0.52-0.1,0.74,0.06c0.53,0.38,1.12,0.57,1.79,0.58     c0.36,0,0.66,0.27,0.7,0.63c0.06,0.43,0.18,0.84,0.36,1.2c1.53,3.07,0.81,6.79,0.78,6.95c-0.03,0.14-0.1,0.27-0.2,0.37     C12.64,31.77,12.22,31.92,11.83,31.92z M11.8,30.47c0.02,0,0.04,0,0.06-0.01c0.12-0.85,0.4-3.57-0.7-5.76     c-0.17-0.33-0.3-0.69-0.39-1.07c-0.27-0.04-0.54-0.1-0.79-0.18c0.07,0.47,0.19,0.94,0.35,1.42     C11.64,28.83,11.78,29.26,11.8,30.47z"/></g><g><path class="st6" d="M41.85,23.88c-0.13-0.31-0.2,0.07-0.4,0.37c0.02-0.31-0.11-0.58-0.11-0.58c0,0.36-0.36,0.72-0.73,0.99     c-1.14,0.05-2.84-0.96-2.88-0.99c-0.28-0.28-0.23-0.79-0.51-0.51c-0.28,0.28,0.23,0.95,0.51,1.23c0.62,0.62,1.28,1.21,2.45,1.21     c0.58,0,1.15-0.2,1.66-0.7C42.13,24.62,42.06,24.39,41.85,23.88z"/></g><g><circle class="st6" cx="15.4" cy="17.9" r="0.72"/></g><g><path class="st6" d="M36.3,38.08h-2.88c-0.4,0-0.72-0.32-0.72-0.72v-0.72c0-0.72,0.44-1.37,0.72-1.71v-5.22     c-4.23,1.22-8.25,0.07-10.09-0.63v1.79c0,0.04,0,0.08-0.01,0.12l-0.71,4.26v2.1c0,0.4-0.32,0.72-0.72,0.72h-2.88     c-0.4,0-0.72-0.32-0.72-0.72v-0.72c0-0.72,0.44-1.37,0.72-1.71v-3.96c-0.57-2.33-0.69-5.45-0.71-6.72     c-2.79-0.76-4.26-2.68-4.78-3.51c-0.07-0.11-0.13-0.21-0.19-0.32c-0.13-0.18-0.26-0.28-0.35-0.28c-0.12,0.01-0.41,0.23-0.64,0.76     c-0.11,0.25-0.35,0.42-0.63,0.43c-0.85,0.04-1.66-0.1-2.43-0.39c-0.37-0.14-0.55-0.55-0.42-0.92c0.61-1.68,1.89-2.99,3.43-3.51     c0.58-0.19,0.77-0.5,1.04-0.96c0.64-1.07,1.4-1.96,4.23-1.96c0.26,0,0.5,0,0.73,0.01c0.23,0,0.45,0.12,0.58,0.32     c0.13,0.19,0.16,0.44,0.08,0.66c-1.45,3.87,0.68,6.27,1.86,7.26c0.48-0.7,1.41-1.41,2.83-2.35c0.67-0.45,1.39-1.45,2.08-2.88     c0.17-0.36,0.6-0.51,0.96-0.34c1.23,0.57,2.25,0.95,3.3,1.21c0.39,0.1,0.62,0.49,0.53,0.87s-0.49,0.62-0.87,0.53     c-0.94-0.23-1.89-0.56-2.93-1.01c-0.72,1.36-1.48,2.31-2.26,2.83c-1.19,0.8-2.56,1.77-2.56,2.28c0,0.26-0.14,0.49-0.36,0.62     c-0.22,0.13-0.5,0.13-0.72,0c-0.05-0.03-4.98-2.92-3.51-8.55c-2,0.04-2.32,0.58-2.73,1.25c-0.33,0.55-0.73,1.23-1.83,1.59     c-0.9,0.3-1.69,1-2.21,1.93c0.23,0.04,0.46,0.07,0.7,0.08c0.42-0.7,0.99-1.13,1.61-1.18c0.38-0.03,1.09,0.05,1.71,0.97     c0.08,0.14,0.13,0.22,0.18,0.3c0.45,0.72,1.8,2.47,4.41,2.99c0.34,0.07,0.58,0.36,0.58,0.71c0,0.04,0.01,4.27,0.7,7.03     c0.01,0.06,0.02,0.12,0.02,0.17v4.32c0,0.19-0.08,0.37-0.21,0.51c-0.2,0.21-0.51,0.65-0.51,0.93h1.44V35.2     c0-0.04,0-0.08,0.01-0.12l0.71-4.26v-2.82c0-0.25,0.13-0.48,0.34-0.61c0.21-0.13,0.48-0.14,0.7-0.03     c0.06,0.03,5.56,2.71,10.95,0.69c0.22-0.08,0.47-0.05,0.66,0.08c0.19,0.14,0.31,0.36,0.31,0.59v6.48c0,0.19-0.08,0.37-0.21,0.51     c-0.2,0.21-0.51,0.65-0.51,0.93h1.44v-5.76c0-0.14,0.04-0.28,0.12-0.4c0.01-0.02,1.32-2.07,1.32-6.08c0-0.05-0.04-5.04-2.88-5.04     c-0.53,0-1.01-0.02-1.49-0.05c-0.4-0.03-0.7-0.37-0.67-0.76c0.02-0.4,0.37-0.69,0.76-0.67c0.44,0.03,0.9,0.05,1.4,0.05     c4.27,0,4.32,6.22,4.32,6.48c0,3.8-1.07,6.03-1.44,6.68v6.29C37.02,37.76,36.7,38.08,36.3,38.08z"/></g></g></g></svg>