<?xml version="1.0" ?><svg id="icon" viewBox="0 0 512 512" xmlns="http://www.w3.org/2000/svg"><title/><path d="M85.636,97.1c-9.754,28.971-29.859,43.063-40.452,48.717a3.5,3.5,0,0,0,.09,6.215c10.733,5.47,31.026,18.934,40.147,45.7a3.5,3.5,0,0,0,6.666-.189c7.617-25.355,29.8-39.522,41.332-45.366a3.5,3.5,0,0,0-.072-6.263c-11.3-5.578-32.69-19.623-41-48.651A3.506,3.506,0,0,0,85.636,97.1Z" style="fill:#24caee"/><path d="M426.046,33.279a73.391,73.391,0,0,1-33.435,40,3.5,3.5,0,0,0,.036,6.181c9.189,4.832,25.375,16,33.2,37.433a3.5,3.5,0,0,0,6.617-.034c6.692-20.382,24.349-32.089,34.249-37.245a3.5,3.5,0,0,0-.054-6.223c-9.692-4.957-26.767-16.665-33.963-39.977A3.5,3.5,0,0,0,426.046,33.279Z" style="fill:#9af2ff"/><path d="M260.993,155.447a168.8,168.8,0,1,0,168.8,168.8A168.8,168.8,0,0,0,260.993,155.447Zm0,295.155A126.357,126.357,0,1,1,387.35,324.245,126.357,126.357,0,0,1,260.993,450.6Z" style="fill:#ffcb6c"/><path d="M191.079,201.254a6.882,6.882,0,0,1-3.2-12.979,144.611,144.611,0,0,1,27.409-10.943,6.881,6.881,0,1,1,3.768,13.237,130.848,130.848,0,0,0-24.794,9.9A6.844,6.844,0,0,1,191.079,201.254Z" style="fill:#fff"/><path d="M161.955,221.65a6.882,6.882,0,0,1-4.637-11.968l.707-.64a6.881,6.881,0,0,1,9.224,10.214l-.661.6A6.862,6.862,0,0,1,161.955,221.65Z" style="fill:#fff"/><polygon points="302.12 71.939 260.993 71.939 219.866 71.939 196.1 109.445 260.993 175.174 325.886 109.445 302.12 71.939" style="fill:#24caee"/><polygon points="242.571 71.939 219.866 71.939 196.1 109.445 230.179 109.445 242.571 71.939" style="fill:#7be7ff"/><polygon points="230.179 109.445 290.265 109.445 260.993 175.174 230.179 109.445" style="fill:#08a6d3"/><polygon points="325.886 109.445 302.12 71.939 260.993 71.939 260.993 175.174 325.886 109.445" style="fill:#08a6d3"/><path d="M32.371,148.988A5.936,5.936,0,0,0,36.43,154.6c.417.139,41.735,14.44,47.114,61.98a5.936,5.936,0,0,0,5.894,5.269c.112,0,.225,0,.338-.009a5.937,5.937,0,0,0,5.6-5.927c0-43.655,45.294-60.661,47.212-61.361a5.935,5.935,0,0,0-.247-11.25c-.42-.131-42.052-13.644-47-61.884A5.936,5.936,0,0,0,83.6,81c-8.465,48.375-45.639,61.807-47.2,62.349A5.935,5.935,0,0,0,32.371,148.988Zm56.438-43.383a83.242,83.242,0,0,0,37.724,43.479c-11.854,6.645-29.345,19.449-37.916,40.32-9.361-21.783-25.593-34.217-36.679-40.555A90.546,90.546,0,0,0,88.809,105.605Z" style="fill:#32404c"/><path d="M475.707,82.014a5.936,5.936,0,0,0-.248-11.251c-.355-.111-35.574-11.543-39.763-52.414a5.935,5.935,0,0,0-11.751-.418c-7.176,41.008-38.651,52.42-39.966,52.879A5.94,5.94,0,0,0,384,82.056c1.441.49,35.366,12.473,39.9,52.516a5.937,5.937,0,0,0,5.894,5.269c.112,0,.226,0,.339-.01a5.935,5.935,0,0,0,5.6-5.926C435.727,97.031,474.085,82.606,475.707,82.014Zm-46.638,27.035a74.876,74.876,0,0,0-29.854-32.742,78.562,78.562,0,0,0,30-34.892,72.253,72.253,0,0,0,30.743,35.111C450.07,82.278,436.429,92.677,429.069,109.049Z" style="fill:#32404c"/><path d="M260.993,203.824a120.172,120.172,0,0,1,39.445,6.607,5.935,5.935,0,1,0,3.887-11.216,132,132,0,0,0-43.332-7.262c-72.946,0-132.293,59.346-132.293,132.292s59.347,132.293,132.293,132.293,132.292-59.346,132.292-132.293A131.915,131.915,0,0,0,358.4,234.731a5.936,5.936,0,0,0-8.74,8.034,120.422,120.422,0,1,1-88.67-38.941Z" style="fill:#32404c"/><path d="M329.281,225.044a5.936,5.936,0,1,0,6.736-9.775q-1.417-.978-2.863-1.921a5.937,5.937,0,0,0-6.486,9.945Q327.987,224.153,329.281,225.044Z" style="fill:#32404c"/><path d="M260.993,498.98c96.349,0,174.734-78.386,174.734-174.735a173.125,173.125,0,0,0-35.972-106.209,175.964,175.964,0,0,0-90.892-61.885,5.936,5.936,0,0,0-3.247,11.419c69.618,19.789,118.24,84.216,118.24,156.675,0,89.8-73.06,162.863-162.863,162.863S98.131,414.048,98.131,324.245A162.9,162.9,0,0,1,219.525,166.708a5.937,5.937,0,0,0-3.015-11.484A174.781,174.781,0,0,0,86.259,324.245C86.259,420.594,164.644,498.98,260.993,498.98Z" style="fill:#32404c"/><path d="M330.784,112.793c.053-.078.092-.166.142-.247a5.892,5.892,0,0,0,.376-.693c.054-.122.093-.249.139-.375a5.7,5.7,0,0,0,.205-.659c.032-.135.056-.272.079-.41a6.041,6.041,0,0,0,.072-.723c0-.081.025-.158.025-.241,0-.05-.014-.1-.015-.147a5.963,5.963,0,0,0-.082-.808c-.016-.1-.021-.2-.042-.3a6,6,0,0,0-.32-1.032c-.035-.082-.085-.155-.123-.235a5.734,5.734,0,0,0-.34-.655L307.134,68.762A5.936,5.936,0,0,0,302.12,66H219.866a5.936,5.936,0,0,0-5.014,2.759l-23.767,37.506a5.956,5.956,0,0,0-.342.658c-.037.079-.086.151-.12.232a5.8,5.8,0,0,0-.32,1.032c-.021.1-.027.2-.043.3a5.805,5.805,0,0,0-.081.808c0,.05-.015.1-.015.147,0,.083.021.16.024.241a5.844,5.844,0,0,0,.073.723c.023.138.046.275.079.41a5.781,5.781,0,0,0,.2.66c.045.125.084.252.138.373a5.847,5.847,0,0,0,.377.695c.05.08.088.168.142.246a5.927,5.927,0,0,0,.673.822l64.893,65.729c.037.037.082.062.119.1a5.924,5.924,0,0,0,.463.406c.071.055.145.107.219.159.058.041.112.085.172.124a5.823,5.823,0,0,0,.625.353c.038.019.069.046.107.064.013.006.026.007.039.013.049.022.1.044.147.065s.123.043.184.067a5.881,5.881,0,0,0,.757.238c.058.015.116.035.174.047s.112.017.168.027a5.962,5.962,0,0,0,1.034.1l.013,0H261l.014,0a5.96,5.96,0,0,0,1.033-.1c.056-.01.112-.015.168-.027s.117-.033.176-.047a6.016,6.016,0,0,0,.752-.237c.063-.024.127-.043.189-.069l.144-.063c.013-.007.027-.008.04-.014.041-.019.073-.048.113-.068a5.671,5.671,0,0,0,.617-.348c.06-.039.116-.083.175-.125.075-.053.149-.106.221-.162a5.762,5.762,0,0,0,.457-.4c.038-.037.085-.063.122-.1l64.893-65.729A6.007,6.007,0,0,0,330.784,112.793ZM223.132,77.875h11.227l-8.469,25.634h-19ZM210.3,115.381h16.106l14.562,31.062Zm50.692,45.809-24.436-52.126,10.3-31.189h28.264l8.469,25.634h-28.95a5.936,5.936,0,0,0,0,11.872h27.824Zm20.024-14.747,14.562-31.062h16.105ZM296.1,103.509l-8.469-25.634h11.228L315.1,103.509Z" style="fill:#32404c"/></svg>