<?xml version="1.0" ?><svg viewBox="0 0 512 512" xmlns="http://www.w3.org/2000/svg"><defs><style>.cls-1{opacity:0.5;}.cls-2{fill:#3f456b;}.cls-3{fill:#a7aec1;}.cls-4{fill:#ffd2a6;}.cls-5{fill:#767c93;}.cls-6{opacity:0.2;}.cls-7{opacity:0.3;}.cls-8{fill:#fff;}.cls-9{opacity:0.1;}.cls-10{fill:#ffcc71;}</style></defs><title/><g id="Colors"><g class="cls-1"><path class="cls-2" d="M102,53a5,5,0,0,1-3.22-8.83s.34-.29,1-.8a5,5,0,0,1,5.89,8.09c-.34.24-.52.39-.57.43A5,5,0,0,1,102,53ZM408.2,50.49a5,5,0,0,1-2.6-.74l-.79-.47a5,5,0,0,1,5.08-8.62l.92.56a5,5,0,0,1-2.61,9.27ZM120.34,42.87a5,5,0,0,1-2-9.58l1-.41a5,5,0,0,1,3.94,9.19l-.89.39A5,5,0,0,1,120.34,42.87Zm269-1.51a4.8,4.8,0,0,1-1.85-.36l-.91-.35a5,5,0,0,1,3.65-9.31l1,.37a5,5,0,0,1-1.85,9.65ZM140,35.64a5,5,0,0,1-1.47-9.78l1-.3a5,5,0,0,1,2.94,9.56l-1,.29A5.07,5.07,0,0,1,140,35.64Zm229.42-1a5,5,0,0,1-1.37-.19l-1-.28a5,5,0,0,1,2.74-9.62l1,.28a5,5,0,0,1-1.37,9.81ZM160.32,30.27a5,5,0,0,1-1.08-9.88l1-.22a5,5,0,0,1,2.16,9.77l-1,.21A5.06,5.06,0,0,1,160.32,30.27Zm188.76-.68a5.31,5.31,0,0,1-1-.1l-1-.2a5,5,0,0,1,2-9.8l1,.21a5,5,0,0,1-1,9.89ZM180.94,26.37a5,5,0,0,1-.77-9.94l1-.16a5,5,0,1,1,1.51,9.88l-1,.15A5.39,5.39,0,0,1,180.94,26.37Zm147.47-.45a4.71,4.71,0,0,1-.74-.06l-1-.14a5,5,0,0,1,1.43-9.9l1,.15a5,5,0,0,1-.73,10ZM201.76,23.65a5,5,0,0,1-.51-10l1-.1a5,5,0,0,1,1,10l-1,.1A4.61,4.61,0,0,1,201.76,23.65Zm105.82-.28a4.18,4.18,0,0,1-.5,0l-1-.09a5,5,0,0,1,.93-10l1,.1a5,5,0,0,1-.48,10ZM222.68,22a5,5,0,0,1-.29-10l1-.06a5,5,0,0,1,.59,10l-1,.05Zm64-.15h-.27l-1-.05a5,5,0,1,1,.52-10l1,.06a5,5,0,0,1-.26,10Zm-43-.68a5,5,0,0,1-.1-10l1,0a5,5,0,1,1,.18,10l-1,0Zm22,0h-.09l-1,0a5,5,0,0,1,.08-10h.07l1,0a5,5,0,0,1-.09,10Z"/></g><g data-name="&lt;编组&gt;" id="_编组_"><path class="cls-3" d="M496,170v12a10,10,0,0,1-10,10H26a10,10,0,0,1-10-10V170a10,10,0,0,1,10-10H486A10,10,0,0,1,496,170Z"/><polygon class="cls-3" points="478 192.33 478 224 33 224 31 224 31 192.62 31 192 478 192 478 192.33"/><path class="cls-4" d="M478,159.5v.5H31V139a10,10,0,0,1,10-10H468a10,10,0,0,1,10,10Z"/><path class="cls-5" d="M33,224H31V487a10,10,0,0,0,10,10H468a10,10,0,0,0,10-10V224Z"/><path class="cls-4" d="M449,128v1H369V116a10,10,0,0,1,10-10h60a10,10,0,0,1,10,10Z"/><polygon class="cls-4" points="432 104 432 106 384.5 106 384.5 64 432 64 432 104"/><path class="cls-4" d="M145,128v1H65V116a10,10,0,0,1,10-10h60a10,10,0,0,1,10,10Z"/><polygon class="cls-4" points="128 104 128 106 80.5 106 80.5 64 128 64 128 104"/></g><g class="cls-1"><path class="cls-2" d="M80,271H31a5,5,0,0,1,0-10H80a5,5,0,0,1,0,10Z"/><path class="cls-2" d="M80,363H31a5,5,0,0,1,0-10H80a5,5,0,0,1,0,10Z"/><path class="cls-2" d="M80,332.33H31a5,5,0,0,1,0-10H80a5,5,0,0,1,0,10Z"/><path class="cls-2" d="M80,301.67H31a5,5,0,0,1,0-10H80a5,5,0,0,1,0,10Z"/><path class="cls-2" d="M80,455H31a5,5,0,0,1,0-10H80a5,5,0,0,1,0,10Z"/><path class="cls-2" d="M80,424.33H31a5,5,0,0,1,0-10H80a5,5,0,0,1,0,10Z"/><path class="cls-2" d="M80,393.67H31a5,5,0,0,1,0-10H80a5,5,0,0,1,0,10Z"/></g><g class="cls-1"><path class="cls-2" d="M478,271H432a5,5,0,0,1,0-10h46a5,5,0,0,1,0,10Z"/><path class="cls-2" d="M478,363H432a5,5,0,0,1,0-10h46a5,5,0,0,1,0,10Z"/><path class="cls-2" d="M478,332.33H432a5,5,0,0,1,0-10h46a5,5,0,0,1,0,10Z"/><path class="cls-2" d="M478,301.67H432a5,5,0,0,1,0-10h46a5,5,0,0,1,0,10Z"/><path class="cls-2" d="M478,455H432a5,5,0,0,1,0-10h46a5,5,0,0,1,0,10Z"/><path class="cls-2" d="M478,424.33H432a5,5,0,0,1,0-10h46a5,5,0,0,1,0,10Z"/><path class="cls-2" d="M478,393.67H432a5,5,0,0,1,0-10h46a5,5,0,0,1,0,10Z"/></g><g class="cls-6"><rect class="cls-2" height="16" transform="translate(33.5 204.5) rotate(-90)" width="41" x="98.5" y="77.5"/></g><g class="cls-6"><rect class="cls-2" height="16" width="446" x="32" y="191"/></g><g class="cls-7"><rect class="cls-8" height="16" width="446" x="32" y="129"/></g><g class="cls-6"><rect class="cls-2" height="16" width="478" x="16" y="176"/></g><g class="cls-9"><rect class="cls-8" height="16" width="446" x="32" y="224"/></g><g class="cls-6"><rect class="cls-2" height="16" width="446" x="32" y="481"/></g><g class="cls-7"><rect class="cls-8" height="12" transform="translate(11.5 182.5) rotate(-90)" width="41" x="76.5" y="79.5"/></g><g class="cls-7"><rect class="cls-8" height="20" transform="translate(-25 209) rotate(-90)" width="22" x="81" y="107"/></g><g class="cls-6"><rect class="cls-2" height="16" transform="translate(18 254) rotate(-90)" width="24" x="124" y="110"/></g><g class="cls-6"><rect class="cls-2" height="16" transform="translate(338.5 509.5) rotate(-90)" width="41" x="403.5" y="77.5"/></g><g class="cls-7"><rect class="cls-8" height="12" transform="translate(316.5 487.5) rotate(-90)" width="41" x="381.5" y="79.5"/></g><g class="cls-7"><rect class="cls-8" height="20" transform="translate(280 514) rotate(-90)" width="22" x="386" y="107"/></g><g class="cls-6"><rect class="cls-2" height="16" transform="translate(323 559) rotate(-90)" width="24" x="429" y="110"/></g><polygon class="cls-10" points="231.45 352.72 231.45 283.58 402 364.11 279.27 352.72 279.27 422.42 109.39 341.89 231.45 352.72"/><g class="cls-7"><polyline class="cls-8" points="231 284 231 300.33 358.35 359.87 398.62 363.79 231 284"/></g><g class="cls-7"><polyline class="cls-8" points="112.5 342.17 231 353 231 368 146.58 359.52 112.5 342.17"/></g><polyline class="cls-4" points="240 128 240 107 272 107 272 128"/><polyline class="cls-4" points="176 128 176 107 208 107 208 128"/><polyline class="cls-4" points="304 128 304 107 336 107 336 128"/></g><g id="Lines"><path class="cls-2" d="M468,502H41a15,15,0,0,1-15-15V192.62a5,5,0,0,1,10,0V487a5,5,0,0,0,5,5H468a5,5,0,0,0,5-5V192.33a5,5,0,0,1,10,0V487A15,15,0,0,1,468,502Z"/><path class="cls-2" d="M478,164.5a5,5,0,0,1-5-5V139a5,5,0,0,0-5-5H41a5,5,0,0,0-5,5v20.5a5,5,0,0,1-10,0V139a15,15,0,0,1,15-15H468a15,15,0,0,1,15,15v20.5A5,5,0,0,1,478,164.5Z"/><path class="cls-2" d="M486,197H26a15,15,0,0,1-15-15V170a15,15,0,0,1,15-15H486a15,15,0,0,1,15,15v12A15,15,0,0,1,486,197ZM26,165a5,5,0,0,0-5,5v12a5,5,0,0,0,5,5H486a5,5,0,0,0,5-5V170a5,5,0,0,0-5-5Z"/><path class="cls-2" d="M145,133a5,5,0,0,1-5-5V116a5,5,0,0,0-5-5H75a5,5,0,0,0-5,5v12a5,5,0,0,1-10,0V116a15,15,0,0,1,15-15h60a15,15,0,0,1,15,15v12A5,5,0,0,1,145,133Z"/><path class="cls-2" d="M80.5,111a5,5,0,0,1-5-5V64a5,5,0,0,1,5-5H128a5,5,0,0,1,5,5v40a5,5,0,0,1-10,0V69H85.5v37A5,5,0,0,1,80.5,111Z"/><path class="cls-2" d="M449,133a5,5,0,0,1-5-5V116a5,5,0,0,0-5-5H379a5,5,0,0,0-5,5v12a5,5,0,0,1-10,0V116a15,15,0,0,1,15-15h60a15,15,0,0,1,15,15v12A5,5,0,0,1,449,133Z"/><path class="cls-2" d="M384.5,111a5,5,0,0,1-5-5V64a5,5,0,0,1,5-5H432a5,5,0,0,1,5,5v40a5,5,0,0,1-10,0V69H389.5v37A5,5,0,0,1,384.5,111Z"/><path class="cls-2" d="M478,229H33a5,5,0,0,1,0-10H478a5,5,0,0,1,0,10Z"/><path class="cls-2" d="M279.27,427.42a4.89,4.89,0,0,1-2.14-.49L107.24,346.41a5,5,0,0,1,2.59-9.5l116.62,10.35V283.58a5,5,0,0,1,7.14-4.52l170.54,80.52a5,5,0,0,1-2.59,9.5L284.27,358.21v64.21a5,5,0,0,1-2.33,4.22A4.94,4.94,0,0,1,279.27,427.42ZM136.78,349.34l137.49,65.17V352.72a5,5,0,0,1,5.46-5l94.46,8.75-137.74-65v61.25a5,5,0,0,1-5.44,5Z"/><path class="cls-2" d="M272,133a5,5,0,0,1-5-5V112H245v16a5,5,0,0,1-10,0V107a5,5,0,0,1,5-5h32a5,5,0,0,1,5,5v21A5,5,0,0,1,272,133Z"/><path class="cls-2" d="M208,133a5,5,0,0,1-5-5V112H181v16a5,5,0,0,1-10,0V107a5,5,0,0,1,5-5h32a5,5,0,0,1,5,5v21A5,5,0,0,1,208,133Z"/><path class="cls-2" d="M336,133a5,5,0,0,1-5-5V112H309v16a5,5,0,0,1-10,0V107a5,5,0,0,1,5-5h32a5,5,0,0,1,5,5v21A5,5,0,0,1,336,133Z"/></g></svg>