<?xml version="1.0" ?><svg viewBox="0 0 64 64" xmlns="http://www.w3.org/2000/svg"><g data-name="27-Glass bottle" id="_27-Glass_bottle"><rect height="12" style="fill:#e9f3ff" width="16" x="5" y="36"/><rect height="18" style="fill:#e9f3ff" width="22" x="35" y="32"/><path d="M8.5,10h9a1.5,1.5,0,0,1,0,3H17v4H9V13H8.5a1.5,1.5,0,0,1,0-3Z" style="fill:#4795f7"/><path d="M17,17.7A11.991,11.991,0,0,1,25,29V59a4,4,0,0,1-4,4H5a4,4,0,0,1-4-4V29A11.991,11.991,0,0,1,9,17.7V17h8ZM21,48V36H5V48Z" style="fill:#4795f7"/><path d="M52,8v5.05A11.994,11.994,0,0,1,63,25V59a4,4,0,0,1-4,4H33a4,4,0,0,1-4-4V25A11.994,11.994,0,0,1,40,13.05V8h-.5a1.5,1.5,0,0,1,0-3h1.81A3.439,3.439,0,0,0,42,6a3.415,3.415,0,0,1,1,2.41V13h6V8.41A3.415,3.415,0,0,1,50,6a3.439,3.439,0,0,0,.69-1H52.5a1.5,1.5,0,0,1,0,3Zm5,42V32H35V50Z" style="fill:#4795f7"/><rect height="4" style="fill:#f89f4b" width="6" x="10" y="6"/><path d="M41.31,5h9.38A3.439,3.439,0,0,1,50,6a3.415,3.415,0,0,0-1,2.41V13H43V8.41A3.415,3.415,0,0,0,42,6,3.439,3.439,0,0,1,41.31,5Z" style="fill:#0c62d9"/><path d="M51,1V3.59A3.41,3.41,0,0,1,50.69,5H41.31A3.41,3.41,0,0,1,41,3.59V1Z" style="fill:#f89f4b"/><rect height="3" rx="1.5" style="fill:#4795f7" width="12" x="7" y="10"/><path d="M17.5,11.5h-9a1.5,1.5,0,0,1-1.292-.75A1.481,1.481,0,0,0,7,11.5,1.5,1.5,0,0,0,8.5,13h9A1.5,1.5,0,0,0,19,11.5a1.481,1.481,0,0,0-.208-.75A1.5,1.5,0,0,1,17.5,11.5Z" style="fill:#3281ea"/><path d="M17,13H9v3.5A1.5,1.5,0,0,0,10.5,18h0A1.5,1.5,0,0,0,12,16.5V16a1,1,0,0,1,1-1h4Z" style="fill:#3281ea"/><path d="M12,16v.5a1.483,1.483,0,0,1-.092.5H16V15H13A1,1,0,0,0,12,16Z" style="fill:#0c62d9"/><path d="M10,13v4h1.908A1.483,1.483,0,0,0,12,16.5V16a1,1,0,0,1,1-1h3V13Z" style="fill:#0948a1"/><path d="M12,6V7a2,2,0,0,0,2,2h2v1H10V6Z" style="fill:#f26b31"/><path d="M52.5,6.5h-13a1.5,1.5,0,0,1-1.292-.75A1.481,1.481,0,0,0,38,6.5,1.5,1.5,0,0,0,39.5,8h13A1.5,1.5,0,0,0,54,6.5a1.481,1.481,0,0,0-.208-.75A1.5,1.5,0,0,1,52.5,6.5Z" style="fill:#3281ea"/><path d="M42.41,6.5A3.407,3.407,0,0,1,42.959,8h6.082a3.407,3.407,0,0,1,.549-1.5Z" style="fill:#0948a1"/><path d="M49.041,8A3.31,3.31,0,0,0,49,8.41V13h3V8Z" style="fill:#3281ea"/><path d="M42.959,8H40v5h3V8.41A3.31,3.31,0,0,0,42.959,8Z" style="fill:#3281ea"/><path d="M46,4a2,2,0,0,1-2-2V1H41V3.59A3.41,3.41,0,0,0,41.31,5h9.38a3.47,3.47,0,0,0,.265-1Z" style="fill:#f26b31"/><path d="M5,48H8.362A13.015,13.015,0,0,1,8,45V36H5Z" style="fill:#bac3cc"/><path d="M21,58A13,13,0,0,1,8.362,48H5V36H8V29a11.994,11.994,0,0,1,9-11.607V17H9v.7A11.991,11.991,0,0,0,1,29V59a4,4,0,0,0,4,4H21a4,4,0,0,0,4-4V54A4,4,0,0,1,21,58Z" style="fill:#2673e5"/><rect height="2" style="fill:#2673e5" width="6" x="10" y="38"/><rect height="2" style="fill:#2673e5" width="4" x="8" y="41"/><rect height="2" style="fill:#2673e5" width="4" x="14" y="41"/><rect height="2" style="fill:#2673e5" width="4" x="14" y="44"/><rect height="2" style="fill:#2673e5" width="4" x="8" y="44"/><path d="M21,60H19V58h1V57h2v2A1,1,0,0,1,21,60Z" style="fill:#fff"/><rect height="2" style="fill:#fff" width="2" x="20" y="54"/><path d="M35,50h8.027A19.885,19.885,0,0,1,39,38V32H35Z" style="fill:#bac3cc"/><path d="M59,58a19.948,19.948,0,0,1-15.973-8H35V32h4V21a8,8,0,0,1,8-8H40v.05A11.994,11.994,0,0,0,29,25V59a4,4,0,0,0,4,4H59a4,4,0,0,0,4-4V54A4,4,0,0,1,59,58Z" style="fill:#2673e5"/><path d="M59,60H57V58h1V57h2v2A1,1,0,0,1,59,60Z" style="fill:#fff"/><rect height="2" style="fill:#fff" width="2" x="58" y="54"/><rect height="2" style="fill:#2673e5" width="10" x="41" y="36"/><rect height="2" style="fill:#2673e5" width="6" x="48" y="40"/><rect height="2" style="fill:#2673e5" width="6" x="48" y="43"/><path d="M44,42V40H39.111a19.637,19.637,0,0,0,.311,2Z" style="fill:#2673e5"/><path d="M44,45V43H39.641a19.687,19.687,0,0,0,.648,2Z" style="fill:#2673e5"/><path d="M38,42h1.422a19.637,19.637,0,0,1-.311-2H38Z" style="fill:#0948a1"/><path d="M38,45h2.289a19.687,19.687,0,0,1-.648-2H38Z" style="fill:#0948a1"/><path d="M48.47,16.624a1.539,1.539,0,0,0-.463,1.124,1.73,1.73,0,0,0,.6.952c2.087,2.051,4.558,3.731,6.37,6.025A9.374,9.374,0,0,0,56.5,26.444a2.241,2.241,0,0,0,2.159.435,2.712,2.712,0,0,0,1.32-2.417,8.7,8.7,0,0,0-1.927-6.142C55.774,15.546,51.237,13.369,48.47,16.624Z" style="fill:#9cc7ff"/><path d="M14.313,22.085a1.027,1.027,0,0,0-.308.749,1.155,1.155,0,0,0,.4.634,46.651,46.651,0,0,1,4.246,4.013,6.3,6.3,0,0,0,1.012,1.146,1.5,1.5,0,0,0,1.439.289,1.806,1.806,0,0,0,.881-1.61A5.8,5.8,0,0,0,20.7,23.215C19.183,21.367,16.158,19.917,14.313,22.085Z" style="fill:#9cc7ff"/></g></svg>