<?xml version="1.0" ?><!DOCTYPE svg  PUBLIC '-//W3C//DTD SVG 1.1//EN'  'http://www.w3.org/Graphics/SVG/1.1/DTD/svg11.dtd'><svg enable-background="new 0 0 64 64" height="64px" id="icons" version="1.1" viewBox="0 0 64 64" width="64px" xml:space="preserve" xmlns="http://www.w3.org/2000/svg" xmlns:xlink="http://www.w3.org/1999/xlink"><g><path d="M44,41.499c3.31,0,6-2.69,6-6c0-3.311-2.69-6-6-6s-6,2.689-6,6C38,38.809,40.69,41.499,44,41.499z    M44,26.499c4.97,0,9,4.03,9,9s-4.03,9-9,9s-9-4.03-9-9S39.03,26.499,44,26.499z" fill="#CCD1D9"/><g><path d="M25.002,63.5c-3.309,0-6-2.691-6-6c0-0.553,0.447-1,1-1s1,0.447,1,1c0,2.206,1.794,4,4,4    c0.553,0,1,0.447,1,1S25.555,63.5,25.002,63.5z" fill="#E6E9ED"/></g><g><path d="M38.996,63.5c-0.553,0-1-0.447-1-1s0.447-1,1-1c2.206,0,4-1.794,4-4c0-0.553,0.447-1,1-1s1,0.447,1,1    C44.996,60.809,42.305,63.5,38.996,63.5z" fill="#E6E9ED"/></g><g><path d="M20.002,58.5c-0.553,0-1-0.447-1-1v-3.999c0-0.553,0.447-1,1-1s1,0.447,1,1V57.5    C21.002,58.053,20.555,58.5,20.002,58.5z" fill="#E6E9ED"/></g><g><path d="M38.996,63.5H25.002c-0.553,0-1-0.447-1-1s0.447-1,1-1h13.994c0.553,0,1,0.447,1,1    S39.549,63.5,38.996,63.5z" fill="#E6E9ED"/></g><g><path d="M43.996,58.5c-0.553,0-1-0.447-1-1V41.497c0-0.553,0.447-1,1-1s1,0.447,1,1V57.5    C44.996,58.053,44.549,58.5,43.996,58.5z" fill="#E6E9ED"/></g><path d="M29.01,0.5H13c-1.1,0-2,0.91-2,2v9.01c0-1.1,0.9-2,2-2h16.01c1.101,0,2,0.9,2,2V2.5   C31.01,1.41,30.11,0.5,29.01,0.5z" fill="#DA4453"/><path d="M25.01,3.5c0.55,0,1,0.45,1,1v1.01c0,0.55-0.45,1-1,1h-8c-0.55,0-1-0.45-1-1V4.5c0-0.55,0.45-1,1-1H25.01z" fill="#545C66"/><path d="M31.01,41.49v10.02c0,1.101-0.899,2-2,2H20h-7c-1.1,0-2-0.899-2-2V41.49V11.51c0-1.1,0.9-2,2-2h16.01   c1.101,0,2,0.9,2,2V41.49z" fill="#ED5565"/><g><path d="M19.003,32.502c-0.209,0-0.419-0.065-0.599-0.2c-0.442-0.331-0.532-0.958-0.2-1.399l2.998-3.997    c0.331-0.443,0.958-0.53,1.399-0.2c0.442,0.331,0.532,0.958,0.2,1.399l-2.998,3.997C19.607,32.364,19.307,32.502,19.003,32.502z" fill="#FFCE54"/></g><g><path d="M20.001,36.498c-0.209,0-0.419-0.065-0.6-0.2c-0.441-0.332-0.53-0.959-0.199-1.4l3-3.996    c0.331-0.441,0.957-0.529,1.4-0.199c0.441,0.332,0.53,0.959,0.199,1.4l-3,3.996C20.605,36.36,20.305,36.498,20.001,36.498z" fill="#FFCE54"/></g><g><path d="M23.002,32.502h-3.998c-0.553,0-1-0.447-1-1s0.447-1,1-1h3.998c0.553,0,1,0.447,1,1    S23.555,32.502,23.002,32.502z" fill="#FFCE54"/></g></g></svg>