<?xml version="1.0" ?><!DOCTYPE svg  PUBLIC '-//W3C//DTD SVG 1.1//EN'  'http://www.w3.org/Graphics/SVG/1.1/DTD/svg11.dtd'><svg style="enable-background:new 0 0 128 128;" version="1.1" viewBox="0 0 128 128" xml:space="preserve" xmlns="http://www.w3.org/2000/svg" xmlns:xlink="http://www.w3.org/1999/xlink"><g><g id="Layer_1"><g><polygon points="114,44 91.3,14 36.5,14 14,44 64,114     " style="fill:#34C691;"/><polygon points="26.9,44 36.4,14 14,44     " style="fill:#34C691;"/><polygon points="101,44 91.4,14 113.8,44     " style="fill:#34C691;"/><polygon points="91.5,14 64,14 83.4,43.9     " style="fill:#34C691;"/></g><g><path d="M19.9,93.8l3.4-1c0.2-0.1,0.2-0.4,0-0.5l-3.4-1c-0.1,0-0.1-0.1-0.1-0.1l-1-3.4c-0.1-0.2-0.4-0.2-0.5,0      l-1,3.4c0,0.1-0.1,0.1-0.1,0.1l-3.4,1c-0.2,0.1-0.2,0.4,0,0.5l3.4,1c0.1,0,0.1,0.1,0.1,0.1l1,3.4c0.1,0.2,0.4,0.2,0.5,0l1-3.4      C19.8,93.8,19.8,93.8,19.9,93.8z" style="fill:#54D3A9;"/><path d="M35.3,109.3l2.1-0.6c0.1-0.1,0.1-0.2,0-0.3l-2.1-0.6c0,0-0.1,0-0.1-0.1l-0.6-2.1c-0.1-0.1-0.2-0.1-0.3,0      l-0.6,2.1c0,0,0,0.1-0.1,0.1l-2.1,0.6c-0.1,0.1-0.1,0.2,0,0.3l2.1,0.6c0,0,0.1,0,0.1,0.1l0.6,2.1c0.1,0.1,0.2,0.1,0.3,0      L35.3,109.3C35.3,109.3,35.3,109.3,35.3,109.3z" style="fill:#54D3A9;"/><path d="M115.9,16.8l3.4-1c0.2-0.1,0.2-0.4,0-0.5l-3.4-1c-0.1,0-0.1-0.1-0.1-0.1l-1-3.4c-0.1-0.2-0.4-0.2-0.5,0      l-1,3.4c0,0.1-0.1,0.1-0.1,0.1l-3.4,1c-0.2,0.1-0.2,0.4,0,0.5l3.4,1c0.1,0,0.1,0.1,0.1,0.1l1,3.4c0.1,0.2,0.4,0.2,0.5,0l1-3.4      C115.8,16.8,115.8,16.8,115.9,16.8z" style="fill:#54D3A9;"/><path d="M15.3,115.3l2.1-0.6c0.1-0.1,0.1-0.2,0-0.3l-2.1-0.6c0,0-0.1,0-0.1-0.1l-0.6-2.1c-0.1-0.1-0.2-0.1-0.3,0      l-0.6,2.1c0,0,0,0.1-0.1,0.1l-2.1,0.6c-0.1,0.1-0.1,0.2,0,0.3l2.1,0.6c0,0,0.1,0,0.1,0.1l0.6,2.1c0.1,0.1,0.2,0.1,0.3,0      L15.3,115.3C15.3,115.3,15.3,115.3,15.3,115.3z" style="fill:#54D3A9;"/></g><g><g><g><polygon points="91.4,14.2 83.4,44 101,44       " style="fill:#2CAF96;"/></g><g><polygon points="26.9,44 64,114 14,44       " style="fill:#2CAF96;"/></g><g><polygon points="101,44 63.8,114 113.8,44       " style="fill:#2CAF96;"/></g></g></g><polygon points="64,14 44.6,44 64,44    " style="fill:#89EFD4;"/><g><g><g><polygon points="36.5,14 64,14 44.6,43.9       " style="fill:#65E5C0;"/></g><g><polygon points="64,114 83.3,44 64,44       " style="fill:#65E5C0;"/></g></g></g><g><g><g><polygon points="64,44 83.4,44 64,14       " style="fill:#54D3A9;"/></g><g><polygon points="64,44 44.8,44 64,114       " style="fill:#54D3A9;"/></g><g><polygon points="36.5,14 36.5,14 36.4,14 26.9,44 44.6,44       " style="fill:#54D3A9;"/></g></g></g><g><g><path d="M53.3,32.3l2.1-0.6c0.1-0.1,0.1-0.2,0-0.3l-2.1-0.6c0,0-0.1,0-0.1-0.1l-0.6-2.1c-0.1-0.1-0.2-0.1-0.3,0       l-0.6,2.1c0,0,0,0.1-0.1,0.1l-2.1,0.6c-0.1,0.1-0.1,0.2,0,0.3l2.1,0.6c0,0,0.1,0,0.1,0.1l0.6,2.1c0.1,0.1,0.2,0.1,0.3,0       L53.3,32.3C53.3,32.3,53.3,32.3,53.3,32.3z" style="fill:#DCFFF5;"/><path d="M46,44.9l3.8-1.1c0.2-0.1,0.2-0.4,0-0.5L46,42.1c-0.1,0-0.1-0.1-0.2-0.2l-1.1-3.8       c-0.1-0.2-0.4-0.2-0.5,0L43.1,42c0,0.1-0.1,0.1-0.2,0.2l-3.8,1.1c-0.2,0.1-0.2,0.4,0,0.5l3.8,1.1c0.1,0,0.1,0.1,0.2,0.2       l1.1,3.8c0.1,0.2,0.4,0.2,0.5,0l1.1-3.8C45.9,45,46,44.9,46,44.9z" style="fill:#DCFFF5;"/><path d="M75.3,77.3l2.1-0.6c0.1-0.1,0.1-0.2,0-0.3l-2.1-0.6c0,0-0.1,0-0.1-0.1l-0.6-2.1c-0.1-0.1-0.2-0.1-0.3,0       l-0.6,2.1c0,0,0,0.1-0.1,0.1l-2.1,0.6c-0.1,0.1-0.1,0.2,0,0.3l2.1,0.6c0,0,0.1,0,0.1,0.1l0.6,2.1c0.1,0.1,0.2,0.1,0.3,0       L75.3,77.3C75.3,77.3,75.3,77.3,75.3,77.3z" style="fill:#DCFFF5;"/></g></g></g><g id="Layer_2"/></g></svg>