<?xml version="1.0" ?><svg id="Layer_1" style="enable-background:new 0 0 76 72;" version="1.1" viewBox="0 0 76 72" xml:space="preserve" xmlns="http://www.w3.org/2000/svg" xmlns:xlink="http://www.w3.org/1999/xlink"><style type="text/css">
	.st0{fill:#676A75;}
	.st1{fill:#CE7B34;}
	.st2{fill:#310E31;}
	.st3{fill:#BA6328;}
	.st4{fill:#585B67;}
	.st5{fill:#444751;}
	.st6{fill:#4D9954;}
	.st7{fill:#787B82;}
	.st8{fill:#FFE278;}
	.st9{fill:#F6B545;}
	.st10{fill:#FFCB5B;}
	.st11{fill:#80C56D;}
	.st12{fill:#5BAB5E;}
	.st13{fill:#3A8E4E;}
	.st14{fill:#A35425;}
	.st15{fill:#C97629;}
	.st16{fill:#F19920;}
	.st17{fill:#E47E25;}
	.st18{fill:#FFE37B;}
	.st19{fill:#DA8C36;}
	.st20{fill:#B86328;}
	.st21{fill:none;}
	.st22{fill:#B46229;}
	.st23{fill:#FFE27A;}
</style><g><path class="st0" d="M56.5,71h-30c-1,0-2-0.1-2.9-0.4l-1.2-0.3c-3.4-0.9-6.3-3.2-7.9-6.3l-0.2-0.5C13.4,61.9,13,60,13,58.1v0   c0-10.5,3.1-20.8,9-29.6l1.5-2.3c2.3-3.4,5.6-6,9.5-7.3l0,0h16l0,0c3.9,1.3,7.2,3.9,9.5,7.3l1.5,2.3c5.8,8.8,9,19.1,9,29.6v0.7   c0,1.5-0.3,2.9-0.8,4.2v0c-1.4,3.7-4.5,6.5-8.4,7.5l-0.4,0.1C58.5,70.9,57.5,71,56.5,71z"/></g><g><g><g><rect class="st1" height="4" width="14" x="56" y="43"/><path class="st2" d="M70,48H56c-0.6,0-1-0.4-1-1v-4c0-0.6,0.4-1,1-1h14c0.6,0,1,0.4,1,1v4C71,47.6,70.6,48,70,48z M57,46h12v-2     H57V46z"/></g></g><g><g><rect class="st1" height="4" width="14" x="59" y="59"/><path class="st2" d="M73,64H59c-0.6,0-1-0.4-1-1v-4c0-0.6,0.4-1,1-1h14c0.6,0,1,0.4,1,1v4C74,63.6,73.6,64,73,64z M60,62h12v-2     H60V62z"/></g></g><g><g><rect class="st1" height="4" width="14" x="59" y="55"/><path class="st2" d="M73,60H59c-0.6,0-1-0.4-1-1v-4c0-0.6,0.4-1,1-1h14c0.6,0,1,0.4,1,1v4C74,59.6,73.6,60,73,60z M60,58h12v-2     H60V58z"/></g></g><g><g><rect class="st1" height="4" width="14" x="59" y="67"/><path class="st2" d="M73,72H59c-0.6,0-1-0.4-1-1v-4c0-0.6,0.4-1,1-1h14c0.6,0,1,0.4,1,1v4C74,71.6,73.6,72,73,72z M60,70h12v-2     H60V70z"/></g></g><g><g><rect class="st1" height="4" width="14" x="57" y="63"/><path class="st2" d="M71,68H57c-0.6,0-1-0.4-1-1v-4c0-0.6,0.4-1,1-1h14c0.6,0,1,0.4,1,1v4C72,67.6,71.6,68,71,68z M58,66h12v-2     H58V66z"/></g></g><g><g><rect class="st1" height="4" width="14" x="58" y="51"/><path class="st2" d="M72,56H58c-0.6,0-1-0.4-1-1v-4c0-0.6,0.4-1,1-1h14c0.6,0,1,0.4,1,1v4C73,55.6,72.6,56,72,56z M59,54h12v-2     H59V54z"/></g></g><g><rect class="st3" height="2" width="1" x="70" y="52"/></g><g><rect class="st3" height="2" width="1" x="69" y="64"/></g><g><rect class="st3" height="2" width="1" x="71" y="56"/></g><g><rect class="st3" height="2" width="1" x="71" y="60"/></g><g><rect class="st3" height="2" width="1" x="71" y="68"/></g><g><g><rect class="st1" height="4" width="14" x="57" y="39"/><path class="st2" d="M71,44H57c-0.6,0-1-0.4-1-1v-4c0-0.6,0.4-1,1-1h14c0.6,0,1,0.4,1,1v4C72,43.6,71.6,44,71,44z M58,42h12v-2     H58V42z"/></g></g><g><g><rect class="st1" height="4" width="14" x="57" y="47"/><path class="st2" d="M71,52H57c-0.6,0-1-0.4-1-1v-4c0-0.6,0.4-1,1-1h14c0.6,0,1,0.4,1,1v4C72,51.6,71.6,52,71,52z M58,50h12v-2     H58V50z"/></g></g><g><rect class="st3" height="2" width="1" x="69" y="48"/></g><g><rect class="st3" height="2" width="1" x="69" y="40"/></g><g><rect class="st3" height="2" width="1" x="68" y="44"/></g><g><g><rect class="st1" height="4" width="14" x="56" y="27"/><path class="st2" d="M70,32H56c-0.6,0-1-0.4-1-1v-4c0-0.6,0.4-1,1-1h14c0.6,0,1,0.4,1,1v4C71,31.6,70.6,32,70,32z M57,30h12v-2     H57V30z"/></g><g><rect class="st3" height="2" width="2" x="67" y="28"/></g><g><g><rect class="st1" height="4" width="14" x="56" y="31"/><path class="st2" d="M70,36H56c-0.6,0-1-0.4-1-1v-4c0-0.6,0.4-1,1-1h14c0.6,0,1,0.4,1,1v4C71,35.6,70.6,36,70,36z M57,34h12v-2      H57V34z"/></g></g><g><rect class="st3" height="2" width="2" x="67" y="32"/></g></g><g><g><rect class="st1" height="4" width="14" x="55" y="35"/><path class="st2" d="M69,40H55c-0.6,0-1-0.4-1-1v-4c0-0.6,0.4-1,1-1h14c0.6,0,1,0.4,1,1v4C70,39.6,69.6,40,69,40z M56,38h12v-2     H56V38z"/></g></g></g><g><path class="st4" d="M60,28.6l-1.5-2.3c-2.3-3.4-5.6-6-9.5-7.3h-6h-1v11h1l0-6.2c0-1.5,1.9-2.2,2.9-1c1,1.2,1.8,2.7,2.3,4.1   l0.8,2.3c0.4,1.2,0.8,2.3,1.1,3.5c0.2,0.7-0.6,1.2-1.1,0.7c-2.1-1.9-5-2.8-8-2.1c-4.7,1-7.8,5.8-6.9,10.6c1,5,5.9,8.1,10.9,7   c3.2-0.7,5.6-3.1,6.5-6c0.2-0.7,1.2-0.6,1.3,0.1c0.7,3.8,1.1,7.8,1.1,12.5V56c0,0.1,0,0.1,0,0.2c-0.1,4.6-3,8.4-7.1,10   c-1.5,0.6-3-0.6-2.9-2.2c0-0.6-0.4-1-0.9-1h-0.9c-0.6,0-1-0.5-1-1.1c0-0.5,0.5-0.9,1-0.9h0c0.5,0,1-0.4,1-1l0.2-4   c0-0.6-0.4-1-0.9-1h-13h-2.8c-1,0-1.8-0.9-1.7-1.9l0.2-2.1l0.5-3c0.1-0.6-0.3-1-0.8-1c-0.5,0-0.8-0.4-0.8-0.9l0.1-0.4   c0.1-0.4,0.4-0.7,0.8-0.7h1.1c0.5,0,0.9-0.4,1-1l0.5-3l0.5-4c0-0.3-0.1-0.6-0.2-0.8c-0.3-0.3-0.4-1-0.4-1.4l0.2-1.8   c0.1-0.6-0.2-1-0.7-1H21c-5.3,8.5-8.1,16.3-8,26.3c0,1.8,0.5,3.6,1.3,5.3l0.2,0.5c1.6,3.2,4.5,5.5,7.9,6.3l1.2,0.3   c1,0.2,1.9,0.4,2.9,0.4h0h17.1h5.1h7.8c1,0,2-0.1,2.9-0.4l0.4-0.1c3.9-1,7-3.8,8.4-7.5c0.1-0.4,0.3-0.8,0.4-1.2c0.3-1,0.4-2,0.4-3   v-0.7C69,47.6,65.9,37.3,60,28.6z"/></g><g><path class="st5" d="M60,28.6l-1.5-2.3c-0.8-1.1-1.6-2.2-2.6-3.1c0,0.1,0.1,0.1,0.1,0.2l1.3,2.7c5,10.1,6.7,19.8,6.7,32   c0,0,0,0,0,0c0,3.1-1.8,5.9-4.6,7.3L52,69v2h11l0.3-2.5c2-1.5,4.2-3.5,4.9-5.4c0.5-1.4,0.8-2.8,0.8-4.2v-0.7   C69,47.6,65.9,37.3,60,28.6z"/></g><g><path class="st0" d="M53,3v0.3c0,1.8-0.4,3.6-1,5.2c-0.7,1.6-1.7,3.1-3,4.4H33c-2.6-2.6-4-6-4-9.7V3c0-1.1,1.6-2,3.6-2   c3,0,8.4,2,8.4,2s5.4,2,8.4,2C51.4,5,53,4.1,53,3z"/></g><g><g><path class="st4" d="M49.4,5c-1.3,0-3-0.4-4.6-0.8c0,0,0,0.1,0,0.1c-0.7,3.9-4.2,6.7-8.2,6.7h-2.1c-0.3,0-0.5,0.2-0.5,0.5    s0.2,0.5,0.5,0.5H39c-1.4,0.6-2.9,1-4.5,1H49c1.3-1.3,2.3-2.8,3-4.4c0.7-1.6,1-3.4,1-5.2V3C53,4.1,51.4,5,49.4,5z"/></g><g><path class="st6" d="M33,13h1.5c-0.6,0-1.1-0.1-1.6-0.1C32.9,12.9,33,13,33,13z"/></g></g><g><path class="st7" d="M53,3c0,1.1-1.6,2-3.6,2c-3,0-8.4-2-8.4-2s5.4-2,8.4-2C51.4,1,53,1.9,53,3z"/></g><g><rect class="st8" height="4" width="16" x="33" y="14"/></g><g><g><path class="st7" d="M30.8,6.5c-0.2,0-0.4-0.2-0.5-0.4C30.1,5.2,30,4.3,30,3.3V3.1c0-0.1,0-0.2,0.1-0.3C30.5,2.4,31.4,2,32.6,2    c1.5,0,3.9,0.6,5.5,1.1c0.3,0.1,0.4,0.4,0.3,0.6c-0.1,0.3-0.4,0.4-0.6,0.3C36.4,3.6,35,3.3,34,3.1c-0.1,0-0.1,0-0.2,0    c-1.5-0.1-2.8,1.3-2.5,2.8c0,0,0,0,0,0c0.1,0.3-0.1,0.5-0.4,0.6C30.9,6.5,30.8,6.5,30.8,6.5z"/></g></g><g><circle class="st9" cx="41" cy="39" r="9"/></g><g><path class="st2" d="M42,26.7V19h-2v7.7c0,1.3-0.9,2.4-2.1,2.8c-4.2,1.4-7.1,5.4-6.9,10.1c0.3,5.1,4.6,9.3,9.7,9.4   C46.3,49.2,51,44.6,51,39c0-4.4-2.9-8.2-6.9-9.5C42.9,29.1,42,28,42,26.7z M41,47c-4.4,0-8-3.6-8-8s3.6-8,8-8s8,3.6,8,8   S45.4,47,41,47z"/></g><g><path class="st10" d="M44.9,33.1l-9.7,9.7c-0.4,0.4-0.4,1.1,0,1.5c0.5,0.6,1.1,1.1,1.8,1.5c0.4,0.3,1,0.2,1.4-0.2l9.4-9.4   c0.4-0.4,0.4-0.9,0.2-1.4c-0.4-0.7-0.9-1.3-1.5-1.8C46,32.7,45.3,32.7,44.9,33.1z"/></g><g><path class="st10" d="M39.3,31.2c-3,0.6-5.5,3.1-6.1,6.1c-0.3,1.3-0.2,2.5,0,3.6c0.2,0.7,1,0.9,1.5,0.4l8.6-8.6   c0.5-0.5,0.3-1.3-0.4-1.5C41.8,31,40.6,30.9,39.3,31.2z"/></g><g><path class="st2" d="M42,38h-2c-0.6,0-1-0.4-1-1s0.4-1,1-1h3c0.6,0,1-0.4,1-1s-0.4-1-1-1h-1l0,0c0-0.6-0.4-1-1-1c-0.6,0-1,0.4-1,1   l0,0c-1.7,0-3,1.3-3,3s1.3,3,3,3h2c0.6,0,1,0.4,1,1s-0.4,1-1,1h-3c-0.6,0-1,0.4-1,1s0.4,1,1,1h1l0,0c0,0.6,0.4,1,1,1   c0.6,0,1-0.4,1-1l0,0c1.7,0,3-1.3,3-3S43.7,38,42,38z"/></g><g><path class="st2" d="M75,72H1c-0.6,0-1-0.4-1-1s0.4-1,1-1h74c0.6,0,1,0.4,1,1S75.6,72,75,72z"/></g><path class="st2" d="M60.9,28l-1.5-2.3c-2.1-3.2-5.2-5.7-8.8-7.2c0.3-0.4,0.4-1,0.4-1.5v-2c0-0.7-0.3-1.4-0.7-1.9  C52.7,10.4,54,7,54,3.3V3c0-1.7-2-3-4.6-3c-2.7,0-7.1,1.5-8.4,1.9C39.7,1.5,35.3,0,32.6,0C30,0,28,1.3,28,3v0.3c0,3.6,1.3,7,3.7,9.7  C31.3,13.6,31,14.3,31,15v2c0,0.6,0.2,1.1,0.4,1.5c-3.6,1.5-6.6,4-8.8,7.2L21.1,28c-6,9-9.1,19.4-9.1,30.1c0,2,0.5,4,1.4,5.9  l0.2,0.5c1.7,3.4,4.8,5.9,8.5,6.8l1.2,0.3c1,0.3,2.1,0.4,3.2,0.4h30c1.1,0,2.1-0.1,3.2-0.4l0.4-0.1c4.2-1,7.6-4.1,9.1-8.1  c0.6-1.5,0.8-3,0.8-4.6v-0.7C70,47.4,66.8,37,60.9,28z M49.4,2C51.1,2,52,2.7,52,3s-0.9,1-2.6,1c-1.4,0-3.5-0.5-5.2-1  C45.9,2.5,48,2,49.4,2z M30,3.3V3c0-0.3,0.9-1,2.6-1c2.8,0,8,1.9,8.1,1.9C40.9,4,46.3,6,49.4,6c0.9,0,1.7-0.2,2.4-0.4  c-0.4,2.4-1.5,4.6-3.2,6.4H48h-2.4c0.8-0.8,1.5-1.7,1.8-2.8c0.1-0.3-0.1-0.5-0.3-0.6c-0.3-0.1-0.5,0.1-0.6,0.3  c-0.4,1.3-1.4,2.4-2.6,3.2h-2.5V8c0-0.3-0.2-0.5-0.5-0.5S40.5,7.7,40.5,8v4H38c-1.2-0.7-2.1-1.8-2.6-3.2c-0.1-0.3-0.4-0.4-0.6-0.3  c-0.3,0.1-0.4,0.4-0.3,0.6c0.4,1.1,1,2.1,1.8,2.8H34h-0.6C31.2,9.6,30,6.6,30,3.3z M33,15.5V15c0-0.6,0.4-1,1-1h14c0.6,0,1,0.4,1,1  v0.5H33z M49,16.5V17c0,0.6-0.4,1-1,1H34c-0.6,0-1-0.4-1-1v-0.5H49z M68,58.8c0,1.3-0.2,2.6-0.7,3.9c-1.3,3.4-4.2,6-7.7,6.9  l-0.4,0.1c-0.9,0.2-1.8,0.3-2.7,0.3h-3.3c3-1,5.8-2.4,8.3-4.2c0.4-0.3,0.5-0.9,0.2-1.4c-0.3-0.4-0.9-0.5-1.4-0.2  C55.1,68,48.1,70,41.1,70h-0.3c-7,0-14-2-19.3-5.8c-0.4-0.3-1.1-0.2-1.4,0.2c-0.3,0.4-0.2,1.1,0.2,1.4c2.5,1.8,5.3,3.2,8.3,4.2h-2.3  c-0.9,0-1.8-0.1-2.7-0.3l-1.2-0.3c-3.1-0.8-5.8-2.9-7.2-5.8l-0.2-0.5c-0.8-1.5-1.2-3.2-1.2-5c0-10.4,3-20.4,8.8-29l1.5-2.3  c2.1-3.2,5.2-5.6,8.8-6.8H34h0.8c-0.9,0.6-1.8,1.4-2.6,2.4c-0.4,0.4-0.3,1.1,0.1,1.4c0.4,0.4,1.1,0.3,1.4-0.1  c1.9-2.3,4.5-3.6,7.2-3.6s5.3,1.3,7.2,3.6c0.2,0.2,0.5,0.4,0.8,0.4c0.2,0,0.5-0.1,0.6-0.2c0.4-0.4,0.5-1,0.1-1.4  c-0.8-0.9-1.6-1.7-2.6-2.4H48h0.8c3.6,1.2,6.7,3.7,8.8,6.8l1.5,2.3c5.7,8.6,8.8,18.7,8.8,29V58.8z"/><g><g><g><rect class="st9" height="4" width="14" x="26" y="67"/><path class="st2" d="M40,72H26c-0.6,0-1-0.4-1-1v-4c0-0.6,0.4-1,1-1h14c0.6,0,1,0.4,1,1v4C41,71.6,40.6,72,40,72z M27,70h12v-2     H27V70z"/></g><g><path class="st16" d="M36,68L36,68c0,0.6-0.4,1-1,1h-4c-0.3,0-0.5,0.2-0.5,0.5c0,0.3,0.2,0.5,0.5,0.5h5h0.5H39v-2H36z"/></g><g><rect class="st17" height="2" width="1" x="38" y="68"/></g></g><g><g><rect class="st9" height="4" width="14" x="26" y="63"/><path class="st2" d="M40,68H26c-0.6,0-1-0.4-1-1v-4c0-0.6,0.4-1,1-1h14c0.6,0,1,0.4,1,1v4C41,67.6,40.6,68,40,68z M27,66h12v-2     H27V66z"/></g><g><path class="st16" d="M36,64L36,64c0,0.6-0.4,1-1,1h-0.5c-0.3,0-0.5,0.2-0.5,0.5c0,0.3,0.2,0.5,0.5,0.5H36h0.5H39v-2H36z"/></g><g><rect class="st17" height="2" width="1" x="38" y="64"/></g></g><g><g><rect class="st9" height="4" width="14" x="23" y="59"/><path class="st2" d="M37,64H23c-0.6,0-1-0.4-1-1v-4c0-0.6,0.4-1,1-1h14c0.6,0,1,0.4,1,1v4C38,63.6,37.6,64,37,64z M24,62h12v-2     H24V62z"/></g><g><path class="st16" d="M33,60L33,60c0,0.6-0.4,1-1,1h-0.5c-0.3,0-0.5,0.2-0.5,0.5c0,0.3,0.2,0.5,0.5,0.5H33h0.5H36v-2H33z"/></g><g><rect class="st17" height="2" width="1" x="35" y="60"/></g></g><g><g><rect class="st9" height="4" width="14" x="25" y="55"/><path class="st2" d="M39,60H25c-0.6,0-1-0.4-1-1v-4c0-0.6,0.4-1,1-1h14c0.6,0,1,0.4,1,1v4C40,59.6,39.6,60,39,60z M26,58h12v-2     H26V58z"/></g><g><rect class="st18" height="2" width="2" x="27" y="56"/></g><g><rect class="st18" height="2" width="1" x="30" y="56"/></g><g><path class="st16" d="M35,56L35,56c0,0.6-0.4,1-1,1h-0.5c-0.3,0-0.5,0.2-0.5,0.5c0,0.3,0.2,0.5,0.5,0.5H35h0.5H38v-2H35z"/></g><g><rect class="st17" height="2" width="1" x="37" y="56"/></g></g><g><path class="st16" d="M32.4,68H27v2h4.2C31.7,69.4,32.1,68.7,32.4,68z"/></g><g><path class="st16" d="M27,66h5.9c0-0.3,0.1-0.7,0.1-1s0-0.7-0.1-1H27V66z"/></g><g><path class="st16" d="M31.2,60H27v2h5.4C32.1,61.3,31.7,60.6,31.2,60z"/></g><g><g><rect class="st9" height="4" width="14" x="5" y="67"/><path class="st2" d="M19,72H5c-0.6,0-1-0.4-1-1v-4c0-0.6,0.4-1,1-1h14c0.6,0,1,0.4,1,1v4C20,71.6,19.6,72,19,72z M6,70h12v-2H6     V70z"/></g><g><rect class="st18" height="2" width="2" x="7" y="68"/></g><g><rect class="st18" height="2" width="1" x="10" y="68"/></g><g><path class="st16" d="M15,68L15,68c0,0.6-0.4,1-1,1h-0.5c-0.3,0-0.5,0.2-0.5,0.5c0,0.3,0.2,0.5,0.5,0.5H15h0.5H18v-2H15z"/></g><g><rect class="st17" height="2" width="1" x="17" y="68"/></g></g><g><g><rect class="st9" height="4" width="14" x="5" y="63"/><path class="st2" d="M19,68H5c-0.6,0-1-0.4-1-1v-4c0-0.6,0.4-1,1-1h14c0.6,0,1,0.4,1,1v4C20,67.6,19.6,68,19,68z M6,66h12v-2H6     V66z"/></g><g><rect class="st18" height="2" width="2" x="7" y="64"/></g><g><rect class="st18" height="2" width="1" x="10" y="64"/></g><g><path class="st16" d="M15,64L15,64c0,0.6-0.4,1-1,1h-0.5c-0.3,0-0.5,0.2-0.5,0.5c0,0.3,0.2,0.5,0.5,0.5H15h0.5H18v-2H15z"/></g><g><rect class="st17" height="2" width="1" x="17" y="64"/></g></g><g><g><rect class="st9" height="4" width="14" x="5" y="59"/><path class="st2" d="M19,64H5c-0.6,0-1-0.4-1-1v-4c0-0.6,0.4-1,1-1h14c0.6,0,1,0.4,1,1v4C20,63.6,19.6,64,19,64z M6,62h12v-2H6     V62z"/></g><g><rect class="st18" height="2" width="2" x="7" y="60"/></g><g><rect class="st18" height="2" width="1" x="10" y="60"/></g><g><path class="st16" d="M15,60L15,60c0,0.6-0.4,1-1,1h-0.5c-0.3,0-0.5,0.2-0.5,0.5c0,0.3,0.2,0.5,0.5,0.5H15h0.5H18v-2H15z"/></g><g><rect class="st17" height="2" width="1" x="17" y="60"/></g></g><g><rect class="st9" height="4" width="14" x="5" y="47"/><path class="st2" d="M19,52H5c-0.6,0-1-0.4-1-1v-4c0-0.6,0.4-1,1-1h14c0.6,0,1,0.4,1,1v4C20,51.6,19.6,52,19,52z M6,50h12v-2H6V50    z"/></g><g><rect class="st9" height="4" width="14" x="3" y="43"/><path class="st2" d="M17,48H3c-0.6,0-1-0.4-1-1v-4c0-0.6,0.4-1,1-1h14c0.6,0,1,0.4,1,1v4C18,47.6,17.6,48,17,48z M4,46h12v-2H4V46    z"/></g><g><g><rect class="st9" height="4" width="14" x="5" y="31"/><path class="st2" d="M19,36H5c-0.6,0-1-0.4-1-1v-4c0-0.6,0.4-1,1-1h14c0.6,0,1,0.4,1,1v4C20,35.6,19.6,36,19,36z M6,34h12v-2H6     V34z"/></g></g><g><rect class="st9" height="4" width="14" x="6" y="39"/><path class="st2" d="M20,44H6c-0.6,0-1-0.4-1-1v-4c0-0.6,0.4-1,1-1h14c0.6,0,1,0.4,1,1v4C21,43.6,20.6,44,20,44z M7,42h12v-2H7V42    z"/></g><g><rect class="st9" height="4" width="14" x="6" y="35"/><path class="st2" d="M20,40H6c-0.6,0-1-0.4-1-1v-4c0-0.6,0.4-1,1-1h14c0.6,0,1,0.4,1,1v4C21,39.6,20.6,40,20,40z M7,38h12v-2H7V38    z"/></g><g><rect class="st9" height="4" width="14" x="5" y="51"/><path class="st2" d="M19,56H5c-0.6,0-1-0.4-1-1v-4c0-0.6,0.4-1,1-1h14c0.6,0,1,0.4,1,1v4C20,55.6,19.6,56,19,56z M6,54h12v-2H6V54    z"/></g><g><g><rect class="st9" height="4" width="14" x="8" y="55"/><path class="st2" d="M22,60H8c-0.6,0-1-0.4-1-1v-4c0-0.6,0.4-1,1-1h14c0.6,0,1,0.4,1,1v4C23,59.6,22.6,60,22,60z M9,58h12v-2H9     V58z"/></g><g><rect class="st18" height="2" width="2" x="10" y="56"/></g><g><rect class="st18" height="2" width="1" x="13" y="56"/></g><g><path class="st16" d="M18,56L18,56c0,0.6-0.4,1-1,1h-0.5c-0.3,0-0.5,0.2-0.5,0.5c0,0.3,0.2,0.5,0.5,0.5H18h0.5H21v-2H18z"/></g><g><rect class="st17" height="2" width="1" x="20" y="56"/></g></g><g><g><circle class="st9" cx="23" cy="64" r="7"/><path class="st2" d="M23,72c-4.4,0-8-3.6-8-8s3.6-8,8-8s8,3.6,8,8S27.4,72,23,72z M23,58c-3.3,0-6,2.7-6,6s2.7,6,6,6s6-2.7,6-6     S26.3,58,23,58z"/></g><g><path class="st16" d="M28.5,63.5c-0.3,0-0.5,0.2-0.5,0.5c0,1.3-0.2,1.8-0.6,1.8c-0.2,0-0.4-0.2-0.4-0.8c0-3-1.7-5.6-4.1-7     c-3.3,0.1-5.9,2.7-5.9,6c0,3.3,2.7,6,6,6c1,0,1.9-0.2,2.7-0.7c0.1-0.2,0.3-0.2,0.3-0.2c1.8-1,3-3,3-5.2     C29,63.7,28.8,63.5,28.5,63.5z"/></g></g><g><g><circle class="st9" cx="18" cy="64" r="7"/><path class="st2" d="M18,72c-4.4,0-8-3.6-8-8s3.6-8,8-8s8,3.6,8,8S22.4,72,18,72z M18,58c-3.3,0-6,2.7-6,6s2.7,6,6,6s6-2.7,6-6     S21.3,58,18,58z"/></g><g><path class="st10" d="M16.5,58.2c-2.1,0.5-3.8,2.2-4.3,4.3c-0.3,1.1-0.2,2.2,0.1,3.2c0.2,0.7,1.2,1,1.7,0.4l6.1-6.1     c0.5-0.5,0.3-1.5-0.4-1.7C18.7,58,17.6,57.9,16.5,58.2z"/></g><g><path class="st10" d="M15.3,68.7l7.4-7.4c0.2-0.2,0.3-0.6,0.1-0.9c0,0,0,0,0,0C22.5,60,22,60,21.7,60.3l-7.4,7.4     C14,68,14,68.5,14.4,68.8c0,0,0,0,0,0C14.7,69,15,69,15.3,68.7z"/></g><g><g><path class="st18" d="M12.6,63.5C12.6,63.5,12.5,63.5,12.6,63.5c-0.4-0.1-0.5-0.3-0.5-0.6c0.4-2.4,2.4-4.4,4.8-4.8      c0.3,0,0.5,0.1,0.6,0.4c0.1,0.3-0.1,0.5-0.4,0.6c-2,0.4-3.6,2-4,4C13,63.3,12.8,63.5,12.6,63.5z"/></g></g><g><g><path class="st16" d="M18,70c-0.3,0-0.5-0.2-0.5-0.5S17.7,69,18,69c2.8,0,5-2.2,5-5c0-0.3,0.2-0.5,0.5-0.5S24,63.7,24,64      C24,67.3,21.3,70,18,70z"/></g></g></g><g><path class="st16" d="M15,36L15,36c0,0.6-0.4,1-1,1h-0.5c-0.3,0-0.5,0.2-0.5,0.5c0,0.3,0.2,0.5,0.5,0.5H15h0.5H19v-2H15z"/></g><g><path class="st16" d="M15,40L15,40c0,0.6-0.4,1-1,1h-0.5c-0.3,0-0.5,0.2-0.5,0.5c0,0.3,0.2,0.5,0.5,0.5H15h0.5H19v-2H15z"/></g><g><rect class="st18" height="2" width="2" x="5" y="44"/></g><g><rect class="st18" height="2" width="1" x="8" y="44"/></g><g><rect class="st18" height="2" width="2" x="8" y="36"/></g><g><rect class="st18" height="2" width="1" x="11" y="36"/></g><g><rect class="st18" height="2" width="2" x="7" y="32"/></g><g><rect class="st18" height="2" width="1" x="10" y="32"/></g><g><rect class="st18" height="2" width="2" x="8" y="40"/></g><g><rect class="st18" height="2" width="1" x="11" y="40"/></g><g><rect class="st18" height="2" width="2" x="7" y="48"/></g><g><rect class="st18" height="2" width="1" x="10" y="48"/></g><g><rect class="st18" height="2" width="2" x="7" y="52"/></g><g><rect class="st18" height="2" width="1" x="10" y="52"/></g><g><path class="st16" d="M13,44L13,44c0,0.6-0.4,1-1,1h-0.5c-0.3,0-0.5,0.2-0.5,0.5c0,0.3,0.2,0.5,0.5,0.5H13h0.5H16v-2H13z"/></g><g><rect class="st17" height="2" width="2" x="17" y="40"/></g><g><rect class="st17" height="2" width="2" x="17" y="36"/></g><g><path class="st16" d="M14,32L14,32c0,0.6-0.4,1-1,1h-0.5c-0.3,0-0.5,0.2-0.5,0.5c0,0.3,0.2,0.5,0.5,0.5H14h0.5H18v-2L14,32z"/></g><g><rect class="st17" height="2" width="2" x="16" y="32"/></g><g><rect class="st17" height="2" width="1" x="15" y="44"/></g><g><path class="st16" d="M15,48L15,48c0,0.6-0.4,1-1,1h-0.5c-0.3,0-0.5,0.2-0.5,0.5c0,0.3,0.2,0.5,0.5,0.5H15h0.5H18v-2H15z"/></g><g><rect class="st17" height="2" width="1" x="17" y="48"/></g><g><path class="st16" d="M15,52L15,52c0,0.6-0.4,1-1,1h-0.5c-0.3,0-0.5,0.2-0.5,0.5c0,0.3,0.2,0.5,0.5,0.5H15h0.5H18v-2H15z"/></g><g><rect class="st17" height="2" width="1" x="17" y="52"/></g></g><g><g><g><rect class="st9" height="4" width="14" x="36" y="67"/><path class="st2" d="M50,72H36c-0.6,0-1-0.4-1-1v-4c0-0.6,0.4-1,1-1h14c0.6,0,1,0.4,1,1v4C51,71.6,50.6,72,50,72z M37,70h12v-2     H37V70z"/></g></g><g><rect class="st18" height="2" width="2" x="38" y="68"/></g><g><rect class="st18" height="2" width="1" x="41" y="68"/></g><g><path class="st16" d="M45,68L45,68c0,0.6-0.4,1-1,1h-0.5c-0.3,0-0.5,0.2-0.5,0.5c0,0.3,0.2,0.5,0.5,0.5H45h0.5H49v-2H45z"/></g><g><rect class="st17" height="2" width="2" x="47" y="68"/></g></g><g><polygon class="st2" points="18,61 18.7,63 21,63 19.1,64.7 19.9,67 18,65.6 16.1,67 16.9,64.7 15,63 17.3,63  "/></g></svg>