<?xml version="1.0" ?><svg data-name="Layer 1" id="Layer_1" viewBox="0 0 64 64" xmlns="http://www.w3.org/2000/svg"><defs><style>.cls-1{fill:#dcdfe2;}.cls-2{fill:#ebeef2;}.cls-3{fill:#4fbe9f;}.cls-4{fill:#09816c;}</style></defs><title/><path class="cls-1" d="M56,13.17,52.06,9.23a4.18,4.18,0,0,0-3-1.23H39.65a4.21,4.21,0,0,0-3,1.23L33.2,12.71l1.42,1.41,3.47-3.47A2.17,2.17,0,0,1,39.65,10h9.44a2.19,2.19,0,0,1,1.56.65L56,16Z"/><path class="cls-2" d="M46.53,52.38H39.69a3.11,3.11,0,0,1-3.11-3.11V39.58H27.42v9.69a3.11,3.11,0,0,1-3.11,3.11H17.47a1.87,1.87,0,0,0-1.88,1.5A1.81,1.81,0,0,0,17.38,56H46.62a1.81,1.81,0,0,0,1.79-2.12A1.87,1.87,0,0,0,46.53,52.38Z"/><rect class="cls-2" height="14.33" width="9.17" x="27.42" y="39.58"/><rect class="cls-1" height="4.75" width="9.17" x="27.42" y="39.58"/><path class="cls-3" d="M51.76,51.73a4.23,4.23,0,0,1-3-1.24L41.23,43a5.55,5.55,0,0,0-3.92-1.63H26.76a8.6,8.6,0,0,1-6.08-2.51L9.37,27.5A4.35,4.35,0,0,1,9,21.69a4.25,4.25,0,0,1,6.28-.31l9.85,9.86A5.58,5.58,0,0,0,29,32.86H39.56a8.57,8.57,0,0,1,6.07,2.51l9,9a4.39,4.39,0,0,1,0,6.3A4.2,4.2,0,0,1,51.76,51.73Z"/><rect class="cls-4" height="14" rx="2.1" transform="translate(-8.91 18.5) rotate(-45)" width="5.62" x="15.06" y="13"/><path class="cls-2" d="M46.62,56H17.38a1.81,1.81,0,0,1-1.82-1.81h0a1.81,1.81,0,0,1,1.82-1.81H46.62a1.81,1.81,0,0,1,1.82,1.81h0A1.81,1.81,0,0,1,46.62,56Z"/><path class="cls-1" d="M37.69,10a6.64,6.64,0,0,0-8.54-.73A1,1,0,0,0,29,10.69L37,18.61a1,1,0,0,0,1.47-.12A6.64,6.64,0,0,0,37.69,10Z"/><path class="cls-2" d="M32.17,15.47a1.23,1.23,0,0,0,1.74,0l-1.74-1.74A1.23,1.23,0,0,0,32.17,15.47Z"/></svg>