<?xml version="1.0" encoding="utf-8"?>
<!-- Generator: Adobe Illustrator 27.4.1, SVG Export Plug-In . SVG Version: 6.00 Build 0)  -->
<svg version="1.1" id="Layer_1" xmlns="http://www.w3.org/2000/svg" xmlns:xlink="http://www.w3.org/1999/xlink" x="0px" y="0px"
	 viewBox="0 0 277.6 134" style="enable-background:new 0 0 277.6 134;" xml:space="preserve">
<style type="text/css">
	.st0{fill-rule:evenodd;clip-rule:evenodd;fill:#FFFFFF;}
	.st1{fill:#FFFFFF;}
	.st2{display:none;fill:none;stroke:#000000;stroke-width:0.5;stroke-miterlimit:3.86;}
	.st3{display:none;fill-rule:evenodd;clip-rule:evenodd;}
	.st4{fill:#FFFFFF;stroke:#FFFFFF;stroke-miterlimit:10;}
	.st5{font-family:'OpenSans';}
	.st6{font-size:8px;}
</style>
<path class="st0" d="M230.1,14.9c-4.3,0-12.9,2.6-12.9,16.8s8.1,18.4,13.6,18.4c5.5,0,12.4-5.1,12.4-17.8S236.3,14.9,230.1,14.9
	L230.1,14.9z M230.1,65.5c-13.2,0-30.7-10.6-30.7-32.7S218.3,0,230.3,0c10.6,0,30.7,9,30.7,32.9C260.9,55.7,243.2,65.5,230.1,65.5
	L230.1,65.5z"/>
<path class="st1" d="M186.4,34.2c0,0,4.6,0.7,6,2.8c0.9,1.4,1.4,2.9,1.6,4.6v22.8h-15.1v-20c-0.3-1.4-1-2.7-1.9-3.8
	c-1.3-1.4-4.1-1.7-4.1-1.7h-18.6V24.3h24.1c0,0,3.7-0.4,3.3-4.7s-4.9-4.6-4.9-4.6h-38c0,0-12.7,3.6-12.7,17.7s11.7,16.3,15,16.3
	c3.3,0,9.6-0.1,9.6-0.1v15.3h-15.7c0,0-24.6-4.3-24.6-32.3s29.8-32,29.8-32h42.9c0,0,14.8,1.6,14.4,17.6
	C197.6,24.9,193.2,31.4,186.4,34.2L186.4,34.2z"/>
<polygon class="st1" points="88.9,1 106.3,1 106.3,64.2 88.8,64.2 88.9,1 "/>
<path class="st1" d="M66.1,19.1c-0.1-0.9-0.3-1.8-0.8-2.6c-0.5-0.7-1.3-1.2-2.2-1.3H36v49.2H20.3V1H71c3.4,0.2,6.6,1.8,8.8,4.4
	c1.9,2.3,2.7,7,2.7,7v51.8H66.1V19.1L66.1,19.1z"/>
<polygon class="st1" points="42.8,24.5 58.1,24.5 58.1,64.2 42.9,64.2 42.8,24.5 "/>
<path class="st2" d="M273.1,78.3c-2.8,0-4.4-2.8-4.4-4.9s1.8-4.8,4.5-4.8s4.2,2.4,4.2,4.8S275.9,78.3,273.1,78.3z"/>
<path class="st3" d="M274.2,72.4c0.1-0.5-0.5-0.6-0.5-0.6h-1.4V73h1.5C274,72.9,274.2,72.7,274.2,72.4L274.2,72.4z M274,75.9l-1-2.1
	h-0.7v2.1h-0.8V71h2.1c0,0,1.3,0.3,1.3,1.2c0,0.6-0.4,1.2-1,1.4l1,2.2L274,75.9L274,75.9z"/>
<path class="st1" d="M256.6,103.9c0,0,4.7,0.8,6.5,2.9c1.2,1.6,1.9,3.5,1.9,5.6v21.5h-15.2v-20.1c-0.3-1.1-0.9-2.2-1.7-3.1
	c-0.9-1-2.1-1.7-3.4-2.1H225V94h24.6c0,0,3.9-0.9,3.9-4.8s-4-4.5-4-4.5h-69.8V69.5h73.8c0,0,14.7,1.8,14.9,17.8
	C268.5,100,256.6,103.9,256.6,103.9z"/>
<path class="st1" d="M179.8,93.9H220v14.9h-22.8v9.6h22.8v15.4h-66.5c-3-0.6-5.8-2-8-4.1c-4-3.7-5.1-10-5.1-10V93.9h16.2v18.5
	c0.1,1.3,0.6,2.5,1.3,3.5c1.1,1.1,1.7,0.9,1.7,0.9h18.9c0.3-0.1,0.6-0.2,0.8-0.4c0.2-0.2,0.4-0.5,0.5-0.7V93.9z"/>
<polygon class="st1" points="138.7,69.6 176.3,69.6 176.3,84.7 138.7,84.7 138.7,69.6 "/>
<path class="st1" d="M140.9,133.1l0.1,0.7h-17c-4.5-2.7-6.4-12.6-6.4-12.6v-35c-0.1-0.4-0.2-0.7-0.5-1c-0.4-0.3-0.9-0.4-1.3-0.4H105
	v49H88.2V69.5h34.4c0,0,4.3,0.6,8.2,5.6c2.8,3.8,3.6,11.5,3.6,11.5v31c-0.1,2.9,0.4,5.8,1.5,8.4
	C137.1,128.7,138.8,131.1,140.9,133.1L140.9,133.1z"/>
<path class="st1" d="M16.8,101.9c0,16.6,15.2,15.5,15.2,15.5h8.6V134H24.3c0,0-24.3-2.8-24.3-32.6c0-28.2,25.6-31.9,25.6-31.9h57.1
	v15.3H31.1C31.1,84.8,16.8,85.3,16.8,101.9L16.8,101.9z"/>
<polygon class="st1" points="82.6,117.8 82.6,133.8 44.4,133.8 44.4,95 82.6,95 82.6,108.9 61,108.9 61,117.8 82.6,117.8 "/>
<text transform="matrix(1 0 0 1 264.3912 74.2035)" class="st4 st5 st6">TM</text>
</svg>
