<?xml version="1.0" ?><svg viewBox="0 0 512 512" xmlns="http://www.w3.org/2000/svg"><defs><style>.cls-1{fill:#ffbdbd;}.cls-2{fill:#f0f3f7;}.cls-3{fill:#ffd2a6;}.cls-4{opacity:0.15;}.cls-5{fill:#3f456b;}.cls-6{opacity:0.3;}.cls-7{fill:#fff;}.cls-8{opacity:0.5;}.cls-9{fill:#f5f6f7;}.cls-10{opacity:0.25;}.cls-11{opacity:0.75;}.cls-12{opacity:0.2;}.cls-13{opacity:0.7;}</style></defs><title/><g id="Colors"><g data-name="&lt;编组&gt;" id="_编组_"><path class="cls-1" d="M448,247.5V450a30.09,30.09,0,0,1-30,30H95a30.09,30.09,0,0,1-30-30V247.5H448Z"/><path class="cls-2" d="M448,207v40.5H65V207a30.09,30.09,0,0,1,30-30H418A30.09,30.09,0,0,1,448,207Z"/></g><path class="cls-1" d="M92,145a39,39,0,0,1-37.55-28.45,39,39,0,0,1,0-75.1A39,39,0,0,1,92,13l91,46s20,9,20,20-11,17-21,22S92,145,92,145Z"/><path class="cls-3" d="M286.9,53.31v73.45H225.1V53.31A19.37,19.37,0,0,1,244.41,34h23.18A19.37,19.37,0,0,1,286.9,53.31Z"/><path class="cls-3" d="M317.79,175v0l-.06,0H195.17V141.24c0-10.62,5.8-14.48,13.52-14.48h94.62c9.66,0,14.48,3.86,14.48,14.48Z"/><g class="cls-4"><path class="cls-5" d="M268,34v92.76h20.5v48.29H318V141s.33-14.24-12.33-14.24S287,127,287,127V53S286,34,268,34Z"/></g><g class="cls-6"><rect class="cls-7" height="93" width="20" x="239" y="34"/></g><g class="cls-6"><rect class="cls-7" height="48" width="33" x="213" y="127"/></g><g class="cls-6"><path class="cls-7" d="M195.17,144S193,127,209,127h94.31s14.48-1,14.48,17Z"/></g><g class="cls-6"><path class="cls-7" d="M226.17,51S224,34,240,34h32.31s14.48-1,14.48,17Z"/></g><g class="cls-8"><path class="cls-5" d="M181.85,63.36a5,5,0,0,1-2.26-.54l-.89-.45a5,5,0,0,1,4.52-8.92l.89.45a5,5,0,0,1-2.26,9.46Zm-18.74-9.48a5.09,5.09,0,0,1-2.26-.53l-.89-.46A5,5,0,0,1,164.48,44l.89.45a5,5,0,0,1-2.26,9.46Zm-18.74-9.47a5,5,0,0,1-2.25-.54l-.9-.45a5,5,0,0,1,4.52-8.93l.89.45a5,5,0,0,1-2.26,9.47Zm-18.74-9.48a4.9,4.9,0,0,1-2.25-.54l-.9-.45A5,5,0,0,1,127,25l.89.45a5,5,0,0,1-2.26,9.46Zm-18.74-9.48a4.9,4.9,0,0,1-2.25-.54l-.9-.45a5,5,0,1,1,4.52-8.92l.89.45a5,5,0,0,1-2.26,9.46Z"/><path class="cls-5" d="M106,141a5,5,0,0,1-2.09-9.54l.91-.42a5,5,0,1,1,4.18,9.08l-.91.42A5,5,0,0,1,106,141Zm19.08-8.77a5,5,0,0,1-2.09-9.55l.91-.41a5,5,0,0,1,4.18,9.08l-.91.42A5,5,0,0,1,125.08,132.23Zm19.08-8.77a5,5,0,0,1-2.09-9.55l.91-.41a5,5,0,0,1,4.18,9.08l-.91.42A5,5,0,0,1,144.16,123.46Zm19.08-8.78a5,5,0,0,1-2.09-9.54l.91-.42a5,5,0,0,1,4.18,9.09l-.91.42A5,5,0,0,1,163.24,114.68Zm19.08-8.77a5,5,0,0,1-2.09-9.54l.91-.42a5,5,0,0,1,4.17,9.09l-.9.41A5,5,0,0,1,182.32,105.91Z"/><path class="cls-5" d="M204,84h-1a5,5,0,0,1,0-10h1a5,5,0,0,1,0,10Zm-21,0h-1a5,5,0,0,1,0-10h1a5,5,0,0,1,0,10Zm-21,0h-1a5,5,0,0,1,0-10h1a5,5,0,0,1,0,10Zm-21,0h-1a5,5,0,0,1,0-10h1a5,5,0,0,1,0,10Zm-21,0h-1a5,5,0,0,1,0-10h1a5,5,0,0,1,0,10ZM99,84H98a5,5,0,0,1,0-10h1a5,5,0,0,1,0,10ZM78,84H77a5,5,0,0,1,0-10h1a5,5,0,0,1,0,10Z"/></g><polyline class="cls-3" points="286.79 70.17 314 63 314 103 286.79 97.5"/><path class="cls-9" d="M314,101.73c17.1,13,34,27.21,52.63,37.56q1.23.69,2.49,1.32c40.68,20.62,103,5.9,115.11-43A62.48,62.48,0,0,0,486,82.9v-.11c0-25-16-46.59-37.56-57.94-26.51-13.95-56.27-10.8-82,3.18-4,2.18-7.94,4.58-11.74,7.13-13.39,9-26.5,18.42-39.55,27.93"/><g class="cls-10"><path class="cls-5" d="M290,98l24,5,37.67,27s22.66,19,55,19S471,136,484,98c0,0-26,29-77,29,0,0-37-1-67-24l-12-8s-7-6-13-6H288Z"/></g><g class="cls-11"><ellipse class="cls-7" cx="408" cy="45" rx="55" ry="28"/></g><g class="cls-12"><path class="cls-5" d="M417,154a5,5,0,0,1-5-5V17a5,5,0,0,1,10,0V149A5,5,0,0,1,417,154Z"/><path class="cls-5" d="M449,144a5,5,0,0,1-5-5V25a5,5,0,0,1,10,0V139A5,5,0,0,1,449,144Z"/><path class="cls-5" d="M384,148a5,5,0,0,1-5-5V21a5,5,0,0,1,10,0V143A5,5,0,0,1,384,148Z"/><path class="cls-5" d="M352,132a5,5,0,0,1-5-5V37a5,5,0,0,1,10,0v90A5,5,0,0,1,352,132Z"/></g><g class="cls-11"><path class="cls-7" d="M416.24,176.5c23,0,26.76,19.5,26.76,19.5H68.24s4-19.5,25-19.5Z"/></g><g class="cls-6"><rect class="cls-7" height="235" width="115" x="115" y="245"/></g><g class="cls-13"><rect class="cls-7" height="68" width="115" x="115" y="177"/></g><g class="cls-4"><path class="cls-5" d="M95,480c-23,0-26.76-19-26.76-19H443s-4,19-25,19Z"/></g><g class="cls-6"><rect class="cls-7" height="16" width="383" x="65" y="247"/></g><g class="cls-8"><path class="cls-5" d="M262.34,340.75a31.12,31.12,0,0,1-8.23-1.11c-6.85-1.85-12.18-6-17.34-10-6.28-4.86-11.71-9-18.84-8.51-10.09.77-16.07,10.19-18.74,15.74a5,5,0,0,1-9-4.33c6.23-12.94,15.81-20.53,27-21.38,11-.84,18.8,5.22,25.71,10.57,4.59,3.54,8.92,6.89,13.84,8.22a21.06,21.06,0,0,0,12.95-.49,34.58,34.58,0,0,1-3.32-3.07c-6.6-7-8.91-15.75-6.32-24.11,3-9.55,9.24-15.7,17.23-16.88a17.87,17.87,0,0,1,17.53,7.8c5.06,7.48,4.5,17.68-1.53,28a45.47,45.47,0,0,1-4.68,6.61c7.47,2,17,2.41,28.12-.39a5,5,0,0,1,2.45,9.69c-14.13,3.56-28.16,2.79-39.22-1.7A32.54,32.54,0,0,1,262.34,340.75Zm17.54-45.51a7.52,7.52,0,0,0-1.15.09c-4,.6-7.38,4.22-9.15,9.94-1.51,4.88-.08,10,4,14.29a26,26,0,0,0,5.16,4.12,34.86,34.86,0,0,0,5.86-7.49c4-6.86,4.69-13.18,1.88-17.35A8,8,0,0,0,279.88,295.24Z"/></g><g class="cls-8"><path class="cls-5" d="M340,370a5,5,0,1,1,0-10h0a5,5,0,0,1,0,10Zm-20,0h-1a5,5,0,0,1,0-10h1a5,5,0,0,1,0,10Zm-21,0h-1a5,5,0,0,1,0-10h1a5,5,0,0,1,0,10Zm-21,0h-1a5,5,0,0,1,0-10h1a5,5,0,0,1,0,10Zm-21,0h-1a5,5,0,0,1,0-10h1a5,5,0,0,1,0,10Zm-21,0h-1a5,5,0,0,1,0-10h1a5,5,0,0,1,0,10Zm-21,0h-1a5,5,0,0,1,0-10h1a5,5,0,0,1,0,10Zm-21,0h-1a5,5,0,0,1,0-10h1a5,5,0,0,1,0,10Zm-21,0h-1a5,5,0,0,1,0-10h1a5,5,0,0,1,0,10Z"/></g><g class="cls-4"><path class="cls-5" d="M400,177V478.67S448,485,448,450V207S447,171,400,177Z"/></g></g><g id="Lines"><path class="cls-5" d="M317.79,180a5,5,0,0,1-5-5V141.24c0-7.35-2.12-9.48-9.48-9.48H208.69c-6.05,0-8.52,2.75-8.52,9.48V175a5,5,0,0,1-10,0V141.24c0-12.2,6.92-19.48,18.52-19.48h94.62c12.93,0,19.48,6.55,19.48,19.48V175A5,5,0,0,1,317.79,180Z"/><path class="cls-5" d="M286.9,131.76a5,5,0,0,1-5-5V53.31A14.33,14.33,0,0,0,267.59,39H244.41A14.33,14.33,0,0,0,230.1,53.31v73.45a5,5,0,0,1-10,0V53.31A24.34,24.34,0,0,1,244.41,29h23.18A24.34,24.34,0,0,1,291.9,53.31v73.45A5,5,0,0,1,286.9,131.76Z"/><path class="cls-5" d="M243.45,82.83h-2.9a5,5,0,0,1,0-10h2.9a5,5,0,0,1,0,10Z"/><path class="cls-5" d="M92,150a44.16,44.16,0,0,1-41.53-29.47,44,44,0,0,1,0-83.06A44.16,44.16,0,0,1,92,8a5,5,0,0,1,0,10A34.1,34.1,0,0,0,59.27,42.8a5,5,0,0,1-3.47,3.47,34,34,0,0,0,0,65.46,5,5,0,0,1,3.47,3.47A34.1,34.1,0,0,0,92,140a5,5,0,0,1,0,10Z"/><path class="cls-5" d="M418,485H95a35,35,0,0,1-35-35V207a35,35,0,0,1,35-35H418a35,35,0,0,1,35,35V450A35,35,0,0,1,418,485ZM95,182a25,25,0,0,0-25,25V450a25,25,0,0,0,25,25H418a25,25,0,0,0,25-25V207a25,25,0,0,0-25-25Z"/><path class="cls-5" d="M408.7,154.62a93.16,93.16,0,0,1-41.84-9.55c-.9-.45-1.79-.92-2.66-1.41-15-8.33-28.91-19.13-42.36-29.58-3.56-2.76-7.25-5.62-10.86-8.37a5,5,0,0,1,6-8c3.66,2.78,7.37,5.65,11,8.44,13.15,10.21,26.75,20.77,41.08,28.73.77.43,1.55.84,2.33,1.23,21.66,11,50.32,11.36,73,1,18.15-8.32,30.58-22.77,35-40.68A57.1,57.1,0,0,0,481,82.89v-.1c0-21.69-13.38-42.19-34.89-53.52-23.41-12.32-50.86-11.2-77.3,3.15-3.7,2-7.51,4.33-11.34,6.89C344,48.34,330.59,58,318.09,67.13a5,5,0,1,1-5.89-8.08c12.59-9.17,26.11-18.92,39.7-28,4.08-2.74,8.17-5.22,12.14-7.38,29-15.76,60.65-16.93,86.73-3.21,24.8,13.06,40.22,37,40.23,62.36v.12a67,67,0,0,1-1.92,15.92c-5.16,20.94-19.56,37.76-40.54,47.38A96.2,96.2,0,0,1,408.7,154.62Z"/><path class="cls-5" d="M408.7,154.62a93.16,93.16,0,0,1-41.84-9.55c-.9-.45-1.79-.92-2.66-1.41-15-8.33-28.91-19.13-42.36-29.58-3.56-2.76-7.25-5.62-10.86-8.37a5,5,0,0,1,6-8c3.66,2.78,7.37,5.65,11,8.44,13.15,10.21,26.75,20.77,41.08,28.73.77.43,1.55.84,2.33,1.23,21.66,11,50.32,11.36,73,1,18.15-8.32,30.58-22.77,35-40.68A57.1,57.1,0,0,0,481,82.89v-.1c0-21.69-13.38-42.19-34.89-53.52-23.41-12.32-50.86-11.2-77.3,3.15-3.7,2-7.51,4.33-11.34,6.89C344,48.34,330.59,58,318.09,67.13a5,5,0,1,1-5.89-8.08c12.59-9.17,26.11-18.92,39.7-28,4.08-2.74,8.17-5.22,12.14-7.38,29-15.76,60.65-16.93,86.73-3.21,24.8,13.06,40.22,37,40.23,62.36v.12a67,67,0,0,1-1.92,15.92c-5.16,20.94-19.56,37.76-40.54,47.38A96.2,96.2,0,0,1,408.7,154.62Z"/><path class="cls-5" d="M314,108a5,5,0,0,1-.85-.07l-26.21-4.5a5,5,0,0,1,1.7-9.86L309,97.07V69.31L288.94,74a5,5,0,1,1-2.29-9.73l26.2-6.17A5,5,0,0,1,319,63v40a5,5,0,0,1-5,5Z"/><path class="cls-5" d="M448,252H65a5,5,0,0,1,0-10H448a5,5,0,0,1,0,10Z"/></g></svg>