<?xml version="1.0" ?><svg id="icons" viewBox="0 0 60 60" xmlns="http://www.w3.org/2000/svg"><rect fill="#e3cb5b" height="58" rx="5" width="58" x="1" y="1"/><path d="M25,9l4.7-3.68a1.52,1.52,0,0,1,1.41-.24l3.87,1.28a1.476,1.476,0,0,1,.81,2.16l-1.76,2.9Z" fill="#e4f1ff"/><path d="M22,21c0,5.58-1,9-3.23,10.63-5.99-2.46-10.66-7.55-12.42-9.67a1.483,1.483,0,0,1,0-1.92c1.76-2.12,6.43-7.22,12.42-9.67C21,12,22,15.42,22,21Z" fill="#e4f1ff"/><path d="M46,21s-3.34,3.18-7.1,6.27L31,33l-10.02-.61a19.209,19.209,0,0,1-2.21-.76C19.84,29.82,21,26.58,21,21s-1.16-8.82-2.23-10.63A17.142,17.142,0,0,1,25.29,9C36.18,9,46,21,46,21Z" fill="#fff"/><path d="M53.89,29.82a.786.786,0,0,1-.81,1.17C45.85,29.67,45,21,45,21s.85-8.67,8.08-9.99a.786.786,0,0,1,.81,1.17C53.03,13.58,52,16.24,52,21S53.03,28.42,53.89,29.82Z" fill="#e4f1ff"/><circle cx="15" cy="19" fill="#fff" r="2"/><path d="M30,31.93V30.58a4.125,4.125,0,0,1,2.3-3.5,9.809,9.809,0,0,1,5.74-1.02.974.974,0,0,1,.84,1.31,11.776,11.776,0,0,1-2.29,3.88L32,34Z" fill="#69c784"/><path d="M44,43c0,6.628-4.181,12-9.333,12a7.591,7.591,0,0,1-3.942-1.128,1.413,1.413,0,0,0-1.45,0A7.591,7.591,0,0,1,25.333,55C20.181,55,16,49.628,16,43s4.181-12,9.333-12a7.409,7.409,0,0,1,2.818.561,4.844,4.844,0,0,0,3.7,0A7.409,7.409,0,0,1,34.667,31C39.819,31,44,36.372,44,43Z" fill="#cd596b"/><path d="M54,0H6A6.006,6.006,0,0,0,0,6v5a1,1,0,0,0,2,0V6A4,4,0,0,1,6,2H54a4,4,0,0,1,4,4V54a4,4,0,0,1-4,4H6a4,4,0,0,1-4-4V16a1,1,0,0,0-2,0V54a6.006,6.006,0,0,0,6,6H54a6.006,6.006,0,0,0,6-6V6A6.006,6.006,0,0,0,54,0Z" fill="#373737"/><path d="M15,16a3,3,0,1,0,3,3A3,3,0,0,0,15,16Zm0,4a1,1,0,1,1,1-1A1,1,0,0,1,15,20Z" fill="#373737"/><path d="M36.85,6.915a2.483,2.483,0,0,0-1.555-1.5L31.427,4.132a2.508,2.508,0,0,0-2.343.4l-4.474,3.5C15.683,8.414,8.359,16.058,5.584,19.4a2.488,2.488,0,0,0,0,3.2c1.958,2.354,6.966,7.751,13.393,10.174A14.387,14.387,0,0,0,15,43c0,7.168,4.636,13,10.333,13a8.537,8.537,0,0,0,4.459-1.271.4.4,0,0,1,.416,0A8.537,8.537,0,0,0,34.667,56C40.364,56,45,50.168,45,43c0-5.6-2.831-10.365-6.782-12.192a14.322,14.322,0,0,0,1.54-2.954,41.972,41.972,0,0,0,4.7-4.6c.8,2.874,2.948,7.719,8.445,8.723a1.847,1.847,0,0,0,.329.03,1.788,1.788,0,0,0,1.521-2.7l-.006-.01C53.947,28,53,25.512,53,21s.947-7,1.748-8.307A1.785,1.785,0,0,0,52.9,10.026c-5.494,1-7.642,5.842-8.445,8.716a37.921,37.921,0,0,0-9.029-7.7l1.22-2.009A2.455,2.455,0,0,0,36.85,6.915ZM7.115,21.317a.487.487,0,0,1,0-.637c1.491-1.795,5.747-6.482,11.207-9.007C19.165,13.428,20,16.337,20,21s-.838,7.583-1.678,9.337C12.991,27.885,8.827,23.375,7.115,21.317ZM43,43c0,6.065-3.738,11-8.333,11a6.561,6.561,0,0,1-3.426-.984,2.393,2.393,0,0,0-2.482,0A6.561,6.561,0,0,1,25.333,54C20.738,54,17,49.065,17,43s3.738-11,8.333-11a6.4,6.4,0,0,1,2.438.487,5.909,5.909,0,0,0,4.458,0A6.419,6.419,0,0,1,34.667,32C39.262,32,43,36.935,43,43ZM34.667,30a8.389,8.389,0,0,0-3.2.636,3.793,3.793,0,0,1-.471.141v-.2c0-.643.19-1.619,1.836-2.655,1.56-.991,3.878-.973,5.11-.912A11.246,11.246,0,0,1,36.2,30.16,8.242,8.242,0,0,0,34.667,30ZM52.785,12.1C51.919,13.7,51,16.466,51,21s.919,7.3,1.785,8.906C47.13,28.532,46.121,21.933,46.007,21,46.121,20.067,47.129,13.469,52.785,12.1ZM43.729,21a40.228,40.228,0,0,1-4.41,4.593,1.957,1.957,0,0,0-1.2-.531,10.632,10.632,0,0,0-6.354,1.171A6.945,6.945,0,0,0,30,27.775a8.9,8.9,0,0,0-3.554-3.67,1,1,0,0,0-.9,1.788,6.889,6.889,0,0,1,3.342,4.852c-.12-.036-.243-.06-.362-.108a8.371,8.371,0,0,0-3.2-.637,8.573,8.573,0,0,0-4.477,1.3c-.227-.068-.454-.137-.677-.214A23.8,23.8,0,0,0,22,21a23.826,23.826,0,0,0-1.817-10.08A15.563,15.563,0,0,1,25.29,10C34.179,10,41.807,18.636,43.729,21ZM27.669,8.18l2.645-2.071a.513.513,0,0,1,.482-.08l3.868,1.28a.486.486,0,0,1,.308.3.453.453,0,0,1-.036.4l-1.272,2.1A20.325,20.325,0,0,0,27.669,8.18Z" fill="#373737"/></svg>