<?xml version="1.0" ?><svg id="Layer_1" style="enable-background:new 0 0 256 256;" version="1.1" viewBox="0 0 256 256" xml:space="preserve" xmlns="http://www.w3.org/2000/svg" xmlns:xlink="http://www.w3.org/1999/xlink"><style type="text/css">
	.st0{fill:#6D6C6B;}
	.st1{fill:#898989;}
	.st2{fill:#FFAE2C;}
	.st3{fill:#FFCD29;}
	.st4{fill:#55ACD5;}
	.st5{fill:#6DCC6D;}
	.st6{fill:#EA4647;}
</style><g id="Layer_70"><rect class="st0" height="10.9" width="45.7" x="105.2" y="82"/><path class="st1" d="M158.8,104.5v-7c0-2.5-2.1-4.6-4.6-4.6l0,0h-52.4c-2.5,0-4.6,2.1-4.6,4.6l0,0v7H158.8z"/><path class="st2" d="M104.3,49h47.3c3.8,0,6.8,3.1,6.8,6.8v0v19.3c0,3.8-3.1,6.8-6.8,6.8h-47.3c-3.8,0-6.8-3.1-6.8-6.8V55.8   C97.5,52.1,100.6,49,104.3,49z"/><rect class="st3" height="12" width="61" x="97.5" y="59.5"/><path class="st1" d="M162.1,104.5H93.9c-17.6,0.1-31.8,14.3-31.9,31.9V228c0,14.1,11.4,25.5,25.5,25.5h81   c14.1,0,25.5-11.4,25.5-25.5v-91.6C193.9,118.8,179.7,104.6,162.1,104.5z"/><path class="st0" d="M93.4,139c6.7,0,12.1-5.4,12.1-12.1v-22.4H93.9c-17.6,0.1-31.8,14.3-31.9,31.9v2.6H93.4z"/><path class="st0" d="M162.6,139c-6.7,0-12.1-5.4-12.1-12.1v-22.4h11.6c17.6,0.1,31.8,14.3,31.9,31.9v2.6H162.6z"/><rect class="st2" height="68" width="132" x="62" y="157"/><path class="st4" d="M48.8,102H47v-1.8c0-1.4-1.1-2.5-2.5-2.5s-2.5,1.1-2.5,2.5v1.8h-1.8c-1.4,0-2.5,1.1-2.5,2.5s1.1,2.5,2.5,2.5   H42v1.8c0,1.4,1.1,2.5,2.5,2.5s2.5-1.1,2.5-2.5V107h1.8c1.4,0,2.5-1.1,2.5-2.5S50.2,102,48.8,102z"/><path class="st5" d="M51.6,130.6c0-0.2-0.1-0.3-0.1-0.5c-0.1-0.1-0.1-0.3-0.2-0.4c-0.1-0.1-0.2-0.3-0.3-0.4c-1-0.9-2.6-0.9-3.5,0.1   c-0.1,0.1-0.2,0.2-0.3,0.4c-0.2,0.3-0.3,0.6-0.4,0.9c-0.1,0.3-0.1,0.7,0,1c0,0.2,0.1,0.3,0.1,0.5c0.1,0.2,0.1,0.3,0.2,0.4   c0.1,0.1,0.2,0.3,0.3,0.4c1,1,2.6,1,3.5,0c0,0,0,0,0,0c0.1-0.1,0.2-0.2,0.3-0.4c0.1-0.1,0.2-0.3,0.2-0.4c0.1-0.1,0.1-0.3,0.1-0.5   C51.7,131.3,51.7,130.9,51.6,130.6L51.6,130.6z"/><path class="st6" d="M174.6,1.9c0-0.2-0.1-0.3-0.1-0.5c-0.1-0.1-0.1-0.3-0.2-0.4c-0.1-0.1-0.2-0.3-0.3-0.4c-1-0.9-2.6-0.9-3.5,0.1   c-0.1,0.1-0.2,0.2-0.3,0.4c-0.1,0.1-0.2,0.3-0.2,0.4c-0.1,0.2-0.1,0.3-0.1,0.5c0,0.2,0,0.3,0,0.5c0,0.2,0,0.3,0.1,0.5   c0,0.2,0.1,0.3,0.1,0.5c0.1,0.2,0.1,0.3,0.2,0.4c0.1,0.1,0.2,0.3,0.3,0.4c1,1,2.6,1,3.5,0c0,0,0,0,0,0c0.1-0.1,0.2-0.2,0.3-0.4   c0.1-0.1,0.2-0.3,0.2-0.4c0.1-0.1,0.1-0.3,0.1-0.5c0-0.2,0-0.3,0-0.5C174.7,2.3,174.6,2.1,174.6,1.9z"/><path class="st3" d="M202.3,20.9c-4-0.8-7.1-3.9-7.9-7.9c0-0.1-0.1-0.2-0.2-0.1c-0.1,0-0.1,0.1-0.1,0.1c-0.8,4-3.9,7.1-7.9,7.9   c-0.1,0-0.2,0.1-0.1,0.2c0,0.1,0.1,0.1,0.1,0.1c4,0.8,7.1,3.9,7.9,7.9c0,0.1,0.1,0.2,0.2,0.1c0.1,0,0.1-0.1,0.1-0.1   c0.8-4,3.9-7.1,7.9-7.9c0.1,0,0.2-0.1,0.1-0.2C202.4,21,202.4,20.9,202.3,20.9z"/><path d="M168.5,256h-81c-15.5,0-28-12.5-28-28v-91.6c0-19,15.4-34.3,34.4-34.4h68.3c19,0,34.3,15.4,34.4,34.4V228   C196.5,243.5,184,256,168.5,256z M93.9,107c-16.2,0-29.3,13.2-29.4,29.4V228c0,12.7,10.3,23,23,23h81c12.7,0,23-10.3,23-23v-91.6   c0-16.2-13.2-29.3-29.4-29.4H93.9z"/><path d="M150.9,95.4h-45.7c-1.4,0-2.5-1.1-2.5-2.5V82c0-1.4,1.1-2.5,2.5-2.5h45.7c1.4,0,2.5,1.1,2.5,2.5v10.9   C153.4,94.3,152.2,95.4,150.9,95.4z M107.7,90.4h40.7v-5.9h-40.7V90.4z"/><path d="M93.4,141.5H62c-1.4,0-2.5-1.1-2.5-2.5v-2.6c0-19,15.4-34.3,34.4-34.4h11.6c1.4,0,2.5,1.1,2.5,2.5v22.4   C108,135,101.5,141.5,93.4,141.5z M64.5,136.5h28.9c5.3,0,9.6-4.3,9.6-9.6V107h-9.1c-16.2,0-29.3,13.2-29.4,29.4V136.5z"/><path d="M194,141.5h-31.4c-8,0-14.6-6.5-14.6-14.6v-22.4c0-1.4,1.1-2.5,2.5-2.5h11.6c19,0,34.3,15.4,34.4,34.4v2.6   C196.5,140.4,195.4,141.5,194,141.5z M153,107v19.9c0,5.3,4.3,9.6,9.6,9.6h28.9v-0.1c0-16.2-13.2-29.3-29.4-29.4H153z"/><path d="M93,141.5H77c-1.4,0-2.5-1.1-2.5-2.5v-5c0-5.8,4.7-10.5,10.5-10.5s10.5,4.7,10.5,10.5c0,0,0,0,0,0v5   C95.5,140.4,94.4,141.5,93,141.5z M79.5,136.5h11.1V134c0-3.1-2.5-5.5-5.5-5.5c-3.1,0-5.5,2.5-5.5,5.5c0,0,0,0,0,0V136.5z"/><path d="M194,227.5H62c-1.4,0-2.5-1.1-2.5-2.5v-68c0-1.4,1.1-2.5,2.5-2.5h132c1.4,0,2.5,1.1,2.5,2.5v68   C196.5,226.4,195.4,227.5,194,227.5z M64.5,222.5h127v-63h-127V222.5z"/><path d="M82.6,128.9c-1,0-1.8-0.5-2.2-1.4C73.6,113.8,70,97.8,70,81c0-44.7,25.8-81,57.5-81S185,36.3,185,81   c0,9.8-1.2,19.5-3.8,28.9c-0.4,1.3-1.8,2.1-3.1,1.7c-1.3-0.4-2-1.7-1.7-3c2.4-9,3.6-18.3,3.6-27.6c0-41.9-23.6-76-52.5-76   S75,39.1,75,81c0,16,3.4,31.3,9.8,44.2c0.6,1.2,0.1,2.7-1.1,3.4C83.4,128.8,83,128.9,82.6,128.9L82.6,128.9z"/><path d="M84.5,131c-1.4,0-2.5-1.1-2.5-2.5v-5c0-1.4,1.1-2.5,2.5-2.5s2.5,1.1,2.5,2.5v5C87,129.9,85.9,131,84.5,131z"/><path d="M158.8,107H97.2c-1.4,0-2.5-1.1-2.5-2.5v-7c0-3.9,3.2-7.1,7.1-7.1h52.4c3.9,0,7.1,3.2,7.1,7.1v7   C161.3,105.9,160.2,107,158.8,107z M99.7,102h56.6v-4.5c0-1.2-0.9-2.1-2.1-2.1h-52.4c-1.2,0-2.1,0.9-2.1,2.1V102z"/><path d="M151.7,84.5h-47.3c-5.1,0-9.3-4.2-9.3-9.3V55.8c0-5.1,4.2-9.3,9.3-9.3h47.3c5.1,0,9.3,4.2,9.3,9.3v19.3   C161,80.3,156.8,84.5,151.7,84.5z M104.3,51.5c-2.4,0-4.3,1.9-4.3,4.3v19.3c0,2.4,1.9,4.3,4.3,4.3h47.3c2.4,0,4.3-1.9,4.3-4.3V55.8   c0-2.4-1.9-4.3-4.3-4.3H104.3z"/><path d="M158.5,74h-61c-1.4,0-2.5-1.1-2.5-2.5v-12c0-1.4,1.1-2.5,2.5-2.5h61c1.4,0,2.5,1.1,2.5,2.5v12C161,72.9,159.9,74,158.5,74z    M100,69h56v-7h-56V69z"/></g></svg>