<?xml version="1.0" ?><svg data-name="Ebene 1" height="128" id="Ebene_1" viewBox="0 0 128 128" width="128" xmlns="http://www.w3.org/2000/svg"><defs><style>.cls-1{fill:#b9927f;}.cls-2{fill:#fecf70;}.cls-3{fill:#dbc8bd;}.cls-4{fill:#a77862;}.cls-5{fill:#575757;}.cls-6{fill:none;}</style></defs><title/><path class="cls-1" d="M75.59808,51a.986.986,0,0,1,.50415-.84949V36H73a1,1,0,0,1,0-2h3.10223V22H51.89771V34H55a1,1,0,0,1,0,2H51.89771V50.03448a.97674.97674,0,0,1,0,1.93109V63H76.10223V51.84955A.986.986,0,0,1,75.59808,51Zm-5.59766,2.27832a.96452.96452,0,0,1-1.29327-.26379,10.40571,10.40571,0,0,1-9.2337.02234.98841.98841,0,0,1-1.33386.32935A11.74843,11.74843,0,0,1,52.2851,43.05084a1,1,0,0,1,1-.9873h.40784a10.49269,10.49269,0,0,1,4.52039-7.1745l-.30463-.52759a1.00072,1.00072,0,0,1,.37982-1.37415,11.79268,11.79268,0,0,1,11.5708.08014,1.00058,1.00058,0,0,1,.36621,1.36615l-.2746.47552a10.49241,10.49241,0,0,1,4.49042,7.15442h.27246a1.0002,1.0002,0,0,1,1,.98389,11.6878,11.6878,0,0,1-5.71338,10.2309Z"/><path class="cls-2" d="M65.15674,46.9151a1.00013,1.00013,0,0,1,1.73236-1l2.93311,5.08051a9.69148,9.69148,0,0,0,3.85742-6.93207h-6.1084a1,1,0,0,1,0-2h6.87012a10.49241,10.49241,0,0,0-4.49042-7.15442l-3.21313,5.56458a1.00019,1.00019,0,0,1-1.73248-1l2.96149-5.12848a9.80443,9.80443,0,0,0-7.79108-.05762l2.95367,5.1153a1.00019,1.00019,0,0,1-1.73248,1L58.21332,34.889a10.49269,10.49269,0,0,0-4.52039,7.1745h6.73578a1,1,0,0,1,0,2h-6.106a9.74972,9.74972,0,0,0,3.97711,7.02539l2.9389-5.09082a1.00019,1.00019,0,0,1,1.73248,1L59.5058,53c-.00836.0144-.02332.02295-.03235.03687a10.40571,10.40571,0,0,0,9.2337-.02234A.98138.98138,0,0,1,68.623,52.919Z"/><path class="cls-1" d="M33.96484,65V77H37a1,1,0,0,1,0,2H33.96484V93.048a.97564.97564,0,0,1,0,1.904V106H58.16943V94.89484a.98636.98636,0,0,1,0-1.78961V79H55a1,1,0,0,1,0-2h3.16943V65ZM56.51611,85.06354h.19769a1.0002,1.0002,0,0,1,1,.98389,11.6878,11.6878,0,0,1-5.71338,10.2309A.99989.99989,0,0,1,50.623,95.919l-.17877-.30963a10.41418,10.41418,0,0,1-8.72186.01556L41.5058,96a1.0006,1.0006,0,0,1-1.36621.36621A11.74843,11.74843,0,0,1,34.2851,86.05084a1,1,0,0,1,1-.9873h.33307a10.48211,10.48211,0,0,1,4.3797-7.54761l-.08917-.15448a1.00072,1.00072,0,0,1,.37982-1.37415,11.79268,11.79268,0,0,1,11.5708.08014,1.00058,1.00058,0,0,1,.36621,1.36615l-.06012.10406A10.48091,10.48091,0,0,1,56.51611,85.06354Z"/><path class="cls-3" d="M31,79V93h2.727a.96251.96251,0,0,1,.23785.048V79Z"/><path class="cls-3" d="M33.96484,94.952A.96244.96244,0,0,1,33.727,95H31v8a.99775.99775,0,0,1-1.91016.406V106h4.875Z"/><rect class="cls-3" height="12" width="2.96484" x="31" y="65"/><path class="cls-3" d="M51.727,52H49V63h2.89771V51.96558A.94765.94765,0,0,1,51.727,52Z"/><path class="cls-3" d="M48,24a1.00013,1.00013,0,0,1,1,1v9h2.89771V22h-4.875v2.88751A.98953.98953,0,0,1,48,24Z"/><path class="cls-3" d="M49,36V50h2.727a.94776.94776,0,0,1,.17072.03448V36Z"/><path class="cls-4" d="M80,61a1,1,0,0,1-1-1V52H76.59808a.97217.97217,0,0,1-.49585-.15045V63h4.875V60.11273A.98943.98943,0,0,1,80,61Z"/><rect class="cls-4" height="12" width="2.89777" x="76.10223" y="22"/><path class="cls-4" d="M76.59808,50H79V36H76.10223V50.15051A.97222.97222,0,0,1,76.59808,50Z"/><path class="cls-2" d="M52.16541,77.53766l-3.42761,5.936a1.00019,1.00019,0,0,1-1.73248-1l2.96149-5.12848a9.80442,9.80442,0,0,0-7.79108-.05762l2.95367,5.1153a1.00019,1.00019,0,0,1-1.73248,1l-3.399-5.887a10.48211,10.48211,0,0,0-4.3797,7.54761h6.81055a1,1,0,0,1,0,2h-6.106a9.74972,9.74972,0,0,0,3.97711,7.02539l2.9389-5.09082a1.00019,1.00019,0,0,1,1.73248,1l-3.24884,5.62683a10.41418,10.41418,0,0,0,8.72186-.01556L47.15674,89.9151a1.00013,1.00013,0,0,1,1.73236-1l2.93311,5.08051a9.69148,9.69148,0,0,0,3.85742-6.93207h-6.1084a1,1,0,0,1,0-2h6.94489A10.48091,10.48091,0,0,0,52.16541,77.53766Z"/><path class="cls-1" d="M69.89771,77H73a1,1,0,0,1,0,2H69.89771V93.15051a.96787.96787,0,0,1,0,1.699V106H94.35223V95H94.2724a1,1,0,1,1,0-2h.07983V79H91a1,1,0,0,1,0-2h3.35223V65H69.89771Zm5.87671.43359a1.00072,1.00072,0,0,1,.36621-1.36615,11.79175,11.79175,0,0,1,11.57031-.08014,1.00081,1.00081,0,0,1,.37988,1.37415l-.08911.15442a10.48212,10.48212,0,0,1,4.37988,7.54767h.3327a.99981.99981,0,0,1,1,.9873A11.74517,11.74517,0,0,1,87.8598,96.36621a1.001,1.001,0,0,1-.5.13379.98928.98928,0,0,1-.25879-.03418A1,1,0,0,1,86.49359,96l-.21643-.37494a10.41439,10.41439,0,0,1-8.72156-.01562l-.17871.30957a1.00312,1.00312,0,0,1-.61328.46771,1.01468,1.01468,0,0,1-.25293.03229A1.00246,1.00246,0,0,1,76,96.27881a11.68573,11.68573,0,0,1-5.71387-10.23138,1.0002,1.0002,0,0,1,1-.98389h.19751a10.48086,10.48086,0,0,1,4.35083-7.52594Z"/><path class="cls-4" d="M94.35223,65V77H97V68a1,1,0,0,1,2,0V65Z"/><rect class="cls-4" height="14" width="2.64777" x="94.35223" y="79"/><rect class="cls-4" height="11" width="2.64777" x="94.35223" y="95"/><path class="cls-4" d="M58.59808,93H61V79H58.16943V93.10522A.981.981,0,0,1,58.59808,93Z"/><path class="cls-4" d="M58.16943,65V77H61V68a1,1,0,0,1,2,0l.04443-3Z"/><path class="cls-4" d="M61,106V95H58.59808a.981.981,0,0,1-.42865-.10516V106Z"/><rect class="cls-3" height="12" width="2.89771" x="67" y="65"/><path class="cls-3" d="M69.40179,95H67v8a1,1,0,0,1-1,1,.98938.98938,0,0,1-.97729-.88745V106h4.875V94.84955A.97221.97221,0,0,1,69.40179,95Z"/><path class="cls-3" d="M67,79V93h2.40179a.97226.97226,0,0,1,.49591.15051V79Z"/><path class="cls-2" d="M71.48364,85.06354h6.94507a1,1,0,0,1,0,2h-6.1084a9.68762,9.68762,0,0,0,3.85742,6.93207l2.93311-5.08051a1.00013,1.00013,0,0,1,1.73236,1l-3.2876,5.69434a10.41439,10.41439,0,0,0,8.72156.01563l-3.24835-5.627a1.00016,1.00016,0,0,1,1.73242-1l2.939,5.09082a9.74661,9.74661,0,0,0,3.9765-7.02539H85.5708a1,1,0,0,1,0-2h6.81079a10.48212,10.48212,0,0,0-4.37988-7.54767l-3.39868,5.887a1.00016,1.00016,0,0,1-1.73242-1l2.95313-5.1153a9.8055,9.8055,0,0,0-7.79053.05762l2.96088,5.12848a1.00013,1.00013,0,0,1-1.73236,1l-3.42725-5.9361A10.48086,10.48086,0,0,0,71.48364,85.06354Z"/><path class="cls-5" d="M76.10223,22H79V34H73a1,1,0,0,0,0,2h6V50H76.59808a.97222.97222,0,0,0-.49585.15051.96781.96781,0,0,0,0,1.699A.97217.97217,0,0,0,76.59808,52H79v8a1,1,0,0,0,1,1,.98943.98943,0,0,0,.97723-.88727A.93326.93326,0,0,0,81,60V52h1a1,1,0,0,0,0-2H81V36h1a1,1,0,0,0,0-2H81V22h1a1,1,0,0,0,0-2H46a1,1,0,0,0,0,2H76.10223Z"/><path class="cls-5" d="M62.76312,40.7691a1.00044,1.00044,0,0,0,.36627-1.36621l-2.95367-5.1153a9.80443,9.80443,0,0,1,7.79108.05762l-2.96149,5.12848a1.00019,1.00019,0,0,0,1.73248,1l3.21313-5.56458.2746-.47552a1.00058,1.00058,0,0,0-.36621-1.36615,11.79268,11.79268,0,0,0-11.5708-.08014,1.00072,1.00072,0,0,0-.37982,1.37415l.30463.52759,3.18359,5.51385A1.00105,1.00105,0,0,0,62.76312,40.7691Z"/><path class="cls-5" d="M62.97119,46.99811a1.00019,1.00019,0,0,0-1.73248-1l-2.9389,5.09082a9.74972,9.74972,0,0,1-3.97711-7.02539h6.106a1,1,0,0,0,0-2H53.2851a1,1,0,0,0-1,.9873,11.74843,11.74843,0,0,0,5.85449,10.31537.98535.98535,0,0,0,1.33386-.32935c.009-.01392.024-.02246.03235-.03687Z"/><path class="cls-5" d="M74.71381,42.06354H67.57123a1,1,0,0,0,0,2h6.1084a9.69148,9.69148,0,0,1-3.85742,6.93207L66.8891,45.9151a1.00013,1.00013,0,0,0-1.73236,1L68.623,52.919a.98138.98138,0,0,0,.08417.09552.99177.99177,0,0,0,.52966.37219,1.00026,1.00026,0,0,0,.76361-.1084,11.6878,11.6878,0,0,0,5.71338-10.2309A1.0002,1.0002,0,0,0,74.71381,42.06354Z"/><path class="cls-5" d="M30,104a1,1,0,0,0,1-1V95h2.727a.96244.96244,0,0,0,.23785-.048.97564.97564,0,0,0,0-1.904A.96251.96251,0,0,0,33.727,93H31V79h6a1,1,0,0,0,0-2H31V65H65v38a.93017.93017,0,0,0,.02271.11255A.98938.98938,0,0,0,66,104a1,1,0,0,0,1-1V95h2.40179a.97221.97221,0,0,0,.49591-.15045.96787.96787,0,0,0,0-1.699A.97226.97226,0,0,0,69.40179,93H67V79h6a1,1,0,0,0,0-2H67V65h33a1,1,0,0,0,0-2H49V52h2.727a.94765.94765,0,0,0,.17072-.03442.97674.97674,0,0,0,0-1.93109A.94776.94776,0,0,0,51.727,50H49V36h6a1,1,0,0,0,0-2H49V25a1.00013,1.00013,0,0,0-1-1,.98953.98953,0,0,0-.97729.88751A.92919.92919,0,0,0,47,25v9H46a1,1,0,0,0,0,2h1V50H46a1,1,0,0,0,0,2h1V63H28a1,1,0,0,0,0,2h1V77H28a1,1,0,0,0,0,2h1V93H28a1,1,0,0,0,0,2h1v8a1.01077,1.01077,0,0,0,1,1Z"/><path class="cls-5" d="M44.76312,83.7691a1.00044,1.00044,0,0,0,.36627-1.36621l-2.95367-5.1153a9.80442,9.80442,0,0,1,7.79108.05762l-2.96149,5.12848a1.00019,1.00019,0,0,0,1.73248,1l3.42761-5.936.06012-.10406a1.00058,1.00058,0,0,0-.36621-1.36615,11.79268,11.79268,0,0,0-11.5708-.08014,1.00072,1.00072,0,0,0-.37982,1.37415l.08917.15448,3.399,5.887A1.00081,1.00081,0,0,0,44.76312,83.7691Z"/><path class="cls-5" d="M44.60492,88.6319a.99879.99879,0,0,0-1.36621.36621l-2.9389,5.09082a9.74972,9.74972,0,0,1-3.97711-7.02539h6.106a1,1,0,0,0,0-2H35.2851a1,1,0,0,0-1,.9873,11.74843,11.74843,0,0,0,5.85449,10.31537A1.00078,1.00078,0,0,0,41.5058,96l.21655-.37506,3.24884-5.62683A1.00031,1.00031,0,0,0,44.60492,88.6319Z"/><path class="cls-5" d="M48.57123,86.06354a1.00009,1.00009,0,0,0,1,1h6.1084a9.69148,9.69148,0,0,1-3.85742,6.93207L48.8891,88.9151a1.00013,1.00013,0,0,0-1.73236,1l3.28748,5.69427.17877.30963a1,1,0,0,0,1.37744.35931,11.6878,11.6878,0,0,0,5.71338-10.2309,1.0002,1.0002,0,0,0-1-.98389H49.57123A1,1,0,0,0,48.57123,86.06354Z"/><path class="cls-5" d="M99,68a1,1,0,0,0-2,0v9H91a1,1,0,0,0,0,2h6V93H94.2724a1,1,0,1,0,0,2H97v11H63V68a1,1,0,0,0-2,0v9H55a1,1,0,0,0,0,2h6V93H58.59808a.981.981,0,0,0-.42865.10522.98636.98636,0,0,0,0,1.78961A.981.981,0,0,0,58.59808,95H61v11H28a1,1,0,0,0,0,2h72a1,1,0,0,0,0-2H99V95h1a1,1,0,0,0,0-2H99V79h1a1,1,0,0,0,0-2H99Z"/><path class="cls-5" d="M80.12891,83.97369a.99987.99987,0,0,0,.86517-1.5L78.0332,77.34521a9.8055,9.8055,0,0,1,7.79053-.05762l-2.95312,5.1153a1.00016,1.00016,0,0,0,1.73242,1l3.39868-5.887.08911-.15442a1.00081,1.00081,0,0,0-.37988-1.37415,11.79175,11.79175,0,0,0-11.57031.08014,1.00072,1.00072,0,0,0-.36621,1.36615l.06006.104,3.42725,5.9361A1,1,0,0,0,80.12891,83.97369Z"/><path class="cls-5" d="M84.5708,86.06354a1,1,0,0,0,1,1h6.1059a9.74661,9.74661,0,0,1-3.9765,7.02539l-2.939-5.09082a1.00016,1.00016,0,0,0-1.73242,1l3.24835,5.627L86.49359,96a1,1,0,0,0,.60742.46582A.98928.98928,0,0,0,87.3598,96.5a1.001,1.001,0,0,0,.5-.13379,11.74517,11.74517,0,0,0,5.85449-10.31537.99981.99981,0,0,0-1-.9873H85.5708A1,1,0,0,0,84.5708,86.06354Z"/><path class="cls-5" d="M80.477,88.549a.99977.99977,0,0,0-1.36615.36615l-2.93311,5.08051a9.68762,9.68762,0,0,1-3.85742-6.93207h6.1084a1,1,0,0,0,0-2H71.28613a1.0002,1.0002,0,0,0-1,.98389A11.68573,11.68573,0,0,0,76,96.27881a1.00246,1.00246,0,0,0,.51068.1402,1.01468,1.01468,0,0,0,.25293-.03229,1.00312,1.00312,0,0,0,.61328-.46771l.17871-.30957,3.2876-5.69434A1.0002,1.0002,0,0,0,80.477,88.549Z"/><rect class="cls-6" height="128" width="128"/></svg>