<?xml version="1.0" encoding="UTF-8"?>
<svg width="160px" height="36px" viewBox="0 0 176 40" version="1.1" xmlns="http://www.w3.org/2000/svg" xmlns:xlink="http://www.w3.org/1999/xlink">
    <!-- Generator: Sketch 61 (89581) - https://sketch.com -->
    <title>NEW Sears Logo 12-2019 - PO Header</title>
    <desc>Created with Sketch.</desc>
    <defs>
        <polygon id="path-1" points="0.26316577 0.461216018 2.33148105 0.461216018 2.33148105 2.72640011 0.26316577 2.72640011"></polygon>
        <polygon id="path-3" points="2.67451139 0.460943378 4.90088972 0.460943378 4.90088972 2.72640011 2.67451139 2.72640011"></polygon>
        <path d="M6.82213467,8.69312675 C5.70022103,9.9922564 0.103603204,16.6848871 0.103603204,20.8808168 L0.103603204,20.8808168 C0.103603204,24.2458762 1.73876167,29.5337292 2.23973769,31.0734636 L2.23973769,31.0734636 C4.37791697,37.6488591 5.67432023,38.8512015 7.4567043,38.8512015 L7.4567043,38.8512015 C7.86225631,38.8512015 17.4046567,38.7912207 17.4046567,33.5169997 L17.4046567,33.5169997 L17.4046567,24.6282538 C17.4046567,23.6603817 18.1107943,23.4572649 18.7017415,23.4572649 L18.7017415,23.4572649 C19.294052,23.4572649 20.0001896,23.6603817 20.0001896,24.6282538 L20.0001896,24.6282538 L20.0001896,33.5169997 C20.0001896,38.7912207 29.5419084,38.8512015 29.9474604,38.8512015 L29.9474604,38.8512015 C31.7230285,38.8512015 33.0167053,37.6488591 35.1589742,31.0755084 L35.1589742,31.0755084 C35.6613134,29.532366 37.3005615,24.2397418 37.3005615,20.8808168 L37.3005615,20.8808168 C37.3005615,15.5459334 25.560001,0.551414422 18.7017415,0.551414422 L18.7017415,0.551414422 C14.4840006,0.551414422 9.44833958,5.65250902 6.82213467,8.69312675 M5.0056706,20.8808168 C5.0056706,19.7963912 6.92641948,16.0721286 10.531402,11.8980101 L10.531402,11.8980101 C14.5862406,7.20314909 17.6950183,5.45280022 18.7017415,5.45280022 L18.7017415,5.45280022 C22.2228873,5.45280022 32.3991757,17.6561671 32.3991757,20.8808168 L32.3991757,20.8808168 C32.3991757,24.1211434 30.0762828,31.4013132 28.8391787,33.8871085 L28.8391787,33.8871085 C27.4303115,33.7494253 25.6547434,33.4004461 24.9015754,32.9935309 L24.9015754,32.9935309 L24.9015754,24.6282538 C24.9015754,21.1657256 22.2365193,18.5551975 18.7017415,18.5551975 L18.7017415,18.5551975 C15.1676454,18.5551975 12.5025893,21.1657256 12.5025893,24.6282538 L12.5025893,24.6282538 L12.5025893,32.9921677 C11.7480581,33.3997645 9.9697636,33.7501069 8.56021474,33.8877901 L8.56021474,33.8877901 C7.32583709,31.4129004 5.0056706,24.1313674 5.0056706,20.8808168" id="path-5"></path>
        <linearGradient x1="9.58383583%" y1="88.0182994%" x2="87.8159268%" y2="31.6154977%" id="linearGradient-7">
            <stop stop-color="#66FF99" offset="0%"></stop>
            <stop stop-color="#33FFFF" offset="100%"></stop>
        </linearGradient>
        <path d="M0,4.58801634 C62.327415,-0.716763067 103.879025,-0.716763067 124.65483,4.58801634 C145.430635,9.89279575 145.430635,20.5023546 124.65483,36.4166928 L0,36.4166928 L0,4.58801634 Z" id="path-8"></path>
    </defs>
    <g id="NEW-Sears-Logo---Moments" stroke="none" stroke-width="1" fill="none" fill-rule="evenodd">
        <g id="NEW-Product-Options-Header---1024" transform="translate(-16.000000, -21.000000)">
            <g id="NEW-Sears-Logo-12-2019---PO-Header" transform="translate(16.000000, 21.000000)">
                <g id="TradeMark" transform="translate(170.281593, 36.063140)">
                    <mask id="mask-2" fill="white">
                        <use xlink:href="#path-1"></use>
                    </mask>
                    <g id="Clip-12"></g>
                    <polygon id="Fill-11" fill="#66FF99" mask="url(#mask-2)" points="1.0718842 0.830188833 0.26316577 0.830188833 0.26316577 0.461216018 2.33148105 0.461216018 2.33148105 0.830188833 1.52378502 0.830188833 1.52378502 2.72685451 1.0718842 2.72685451"></polygon>
                    <mask id="mask-4" fill="white">
                        <use xlink:href="#path-3"></use>
                    </mask>
                    <g id="Clip-15"></g>
                    <polygon id="Fill-14" fill="#66FF99" mask="url(#mask-4)" points="2.67451139 0.460943378 3.0980122 0.460943378 3.78779143 1.53241862 4.47666186 0.460943378 4.90107148 0.460943378 4.90107148 2.72658187 4.50301706 2.72658187 4.50301706 1.1016474 3.78779143 2.16948745 3.77506823 2.16948745 3.0662042 1.108009 3.0662042 2.72658187 2.67451139 2.72658187"></polygon>
                </g>
                <g id="NEW-Sears-ICON-12-2019" transform="translate(134.556799, 0.193599)">
                    <mask id="mask-6" fill="white">
                        <use xlink:href="#path-5"></use>
                    </mask>
                    <g id="Clip-9"></g>
                    <path d="M6.82213467,8.69312675 C5.70022103,9.9922564 0.103603204,16.6848871 0.103603204,20.8808168 L0.103603204,20.8808168 C0.103603204,24.2458762 1.73876167,29.5337292 2.23973769,31.0734636 L2.23973769,31.0734636 C4.37791697,37.6488591 5.67432023,38.8512015 7.4567043,38.8512015 L7.4567043,38.8512015 C7.86225631,38.8512015 17.4046567,38.7912207 17.4046567,33.5169997 L17.4046567,33.5169997 L17.4046567,24.6282538 C17.4046567,23.6603817 18.1107943,23.4572649 18.7017415,23.4572649 L18.7017415,23.4572649 C19.294052,23.4572649 20.0001896,23.6603817 20.0001896,24.6282538 L20.0001896,24.6282538 L20.0001896,33.5169997 C20.0001896,38.7912207 29.5419084,38.8512015 29.9474604,38.8512015 L29.9474604,38.8512015 C31.7230285,38.8512015 33.0167053,37.6488591 35.1589742,31.0755084 L35.1589742,31.0755084 C35.6613134,29.532366 37.3005615,24.2397418 37.3005615,20.8808168 L37.3005615,20.8808168 C37.3005615,15.5459334 25.560001,0.551414422 18.7017415,0.551414422 L18.7017415,0.551414422 C14.4840006,0.551414422 9.44833958,5.65250902 6.82213467,8.69312675 M5.0056706,20.8808168 C5.0056706,19.7963912 6.92641948,16.0721286 10.531402,11.8980101 L10.531402,11.8980101 C14.5862406,7.20314909 17.6950183,5.45280022 18.7017415,5.45280022 L18.7017415,5.45280022 C22.2228873,5.45280022 32.3991757,17.6561671 32.3991757,20.8808168 L32.3991757,20.8808168 C32.3991757,24.1211434 30.0762828,31.4013132 28.8391787,33.8871085 L28.8391787,33.8871085 C27.4303115,33.7494253 25.6547434,33.4004461 24.9015754,32.9935309 L24.9015754,32.9935309 L24.9015754,24.6282538 C24.9015754,21.1657256 22.2365193,18.5551975 18.7017415,18.5551975 L18.7017415,18.5551975 C15.1676454,18.5551975 12.5025893,21.1657256 12.5025893,24.6282538 L12.5025893,24.6282538 L12.5025893,32.9921677 C11.7480581,33.3997645 9.9697636,33.7501069 8.56021474,33.8877901 L8.56021474,33.8877901 C7.32583709,31.4129004 5.0056706,24.1313674 5.0056706,20.8808168" id="Fill-8" fill="url(#linearGradient-7)" mask="url(#mask-6)"></path>
                </g>
                <g id="Sears-Word-Mark" transform="translate(0.281593, 1.646399)">
                    <mask id="mask-9" fill="white">
                        <use xlink:href="#path-8"></use>
                    </mask>
                    <g id="Clip-5"></g>
                    <path d="M75.2183799,19.8551754 C73.5382359,20.7507978 71.0197238,20.953233 68.3812501,21.1699818 C67.406562,21.2476842 66.3971124,21.3287946 65.4217428,21.4487562 C60.1672882,22.0942314 58.0236561,23.8548043 58.0236561,27.5286285 C58.0236561,30.9829774 60.7609618,33.2063567 65.0046035,33.2063567 C74.9021175,33.2063567 75.2149719,24.0463339 75.2183799,23.9495467 L75.2183799,19.8551754 Z M67.8366517,4.58801634 C74.8469079,4.58801634 78.7074905,7.52230446 78.7074905,12.8503719 L78.7074905,35.7357744 L75.2149719,35.7357744 L75.2149719,31.641403 C73.3787415,34.1421935 69.9857365,36.4166928 64.9453043,36.4166928 C58.2288177,36.4166928 54.5304559,33.2588399 54.5304559,27.5286285 C54.5304559,21.9054282 58.3433265,18.7782473 65.8641012,18.2500073 C75.272908,17.5295561 75.272908,17.178532 75.272908,12.8503719 C75.272908,11.7843494 74.0119479,7.79630767 67.8366517,7.79630767 C62.7498707,7.79630767 59.8094481,10.3270886 59.5490769,14.9299336 L59.5320369,15.2209768 L56.0463344,15.2209768 L56.0586032,14.9299336 C56.3544176,8.23866609 60.5346706,4.58801634 67.8366517,4.58801634 L67.8366517,4.58801634 Z M29.5361829,18.2486441 L49.4641229,18.2486441 C49.1015117,12.9553383 45.6546604,7.79630767 39.5045833,7.79630767 C33.7539239,7.79630767 30.210967,12.9512487 29.5361829,18.2486441 L29.5361829,18.2486441 Z M49.3427981,24.7081675 L52.8421327,24.7081675 L52.7603407,25.2370892 C51.549819,32.4749999 46.8488236,36.4166928 39.5045833,36.4166928 C31.2838054,36.4166928 25.9720964,30.3688558 25.9720964,21.0098058 C25.9720964,12.8387847 30.156439,4.58801634 39.5045833,4.58801634 C43.4571819,4.58801634 46.6695628,5.85374759 49.0531181,8.35249329 C51.8299566,11.2683782 53.2231471,15.6940072 52.9825423,20.816913 L52.9511887,21.4548906 L29.4632517,21.4548906 C29.5361829,25.1375756 30.742615,28.4249325 32.8235399,30.5331214 C34.5411719,32.2848334 36.855204,33.2063567 39.5045833,33.2063567 C44.6588427,33.2063567 48.3115373,30.172555 49.2780461,25.0816844 L49.3427981,24.7081675 L49.3427981,24.7081675 Z M82.9136443,35.7357744 L86.3993468,35.7357744 L86.3993468,19.1435849 C86.3993468,15.0137704 87.3556316,13.3642983 89.4883581,11.2233926 C91.8446494,8.86846451 94.5362879,8.5167589 95.9281152,8.5167589 C96.284592,8.5167589 96.6431136,8.5399333 97.0602528,8.5924165 L97.7336736,8.67420851 L97.7336736,5.12307236 L97.0909248,5.09785316 C96.90144,5.09103716 96.7051392,5.08762916 96.5156544,5.08762916 C92.3640286,5.08762916 88.4277885,7.04995564 86.3993468,9.90517815 L86.3993468,5.26893477 L82.9136443,5.26893477 L82.9136443,35.7357744 L82.9136443,35.7357744 Z M109.687575,36.4166928 C112.512807,36.4166928 121.743035,35.790984 121.743035,27.6969837 C121.743035,21.1495338 116.830062,19.6520585 110.896052,18.4872041 L110.261482,18.3577001 C105.875386,17.4702569 101.737392,16.6318888 101.737392,12.7385895 C101.737392,9.09202932 105.724752,7.79630767 109.457876,7.79630767 C113.052634,7.79630767 117.343988,8.97002292 117.405332,14.6225319 L117.414193,15.2209768 L120.893761,15.2209768 L120.893761,14.5516455 C120.893761,8.21958129 116.725095,4.58801634 109.457876,4.58801634 C106.831671,4.58801634 98.2496449,5.17555557 98.2496449,12.7385895 C98.2496449,19.0093097 103.249863,20.5395018 108.818535,21.6661866 L109.592833,21.8249994 C114.243389,22.7587915 118.25665,23.5726219 118.25665,27.6969837 C118.25665,32.8144367 111.697613,33.2063567 109.687575,33.2063567 C104.542858,33.2063567 101.020349,30.1200718 100.712947,25.2745772 L100.680912,24.7081675 L97.2170208,24.7081675 L97.2258816,25.392494 C97.3969632,32.1948622 102.173616,36.4166928 109.687575,36.4166928 L109.687575,36.4166928 Z M12.4695999,36.4166928 C4.95768596,36.4166928 0.185804167,32.1948622 0.0154041606,25.392494 L-0.000272640011,24.7081675 L3.4656635,24.7081675 L3.4970171,25.2745772 C3.80305551,30.1200718 7.32624605,33.2063567 12.4695999,33.2063567 C14.4810015,33.2063567 21.0441282,32.8144367 21.0441282,27.6969837 C21.0441282,23.5726219 17.0267776,22.7587915 12.3782655,21.8249994 L11.6026046,21.6661866 C6.0366588,20.5395018 1.036441,19.0093097 1.036441,12.7385895 C1.036441,5.17555557 9.61710374,4.58801634 12.2467166,4.58801634 C19.5132545,4.58801634 23.6778307,8.21958129 23.6778307,14.5516455 L23.6778307,15.2209768 L20.2003074,15.2209768 L20.1934914,14.6225319 C20.1307842,8.97002292 15.8360224,7.79630767 12.2467166,7.79630767 C8.5129117,7.79630767 4.52418834,9.09202932 4.52418834,12.7385895 C4.52418834,16.6318888 8.6628637,17.4702569 13.0455519,18.3577001 L13.6835295,18.4872041 C19.6148129,19.6520585 24.5311939,21.1495338 24.5311939,27.6969837 C24.5311939,35.790984 15.3023296,36.4166928 12.4695999,36.4166928 L12.4695999,36.4166928 Z" id="Fill-4" fill="#FFFFFF" mask="url(#mask-9)"></path>
                </g>
            </g>
        </g>
    </g>
</svg>
