<?xml version="1.0" ?><svg data-name="Layer 1" id="Layer_1" viewBox="0 0 64 64" xmlns="http://www.w3.org/2000/svg"><defs><style>.cls-1{fill:#d9d9d9;}.cls-2{fill:#d2ebf7;}.cls-3{fill:#f7d797;}</style></defs><polygon class="cls-1" points="18 57 46 57 41 51 23 51 18 57"/><path class="cls-1" d="M57,3H7A4,4,0,0,0,3,7V47a4,4,0,0,0,4,4H57a4,4,0,0,0,4-4V7A4,4,0,0,0,57,3Z"/><polygon class="cls-1" points="8 57 3 61 61 61 56 57 8 57"/><rect class="cls-2" height="8" width="50" x="7" y="7"/><rect class="cls-3" height="32" width="50" x="7" y="15"/><path d="M57,2H7A5.006,5.006,0,0,0,2,7V47a5.006,5.006,0,0,0,5,5H20.865l-3.333,4H8a1,1,0,0,0-.625.219l-5,4A1,1,0,0,0,3,62H61a1,1,0,0,0,.625-1.781l-5-4A1,1,0,0,0,56,56H46.468l-3.333-4H57a5.006,5.006,0,0,0,5-5V7A5.006,5.006,0,0,0,57,2Zm1.149,58H5.851l2.5-2h47.3ZM43.865,56H20.135l3.333-4H40.532ZM60,47a3,3,0,0,1-3,3H7a3,3,0,0,1-3-3V7A3,3,0,0,1,7,4H57a3,3,0,0,1,3,3Z"/><path d="M57,6H7A1,1,0,0,0,6,7V47a1,1,0,0,0,1,1H57a1,1,0,0,0,1-1V7A1,1,0,0,0,57,6ZM56,8v6H8V8ZM24.219,40.213a9.868,9.868,0,0,0,1.347-8.766l-.495-1.516a6.89,6.89,0,0,0,6.43-2.614,6.986,6.986,0,0,0,7.581,2.367L38.5,31.4a9.858,9.858,0,0,0,1.312,8.867A7.815,7.815,0,0,1,41.178,46H22.822A7.862,7.862,0,0,1,24.219,40.213ZM43.2,46a9.809,9.809,0,0,0-1.753-6.9A7.85,7.85,0,0,1,40.4,32.036l1.31-3.871A6.965,6.965,0,0,0,43.056,19.5l-1.73,1a5,5,0,1,1-8.651,0l-1.732-1a6.933,6.933,0,0,0-.53,5.848A5,5,0,1,1,21.675,20.5l-1.732-1a6.986,6.986,0,0,0,2.779,9.682l.943,2.886A7.891,7.891,0,0,1,22.557,39.1,9.81,9.81,0,0,0,20.808,46H8V16H56V46Z"/><rect height="2" width="2" x="10" y="10"/><rect height="2" width="2" x="14" y="10"/><rect height="2" width="2" x="18" y="10"/><rect height="2" width="2" x="52" y="10"/><rect height="2" width="2" x="31" y="37"/></svg>