<?xml version="1.0" ?><svg id="Flat" viewBox="0 0 340 340" xmlns="http://www.w3.org/2000/svg"><path d="M145.652,109.136a37.538,37.538,0,0,0,16.639,18.543,10.959,10.959,0,0,1,5.687,9.981,31.309,31.309,0,0,0,6.187,19.742,10.968,10.968,0,0,1,2.095,8.366c-1.239,7.624-2.275,23.028,5.767,37.028l22.261,5.617s7.156-19.56-3.276-43.106a11.14,11.14,0,0,1-.906-5.453,44.035,44.035,0,0,0-11.237-32.99,11.378,11.378,0,0,1-2.466-4.412c-2.273-7.8-11-31.208-33.885-31.208Z" style="fill:#ffa0b6"/><path d="M185,168.211a15.692,15.692,0,0,0,9.12-3.843,1.061,1.061,0,0,0-.822-1.854,24.313,24.313,0,0,1-4.016.178,4.5,4.5,0,0,1-4.166-3.556,14.054,14.054,0,0,0-3.379-6.441,25.926,25.926,0,0,1-6.473-15.19,15.976,15.976,0,0,0,8.99-7.53,1.061,1.061,0,0,0-1.418-1.45,23.752,23.752,0,0,1-4.717,1.87,3.569,3.569,0,0,1-4.215-2.151,14.148,14.148,0,0,0-5.57-6.6,15.655,15.655,0,0,1-3.45-2.919,8.38,8.38,0,0,1-1.651-8.231,27.827,27.827,0,0,0,.235-17.216,29.558,29.558,0,0,0-10.949-2.03l-6.866,17.892a37.538,37.538,0,0,0,16.639,18.543,10.961,10.961,0,0,1,5.687,9.981,31.309,31.309,0,0,0,6.187,19.742,10.968,10.968,0,0,1,2.095,8.366c-1.238,7.624-2.275,23.028,5.767,37.028l22.261,5.617a52.867,52.867,0,0,0,2.389-16.4C187.4,189.885,184.375,177.6,185,168.211Z" style="fill:#e86480"/><path d="M10,213.072s13.95-12.367,37.08-19.523c26.848-8.307,56.137-5.018,79.768,10.195q.93.6,1.859,1.228s41.6-19.623,85.638,2.319a59.392,59.392,0,0,0,19.524,5.9,78.817,78.817,0,0,0,19.962-.116c-45.621,44.04-94.067,63.595-180.437,66.784H10Z" style="fill:#a8858c"/><path d="M253.831,213.072a78.817,78.817,0,0,1-19.962.116,57.846,57.846,0,0,1-11.555-2.608q-5.851,4.321-11.355,9.265a22.874,22.874,0,0,1-11.782,5.577c-12.121,1.887-31.573,7.516-45.109,24.255a9.859,9.859,0,0,1-4.329,3.173l-.258.09a63.155,63.155,0,0,1-20.748,3.424c-1.969,0-3.972-.088-5.953-.261-3.945-.345-7.883-.52-11.7-.52-23.684,0-44.895,9.1-51.875,24.273H73.394C159.764,276.666,208.21,257.112,253.831,213.072Z" style="fill:#72505a"/><path d="M35.76,250.35s8.129-9.25,28.03-9.25a22.785,22.785,0,0,0,2.69-18.441,10.883,10.883,0,0,1,.337-6.856c1.754-4.669,3.781-13.926-.35-26.687a11.064,11.064,0,0,1,.885-8.721c1.933-3.521,3.967-9.466,2.633-17.753a11.137,11.137,0,0,1,1.924-8.318c2.3-3.16,5.078-8.217,5.138-14.242a11.012,11.012,0,0,1,4.475-8.578c4.995-3.8,12.243-10.8,15.062-21.02h5.325s1.682-23.825-12.893-21.863c0,0-21.016-.1-28.2,24.53a10.934,10.934,0,0,1-3.495,5.408c-3.463,2.848-9.253,9.488-9.815,22.335a11.4,11.4,0,0,1-3.064,7.228c-3.928,4.249-9.567,14.262-3.919,34.028a37.588,37.588,0,0,0-3.52,30.354,11.087,11.087,0,0,1-.7,8.118C33.92,225.562,31.17,235.393,35.76,250.35Z" style="fill:#ffa0b6"/><path d="M330,194.083s-66.3-14.982-119.811,40.4c0,0-30.523-.553-48.346,21.486a19.8,19.8,0,0,1-8.791,6.32l-.284.1a74.353,74.353,0,0,1-30.859,3.681c-12.5-1.093-40.382-1.657-48.515,13.791H330Z" style="fill:#a8858c"/><path d="M231.406,87.618c3.02,7.456,11.111,15.74,32.16,15.74,0,0-3.816,10.087,4.165,20.652a10.292,10.292,0,0,1,1.8,9.054c-1.263,4.321-1.782,11.179,3.2,18.912a10.321,10.321,0,0,1,1.289,8.187c-1.388,5.3-2.674,14.474,1.595,22.962a10.338,10.338,0,0,1,.615,7.914,38.829,38.829,0,0,0,1.729,28.186s-10.994,12.282-2.064,30.14c0,0,16.374-8.367,32.251-6.35,0,0,3.078-9.761-2.449-24.492,0,0,4.967-9.935-.571-26.886a10.3,10.3,0,0,1,.044-6.379c1.544-4.76,3.374-14.6-2.148-26.276a10.227,10.227,0,0,1-.788-6.174c.9-5.015,1.63-15.138-4.109-24.918a10.051,10.051,0,0,1-1.447-5.285c.258-12.613-1.187-62.458-40.137-62.434,0,0-10.645-.709-18.819,5.06A18.645,18.645,0,0,0,231.406,87.618Z" style="fill:#ffa0b6"/><circle cx="253.634" cy="79.187" r="3.899" style="fill:#e86480"/><path d="M89.016,88.621a26.2,26.2,0,0,0-7.724,1.5,35.332,35.332,0,0,0,2.628,18.993A8.161,8.161,0,0,1,82.7,117.5c-1.914,2.3-4.28,6.953-9.1,7.367-3.251.278-7.094-3.057-8.652-4.769a1.059,1.059,0,0,0-1.824.878A19.033,19.033,0,0,0,69.4,132.764c-.014,5.121,1.171,16.43-6.956,19.01-3.581,1.137-7.959-.98-9.941-2.322a1.059,1.059,0,0,0-1.566,1.283,19.2,19.2,0,0,0,10,10.543c.7,4.909,1.272,15.716-4.191,20.288-2.6,2.176-8.011,2.227-9.966,1.628a1.059,1.059,0,0,0-1.121,1.686,18.959,18.959,0,0,0,10.818,6.807c2.418,10.613,2.1,27.18-21.3,31.671-1.941,5.466-3.278,14.408.584,26.992,0,0,8.129-9.25,28.03-9.25a22.784,22.784,0,0,0,2.7-18.4,10.948,10.948,0,0,1,.318-6.883c1.755-4.664,3.792-13.927-.343-26.7a11.059,11.059,0,0,1,.883-8.721c1.918-3.493,3.937-9.374,2.665-17.561a11.559,11.559,0,0,1,1.938-8.574,25.159,25.159,0,0,0,5.093-14.18,11.012,11.012,0,0,1,4.475-8.578c4.995-3.8,12.243-10.8,15.062-21.02h5.325S103.591,86.659,89.016,88.621Z" style="fill:#e86480"/><path d="M305.7,218.522s1.843-3.7,2.029-10.421c-7.851.274-12.624-1.9-15.5-4.892a5.039,5.039,0,0,1,1.621-8.112,21.606,21.606,0,0,0,7.179-4.9,1.48,1.48,0,0,0-1.346-2.487c-3.048.638-10.877,1.391-13.23-2.941-4.872-8.971-3.638-17.845-2.239-23.644a21.962,21.962,0,0,0,13.661-3.286,1.48,1.48,0,0,0-.725-2.734c-3.247-.1-11.316-1.171-13.752-5.268-3.783-6.363-5.041-11.775-4.346-16.336A22.381,22.381,0,0,0,294,126.13a1.479,1.479,0,0,0-1.459-2.422c-3.491.9-12.215,1.984-15.88-1.448a14.513,14.513,0,0,1-4.267-10.435A21.947,21.947,0,0,0,282.9,101.267a1.857,1.857,0,0,0-2.642-2.35c-7.435,4.3-16.7,4.441-16.7,4.441a21.126,21.126,0,0,0-.287,11.368c.006.024,0,.048.01.071a24.892,24.892,0,0,0,4.44,9.211,10.463,10.463,0,0,1,1.762,9.193c-1.233,4.329-1.69,11.123,3.243,18.775a10.321,10.321,0,0,1,1.289,8.187c-1.386,5.3-2.672,14.46,1.585,22.942a10.355,10.355,0,0,1,.63,7.921,38.824,38.824,0,0,0,1.724,28.2s-10.994,12.282-2.065,30.14c0,0,16.375-8.367,32.252-6.35C308.149,243.015,311.227,233.254,305.7,218.522Z" style="fill:#e86480"/><path d="M95.953,110.252a8.241,8.241,0,0,0,10.018,2.846,51.813,51.813,0,0,1,19.125-3.756c7.487,0,12.441,2.153,15.369,4.553,3.02,2.476,6.66,2.714,9.164-.284,2.119-2.538,4.937-5.214,6.3-9.665a31.951,31.951,0,0,0,1.372-9.264A16.792,16.792,0,0,0,148.92,80.1c-5.891-3.421-15.41-7.165-28.858-7.165-17.483,0-26.251,6.535-29.895,10.376a9.214,9.214,0,0,0-2.5,6.127,30.806,30.806,0,0,0,2.1,11.665S93.165,106.7,95.953,110.252Z" style="fill:#ffa0b6"/><path d="M150.194,114.47a29.957,29.957,0,0,0,5.734-10.525c-6.087,2.885-12.491.406-12.491.406-18.341-8.03-32.279-3.5-36.377-1.8a22.982,22.982,0,0,1-4.993,1.5c-5.863,1-9.758-.69-12.3-2.957A38.68,38.68,0,0,0,95.5,111.158a9.261,9.261,0,0,0,10.81,2.859,49.831,49.831,0,0,1,18.744-3.632c7.594,0,12.439,2.5,15.354,4.936A6.985,6.985,0,0,0,150.194,114.47Z" style="fill:#e86480"/><circle cx="128.859" cy="225.082" r="3.899" style="fill:#72505a"/><circle cx="144.275" cy="235.03" r="3.899" style="fill:#72505a"/><circle cx="157.988" cy="217.284" r="3.899" style="fill:#72505a"/><circle cx="188.709" cy="255.763" r="3.899" style="fill:#72505a"/><circle cx="207.172" cy="250.116" r="3.899" style="fill:#72505a"/><circle cx="202.783" cy="264.681" r="3.899" style="fill:#72505a"/><circle cx="42.602" cy="266.039" r="3.899" style="fill:#72505a"/><circle cx="86.368" cy="211.545" r="3.899" style="fill:#72505a"/><circle cx="303.857" cy="264.681" r="3.899" style="fill:#72505a"/><path d="M24.869,260.74a3.5,3.5,0,0,1-.861-6.893c1.714-.436,4.74-2.307,8.093-5,.608-.488,1.192-1,1.775-1.517,2.068-1.83,7.941-6.324,17.791-8.52a39.488,39.488,0,0,1,22.545,1.471q.615.231,1.207.48a23.691,23.691,0,0,0,10.828,2.009,19.723,19.723,0,0,0,5.982-1.27,3.5,3.5,0,1,1,2.6,6.5,26.7,26.7,0,0,1-8.109,1.755A30.633,30.633,0,0,1,72.7,247.207q-.466-.2-.952-.379a32.531,32.531,0,0,0-18.56-1.191,33.54,33.54,0,0,0-14.676,6.93c-.665.589-1.335,1.173-2.027,1.73-2.982,2.4-7.27,5.447-10.751,6.333A3.505,3.505,0,0,1,24.869,260.74Z" style="fill:#72505a"/><path d="M235.837,259.951a3.5,3.5,0,0,1-2.643-5.792c5.625-6.491,14.023-8.784,23.647-6.46a23.594,23.594,0,0,0,13.894-.892c2.149-.807,3.646-1.516,3.661-1.522.773-.357,18.293-8.333,34.119-6.67a54.612,54.612,0,0,1,13.029,3,3.5,3.5,0,1,1-2.455,6.556,48.2,48.2,0,0,0-11.235-2.586c-14-1.476-30.328,5.965-30.491,6.041-.033.016-1.722.816-4.165,1.734a30.568,30.568,0,0,1-18,1.145c-4.919-1.189-11.81-1.419-16.714,4.24A3.49,3.49,0,0,1,235.837,259.951Z" style="fill:#72505a"/></svg>