<?xml version="1.0" ?><svg data-name="Layer 1" id="Layer_1" viewBox="0 0 128 128" xmlns="http://www.w3.org/2000/svg"><title/><g><path d="M47.288,103.14136c7.381,0,14.273,1.34558,19.40649,3.78888,4.35974,2.075,6.86017,4.67688,6.86017,7.13849s-2.50043,5.06348-6.86017,7.13843C61.561,123.65045,54.669,124.996,47.288,124.996s-14.27307-1.34558-19.40649-3.78888c-4.35974-2.075-6.86017-4.67682-6.86017-7.13843s2.50043-5.06348,6.86017-7.13849c5.13348-2.4433,12.02551-3.78888,19.40649-3.78888m0-3.004c-16.16577,0-29.27069,6.2373-29.27069,13.93134S31.12225,128,47.288,128s29.27069-6.23724,29.27069-13.93127-13.105-13.93134-29.27069-13.93134Z" style="fill: #5f6252"/><polygon points="47.288 104.397 53.174 110.47 67.128 111.258 56.811 115.799 59.55 122.358 47.288 119.092 35.026 122.358 37.765 115.799 27.448 111.258 41.402 110.47 47.288 104.397" style="fill: #5f6252"/><path d="M26.27559,83.55857H83.39641a0,0,0,0,1,0,0v5.50406a1.41622,1.41622,0,0,1-1.41622,1.41622H27.69181a1.41622,1.41622,0,0,1-1.41622-1.41622V83.55857a0,0,0,0,1,0,0Z" style="fill: #c26558" transform="translate(44.01382 -15.26581) rotate(26.17794)"/><path d="M79.68988,72.38905l-.00107-.00053c-3.15166-1.5493-4.73763-4.77636-3.54236-7.20783l1.56465-3.18288L62.46078,54.49813,60.895,57.68334c-1.19527,2.43147-4.71915,3.14661-7.87082,1.59731l-.81885-.40253a1.2059,1.2059,0,0,0-1.6433.33349l-1.75061,3.56118L50.05675,64.385l26.5,13.10109,2.1221-.031,1.75061-3.56118A1.2059,1.2059,0,0,0,79.68988,72.38905Z" style="fill: #d7b18f"/><path d="M108.572,27.22772c4.2453-8.636-1.41647-20.05137-12.61642-25.03352C85.972-2.24687,74.79982.25719,70.61638,7.86636A14.08551,14.08551,0,0,0,69.051,16.60281,59.279,59.279,0,0,1,63.77839,50.7851l-.11828.24061,15.25146,7.49735.11663-.23725c5.14142-10.45892,13.76928-18.80967,24.23916-25.29A14.07254,14.07254,0,0,0,108.572,27.22772Z" style="fill: #d7b18f"/><rect height="7.87499" rx="2.64606" ry="2.64606" style="fill: #c59e78" transform="translate(31.86368 -25.51338) rotate(26.17794)" width="22.6595" x="59.46855" y="51.82858"/><path d="M32.18278,69.23762H87.76937a5.66488,5.66488,0,0,1,5.66488,5.66488V84.90844A1.41622,1.41622,0,0,1,92.018,86.32466H27.93412a1.41622,1.41622,0,0,1-1.41622-1.41622V74.9025A5.66488,5.66488,0,0,1,32.18278,69.23762Z" style="fill: #c59e78" transform="translate(40.4658 -18.48092) rotate(26.17794)"/></g></svg>