<?xml version="1.0" ?><!DOCTYPE svg  PUBLIC '-//W3C//DTD SVG 1.1//EN'  'http://www.w3.org/Graphics/SVG/1.1/DTD/svg11.dtd'><svg enable-background="new 0 0 64 64" id="Layer_1" version="1.1" viewBox="0 0 64 64" xml:space="preserve" xmlns="http://www.w3.org/2000/svg" xmlns:xlink="http://www.w3.org/1999/xlink"><g><rect fill="#515E27" height="20.8" width="16.8" x="23.4" y="27.5"/><rect fill="#C6BF66" height="5.7" width="8.2" x="8.5" y="42.7"/><rect fill="#C6BF66" height="5.7" width="8.2" x="8.5" y="27.5"/><rect fill="#C6BF66" height="5.7" width="8.2" x="47.3" y="27.5"/><rect fill="#C6BF66" height="5.7" width="8.2" x="47.3" y="42.7"/><path d="M45.3,49.3v-7.7c0-0.6,0.4-1,1-1h4.1v-5.5h-4.1c-0.6,0-1-0.4-1-1v-7.7c0-0.6,0.4-1,1-1h4.1V8.7h-5.9   c0,0.1,0,0.2,0,0.3c0,6.9-5.6,12.5-12.5,12.5c-6.9,0-12.5-5.6-12.5-12.5c0-0.1,0-0.2,0-0.3h-5.9v16.8h4.1c0.6,0,1,0.4,1,1v7.7   c0,0.6-0.4,1-1,1h-4.1v5.5h4.1c0.6,0,1,0.4,1,1v7.7c0,0.6-0.4,1-1,1h-4.1v5h36.8v-5h-4.1C45.8,50.3,45.3,49.9,45.3,49.3z    M42.1,48.3c0,1.1-0.9,2-2,2H23.4c-1.1,0-2-0.9-2-2V27.5c0-1.1,0.9-2,2-2h16.8c1.1,0,2,0.9,2,2V48.3z" fill="#798C49"/><path d="M56.5,25.5h-4.1V8.7c0-1.1-0.9-2-2-2h-7c-0.3,0-0.6,0.1-0.7,0.3c-0.2,0.2-0.3,0.5-0.2,0.8   c0.1,0.5,0.1,0.9,0.1,1.2c0,5.8-4.7,10.5-10.5,10.5c-5.8,0-10.5-4.7-10.5-10.5c0-0.4,0-0.8,0.1-1.2c0-0.3-0.1-0.6-0.2-0.8   c-0.2-0.2-0.5-0.3-0.7-0.3h-7c-1.1,0-2,0.9-2,2v16.8H7.5c-0.6,0-1,0.4-1,1v7.7c0,0.6,0.4,1,1,1h4.1v5.5H7.5c-0.6,0-1,0.4-1,1v7.7   c0,0.6,0.4,1,1,1h4.1v5c0,1.1,0.9,2,2,2h36.8c1.1,0,2-0.9,2-2v-5h4.1c0.6,0,1-0.4,1-1v-7.7c0-0.6-0.4-1-1-1h-4.1v-5.5h4.1   c0.6,0,1-0.4,1-1v-7.7C57.5,25.9,57.1,25.5,56.5,25.5z M8.5,33.2v-5.7h8.2v5.7H8.5z M8.5,48.3v-5.7h8.2v5.7H8.5z M50.4,55.3H13.6   v-5h4.1c0.6,0,1-0.4,1-1v-7.7c0-0.6-0.4-1-1-1h-4.1v-5.5h4.1c0.6,0,1-0.4,1-1v-7.7c0-0.6-0.4-1-1-1h-4.1V8.7h5.9c0,0.1,0,0.2,0,0.3   c0,6.9,5.6,12.5,12.5,12.5c6.9,0,12.5-5.6,12.5-12.5c0-0.1,0-0.2,0-0.3h5.9v16.8h-4.1c-0.6,0-1,0.4-1,1v7.7c0,0.6,0.4,1,1,1h4.1   v5.5h-4.1c-0.6,0-1,0.4-1,1v7.7c0,0.6,0.4,1,1,1h4.1V55.3z M55.5,42.7v5.7h-8.2v-5.7H55.5z M55.5,33.2h-8.2v-5.7h8.2V33.2z" fill="#1F2310"/><path d="M40.1,25.5H23.4c-1.1,0-2,0.9-2,2v20.8c0,1.1,0.9,2,2,2h16.8c1.1,0,2-0.9,2-2V27.5   C42.1,26.4,41.2,25.5,40.1,25.5z M40.1,48.3H23.4V27.5h16.8V48.3z" fill="#1F2310"/></g></svg>