<?xml version="1.0" ?><svg id="Layer_1" style="enable-background:new 0 0 74 74;" version="1.1" viewBox="0 0 74 74" xml:space="preserve" xmlns="http://www.w3.org/2000/svg" xmlns:xlink="http://www.w3.org/1999/xlink"><style type="text/css">
	.st0{fill:#573421;}
	.st1{fill:#EFBB6A;}
	.st2{fill:#F1CA7F;}
	.st3{fill:#522112;}
	.st4{fill:#564642;}
	.st5{fill:#253035;}
	.st6{fill:#471E15;}
	.st7{fill:#633325;}
	.st8{fill:#BAC2C5;}
	.st9{fill:#34505E;}
	.st10{fill:#DC9D36;}
	.st11{fill:#884D13;}
	.st12{fill:#9B6900;}
	.st13{fill:#CC9F00;}
	.st14{fill:#BF7B00;}
	.st15{fill:#BA741C;}
	.st16{fill:#582F0F;}
	.st17{fill:#C0760B;}
	.st18{fill:#CDD8DE;}
	.st19{fill:#F2CD58;}
	.st20{fill:#BA4124;}
	.st21{fill:#562B00;}
	.st22{fill:#0D2D44;}
	.st23{fill:#576835;}
	.st24{fill:#4E3233;}
	.st25{fill:#1A84AB;}
	.st26{fill:#658C15;}
	.st27{fill:#262B25;}
	.st28{fill:#88866D;}
	.st29{fill:#B2B09A;}
	.st30{fill:#1BB4D4;}
	.st31{fill:none;}
	.st32{fill:#D1D6D9;}
	.st33{fill:#070707;}
	.st34{fill:#383F27;}
	.st35{fill:#636D4A;}
	.st36{fill:#F3D014;}
	.st37{fill:#A1A7A8;}
	.st38{fill:#383519;}
	.st39{fill:#65663C;}
	.st40{fill:#BE762A;}
	.st41{fill:#0B4060;}
	.st42{fill:#101C21;}
	.st43{fill:#C97829;}
	.st44{fill:#A34A00;}
	.st45{fill:#9B581B;}
	.st46{fill:#C6762D;}
	.st47{fill:#0071CE;}
	.st48{fill:#FFC843;}
	.st49{fill:#FF6361;}
	.st50{fill:#B0631B;}
	.st51{fill:#C7CFD1;}
	.st52{fill:#9A9D9E;}
	.st53{fill:#B8BCBC;}
	.st54{fill:#4B0060;}
	.st55{fill:#8000A3;}
	.st56{fill:#B8BBBC;}
	.st57{fill:#666D3A;}
	.st58{fill:#E55137;}
	.st59{fill:#341C1C;}
	.st60{fill:#B4B4B4;}
	.st61{fill:#333333;}
	.st62{fill:#5B4B4B;}
	.st63{fill:#FFE67D;}
	.st64{fill:#121413;}
	.st65{fill:#25292C;}
	.st66{fill:#000102;}
	.st67{fill:#35322B;}
	.st68{fill:#323838;}
	.st69{fill:#3E4744;}
</style><g><path class="st11" d="M27.96,38.43c0,0-6.67,8.06-9.5,8.7S6.08,60.74,6.08,60.74c1.03,3.55,9.69,9.73,12.25,7.94   c-0.01-5.53,1.78-9.92,7.08-12.07c0,0,4.42-9.95,12.35-8.36L27.96,38.43z"/><path class="st18" d="M67.92,5c-0.15,9.83-6.07,17.83-12.01,23.78l-18.8,18.8l-2.5-2.5l2.49-2.49c0.81-0.82,1.25-1.96,1.25-3.22   c0-0.12,0-0.25-0.01-0.38c-0.1-1.41,0.35-2.69,1.25-3.59l7.81-7.82c5.63-5.62,10.66-9.05,13.55-16.66   C63.47,8.94,65.81,6.97,67.92,5z"/><path class="st8" d="M60.95,10.92c-2.89,7.61-7.92,11.04-13.55,16.66l-7.81,7.82c-0.9,0.9-1.35,2.18-1.25,3.59   c0.01,0.13,0.01,0.26,0.01,0.38c0,1.26-0.44,2.4-1.25,3.22l-2.49,2.49l-5.98-5.98l17.94-17.94C51.75,17.74,56.62,14.32,60.95,10.92   z"/><path class="st50" d="M39.52,52.72c-0.04-1.01-0.44-1.91-0.98-2.67c-0.52-0.79-1.21-1.35-1.97-2.03c-1.48-1.32-2.88-2.7-4.28-4.1   c-1.37-1.42-2.74-2.85-4.03-4.36c-0.32-0.38-0.65-0.73-0.98-1.17c-0.31-0.43-0.58-0.89-0.79-1.38c-0.4-0.97-0.61-2.08-0.29-3.06   c0.04,1.01,0.44,1.91,0.98,2.67c0.52,0.79,1.21,1.35,1.97,2.03c1.47,1.32,2.88,2.7,4.28,4.1c1.37,1.42,2.73,2.86,4.03,4.36   c0.32,0.38,0.65,0.73,0.98,1.17c0.31,0.43,0.58,0.89,0.79,1.38C39.64,50.63,39.84,51.74,39.52,52.72z"/></g></svg>