<?xml version="1.0" ?><svg viewBox="0 0 64 64" xmlns="http://www.w3.org/2000/svg"><g data-name="filled outline" id="filled_outline"><path d="M52.679,21a30.318,30.318,0,0,0-20.34,7.836L20,40V33H3v9A10,10,0,0,0,13,52h1.459a12,12,0,0,0,9.134-4.218L33.922,35.657A30.318,30.318,0,0,1,57,25V21Z" style="fill:#985713"/><rect height="8" rx="2" ry="2" style="fill:#787d82" width="4" x="57" y="19"/><path d="M5,29H18a2,2,0,0,1,2,2v2a0,0,0,0,1,0,0H3a0,0,0,0,1,0,0V31A2,2,0,0,1,5,29Z" style="fill:#834b10"/><path d="M12,26a1,1,0,0,1-1-1,5.192,5.192,0,0,0-.868-3A7.1,7.1,0,0,1,9,18a7.1,7.1,0,0,1,1.132-4A5.192,5.192,0,0,0,11,11a1,1,0,0,1,2,0,7.1,7.1,0,0,1-1.132,4A5.192,5.192,0,0,0,11,18a5.192,5.192,0,0,0,.868,3A7.1,7.1,0,0,1,13,25,1,1,0,0,1,12,26Z" style="fill:#ebebeb"/><path d="M7,26a1,1,0,0,1-1-1,5.192,5.192,0,0,0-.868-3A7.1,7.1,0,0,1,4,18a7.1,7.1,0,0,1,1.132-4A5.192,5.192,0,0,0,6,11a1,1,0,0,1,2,0,7.1,7.1,0,0,1-1.132,4A5.192,5.192,0,0,0,6,18a5.192,5.192,0,0,0,.868,3A7.1,7.1,0,0,1,8,25,1,1,0,0,1,7,26Z" style="fill:#ebebeb"/><path d="M17,26a1,1,0,0,1-1-1,5.192,5.192,0,0,0-.868-3A7.1,7.1,0,0,1,14,18a7.1,7.1,0,0,1,1.132-4A5.192,5.192,0,0,0,16,11a1,1,0,0,1,2,0,7.1,7.1,0,0,1-1.132,4A5.192,5.192,0,0,0,16,18a5.192,5.192,0,0,0,.868,3A7.1,7.1,0,0,1,18,25,1,1,0,0,1,17,26Z" style="fill:#ebebeb"/><path d="M7,38a1,1,0,0,0,0-2H3v2Z" style="fill:#b06516"/><path d="M13,38H11a1,1,0,0,1,0-2h2a1,1,0,0,1,0,2Z" style="fill:#b06516"/><path d="M36,26.009a30.343,30.343,0,0,0-3.661,2.827L32,29.143v8.77l1.922-2.256A30.23,30.23,0,0,1,36,33.46Z" style="fill:#da922a"/><path d="M36,26.009V33.46A30.314,30.314,0,0,1,57,25V21H52.679A30.313,30.313,0,0,0,36,26.009Z" style="fill:#878787"/><path d="M59,18a3,3,0,0,0-2.816,2h-3.5a31.247,31.247,0,0,0-19.13,6.53l-.153.12c-.59.462-1.17.939-1.729,1.445l-.315.284-.023.021h0L21,37.747V31a3,3,0,0,0-3-3H5a3,3,0,0,0-3,3V42A11.013,11.013,0,0,0,13,53h1.459a12.983,12.983,0,0,0,9.9-4.57L34.684,36.306c.315-.371.641-.729.973-1.082s.677-.7,1.035-1.042l0,0a29.249,29.249,0,0,1,19.5-8.156A2.993,2.993,0,0,0,62,25V21A3,3,0,0,0,59,18Zm-3,4v2.016a31.246,31.246,0,0,0-19,7.21V26.55A29.261,29.261,0,0,1,52.68,22ZM34.112,33.949c-.281.3-.55.6-.811.9-.046.053-.095.1-.141.157L33,35.2v-5.61l.011-.01q.943-.854,1.989-1.64v5.1c-.067.066-.128.133-.194.2C34.573,33.471,34.339,33.706,34.112,33.949ZM4,31a1,1,0,0,1,1-1H18a1,1,0,0,1,1,1v1H4ZM22.833,47.133A10.984,10.984,0,0,1,14.459,51H13a9.01,9.01,0,0,1-9-9V38H7a1,1,0,0,0,0-2H4V34H19v8a1,1,0,0,0,2,0V40.443L31,31.4v6.149ZM60,25a1,1,0,0,1-2,0V21a1,1,0,0,1,2,0Z"/><path d="M13,11a1,1,0,0,0-2,0,5.192,5.192,0,0,1-.868,3A7.1,7.1,0,0,0,9,18a7.1,7.1,0,0,0,1.132,4A5.192,5.192,0,0,1,11,25a1,1,0,0,0,2,0,7.1,7.1,0,0,0-1.132-4A5.192,5.192,0,0,1,11,18a5.192,5.192,0,0,1,.868-3A7.1,7.1,0,0,0,13,11Z"/><path d="M8,11a1,1,0,0,0-2,0,5.192,5.192,0,0,1-.868,3A7.1,7.1,0,0,0,4,18a7.1,7.1,0,0,0,1.132,4A5.192,5.192,0,0,1,6,25a1,1,0,0,0,2,0,7.1,7.1,0,0,0-1.132-4A5.192,5.192,0,0,1,6,18a5.192,5.192,0,0,1,.868-3A7.1,7.1,0,0,0,8,11Z"/><path d="M18,11a1,1,0,0,0-2,0,5.192,5.192,0,0,1-.868,3A7.1,7.1,0,0,0,14,18a7.1,7.1,0,0,0,1.132,4A5.192,5.192,0,0,1,16,25a1,1,0,0,0,2,0,7.1,7.1,0,0,0-1.132-4A5.192,5.192,0,0,1,16,18a5.192,5.192,0,0,1,.868-3A7.1,7.1,0,0,0,18,11Z"/><path d="M13,36H11a1,1,0,0,0,0,2h2a1,1,0,0,0,0-2Z"/></g></svg>