<?xml version="1.0" encoding="UTF-8"?><svg id="Layer_1" xmlns="http://www.w3.org/2000/svg" viewBox="0 0 206.7 55.27"><defs><style>.cls-1{fill:#165b2e;}.cls-1,.cls-2,.cls-3{stroke-width:0px;}.cls-2{fill:#14b14b;}.cls-3{fill:#eef6ea;}</style></defs><path class="cls-1" d="M106.24,48.86c0,.71.07,1,.71,1h3.4c.45,0,.65-.2.65-.65v-1.22h-1.41v.35c0,.12-.07.2-.2.2h-1.23c-.2,0-.26-.02-.26-.13,0-.7,2.83-.95,2.83-3.04,0-1.31-1.13-1.94-2.16-1.94-.94,0-2.07.44-2.07,1.31v.74h1.41v-.25c0-.16.2-.36.59-.36.35,0,.62.18.62.53,0,1.28-2.89,1.22-2.89,3.47h0Z"/><path class="cls-1" d="M118.03,46.67c0-1.82-.58-3.26-2.38-3.26s-2.38,1.45-2.38,3.26.58,3.29,2.38,3.29,2.38-1.47,2.38-3.29ZM114.86,46.67c0-1.03.18-1.84.79-1.84s.79.81.79,1.84-.18,1.86-.79,1.86-.79-.83-.79-1.86Z"/><path class="cls-1" d="M120.5,43.53v.71h-.37v.7h.34v.98c0,.9.82,1,1.24,1,.15,0,.25-.02.25-.02v-.77h-.12c-.17,0-.48-.04-.48-.34v-.86h.56v-.7h-.56v-.71h-.86,0Z"/><path class="cls-1" d="M124.36,43.6c0-.26-.12-.38-.38-.38h-.82v.75h.2c.07,0,.12.04.12.12v2.83h.9v-1.17c0-.12,0-.24.05-.34.08-.23.25-.39.53-.39.2,0,.3.11.3.35v1.18c0,.26.12.38.38.38h.82v-.75h-.2c-.07,0-.12-.04-.12-.12v-.86c0-.75-.42-.99-.95-.99-.35,0-.66.16-.81.42h0s0-.09,0-.23v-.79h0Z"/><path class="cls-1" d="M136.65,45.18c0-1.09-.89-1.65-2.15-1.65h-2.77v1.33h.58v4.35c0,.45.2.65.65.65h1.55c1.26,0,2.41-.5,2.41-1.88,0-.56-.26-1.21-.99-1.43v-.02c.33-.18.73-.64.73-1.35h0ZM133.89,44.85h.6c.39,0,.57.25.57.54s-.17.58-.54.58h-.62v-1.13h0ZM134.65,48.52h-.57c-.12,0-.2-.07-.2-.2v-1.12h.77c.43,0,.62.3.62.65s-.21.67-.62.67h0Z"/><polygon class="cls-1" points="139.17 48.53 139.17 49.85 142 49.85 142 48.53 141.33 48.53 141.33 44.86 142 44.86 142 43.52 139.17 43.52 139.17 44.86 139.83 44.86 139.83 48.53 139.17 48.53"/><path class="cls-1" d="M149.24,45.51c0-1.27-.85-1.99-2.09-1.99h-2.96v1.33h.58v5h1.59v-2.14h.21c.33,0,.46.04.57.24l.74,1.43c.21.39.45.47.9.47h.87v-1.33h-.11c-.18,0-.34-.02-.44-.21l-.4-.76c-.14-.27-.39-.38-.39-.38v-.02s.93-.38.93-1.64h0ZM146.91,46.39h-.55v-1.54h.58c.44,0,.69.25.69.76s-.25.78-.71.78h0Z"/><path class="cls-1" d="M157.08,45.39v-1.26c0-.45-.16-.61-.61-.61h-4.53c-.45,0-.61.16-.61.61v1.26h1.37v-.35c0-.12.07-.2.2-.2h.52v5h1.59v-5h.51c.12,0,.2.07.2.2v.35h1.37,0Z"/><path class="cls-1" d="M160.65,43.52h-1.51v1.33h.38c.12,0,.2.07.2.2v4.81h1.59v-2.48h2.14v2.48h1.59v-4.81c0-.12.07-.2.2-.2h.38v-1.33h-1.51c-.45,0-.65.2-.65.65v1.88h-2.14v-1.88c0-.45-.2-.65-.65-.65Z"/><path class="cls-1" d="M169,49.85h1.38c1.99,0,3.27-1.18,3.27-3.18s-1.27-3.15-3.27-3.15h-2.6v1.33h.58v4.35c0,.45.2.65.65.65ZM169.94,44.85h.38c1.02,0,1.68.62,1.68,1.82s-.63,1.85-1.68,1.85h-.19c-.12,0-.2-.07-.2-.2v-3.48h0Z"/><path class="cls-1" d="M177.27,49.34l.27-.81h1.84l.27.81c.12.38.3.51.74.51h1.02v-1.33h-.17c-.14,0-.19-.04-.24-.2l-1.73-4.81h-1.64l-1.73,4.81c-.06.15-.1.2-.24.2h-.16v1.33h1.02c.44,0,.62-.13.74-.51h0ZM178.2,46.19c.12-.39.25-1.04.25-1.04h.02s.13.65.25,1.04l.32,1.05h-1.17s.32-1.05.32-1.05Z"/><path class="cls-1" d="M186.14,49.85v-2.77l1.35-2.04c.12-.18.12-.2.32-.2h.25v-1.33h-.86c-.39,0-.6.07-.81.43l-.64,1.09c-.24.41-.38.71-.38.71h-.02s-.14-.3-.38-.71l-.65-1.09c-.21-.36-.43-.43-.81-.43h-.87v1.33h.25c.2,0,.21.02.32.2l1.35,2.04v2.77h1.59,0Z"/><path class="cls-1" d="M98.59,35.75c1.03,0,1.67-.51,2.79-1.95,2.04-2.55,4.03-6.11,4.91-7.65l2.65,6.81c.65,1.58,1.34,2.74,2.78,2.74,1.11,0,2.04-.79,2.97-1.9,1.26-1.49,3.15-4.59,4.86-7.74,1.12-1.94,4.77-8.71,4.77-9.83,0-.51-.37-.74-.97-.88-.79-.18-3.38-.74-4.03-.74-.83,0-1.04.18-1.81,2.05-.07.16-2.83,8.85-4.07,8.85-1.17,0-3.43-9.47-3.52-9.69-.44-.98-.74-1.02-1.11-1.02s-4.12.55-5.7.97c-.1,0-1.03.28-1.03.89,0,.37,1.67,4.03,1.67,4.03,0,0-2.07,4.92-3.11,4.92s-4.03-8.62-4.12-8.91c-.54-1.63-.93-2.09-1.76-2.09-.6,0-5.33.93-5.79,1.07-1.11.23-1.35.51-1.35.93,0,.7,5.29,11.63,7.89,16.09,1.62,2.87,2.41,3.06,3.1,3.06h0Z"/><path class="cls-1" d="M200.29,28.7c-2.27,0-5.88,1.21-5.88,3.8,0,2.17,2.27,3.57,4.58,3.57,2.51,0,5.38-2.04,5.38-4.12,0-1.07-.84-3.25-4.08-3.25Z"/><path class="cls-1" d="M161.89,14.39c-6.82,0-13.67,3.25-13.67,10.89,0,4.86,3.38,10.57,12.51,10.57,9.64,0,12.51-6.35,12.51-11.54,0-6.49-4.44-9.92-11.35-9.92ZM160.92,29.11c-2.61,0-5.17-1.57-5.17-4.02,0-2.92,4.07-4.28,6.63-4.28,3.66,0,4.6,2.46,4.6,3.66,0,2.35-3.24,4.65-6.05,4.65h0Z"/><path class="cls-1" d="M122.38,25.88c0,4.86,3.38,10.57,12.51,10.57,9.64,0,12.52-6.34,12.52-11.54,0-6.49-4.45-9.92-11.35-9.92s-13.67,3.25-13.67,10.89h0ZM141.13,25.06c0,2.35-3.24,4.64-6.06,4.64-2.6,0-5.17-1.56-5.17-4.02,0-2.93,4.07-4.29,6.63-4.29,3.66,0,4.6,2.46,4.6,3.66h0Z"/><path class="cls-1" d="M184.7,35.6c7.59-.07,7.81-3.46,8.42-4.58.29-.52-2.4-3.11-3.04-3.11-.14,0-1.56,2.7-2.75,2.79-1.26.09-2.46-2.19-2.46-4.32,0-2.28.19-4.44.28-6.44,2.46-.09,3.8,0,5.42-.09.84-.04,1.07-.19,1.16-1.63v-1.76c0-1.39-.09-1.67-.98-1.67-.65,0-1.44,0-2.32.05-.88,0-1.9.04-3.02.09.09-1.63.14-2.55.24-3.43.05-.51.28-3.11.28-3.66,0-.93-.14-1.16-1.11-1.16-1.35,0-4.35.51-5.84.74-1.02.19-1.15.19-1.25.56-.14.56-.37,5.98-.46,7.14-.33,0-1.95-.04-2.32,0-.69.05-.88.14-.88,2.65s0,2.69.79,2.69c.32,0,1.76-.18,2.09-.18-.23,2.27-.42,4.45-.42,6.3,0,3.71,1.07,9.1,8.16,9.04v-.02Z"/><path class="cls-1" d="M205,3.26c-.24-.02-4.4-.07-5.05-.11-1.76-.12-2.41,0-2.82,1.11-2.25,5.96-.02,22.32,2.42,22.5,3.81.28,6.5-11.86,7.14-21,.12-1.8-.58-2.42-1.68-2.5h0Z"/><path class="cls-1" d="M95.8,41.16h102.7c.29,0,.53.24.53.53h0c0,.29-.24.53-.53.53h-102.7c-.29,0-.53-.24-.53-.53h0c0-.29.24-.53.53-.53Z"/><path class="cls-1" d="M95.8,51.1h102.7c.29,0,.53.24.53.53h0c0,.29-.24.53-.53.53h-102.7c-.29,0-.53-.24-.53-.53h0c0-.29.24-.53.53-.53Z"/><path class="cls-1" d="M80.67,22.88c-.51-2.08-1.25-4.02-2.28-5.78-.77-1.32-1.71-2.52-2.82-3.58-.2-.2-.42-.38-.63-.57h0l-8.03-8.09c-1.67-1.59-3.73-2.82-6.14-3.63-2.4-.82-5.14-1.23-8.25-1.23-3.68,0-6.86.57-9.56,1.72-2.02.86-3.77,2.05-5.2,3.5-1.08,1.09-1.98,2.32-2.71,3.66-.03.06-.06.12-.1.18-.13-.31-.27-.63-.42-.93-.76-1.48-1.77-2.75-2.94-3.8-1.77-1.57-3.89-2.65-6.14-3.34-2.24-.68-4.64-.99-7.04-.99-4.76,0-8.62,1.3-11.52,2.91-2.9,1.61-4.84,3.5-5.92,4.72C.33,8.37,0,9.31,0,10.24,0,11.13.31,12.03.91,12.75l5.81,6.97c.13.15.27.29.42.42h-.02l2.48,2.48c-2.17,1.54-4.38,3.55-6.11,6.17-.93,1.4-1.72,2.97-2.27,4.72-.55,1.75-.87,3.65-.87,5.71,0,.37,0,.83.05,1.39s.13,1.21.27,1.97c.14.76.48,1.43.96,1.98h.01c.1.12.2.22.31.33l8.27,8.26c.15.18.31.33.48.48.7.59,1.62.95,2.6.95h28.5c.97,0,1.88-.4,2.52-1.04.64-.63,1.04-1.54,1.04-2.52v-2.25c.44.55.9,1.06,1.4,1.55,1.66,1.61,3.73,2.86,6.14,3.69,2.41.83,5.15,1.25,8.27,1.25,3.69,0,6.86-.59,9.57-1.75,2.02-.87,3.77-2.08,5.19-3.54,1.07-1.1,1.97-2.35,2.71-3.69,1.1-2.02,1.84-4.28,2.31-6.69s.67-4.99.67-7.7c0-3.21-.28-6.22-.95-9h0Z"/><path class="cls-2" d="M2.75,39.23c0-7.24,4.41-12.05,8.65-14.93,3.28-2.26,7.36-3.84,7.36-6.84,0-1.58-1.19-2.6-3.05-2.6-2.56,0-4.37,1.92-5.32,3.28-.44.61-1.33.65-1.81.07l-5.82-6.97c-.48-.58-.47-1.42.03-2,1.88-2.13,6.99-6.82,15.63-6.82,7.81,0,15.27,3.57,15.27,12.61,0,6.9-4.41,10.57-8.03,13.01-2.6,1.7-4.87,2.94-6.22,4.47h13.72c.63,0,1.15.52,1.15,1.15v8.73c0,.63-.52,1.15-1.15,1.15H4.66c-.8,0-1.48-.58-1.62-1.36-.25-1.38-.29-2.28-.29-2.93h0Z"/><path class="cls-2" d="M52.53,2.4c-13.74,0-18.05,8.54-18.05,20.81s4.3,20.98,18.05,20.98,18.05-8.71,18.05-20.98S66.27,2.4,52.53,2.4Z"/><path class="cls-3" d="M33.19,32.5c.16.2.25.44.25.72v8.73c0,.63-.52,1.15-1.15,1.15H3.79c-.09,0-.17,0-.26-.02.3.29.7.46,1.13.46h28.5c.63,0,1.15-.52,1.15-1.15v-8.73c0-.63-.5-1.14-1.12-1.15h0Z"/><path class="cls-3" d="M32.82,14.58c0,6.9-4.41,10.57-8.03,13.01-2.6,1.7-5.12,3.14-6.54,4.91h1.19c1.6-1.7,3.87-2.94,6.22-4.47,3.62-2.43,8.03-6.11,8.03-13.01,0-5.62-2.88-9.13-6.93-10.98,3.59,1.94,6.06,5.33,6.06,10.54Z"/><path class="cls-3" d="M61.55,4.11c6.03,3.27,8.15,10.05,8.15,18.67,0,12.27-4.3,20.98-18.05,20.98-3.59,0-6.54-.6-8.93-1.7,2.54,1.38,5.76,2.14,9.81,2.14,13.74,0,18.05-8.71,18.05-20.98,0-9.03-2.33-16.03-9.03-19.1h0Z"/><path class="cls-1" d="M53.73,31.07c-.4-.13-.86-.21-1.41-.21-1.88,0-4.88,1-4.88,3.16,0,.95.52,1.72,1.31,2.24.7.46,1.6.72,2.5.72,2.08,0,4.47-1.69,4.47-3.42,0-.7-.44-1.98-1.97-2.49h-.01Z"/><path class="cls-1" d="M56.38,9.78c-.05,0-.11-.02-.17-.03-.2-.01-3.65-.05-4.19-.09-1.45-.1-2,0-2.34.92-1.68,4.44-.35,15.84,1.4,18.22.2.27.4.43.61.44,3.16.23,5.39-9.84,5.92-17.42.1-1.4-.42-1.94-1.23-2.05h0Z"/><path class="cls-3" d="M55.7,33.55c0-.7-.44-1.98-1.97-2.49.83.61,1.1,1.51,1.1,2.05,0,1.73-2.39,3.42-4.47,3.42-.56,0-1.12-.1-1.62-.29.7.46,1.6.72,2.5.72,2.08,0,4.47-1.69,4.47-3.42h0Z"/><path class="cls-3" d="M56.74,11.38c-.52,7.37-2.64,17.09-5.66,17.42.2.27.4.43.61.44,3.16.23,5.39-9.84,5.92-17.42.1-1.4-.42-1.94-1.23-2.05.27.32.41.83.35,1.62h0Z"/></svg>