<svg id="Layer_5" enable-background="new 0 0 64 64" height="512" viewBox="0 0 64 64" width="512" xmlns="http://www.w3.org/2000/svg"><g><g><g><path d="m50 20v4h-2-6-7c-1.31 0-2.42.83-2.82 2h-.01-30.17v-10c0-1.1.9-2 2-2h31v4c0 1.1.9 2 2 2h4 6z" fill="#b4dd7f"/></g><g><path d="m42 24v30l3.75 6h-41.75c-1.1 0-2-.9-2-2v-32h30.17.01c-.12.31-.18.65-.18 1 0 1.66 1.34 3 3 3s3-1.34 3-3-1.34-3-3-3z" fill="#e6e9ed"/></g><g><path d="m16 47v9h-10v-10h10z" fill="#b4dd7f"/></g><g><path d="m16 33v9h-10v-10h10z" fill="#fcd770"/></g><g><circle cx="24" cy="20" fill="#e6e9ed" r="2"/></g><g><circle cx="16" cy="20" fill="#e6e9ed" r="2"/></g><g><circle cx="8" cy="20" fill="#e6e9ed" r="2"/></g><g><path d="m53 8.5-6 .5-6 .5-6 .5v4 4c0 1.1.9 2 2 2h4 6 3 3 6v-12z" fill="#ff826e"/></g><g><path d="m35 24c1.66 0 3 1.34 3 3s-1.34 3-3 3-3-1.34-3-3c0-.35.06-.69.18-1 .4-1.17 1.51-2 2.82-2z" fill="#969faa"/></g><g><path d="m58 27c0 1.66-1.34 3-3 3-.35 0-.69-.06-1-.18-1.17-.4-2-1.51-2-2.82 0-1.66 1.34-3 3-3s3 1.34 3 3z" fill="#969faa"/></g><g><path d="m54 54-4.47 7.15c-.33.53-.91.85-1.53.85s-1.2-.32-1.53-.85l-.72-1.15-3.75-6 3-2 3 1.99v.01h.01l2.99-2z" fill="#aab2bd"/></g><g><path d="m55 24c-1.66 0-3 1.34-3 3 0 1.31.83 2.42 2 2.82v.01 24.17l-3-2-2.99 2h-.01v-.01-29.99h2z" fill="#ffeaa7"/></g><g><path d="m48 24v29.99l-3-1.99-3 2v-30z" fill="#69d6f4"/></g></g><g><path d="m61 1c-1.654 0-3 1.346-3 3v3.08l-24 2v3.92h-30c-1.654 0-3 1.346-3 3v42c0 1.654 1.346 3 3 3h41.195l.427.683c.517.825 1.405 1.317 2.378 1.317s1.861-.492 2.378-1.317l4.622-7.396v-23.287c2.206 0 4-1.794 4-4 0-.854-.274-1.642-.731-2.292 1.019-.48 1.731-1.509 1.731-2.708v-18c0-.552.448-1 1-1h2v-2zm-4 22h-6v-2h7v1c0 .552-.448 1-1 1zm-10 29.129-1.997-1.33-2.003 1.334v-27.133h4zm-5-33.129v-8.58l4-.333v8.913zm6-9.08 4-.333v9.413h-4zm6 9.08v-9.58l4-.333v9.913zm-18-8.08 4-.333v8.413h-3c-.552 0-1-.448-1-1zm-32 4.08h30v3c0 1.654 1.346 3 3 3h12v2h-14c-1.474 0-2.75.81-3.444 2h-28.556v-9c0-.552.448-1 1-1zm33 12c0 1.103-.897 2-2 2s-2-.897-2-2 .897-2 2-2 2 .897 2 2zm-33 32c-.552 0-1-.448-1-1v-31h28c0 2.206 1.794 4 4 4s4-1.794 4-4c0-.732-.212-1.409-.556-2h2.556v29.287l2.945 4.713zm44.683 1.622c-.297.473-1.068.473-1.365 0l-3.954-6.328 1.64-1.092 3.002 2.001 2.998-2 1.635 1.091zm4.317-8.492-1.997-1.333-2.003 1.337v-27.134h2.556c-.344.591-.556 1.268-.556 2 0 1.474.81 2.75 2 3.444zm2-23.13c-1.103 0-2-.897-2-2s.897-2 2-2 2 .897 2 2-.897 2-2 2z"/><path d="m8 23c1.654 0 3-1.346 3-3s-1.346-3-3-3-3 1.346-3 3 1.346 3 3 3zm0-4c.552 0 1 .448 1 1s-.448 1-1 1-1-.448-1-1 .448-1 1-1z"/><path d="m16 23c1.654 0 3-1.346 3-3s-1.346-3-3-3-3 1.346-3 3 1.346 3 3 3zm0-4c.552 0 1 .448 1 1s-.448 1-1 1-1-.448-1-1 .448-1 1-1z"/><path d="m24 23c1.654 0 3-1.346 3-3s-1.346-3-3-3-3 1.346-3 3 1.346 3 3 3zm0-4c.552 0 1 .448 1 1s-.448 1-1 1-1-.448-1-1 .448-1 1-1z"/><path d="m18.293 43.293-1.707 1.707h-11.586v12h12v-9.586l2.707-2.707zm-3.293 11.707h-8v-8h7.586l-3.586 3.586-1.293-1.293-1.414 1.414 2.707 2.707 4-4z"/><path d="m16.586 31h-11.586v12h12v-9.586l2.707-2.707-1.414-1.414zm-1.586 10h-8v-8h7.586l-3.586 3.586-1.293-1.293-1.414 1.414 2.707 2.707 4-4z"/><path d="m21 45h18v2h-18z"/><path d="m37 49h2v2h-2z"/><path d="m21 49h14v2h-14z"/><path d="m21 53h2v2h-2z"/><path d="m25 53h14v2h-14z"/><path d="m21 41h18v2h-18z"/><path d="m21 37h2v2h-2z"/><path d="m25 37h14v2h-14z"/><path d="m21 33h18v2h-18z"/></g></g></svg>