<svg xmlns="http://www.w3.org/2000/svg"  viewBox="0 0 64 64" width="128px" height="128px"><linearGradient id="SVGID_1_" x1="11" x2="11" y1="29.021" y2="50.914" gradientUnits="userSpaceOnUse"><stop offset="0" stop-color="#6dc7ff"/><stop offset="1" stop-color="#e6abff"/></linearGradient><path fill="url(#SVGID_1_)" d="M8,31h6v19H8V31z"/><g><linearGradient id="SVGID_2_" x1="32" x2="32" y1="5.638" y2="57.236" gradientUnits="userSpaceOnUse"><stop offset="0" stop-color="#1a6dff"/><stop offset="1" stop-color="#c822ff"/></linearGradient><path fill="url(#SVGID_2_)" d="M56.4,38.8c-0.9-0.7-2.2-0.9-3.4-0.6l-0.1,0c1.3-2.6,2.1-5.6,2.1-8.7c0-0.4-0.1-9.3-4.6-15.7 c-0.5-0.8-1.4-1.2-2.3-1.2c-0.1,0-0.2,0-0.4,0c-1,0.1-1.9,0.8-2.3,1.8l-0.8,2.2c-0.2,0.5-0.6,0.6-0.8,0.6c0,0,0,0,0,0 c-0.2,0-0.7-0.1-0.9-0.6l-3.2-8.8C39.2,6.7,38.2,6,37,6s-2.2,0.8-2.7,1.9l-3.2,8.9c-0.2,0.6-0.7,0.7-0.9,0.7c0,0,0,0,0,0 c-0.2,0-0.7-0.1-0.9-0.7l-0.8-2.3c-0.4-1-1.2-1.7-2.3-1.8c-0.1,0-0.3,0-0.4,0c-0.9,0-1.7,0.4-2.3,1.2C19.1,20.3,19,29.2,19,29.6 c0,1.2,0.1,2.3,0.3,3.4H16v-1c0-1.7-1.3-3-3-3H9c-1.7,0-3,1.3-3,3v17c0,1.7,1.3,3,3,3h4c1.7,0,3-1.3,3-3v-0.8l12.1,8.2 c1.5,1,3.3,1.6,5.1,1.6c1.6,0,3.3-0.4,4.7-1.3l18.2-11.1c1.2-0.7,1.9-2,1.9-3.3v-0.3C58,40.7,57.4,39.6,56.4,38.8z M14,49 c0,0.6-0.4,1-1,1h-1v-4h-2v4H9c-0.6,0-1-0.4-1-1V32c0-0.6,0.4-1,1-1h4c0.6,0,1,0.4,1,1V49z M25.3,15.1c0.1-0.2,0.3-0.4,0.7-0.4 c0,0,0.1,0,0.1,0c0.3,0,0.6,0.2,0.7,0.5l0.9,2.3c0.5,1.4,1.8,2,2.8,2c1,0,2.3-0.6,2.8-2l3.2-8.9C36.4,8.2,36.7,8,37,8 c0.4,0,0.7,0.2,0.8,0.6l3.2,8.8c0.4,1.2,1.5,1.9,2.7,2l0,0h0.1c1.2,0,2.2-0.7,2.7-1.9l0.8-2.2c0.1-0.3,0.4-0.5,0.7-0.6 c0,0,0.1,0,0.1,0c0.3,0,0.5,0.1,0.7,0.3C53,20.9,53,29.5,53,29.6c0,3.5-1.1,6.8-2.9,9.5l-12.4,3.4c0.2-0.5,0.3-1,0.3-1.5 c0-2.2-1.8-4-4-4h-9.4c-0.5-0.8-1.6-2.7-3.2-3.6c-0.3-1.2-0.5-2.5-0.5-3.8C21,29.5,21,20.9,25.3,15.1z M56,42.2 c0,0.7-0.4,1.3-0.9,1.6L36.9,55c-2.4,1.4-5.4,1.4-7.7-0.2l-13.3-9V35h4c1.1,0,2.5,2,3.1,3.4l0.3,0.6H34c1.1,0,2,0.9,2,2 c0,1.1-0.9,2-2,2H24v2h12l17.5-4.8c0.6-0.2,1.3-0.1,1.7,0.2c0.5,0.4,0.8,0.9,0.8,1.5V42.2z"/><linearGradient id="SVGID_3_" x1="36.904" x2="36.904" y1="5.638" y2="57.236" gradientUnits="userSpaceOnUse"><stop offset="0" stop-color="#1a6dff"/><stop offset="1" stop-color="#c822ff"/></linearGradient><polygon fill="url(#SVGID_3_)" points="33.2,35.1 42.2,23.8 40.7,22.5 31.6,33.8"/><linearGradient id="SVGID_4_" x1="33" x2="33" y1="5.638" y2="57.236" gradientUnits="userSpaceOnUse"><stop offset="0" stop-color="#1a6dff"/><stop offset="1" stop-color="#c822ff"/></linearGradient><path fill="url(#SVGID_4_)" d="M33,28c1.7,0,3-1.3,3-3s-1.3-3-3-3s-3,1.3-3,3S31.3,28,33,28z M33,24c0.6,0,1,0.4,1,1s-0.4,1-1,1s-1-0.4-1-1 S32.4,24,33,24z"/><linearGradient id="SVGID_5_" x1="41" x2="41" y1="5.638" y2="57.236" gradientUnits="userSpaceOnUse"><stop offset="0" stop-color="#1a6dff"/><stop offset="1" stop-color="#c822ff"/></linearGradient><path fill="url(#SVGID_5_)" d="M38,32c0,1.7,1.3,3,3,3s3-1.3,3-3s-1.3-3-3-3S38,30.3,38,32z M42,32c0,0.6-0.4,1-1,1s-1-0.4-1-1s0.4-1,1-1 S42,31.4,42,32z"/></g></svg>