<svg xmlns="http://www.w3.org/2000/svg"  viewBox="0 0 64 64" width="128px" height="128px"><linearGradient id="SVGID_1_" x1="48" x2="48" y1="-64" y2="-68" gradientTransform="matrix(1 0 0 -1 0 -18)" gradientUnits="userSpaceOnUse"><stop offset="0" stop-color="#6dc7ff"/><stop offset="1" stop-color="#e6abff"/></linearGradient><path fill="url(#SVGID_1_)" d="M48,46l-1,2v2h2v-2L48,46z"/><linearGradient id="SVGID_2_" x1="52" x2="52" y1="-64" y2="-68" gradientTransform="matrix(1 0 0 -1 0 -18)" gradientUnits="userSpaceOnUse"><stop offset="0" stop-color="#6dc7ff"/><stop offset="1" stop-color="#e6abff"/></linearGradient><path fill="url(#SVGID_2_)" d="M52,46l-1,2v2h2v-2L52,46z"/><linearGradient id="SVGID_3_" x1="50" x2="50" y1="-70" y2="-72" gradientTransform="matrix(1 0 0 -1 0 -18)" gradientUnits="userSpaceOnUse"><stop offset="0" stop-color="#6dc7ff"/><stop offset="1" stop-color="#e6abff"/></linearGradient><path fill="url(#SVGID_3_)" d="M47,52h6v2h-6V52z"/><linearGradient id="SVGID_4_" x1="28" x2="28" y1="26.66" y2="30.315" gradientUnits="userSpaceOnUse"><stop offset="0" stop-color="#6dc7ff"/><stop offset="1" stop-color="#e6abff"/></linearGradient><circle cx="28" cy="29" r="2" fill="url(#SVGID_4_)"/><linearGradient id="SVGID_5_" x1="19" x2="19" y1="26.66" y2="30.315" gradientUnits="userSpaceOnUse"><stop offset="0" stop-color="#6dc7ff"/><stop offset="1" stop-color="#e6abff"/></linearGradient><circle cx="19" cy="29" r="2" fill="url(#SVGID_5_)"/><linearGradient id="SVGID_6_" x1="23.5" x2="23.5" y1="32.489" y2="36.617" gradientUnits="userSpaceOnUse"><stop offset="0" stop-color="#6dc7ff"/><stop offset="1" stop-color="#e6abff"/></linearGradient><path fill="url(#SVGID_6_)" d="M23.5,37L23.5,37c-1.9,0-3.5-1.6-3.5-3.5V33h7v0.5C27,35.4,25.4,37,23.5,37z"/><linearGradient id="SVGID_7_" x1="31.5" x2="31.5" y1="6.489" y2="57.576" gradientUnits="userSpaceOnUse"><stop offset="0" stop-color="#1a6dff"/><stop offset="1" stop-color="#c822ff"/></linearGradient><path fill="url(#SVGID_7_)" d="M56.7,39.6c-0.5-1-1.5-1.6-2.7-1.6H37.2c-0.8-1-1.7-1.9-2.7-2.7c0.2-0.3,0.3-0.6,0.4-0.9h0.5	c1.9,0,3.5-1.6,3.5-3.5v-0.2c0-1.8-1.3-3.2-3-3.4v-3.3h0.9c0.4,0,0.7-0.2,0.9-0.6c0.2-0.4,0.1-0.8-0.1-1.1c-0.5-0.6-1.1-1.2-1.7-1.7	c0,0,0-0.1,0-0.1V16c0-5-4-9-9-9h-0.3c-0.3-0.6-1-1-1.7-1h-3c-0.7,0-1.4,0.4-1.7,1H20c-5,0-9,4-9,9v4.5c0,0,0,0,0,0.1	c-0.6,0.5-1.2,1.1-1.7,1.7C9.1,22.6,9,23,9.2,23.4c0.2,0.4,0.5,0.6,0.9,0.6H11v3.3c-1.7,0.2-3,1.7-3,3.4v0.2c0,1.9,1.6,3.5,3.5,3.5	H12c0.1,0.3,0.3,0.6,0.4,0.9C8.3,38.6,6,43.5,6,48.8V54h27v1c0,1.7,1.3,3,3,3h18c1.7,0,3-1.3,3-3V41C57,40.5,56.9,40.1,56.7,39.6z M47,40v2h-4v-2H47z M34.8,38.2c-0.4,0.2-0.8,0.5-1.1,0.9c0,0,0,0,0,0l-5.3,5.4l-2.8-2.8c3.2-0.5,6.1-2.3,8-4.8	C34,37.4,34.4,37.8,34.8,38.2z M37,30.7v0.2c0,0.8-0.6,1.4-1.3,1.5c0.2-0.9,0.3-1.9,0.3-2.9v-0.2C36.6,29.5,37,30,37,30.7z M23.5,18	c4.1,0,7.9,1.4,10.8,3.8H12.7C15.6,19.4,19.4,18,23.5,18z M22,9h3c1.7,0,3,1.3,3,3v4.5c-1.5-0.3-3-0.5-4.5-0.5s-3,0.2-4.5,0.5V12	C19,10.3,20.3,9,22,9z M34,16v3.1c-1.2-0.8-2.6-1.5-4-2V12c0-1-0.3-1.9-0.8-2.6C32,10.3,34,12.9,34,16z M13,16c0-3.1,2-5.7,4.8-6.6	C17.3,10.1,17,11,17,12v5.1c-1.4,0.5-2.8,1.2-4,2V16z M34,23.9v5.5C34,35.3,29.3,40,23.5,40S13,35.3,13,29.5v-5.5H34z M10,30.8v-0.2	c0-0.7,0.4-1.2,1-1.4v0.2c0,1,0.1,1.9,0.3,2.9C10.6,32.3,10,31.6,10,30.8z M21.4,41.8l-2.8,2.8l-6.3-6.3c0,0,0,0-0.1,0	c0.4-0.4,0.9-0.9,1.3-1.3C15.4,39.5,18.2,41.2,21.4,41.8z M8,52v-3.2c0-3.3,1-6.4,2.9-9l6.9,6.9c0.2,0.2,0.5,0.3,0.7,0.3	c0.3,0,0.5-0.1,0.7-0.3l4.2-4.2l4.2,4.2c0.2,0.2,0.4,0.3,0.7,0.3c0,0,0,0,0,0c0.3,0,0.5-0.1,0.7-0.3l4-4V52H8z M55,55	c0,0.6-0.4,1-1,1H36c-0.6,0-1-0.4-1-1V41c0-0.6,0.4-1,1-1h5v2c0,1.1,0.9,2,2,2h4c1.1,0,2-0.9,2-2v-2h5c0.6,0,1,0.4,1,1V55z"/></svg>