<svg xmlns="http://www.w3.org/2000/svg"  viewBox="0 0 64 64" width="128px" height="128px"><linearGradient id="SVGID_1_" x1="32" x2="32" y1="16.489" y2="18.918" gradientUnits="userSpaceOnUse"><stop offset="0" stop-color="#6dc7ff"/><stop offset="1" stop-color="#e6abff"/></linearGradient><path fill="url(#SVGID_1_)" d="M37,20H27c-0.6,0-1-0.4-1-1v-2c0-0.6,0.4-1,1-1h10c0.6,0,1,0.4,1,1v2C38,19.6,37.6,20,37,20z"/><linearGradient id="SVGID_2_" x1="32" x2="32" y1="38.575" y2="41.085" gradientUnits="userSpaceOnUse"><stop offset="0" stop-color="#6dc7ff"/><stop offset="1" stop-color="#e6abff"/></linearGradient><path fill="url(#SVGID_2_)" d="M37.9,42H26.1c-0.6,0-1.1-0.5-1.1-1.1v-1.8c0-0.6,0.5-1.1,1.1-1.1h11.8c0.6,0,1.1,0.5,1.1,1.1v1.8	C39,41.5,38.5,42,37.9,42z"/><linearGradient id="SVGID_3_" x1="32" x2="32" y1="5.085" y2="59.683" gradientUnits="userSpaceOnUse"><stop offset="0" stop-color="#1a6dff"/><stop offset="1" stop-color="#c822ff"/></linearGradient><path fill="url(#SVGID_3_)" d="M54,28h-2V13c1.1,0,2-0.9,2-2V8c0-1.1-0.9-2-2-2H12c-1.1,0-2,0.9-2,2v3c0,1.1,0.9,2,2,2v15h-2 c-1.1,0-2,0.9-2,2V33c0,1.1,0.9,2,2,2v21c0,1.7,1.3,3,3,3h38c1.7,0,3-1.3,3-3V35c1.1,0,2-0.9,2-2V30C56,28.9,55.1,28,54,28z M12,8 h40l0,3h0H12V8z M14,13h36v15H14V13z M52,56c0,0.6-0.4,1-1,1H13c-0.6,0-1-0.4-1-1V35h40V56z M54,33C54,33,54,33,54,33H10l0-3l44,0 V33z"/><linearGradient id="SVGID_4_" x1="32" x2="32" y1="5.085" y2="59.683" gradientUnits="userSpaceOnUse"><stop offset="0" stop-color="#1a6dff"/><stop offset="1" stop-color="#c822ff"/></linearGradient><path fill="url(#SVGID_4_)" d="M37,15H27c-1.1,0-2,0.9-2,2v2c0,1.1,0.9,2,2,2h10c1.1,0,2-0.9,2-2v-2C39,15.9,38.1,15,37,15z M27,19v-2h10l0,2 H27z"/><linearGradient id="SVGID_5_" x1="32" x2="32" y1="5.085" y2="59.683" gradientUnits="userSpaceOnUse"><stop offset="0" stop-color="#1a6dff"/><stop offset="1" stop-color="#c822ff"/></linearGradient><path fill="url(#SVGID_5_)" d="M26.1,43h11.8c1.1,0,2.1-0.9,2.1-2.1v-1.8c0-1.1-0.9-2.1-2.1-2.1H26.1c-1.1,0-2.1,0.9-2.1,2.1v1.8 C24,42.1,24.9,43,26.1,43z M26,39.1C26,39,26,39,26,39.1L37.9,39c0,0,0.1,0,0.1,0.1v1.8c0,0,0,0.1-0.1,0.1H26.1c0,0-0.1,0-0.1-0.1 V39.1z"/><linearGradient id="SVGID_6_" x1="17" x2="17" y1="5.085" y2="59.683" gradientUnits="userSpaceOnUse"><stop offset="0" stop-color="#1a6dff"/><stop offset="1" stop-color="#c822ff"/></linearGradient><rect width="6" height="2" x="14" y="49" fill="url(#SVGID_6_)"/><linearGradient id="SVGID_7_" x1="19" x2="19" y1="5.085" y2="59.683" gradientUnits="userSpaceOnUse"><stop offset="0" stop-color="#1a6dff"/><stop offset="1" stop-color="#c822ff"/></linearGradient><rect width="10" height="2" x="14" y="53" fill="url(#SVGID_7_)"/></svg>