<svg xmlns="http://www.w3.org/2000/svg"  viewBox="0 0 64 64" width="128px" height="128px"><linearGradient id="RmnXZdxu0JhrR5ZQxtae1a" x1="32" x2="32" y1="10" y2="54.907" gradientUnits="userSpaceOnUse" spreadMethod="reflect"><stop offset="0" stop-color="#1a6dff"/><stop offset="1" stop-color="#c822ff"/></linearGradient><path fill="url(#RmnXZdxu0JhrR5ZQxtae1a)" d="M55,19H20v-5c0-1.654-1.346-3-3-3H9c-1.654,0-3,1.346-3,3s1.346,3,3,3h9v3v1v4h27v-2H20v-2h35 c0.552,0,1,0.449,1,1v4c0,0.939-0.448,1.837-1.199,2.4l-13.334,10c-0.517,0.387-1.155,0.6-1.8,0.6H21c-1.654,0-3,1.346-3,3v3.101 c-2.279,0.465-4,2.484-4,4.899c0,2.757,2.243,5,5,5c2.415,0,4.434-1.721,4.899-4h8.202c0.465,2.279,2.484,4,4.899,4 c2.757,0,5-2.243,5-5s-2.243-5-5-5c-2.415,0-4.434,1.721-4.899,4h-8.202C23.5,47.044,21.956,45.5,20,45.101V42c0-0.551,0.448-1,1-1 h18.667c1.074,0,2.14-0.355,2.999-1l13.335-10C57.253,29.061,58,27.565,58,26v-4C58,20.346,56.654,19,55,19z M9,15 c-0.552,0-1-0.449-1-1s0.448-1,1-1h8c0.552,0,1,0.449,1,1v1H9z M37,47c1.654,0,3,1.346,3,3s-1.346,3-3,3s-3-1.346-3-3 S35.346,47,37,47z M22,50c0,1.654-1.346,3-3,3s-3-1.346-3-3s1.346-3,3-3S22,48.346,22,50z"/><linearGradient id="RmnXZdxu0JhrR5ZQxtae1b" x1="29" x2="29" y1="10" y2="54.907" gradientUnits="userSpaceOnUse" spreadMethod="reflect"><stop offset="0" stop-color="#1a6dff"/><stop offset="1" stop-color="#c822ff"/></linearGradient><path fill="url(#RmnXZdxu0JhrR5ZQxtae1b)" d="M18 27H40V29H18z"/><linearGradient id="RmnXZdxu0JhrR5ZQxtae1c" x1="26" x2="26" y1="10" y2="54.907" gradientUnits="userSpaceOnUse" spreadMethod="reflect"><stop offset="0" stop-color="#1a6dff"/><stop offset="1" stop-color="#c822ff"/></linearGradient><path fill="url(#RmnXZdxu0JhrR5ZQxtae1c)" d="M18 31H34V33H18z"/><linearGradient id="RmnXZdxu0JhrR5ZQxtae1d" x1="23" x2="23" y1="10" y2="54.907" gradientUnits="userSpaceOnUse" spreadMethod="reflect"><stop offset="0" stop-color="#1a6dff"/><stop offset="1" stop-color="#c822ff"/></linearGradient><path fill="url(#RmnXZdxu0JhrR5ZQxtae1d)" d="M18 35H28V37H18z"/><linearGradient id="RmnXZdxu0JhrR5ZQxtae1e" x1="28" x2="28" y1="8.75" y2="17.557" gradientUnits="userSpaceOnUse" spreadMethod="reflect"><stop offset="0" stop-color="#6dc7ff"/><stop offset="1" stop-color="#e6abff"/></linearGradient><path fill="url(#RmnXZdxu0JhrR5ZQxtae1e)" d="M34,17H22v-7c0-0.552,0.448-1,1-1h10c0.552,0,1,0.448,1,1V17z"/><linearGradient id="RmnXZdxu0JhrR5ZQxtae1f" x1="41" x2="41" y1="8.75" y2="17.557" gradientUnits="userSpaceOnUse" spreadMethod="reflect"><stop offset="0" stop-color="#6dc7ff"/><stop offset="1" stop-color="#e6abff"/></linearGradient><path fill="url(#RmnXZdxu0JhrR5ZQxtae1f)" d="M46,17H36v-3c0-0.552,0.448-1,1-1h8c0.552,0,1,0.448,1,1V17z"/></svg>