<svg xmlns="http://www.w3.org/2000/svg"  viewBox="0 0 64 64" width="128px" height="128px"><linearGradient id="QrqhqDcB0HxOakMiS_GcSa" x1="32" x2="32" y1="8.125" y2="56.528" gradientUnits="userSpaceOnUse" spreadMethod="reflect"><stop offset="0" stop-color="#1a6dff"/><stop offset="1" stop-color="#c822ff"/></linearGradient><path fill="url(#QrqhqDcB0HxOakMiS_GcSa)" d="M32,55.995c-1.221,0-2.44-0.444-3.392-1.331L6.963,34.457C6.352,33.887,6,33.078,6,32.239 v-1.146C6,29.391,7.346,28,9,28h6.002C16.655,28,18,26.66,18,25.007V11.005C18,9.351,19.346,8,21,8h22c1.654,0,3,1.351,3,3.005 v14.061C46,26.687,47.318,28,48.939,28H55c1.654,0,3,1.391,3,3.094v1.146c0,0.838-0.351,1.646-0.963,2.218L35.392,54.664 C34.44,55.551,33.221,55.995,32,55.995z M9,30c-0.532,0-1,0.514-1,1.094v1.146c0,0.286,0.119,0.561,0.327,0.755l21.646,20.207 c1.137,1.061,2.916,1.063,4.053,0l21.646-20.207C55.881,32.8,56,32.524,56,32.239v-1.146C56,30.514,55.532,30,55,30h-6.061 C46.216,30,44,27.789,44,25.065V11.005C44,10.453,43.552,10,43,10H21c-0.552,0-1,0.453-1,1.005v14.002 C20,27.763,17.758,30,15.002,30H9z"/><linearGradient id="QrqhqDcB0HxOakMiS_GcSb" x1="32" x2="32" y1="18.625" y2="42.262" gradientUnits="userSpaceOnUse" spreadMethod="reflect"><stop offset="0" stop-color="#6dc7ff"/><stop offset="1" stop-color="#e6abff"/></linearGradient><path fill="url(#QrqhqDcB0HxOakMiS_GcSb)" d="M29,23h9v-2h-5v-2h-2v2h-2c-1.654,0-3,1.351-3,3.005v4C26,29.659,27.346,31,29,31h6 c0.552,0,1,0.453,1,1.005v4C36,36.557,35.552,37,35,37h-9v2h5v2h2v-2h2c1.654,0,3-1.341,3-2.995v-4C38,30.351,36.654,29,35,29h-6 c-0.552,0-1-0.443-1-0.995v-4C28,23.453,28.448,23,29,23z"/><linearGradient id="QrqhqDcB0HxOakMiS_GcSc" x1="51" x2="51" y1="8.125" y2="56.523" gradientUnits="userSpaceOnUse" spreadMethod="reflect"><stop offset="0" stop-color="#1a6dff"/><stop offset="1" stop-color="#c822ff"/></linearGradient><path fill="url(#QrqhqDcB0HxOakMiS_GcSc)" d="M54,26h-4c-1.103,0-2-0.893-2-1.995V13h2v11h4V26z"/><linearGradient id="QrqhqDcB0HxOakMiS_GcSd" x1="13" x2="13" y1="8.125" y2="56.523" gradientUnits="userSpaceOnUse" spreadMethod="reflect"><stop offset="0" stop-color="#1a6dff"/><stop offset="1" stop-color="#c822ff"/></linearGradient><path fill="url(#QrqhqDcB0HxOakMiS_GcSd)" d="M14,26h-4v-2h4V13h2v11.005C16,25.107,15.103,26,14,26z"/></svg>