<svg xmlns="http://www.w3.org/2000/svg"  viewBox="0 0 64 64" width="128px" height="128px"><linearGradient id="surEuxkNHfYpZ3j7nu6fba" x1="32" x2="32" y1="35.125" y2="38.894" gradientUnits="userSpaceOnUse" spreadMethod="reflect"><stop offset="0" stop-color="#6dc7ff"/><stop offset="1" stop-color="#e6abff"/></linearGradient><path fill="url(#surEuxkNHfYpZ3j7nu6fba)" d="M28 36H36V38H28z"/><linearGradient id="surEuxkNHfYpZ3j7nu6fbb" x1="32" x2="32" y1="10.333" y2="54.503" gradientUnits="userSpaceOnUse" spreadMethod="reflect"><stop offset="0" stop-color="#1a6dff"/><stop offset="1" stop-color="#c822ff"/></linearGradient><path fill="url(#surEuxkNHfYpZ3j7nu6fbb)" d="M14,29h2V18h32v11h2V18h2v-3c0-1.654-1.346-3-3-3H15c-1.654,0-3,1.346-3,3v3h2V29z M14,15 c0-0.552,0.448-1,1-1h34c0.552,0,1,0.448,1,1v1H14V15z"/><linearGradient id="surEuxkNHfYpZ3j7nu6fbc" x1="31.5" x2="31.5" y1="10.333" y2="54.503" gradientUnits="userSpaceOnUse" spreadMethod="reflect"><stop offset="0" stop-color="#1a6dff"/><stop offset="1" stop-color="#c822ff"/></linearGradient><path fill="url(#surEuxkNHfYpZ3j7nu6fbc)" d="M27,20c-1.103,0-2,0.897-2,2v2c0,1.103,0.897,2,2,2h9c1.103,0,2-0.897,2-2v-2 c0-1.103-0.897-2-2-2H27z M36,24h-9v-2h9V24z"/><linearGradient id="surEuxkNHfYpZ3j7nu6fbd" x1="32" x2="32" y1="10.333" y2="54.503" gradientUnits="userSpaceOnUse" spreadMethod="reflect"><stop offset="0" stop-color="#1a6dff"/><stop offset="1" stop-color="#c822ff"/></linearGradient><path fill="url(#surEuxkNHfYpZ3j7nu6fbd)" d="M57.5,12c-1.93,0-3.5,1.57-3.5,3.5V19h0.074l-3.503,15.104 c-0.005,0.021-0.017,0.071-0.088,0.089c-0.07,0.012-0.107-0.022-0.12-0.038l-3.256-3.799c-0.702-0.819-1.725-1.313-2.803-1.354 c-1.063-0.046-2.134,0.373-2.896,1.135c-0.96,0.96-1.353,2.374-1.022,3.691L41.93,40H22.07l1.543-6.172 c0.33-1.317-0.063-2.731-1.022-3.69c-0.763-0.763-1.823-1.185-2.896-1.136c-1.078,0.041-2.101,0.534-2.804,1.354l-3.254,3.797 c-0.015,0.017-0.051,0.055-0.121,0.039c-0.071-0.018-0.083-0.067-0.087-0.086L9.926,19H10v-3.5c0-1.93-1.57-3.5-3.5-3.5 S3,13.57,3,15.5v4.18V20v21.153c0,0.864,0.337,1.678,0.948,2.289l0.611,0.61C3.668,44.255,3,45.049,3,46v4c0,1.103,0.897,2,2,2h16 c1.103,0,2-0.897,2-2v-4c0-1.079-0.861-1.956-1.932-1.993L21.57,42h20.86l0.502,2.007C41.861,44.044,41,44.921,41,46v4 c0,1.103,0.897,2,2,2h16c1.103,0,2-0.897,2-2v-4c0-0.95-0.668-1.745-1.559-1.947l0.61-0.61C60.663,42.831,61,42.018,61,41.153V21 v-1.32V15.5C61,13.57,59.43,12,57.5,12z M6.5,14C7.327,14,8,14.673,8,15.5v0.832C7.594,16.126,7.156,16,6.706,16H6.24 C5.795,16,5.379,16.117,5,16.312V15.5C5,14.673,5.673,14,6.5,14z M5,19.68C5,18.895,5.661,18,6.24,18h0.466 c0.504,0,1.057,0.539,1.206,1.173l3.569,15.388c0.184,0.781,0.782,1.385,1.562,1.575c0.783,0.189,1.589-0.071,2.113-0.681 l3.254-3.797c0.347-0.404,0.83-0.638,1.361-0.658c0.52-0.018,1.029,0.176,1.405,0.553c0.467,0.465,0.656,1.151,0.497,1.791L19.01,44 H7.335l-1.973-1.972C5.129,41.795,5,41.483,5,41.153V20V19.68z M5,46h2v4H5V46z M21,50H9v-4h12V50z M57.5,14 c0.827,0,1.5,0.673,1.5,1.5v0.812C58.621,16.117,58.205,16,57.76,16h-0.466c-0.45,0-0.888,0.126-1.294,0.332V15.5 C56,14.673,56.673,14,57.5,14z M43,46h12v4H43V46z M59,50h-2v-4h2V50z M59,41.153c0,0.33-0.129,0.642-0.362,0.875L56.666,44H44.99 l-2.664-10.656c-0.159-0.64,0.03-1.326,0.497-1.792c0.376-0.376,0.885-0.565,1.405-0.552c0.531,0.021,1.015,0.254,1.36,0.657 l3.256,3.799c0.523,0.61,1.332,0.871,2.112,0.68c0.779-0.19,1.378-0.794,1.563-1.578l3.567-15.381C56.237,18.539,56.79,18,57.294,18 h0.466c0.579,0,1.24,0.895,1.24,1.68V21V41.153z"/><linearGradient id="surEuxkNHfYpZ3j7nu6fbe" x1="31.5" x2="31.5" y1="20.75" y2="25.252" gradientUnits="userSpaceOnUse" spreadMethod="reflect"><stop offset="0" stop-color="#6dc7ff"/><stop offset="1" stop-color="#e6abff"/></linearGradient><path fill="url(#surEuxkNHfYpZ3j7nu6fbe)" d="M27 22H36V24H27z"/></svg>